%FSTAX23Y23*%
%MOIN*%
%SFA1B1*%

%IPPOS*%
%ADD14C,0.005000*%
%ADD18C,0.050000*%
%ADD19C,0.059000*%
%ADD20C,0.089000*%
%ADD21C,0.015900*%
%ADD22C,0.029500*%
%LNaltium_eib_128_panel-1*%
%LPD*%
G54D14*
X01171Y01674D02*
X02037D01*
X01171Y01669D02*
X02037D01*
X01171Y01664D02*
X0204D01*
X01168Y01659D02*
X02044D01*
X01163Y01655D02*
X01458D01*
X01484D02*
X02049D01*
X02082Y01684D02*
X02103D01*
X02082Y01679D02*
X02098D01*
X02082Y01674D02*
X02094D01*
X02082Y01669D02*
X02094D01*
X02079Y01664D02*
X02094D01*
X02075Y01659D02*
X02094D01*
X0207Y01655D02*
X02095D01*
X02117Y01494D02*
X02134D01*
X02122Y01499D02*
X02134D01*
X02126Y01504D02*
X02139D01*
X02126Y01509D02*
X02144D01*
X02159Y01528D02*
X02181D01*
X02164Y01533D02*
X0218D01*
X02169Y01538D02*
X02179D01*
X0217Y01543D02*
X02178D01*
X0217Y01548D02*
X02178D01*
X0217Y01553D02*
X02177D01*
X0217Y01558D02*
X02175D01*
X02165Y01562D02*
X02174D01*
X0216Y01567D02*
X02173D01*
X02116D02*
X02135D01*
X02116Y01562D02*
X0213D01*
X02115Y01558D02*
X02125D01*
X0211Y01553D02*
X02125D01*
X02105Y01548D02*
X02125D01*
X02115Y01533D02*
X02131D01*
X0212Y01528D02*
X02136D01*
X02124Y01524D02*
X02181D01*
X02168Y01509D02*
X02174D01*
X02126Y01514D02*
X02179D01*
X02126Y01519D02*
X02182D01*
X01758Y00748D02*
X01779D01*
X01753Y00752D02*
X01774D01*
X01748Y00757D02*
X01769D01*
X01713Y00767D02*
X01769D01*
X01713Y00762D02*
X01769D01*
X01709Y00757D02*
X01724D01*
X01704Y00752D02*
X01719D01*
X00902Y00859D02*
X00923D01*
X00914Y00912D02*
X0093D01*
X009Y00898D02*
X0092D01*
X00905Y00893D02*
X0092D01*
X0091Y00888D02*
X0092D01*
X00911Y00883D02*
X00922D01*
X00911Y00879D02*
X00927D01*
X00911Y00874D02*
X00931D01*
X00911Y00869D02*
X00969D01*
X00907Y00864D02*
X00966D01*
X00997Y00782D02*
X01016D01*
X01002Y00786D02*
X01021D01*
X01047Y00806D02*
X01062D01*
X01051Y00811D02*
X01067D01*
X01056Y00815D02*
X01072D01*
X01291Y00646D02*
X01338D01*
X01282Y00685D02*
X01342D01*
X01282Y0068D02*
X01337D01*
X01282Y00675D02*
X01332D01*
X01282Y0067D02*
X0133D01*
X01277Y00665D02*
X0133D01*
X01156Y0068D02*
X01185D01*
X01186Y0067D02*
X01238D01*
X01236Y00655D02*
X0133D01*
X01272Y0066D02*
X0133D01*
X01263Y00651D02*
X01333D01*
X01318Y00641D02*
X01343D01*
X01404Y00636D02*
X01447D01*
X01362Y00685D02*
X01462D01*
X01367Y0068D02*
X01457D01*
X01372Y00675D02*
X01452D01*
X01374Y0067D02*
X0145D01*
X01374Y00665D02*
X0145D01*
X01374Y0066D02*
X0145D01*
X01374Y00655D02*
X0145D01*
X01371Y00651D02*
X01453D01*
X01366Y00646D02*
X01458D01*
X01343Y00641D02*
X01361D01*
X0133Y00654D02*
X01343Y00641D01*
X0133Y00654D02*
Y00672D01*
X01343Y00685*
X01361*
X01374Y00672*
Y00654D02*
Y00672D01*
X01361Y00641D02*
X01374Y00654D01*
X01361Y00641D02*
X01463D01*
X01481D02*
X01497D01*
X01486Y00646D02*
X01543D01*
X01581Y00665D02*
X01624D01*
X01595Y00752D02*
X01614D01*
X016Y00748D02*
X01614D01*
X01604Y00743D02*
X01614D01*
X01604Y00738D02*
X01616D01*
X01604Y00733D02*
X01621D01*
X01604Y00728D02*
X01626D01*
X01603Y00723D02*
X01659D01*
X01646Y00728D02*
X01664D01*
X01651Y00733D02*
X01669D01*
X01645Y00772D02*
X01668D01*
X0165Y00767D02*
X01668D01*
X01655Y00762D02*
X01668D01*
X01658Y00757D02*
X01673D01*
X01658Y00752D02*
X01677D01*
X01658Y00748D02*
X01714D01*
X01658Y00743D02*
X01714D01*
X01655Y00738D02*
X01714D01*
X01695Y00733D02*
X01714D01*
X017Y00728D02*
X01715D01*
X01704Y00723D02*
X01719D01*
X01704Y00718D02*
X01724D01*
X01704Y00714D02*
X01752D01*
X01644Y00685D02*
X01682D01*
X01634Y00675D02*
X01657D01*
X01639Y0068D02*
X01669D01*
X01586Y0067D02*
X01644D01*
X01581Y00694D02*
X016D01*
X01586Y00689D02*
X016D01*
X01586Y00685D02*
X016D01*
X01586Y0068D02*
X01605D01*
X01586Y00675D02*
X0161D01*
X01576Y0066D02*
X01604D01*
X01494Y00655D02*
X01583D01*
X01491Y00651D02*
X01563D01*
X01494Y0066D02*
X01552D01*
X01494Y00665D02*
X01547D01*
X01494Y0067D02*
X01543D01*
X01492Y00675D02*
X01542D01*
X01487Y0068D02*
X01542D01*
X01481Y00685D02*
X01494Y00672D01*
Y00654D02*
Y00672D01*
X01481Y00641D02*
X01494Y00654D01*
X01463Y00641D02*
X01481D01*
X0145Y00654D02*
X01463Y00641D01*
X0145Y00654D02*
Y00672D01*
X01463Y00685*
X01481*
X01482Y00685D02*
X01542D01*
X01282Y00689D02*
X01542D01*
X01277Y00694D02*
X01547D01*
X01272Y00699D02*
X01552D01*
X00876Y00956D02*
X0131D01*
X00776Y0117D02*
X0134D01*
X00776Y01174D02*
X01329D01*
X00776Y01179D02*
X01322D01*
X00776Y01184D02*
X01318D01*
X00773Y01189D02*
X01313D01*
X00768Y01194D02*
X01311D01*
X0065Y01509D02*
X00656D01*
X00658Y01451D02*
X00897D01*
X00658Y01456D02*
X00885D01*
X00658Y01461D02*
X00879D01*
X00658Y01465D02*
X00874D01*
X00681Y0147D02*
X0087D01*
X00685Y01475D02*
X00868D01*
X00734Y01494D02*
X0077D01*
X00738Y01499D02*
X0077D01*
X00742Y01504D02*
X0077D01*
X00742Y01509D02*
X0077D01*
X00742Y01514D02*
X00772D01*
X00742Y01519D02*
X00777D01*
X00741Y01524D02*
X00782D01*
X00826Y018D02*
X01061D01*
X00831Y01795D02*
X01057D01*
X00811Y01722D02*
X01119D01*
X01102Y01718D02*
X01124D01*
X00809D02*
X01086D01*
X00746Y01742D02*
X0077D01*
X00751Y01737D02*
X00767D01*
X00755Y01732D02*
X00767D01*
X00755Y01727D02*
X00767D01*
X00755Y01722D02*
X00767D01*
X00755Y01718D02*
X00769D01*
X00753Y01713D02*
X00774D01*
X00748Y01708D02*
X00779D01*
X00685Y01684D02*
X00695D01*
X00683Y01679D02*
X0069D01*
X00681Y01674D02*
X00686D01*
X00679Y01669D02*
X00686D01*
X00677Y01664D02*
X00686D01*
X00675Y01659D02*
X00686D01*
X00673Y01655D02*
X00687D01*
X00672Y0165D02*
X00692D01*
X00671Y01645D02*
X00697D01*
X0067Y0164D02*
X00731D01*
X00719Y01645D02*
X00736D01*
X00768Y0163D02*
X01107D01*
X00765Y01635D02*
X01102D01*
X00775Y01655D02*
X0107D01*
X01011Y01689D02*
X01087D01*
X01011Y01693D02*
X01083D01*
X01011Y01698D02*
X01079D01*
X01008Y01703D02*
X01079D01*
X01003Y01708D02*
X01079D01*
X00804Y01713D02*
X01081D01*
X00799Y01708D02*
X00987D01*
X00743Y01703D02*
X00982D01*
X00689Y01693D02*
X00751D01*
X00687Y01689D02*
X00746D01*
X00721Y01684D02*
X00742D01*
X00726Y01679D02*
X00742D01*
X0073Y01674D02*
X00742D01*
X0073Y01669D02*
X00742D01*
X0073Y01664D02*
X00745D01*
X00717Y01643D02*
X0073Y01656D01*
X00699Y01643D02*
X00717D01*
X00686Y01656D02*
X00699Y01643D01*
X00686Y01656D02*
Y01674D01*
X00699Y01687*
X00717*
X0073Y01674*
Y01656D02*
Y01674D01*
Y01659D02*
X00749D01*
X00729Y01655D02*
X00754D01*
X00724Y0165D02*
X01074D01*
X00755Y01645D02*
X01079D01*
X0076Y0164D02*
X01101D01*
X01092Y01645D02*
X01101D01*
X01097Y0165D02*
X01102D01*
X01101Y01655D02*
X01106D01*
X01134Y01674D02*
X0114D01*
X01139Y01679D02*
X01143D01*
X0114Y01684D02*
X01148D01*
X01135Y01698D02*
X01157D01*
X01171Y01727D02*
X01193D01*
X0118Y01742D02*
X01188D01*
X01185Y01747D02*
X01189D01*
X01188Y01752D02*
X01194D01*
X01282Y01761D02*
X01304D01*
X01249Y01781D02*
X01271D01*
X01258Y01824D02*
X0128D01*
X0129Y01805D02*
X01312D01*
X01336Y01815D02*
X01343D01*
X01334Y0181D02*
X01338D01*
X01329Y01805D02*
X01336D01*
X01295Y018D02*
X01336D01*
X01297Y01795D02*
X01336D01*
X01297Y0179D02*
X0134D01*
X01297Y01786D02*
X01301D01*
X01292Y01781D02*
X01297D01*
X01254Y01776D02*
X01297D01*
X01258Y01771D02*
X01297D01*
X01258Y01766D02*
X01299D01*
X01258Y01761D02*
X01264D01*
X01255Y01756D02*
X01259D01*
X0125Y01752D02*
X01258D01*
X01245Y01732D02*
X02013D01*
X0125Y01727D02*
X02013D01*
X0125Y01722D02*
X02013D01*
X0125Y01718D02*
X02015D01*
X01247Y01713D02*
X0202D01*
X01242Y01708D02*
X02025D01*
X01204D02*
X01226D01*
X0121Y01693D02*
X02046D01*
X0121Y01689D02*
X02041D01*
X01205Y01684D02*
X02037D01*
X01168Y01679D02*
X02037D01*
X01163Y01684D02*
X01185D01*
X0114Y01689D02*
X0118D01*
X0114Y01693D02*
X01179D01*
X01171Y01698D02*
X01179D01*
X01176Y01703D02*
X0118D01*
X01179Y01708D02*
X01185D01*
X01179Y01713D02*
X01221D01*
X01179Y01718D02*
X01219D01*
X01176Y01722D02*
X01219D01*
X01213Y01727D02*
X01219D01*
X01218Y01732D02*
X01223D01*
X01228Y01737D02*
X01241D01*
X0125Y01728*
Y01715D02*
Y01728D01*
X01241Y01706D02*
X0125Y01715D01*
X01228Y01706D02*
X01241D01*
X01219Y01715D02*
X01228Y01706D01*
X01219Y01715D02*
Y01728D01*
X01228Y01737*
X01188Y01761D02*
X01227D01*
X01188Y01756D02*
X0123D01*
X01213Y01752D02*
X01235D01*
X01217Y01747D02*
X01258D01*
X01219Y01742D02*
X01258D01*
X01219Y01737D02*
X01262D01*
X01284D02*
X02013D01*
X01288Y01742D02*
X02016D01*
X01288Y01747D02*
X02021D01*
X02049Y01815D02*
X02077D01*
X02054Y01819D02*
X02074D01*
X02055Y01824D02*
X0207D01*
X02055Y01829D02*
X02067D01*
X02055Y01834D02*
X02064D01*
X02055Y01839D02*
X0206D01*
X0205Y01844D02*
X02057D01*
X02045Y01849D02*
X02054D01*
X02009Y01897D02*
X02019D01*
X02014Y01892D02*
X02023D01*
X02019Y01887D02*
X02027D01*
X0202Y01883D02*
X02031D01*
X0202Y01878D02*
X02034D01*
X0202Y01873D02*
X02037D01*
X02019Y01868D02*
X02041D01*
X02015Y01863D02*
X02044D01*
X0201Y01858D02*
X02047D01*
X01956Y01853D02*
X0205D01*
X01923Y01912D02*
X01938D01*
X01923Y01916D02*
X01934D01*
X01923Y01921D02*
X01934D01*
X01918Y01926D02*
X01934D01*
X01913Y01931D02*
X01934D01*
X01776Y02091D02*
X0179D01*
X01781Y02086D02*
X01799D01*
X01785Y02081D02*
X01806D01*
X01785Y02077D02*
X01813D01*
X01785Y02072D02*
X01821D01*
X01834Y02028D02*
X01854D01*
X0183Y02023D02*
X01849D01*
X01785Y02004D02*
X01799D01*
X0178Y01999D02*
X01794D01*
X01775Y01994D02*
X0179D01*
X01509Y0197D02*
X01796D01*
X01518Y01965D02*
X01801D01*
X01828Y0197D02*
X01848D01*
X01823Y01965D02*
X01843D01*
X01546Y01931D02*
X01846D01*
X01546Y01936D02*
X01841D01*
X01542Y01941D02*
X01837D01*
X01539Y01946D02*
X01837D01*
X01536Y0195D02*
X01837D01*
X01533Y01955D02*
X01837D01*
X01528Y0196D02*
X01838D01*
X01564Y02077D02*
X01585D01*
X01569Y02081D02*
X01585D01*
X01574Y02086D02*
X01585D01*
X01575Y02091D02*
X01585D01*
X01575Y02096D02*
X01588D01*
X01575Y02101D02*
X01593D01*
X01608Y02154D02*
X01638D01*
X01607Y0212D02*
X01628D01*
X01612Y02125D02*
X01628D01*
X01615Y0213D02*
X01628D01*
X01615Y02135D02*
X01632D01*
X01615Y0214D02*
X01637D01*
X01615Y02144D02*
X01669D01*
X01668Y02135D02*
X01699D01*
X01719Y0212D02*
X01729D01*
X01724Y02115D02*
X01739D01*
X01729Y0211D02*
X0175D01*
X01732Y02096D02*
X0178D01*
X01732Y02101D02*
X0177D01*
X01732Y02106D02*
X0176D01*
X01732Y02091D02*
X0175D01*
X01729Y02086D02*
X01745D01*
X01724Y02081D02*
X0174D01*
X01719Y02077D02*
X0174D01*
X01726Y02062D02*
X01742D01*
X01731Y02057D02*
X01747D01*
X01736Y02052D02*
X01752D01*
X01737Y02047D02*
X01794D01*
X01774Y02052D02*
X01796D01*
X01779Y02057D02*
X01801D01*
X01784Y02062D02*
X01805D01*
X01785Y02063D02*
Y02082D01*
X01772Y02095D02*
X01785Y02082D01*
X01754Y02095D02*
X01772D01*
X0174Y02082D02*
X01754Y02095D01*
X0174Y02063D02*
Y02082D01*
Y02063D02*
X01754Y0205D01*
X01772*
X01785Y02063*
Y02067D02*
X01828D01*
X01827Y02062D02*
X01836D01*
X01832Y02057D02*
X01843D01*
X01837Y02052D02*
X0185D01*
X01839Y02047D02*
X01858D01*
X01839Y02043D02*
X01865D01*
X01839Y02038D02*
X01872D01*
X01839Y02033D02*
X0188D01*
X01876Y02028D02*
X01886D01*
X0188Y02023D02*
X01892D01*
X01885Y02018D02*
X01898D01*
X01887Y02013D02*
X01904D01*
X01887Y02009D02*
X0191D01*
X01887Y02004D02*
X01916D01*
X01887Y01999D02*
X01922D01*
X01883Y01994D02*
X01927D01*
X01833Y01975D02*
X01891D01*
X01835Y0198D02*
X01895D01*
X01835Y01984D02*
X019D01*
X01835Y01989D02*
X01851D01*
X01835Y01994D02*
X01847D01*
X0183Y01999D02*
X01843D01*
X01825Y02004D02*
X01843D01*
X01787Y02009D02*
X01843D01*
X01787Y02013D02*
X01843D01*
X01787Y02018D02*
X01844D01*
X01787Y02023D02*
X01803D01*
X01784Y02028D02*
X01798D01*
X01794Y02032D02*
Y02051D01*
X01807Y02064*
X01826*
X01839Y02051*
Y02032D02*
Y02051D01*
X01826Y02019D02*
X01839Y02032D01*
X01807Y02019D02*
X01826D01*
X01794Y02032D02*
X01807Y02019D01*
X01779Y02033D02*
X01794D01*
X01774Y02038D02*
X01794D01*
X01737Y02043D02*
X01794D01*
X01737Y02038D02*
X01756D01*
X01736Y02033D02*
X01751D01*
X01731Y02028D02*
X01746D01*
X01727Y02023D02*
X01743D01*
X01447D02*
X01702D01*
X01452Y02018D02*
X01743D01*
X01453Y02013D02*
X01743D01*
X01453Y02009D02*
X01743D01*
X01452Y02004D02*
X01745D01*
X01447Y01999D02*
X0175D01*
X01743Y02006D02*
X01756Y01993D01*
X01743Y02006D02*
Y02025D01*
X01756Y02038*
X01774*
X01787Y02025*
Y02006D02*
Y02025D01*
X01774Y01993D02*
X01787Y02006D01*
X01756Y01993D02*
X01774D01*
X01436Y01994D02*
X01755D01*
X01434Y01989D02*
X0179D01*
X01429Y01984D02*
X0179D01*
X01414Y0198D02*
X0179D01*
Y01976D02*
Y01994D01*
X01803Y02008*
X01821*
X01835Y01994*
Y01976D02*
Y01994D01*
X01821Y01963D02*
X01835Y01976D01*
X01803Y01963D02*
X01821D01*
X0179Y01976D02*
X01803Y01963D01*
X0141Y01975D02*
X01791D01*
X01405Y0197D02*
X01476D01*
X0147Y01954D02*
X01474Y01956D01*
X01477Y01958*
X01481Y01959*
X01485Y0196*
X01489Y01961*
X01493Y01961*
X01497Y01961*
X01501Y0196*
X01505Y01959*
X01509Y01958*
X01513Y01957*
X01516Y01955*
X0152Y01952*
X01523Y0195*
X01526Y01947*
X01528Y01944*
X01531Y0194*
X01533Y01937*
X01534Y01933*
X01535Y01929*
X01536Y01925*
X01537Y01921*
X01537Y01917*
X01537Y01913D02*
X01537Y01917D01*
X01536Y01909D02*
X01537Y01913D01*
X01535Y01905D02*
X01536Y01909D01*
X01533Y01901D02*
X01535Y01905D01*
X01532Y01898D02*
X01533Y01901D01*
X01529Y01894D02*
X01532Y01898D01*
X01527Y01891D02*
X01529Y01894D01*
X01524Y01888D02*
X01527Y01891D01*
X01521Y01885D02*
X01524Y01888D01*
X01518Y01883D02*
X01521Y01885D01*
X01538Y01887D02*
X01927D01*
X01917Y01897D02*
X01986D01*
X01912Y01892D02*
X01981D01*
X0154D02*
X01889D01*
X01542Y01897D02*
X01884D01*
X01545Y01902D02*
X01879D01*
X01547Y01907D02*
X01878D01*
X01547Y01912D02*
X01878D01*
X01547Y01916D02*
X01878D01*
X01547Y01921D02*
X01878D01*
X01546Y01926D02*
X01883D01*
X01872Y01931D02*
X01888D01*
X01877Y01936D02*
X01935D01*
X01936Y01965D02*
X01966D01*
X01936Y0197D02*
X01962D01*
X01936Y01975D02*
X0196D01*
X01933Y0198D02*
X01958D01*
X01928Y01984D02*
X01953D01*
X01878Y01989D02*
X01943D01*
X01856Y01985D02*
X01874D01*
X01843Y01998D02*
X01856Y01985D01*
X01843Y01998D02*
Y02016D01*
X01856Y0203*
X01874*
X01887Y02016*
Y01998D02*
Y02016D01*
X01874Y01985D02*
X01887Y01998D01*
X0187Y0197D02*
X01891D01*
X01875Y01965D02*
X01891D01*
X0188Y0196D02*
X01891D01*
X01881Y01955D02*
X01894D01*
X01881Y0195D02*
X01899D01*
X01881Y01946D02*
X01904D01*
X01881Y0194D02*
Y01959D01*
X01868Y01972D02*
X01881Y01959D01*
X0185Y01972D02*
X01868D01*
X01837Y01959D02*
X0185Y01972D01*
X01837Y0194D02*
Y01959D01*
Y0194D02*
X0185Y01927D01*
X01868*
X01881Y0194*
Y01941D02*
X0194D01*
X01924Y01946D02*
X01945D01*
X01929Y0195D02*
X01986D01*
X01934Y01955D02*
X01984D01*
X01936Y01958D02*
Y01976D01*
X01923Y01989D02*
X01936Y01976D01*
X01904Y01989D02*
X01923D01*
X01891Y01976D02*
X01904Y01989D01*
X01891Y01958D02*
Y01976D01*
Y01958D02*
X01904Y01945D01*
X01923*
X01936Y01958*
Y0196D02*
X01973D01*
X01967Y01946D02*
X01988D01*
X01972Y01941D02*
X01992D01*
X01977Y01936D02*
X01993D01*
X01978Y01931D02*
X01992D01*
X01978Y01926D02*
X01995D01*
X01978Y01921D02*
X01999D01*
X01978Y01916D02*
X02003D01*
X01974Y01912D02*
X02007D01*
X01969Y01907D02*
X02011D01*
X01922Y01902D02*
X02015D01*
X01923Y01903D02*
Y01921D01*
X0191Y01934D02*
X01923Y01921D01*
X01891Y01934D02*
X0191D01*
X01878Y01921D02*
X01891Y01934D01*
X01878Y01903D02*
Y01921D01*
Y01903D02*
X01891Y0189D01*
X0191*
X01923Y01903*
Y01907D02*
X01943D01*
X01934Y01916D02*
X01947Y01903D01*
X01934Y01916D02*
Y01935D01*
X01947Y01948*
X01965*
X01978Y01935*
Y01916D02*
Y01935D01*
X01965Y01903D02*
X01978Y01916D01*
X01947Y01903D02*
X01965D01*
X01954Y01887D02*
X01976D01*
X01959Y01883D02*
X01975D01*
X01963Y01878D02*
X01975D01*
X01963Y01873D02*
X01975D01*
X01963Y01868D02*
X01976D01*
X01963Y01863D02*
X0198D01*
X01961Y01858D02*
X01985D01*
X01975Y01868D02*
X01988Y01855D01*
X01975Y01868D02*
Y01887D01*
X01988Y019*
X02007*
X0202Y01887*
Y01868D02*
Y01887D01*
X02007Y01855D02*
X0202Y01868D01*
X01988Y01855D02*
X02007D01*
X01986Y01805D02*
X02083D01*
X02044Y0181D02*
X0208D01*
X01991D02*
X02021D01*
X01996Y01815D02*
X02016D01*
X01998Y01819D02*
X02011D01*
X01998Y01824D02*
X0201D01*
X01998Y01829D02*
X0201D01*
X01998Y01834D02*
X0201D01*
X01994Y01839D02*
X0201D01*
X01989Y01844D02*
X02015D01*
X02023Y01852D02*
X02042D01*
X02055Y01839*
Y0182D02*
Y01839D01*
X02042Y01807D02*
X02055Y0182D01*
X02023Y01807D02*
X02042D01*
X0201Y0182D02*
X02023Y01807D01*
X0201Y0182D02*
Y01839D01*
X02023Y01852*
X01951Y01849D02*
X0202D01*
X01529Y01834D02*
X01953D01*
X01531Y01839D02*
X01957D01*
X01531Y01844D02*
X01962D01*
X01531Y01849D02*
X0193D01*
X01526Y01853D02*
X01925D01*
X01503D02*
X01505D01*
X01508Y01858D02*
X0192D01*
X01512Y01863D02*
X01919D01*
X01514Y01868D02*
X01919D01*
Y01879D02*
X01932Y01892D01*
X0195*
X01963Y01879*
Y0186D02*
Y01879D01*
X0195Y01847D02*
X01963Y0186D01*
X01932Y01847D02*
X0195D01*
X01919Y0186D02*
X01932Y01847D01*
X01919Y0186D02*
Y01879D01*
X01535Y01883D02*
X01922D01*
X01528Y01878D02*
X01919D01*
X01521Y01873D02*
X01919D01*
X01496Y01868D02*
X01518Y01883D01*
X01401Y01839D02*
X01423D01*
X01368Y01858D02*
X0139D01*
X01377Y01902D02*
X01399D01*
X0141Y01883D02*
X01432D01*
X01414Y01868D02*
X01422D01*
X01413Y01863D02*
X01417D01*
X01408Y01858D02*
X01414D01*
X01373Y01853D02*
X01414D01*
X01375Y01849D02*
X01414D01*
X01375Y01844D02*
X01418D01*
X01375Y01839D02*
X0138D01*
X01371Y01834D02*
X01375D01*
X01336Y01819D02*
X01377D01*
X01336Y01824D02*
X01375D01*
X01332Y01829D02*
X01375D01*
X01305Y01839D02*
X01344D01*
X01305Y01834D02*
X01349D01*
X01305Y01829D02*
X0131D01*
X013Y01824D02*
X01305D01*
X01263Y01819D02*
X01305D01*
X01266Y01815D02*
X01305D01*
Y01812D02*
Y01825D01*
X01314Y01834*
X01327*
X01336Y01825*
Y01812D02*
Y01825D01*
X01327Y01803D02*
X01336Y01812D01*
X01314Y01803D02*
X01327D01*
X01305Y01812D02*
X01314Y01803D01*
X01266Y0181D02*
X01308D01*
X01266Y01805D02*
X01273D01*
X01263Y018D02*
X01268D01*
X01259Y01795D02*
X01266D01*
X01221D02*
X01243D01*
X01226Y0179D02*
X01266D01*
Y01786D02*
Y01798D01*
X01275Y01807*
X01288*
X01297Y01798*
Y01786D02*
Y01798D01*
X01288Y01777D02*
X01297Y01786D01*
X01275Y01777D02*
X01288D01*
X01266Y01786D02*
X01275Y01777D01*
X01227Y01786D02*
X01266D01*
X01227Y01781D02*
X01236D01*
X01226Y01776D02*
X01231D01*
X01227Y01772D02*
X01236Y01781D01*
X01249*
X01258Y01772*
Y01759D02*
Y01772D01*
X01249Y0175D02*
X01258Y01759D01*
X01236Y0175D02*
X01249D01*
X01227Y01759D02*
X01236Y0175D01*
X01227Y01759D02*
Y01772D01*
X01222Y01771D02*
X01227D01*
X01185Y01766D02*
X01227D01*
X01097Y01815D02*
X01153D01*
X01103Y01819D02*
X01148D01*
X01108Y01824D02*
X01148D01*
X01108Y01829D02*
X01148D01*
X01108Y01834D02*
X01149D01*
X01111Y01839D02*
X01154D01*
X01129Y01868D02*
X01144D01*
X01126Y01863D02*
X01143D01*
X01121Y01858D02*
X01143D01*
X01118Y01853D02*
X01145D01*
X01118Y01849D02*
X0115D01*
X01116Y01844D02*
X0119D01*
X01178Y01834D02*
X01275D01*
X01179Y01829D02*
X01275D01*
X01179Y01824D02*
X01244D01*
X01178Y01819D02*
X01239D01*
X01173Y01815D02*
X01235D01*
X01097Y0181D02*
X01235D01*
X01097Y01805D02*
X01235D01*
Y01803D02*
Y01816D01*
X01244Y01825*
X01257*
X01266Y01816*
Y01803D02*
Y01816D01*
X01257Y01794D02*
X01266Y01803D01*
X01244Y01794D02*
X01257D01*
X01235Y01803D02*
X01244Y01794D01*
X01094Y018D02*
X01238D01*
X01089Y01795D02*
X01202D01*
X01086Y0179D02*
X01197D01*
X01086Y01786D02*
X01196D01*
X01086Y01781D02*
X01196D01*
X01081Y01776D02*
X01197D01*
X01196Y01777D02*
X01205Y01767D01*
X01196Y01777D02*
Y01789D01*
X01205Y01798*
X01218*
X01227Y01789*
Y01777D02*
Y01789D01*
X01218Y01767D02*
X01227Y01777D01*
X01205Y01767D02*
X01218D01*
X0118Y01771D02*
X01202D01*
X01075D02*
X01165D01*
X01075Y01766D02*
X0116D01*
X01075Y01761D02*
X01157D01*
X01072Y01756D02*
X01157D01*
X01067Y01752D02*
X01157D01*
X00831Y01761D02*
X01036D01*
X00836Y01766D02*
X01044D01*
X00839Y01771D02*
X01044D01*
X00839Y01776D02*
X01048D01*
X00839Y01781D02*
X01053D01*
X00839Y01786D02*
X01055D01*
X00835Y0179D02*
X01055D01*
X00859Y01805D02*
X01066D01*
X00864Y0181D02*
X01066D01*
X00869Y01815D02*
X01066D01*
X00871Y01819D02*
X0107D01*
X00871Y01824D02*
X01077D01*
X00871Y01829D02*
X01077D01*
X00871Y01834D02*
X01077D01*
X00867Y01839D02*
X01079D01*
X00897Y01887D02*
X01107D01*
X00902Y01883D02*
X01102D01*
X00906Y01878D02*
X01098D01*
X00906Y01873D02*
X01098D01*
X00906Y01868D02*
X01098D01*
X00906Y01863D02*
X01092D01*
X00904Y01858D02*
X01087D01*
X00899Y01853D02*
X01087D01*
X00894Y01849D02*
X01087D01*
X00862Y01844D02*
X01084D01*
X00843Y01892D02*
X00912D01*
X00838Y01897D02*
X00907D01*
X00806D02*
X00815D01*
X00803Y01892D02*
X0081D01*
X00799Y01887D02*
X00805D01*
X00795Y01883D02*
X00804D01*
X00791Y01878D02*
X00804D01*
X00788Y01873D02*
X00804D01*
X00784Y01868D02*
X00805D01*
X0078Y01863D02*
X00809D01*
X00776Y01858D02*
X00814D01*
X00804Y01849D02*
X00873D01*
X00773Y01853D02*
X00868D01*
X00769Y01849D02*
X00779D01*
X00765Y01844D02*
X00774D01*
X00763Y01839D02*
X00769D01*
X0076Y01834D02*
X00769D01*
X00757Y01829D02*
X00769D01*
X00754Y01824D02*
X00769D01*
X00751Y01819D02*
X0077D01*
X00749Y01815D02*
X00775D01*
X00746Y0181D02*
X0078D01*
X00737Y01795D02*
X00746D01*
X00735Y0179D02*
X00741D01*
X00732Y01786D02*
X00737D01*
X00729Y01781D02*
X00737D01*
X00726Y01776D02*
X00737D01*
X00723Y01771D02*
X00737D01*
X00721Y01766D02*
X00738D01*
X00718Y01761D02*
X00743D01*
X00715Y01756D02*
X00748D01*
X00713Y01752D02*
X01027D01*
X00826Y01756D02*
X01031D01*
X00803Y01747D02*
X01027D01*
X00808Y01742D02*
X01027D01*
X00811Y01737D02*
X0103D01*
X00811Y01732D02*
X01034D01*
X00811Y01727D02*
X01118D01*
X0105Y01732D02*
X01118D01*
X01055Y01737D02*
X01118D01*
X01058Y01742D02*
X01123D01*
X01058Y01747D02*
X0116D01*
X01157Y0175D02*
X01166Y01741D01*
X01157Y0175D02*
Y01763D01*
X01166Y01772*
X01179*
X01188Y01763*
Y0175D02*
Y01763D01*
X01179Y01741D02*
X01188Y0175D01*
X01166Y01741D02*
X01179D01*
X01143Y01742D02*
X01165D01*
X01148Y01737D02*
X01188D01*
Y01733D02*
Y01746D01*
X01197Y01755*
X0121*
X01219Y01746*
Y01733D02*
Y01746D01*
X0121Y01724D02*
X01219Y01733D01*
X01197Y01724D02*
X0121D01*
X01188Y01733D02*
X01197Y01724D01*
X01149Y01732D02*
X01188D01*
X01149Y01727D02*
X01157D01*
X01148Y01722D02*
X01152D01*
X01127Y01715D02*
X0114D01*
X01118Y01724D02*
X01127Y01715D01*
X01118Y01724D02*
Y01736D01*
X01127Y01746*
X0114*
X01149Y01736*
Y01724D02*
Y01736D01*
X0114Y01715D02*
X01149Y01724D01*
X01143Y01718D02*
X01149D01*
X01107Y01713D02*
X01149D01*
X0111Y01708D02*
X01149D01*
Y01706D02*
Y01719D01*
X01158Y01728*
X0117*
X01179Y01719*
Y01706D02*
Y01719D01*
X0117Y01697D02*
X01179Y01706D01*
X01158Y01697D02*
X0117D01*
X01149Y01706D02*
X01158Y01697D01*
X0111Y01703D02*
X01152D01*
X0111Y01698D02*
X01115D01*
X01106Y01693D02*
X0111D01*
X01088Y01688D02*
X01101D01*
X01079Y01697D02*
X01088Y01688D01*
X01079Y01697D02*
Y0171D01*
X01088Y01719*
X01101*
X0111Y0171*
Y01697D02*
Y0171D01*
X01101Y01688D02*
X0111Y01697D01*
X01101Y01689D02*
X01109D01*
X01006Y01684D02*
X01109D01*
X00991Y01669D02*
X01073D01*
X00991Y01674D02*
X01078D01*
X00991Y01679D02*
X01111D01*
X01109Y0168D02*
X01118Y01671D01*
X01109Y0168D02*
Y01693D01*
X01118Y01702*
X01131*
X0114Y01693*
Y0168D02*
Y01693D01*
X01131Y01671D02*
X0114Y0168D01*
X01118Y01671D02*
X01131D01*
X01093Y01674D02*
X01115D01*
X01101Y01654D02*
Y01666D01*
X01092Y01644D02*
X01101Y01654D01*
X01079Y01644D02*
X01092D01*
X0107Y01654D02*
X01079Y01644D01*
X0107Y01654D02*
Y01666D01*
X01079Y01675*
X01092*
X01101Y01666*
X01098Y01669D02*
X0114D01*
X01101Y01664D02*
X0114D01*
X01101Y01659D02*
X01143D01*
X0114Y01663D02*
X01149Y01654D01*
X0114Y01663D02*
Y01675D01*
X01149Y01684*
X01162*
X01171Y01675*
Y01663D02*
Y01675D01*
X01162Y01654D02*
X01171Y01663D01*
X01149Y01654D02*
X01162D01*
X01126Y01655D02*
X01148D01*
X01131Y0165D02*
X01447D01*
X01132Y01645D02*
X01441D01*
X01132Y0164D02*
X01436D01*
X01131Y01635D02*
X01431D01*
X0111Y01627D02*
X01123D01*
X01101Y01636D02*
X0111Y01627D01*
X01101Y01636D02*
Y01649D01*
X0111Y01658*
X01123*
X01132Y01649*
Y01636D02*
Y01649D01*
X01123Y01627D02*
X01132Y01636D01*
X01126Y0163D02*
X01429D01*
X00768Y01625D02*
X01427D01*
X00768Y01621D02*
X01425D01*
X01482Y01562D02*
X02071D01*
X01493Y01567D02*
X02071D01*
X01501Y01572D02*
X02071D01*
X01506Y01577D02*
X02071D01*
X01511Y01582D02*
X02076D01*
X01513Y01587D02*
X02081D01*
X01518Y01601D02*
X02069D01*
X01518Y01606D02*
X02064D01*
X01518Y01611D02*
X02059D01*
X01518Y01616D02*
X02056D01*
X01517Y01621D02*
X02056D01*
X01515Y01625D02*
X02056D01*
X01513Y0163D02*
X02056D01*
X01511Y01635D02*
X02059D01*
X01507Y0164D02*
X02064D01*
X01502Y01645D02*
X02069D01*
X01495Y0165D02*
X021D01*
X02093Y0164D02*
X02155D01*
X02088Y01645D02*
X02105D01*
X02127D02*
X02154D01*
X02132Y0165D02*
X02152D01*
X02137Y01655D02*
X0215D01*
X02138Y01659D02*
X02148D01*
X02138Y01664D02*
X02146D01*
X02138Y01669D02*
X02145D01*
X02138Y01674D02*
X02143D01*
X02134Y01679D02*
X02141D01*
X02125Y01687D02*
X02138Y01674D01*
Y01656D02*
Y01674D01*
X02125Y01643D02*
X02138Y01656D01*
X02107Y01643D02*
X02125D01*
X02094Y01656D02*
X02107Y01643D01*
X02094Y01656D02*
Y01674D01*
X02107Y01687*
X02125*
X02129Y01684D02*
X02139D01*
X02078Y01689D02*
X02137D01*
X02069Y01698D02*
X02082Y01685D01*
Y01667D02*
Y01685D01*
X02069Y01654D02*
X02082Y01667D01*
X0205Y01654D02*
X02069D01*
X02037Y01667D02*
X0205Y01654D01*
X02037Y01667D02*
Y01685D01*
X0205Y01698*
X02069*
X02073Y01693D02*
X02136D01*
X02105Y01742D02*
X02115D01*
X0211Y01737D02*
X02118D01*
X02114Y01732D02*
X0212D01*
X02114Y01727D02*
X02123D01*
X02114Y01722D02*
X02125D01*
X02114Y01718D02*
X02126D01*
X02112Y01713D02*
X02128D01*
X02107Y01708D02*
X0213D01*
X02103Y01703D02*
X02132D01*
X0121Y01698D02*
X02134D01*
X0121Y01689D02*
Y01702D01*
X01201Y0168D02*
X0121Y01689D01*
X01188Y0168D02*
X01201D01*
X01179Y01689D02*
X01188Y0168D01*
X01179Y01689D02*
Y01702D01*
X01188Y01711*
X01201*
X0121Y01702*
X01209Y01703D02*
X02081D01*
X02045Y01708D02*
X02076D01*
X0205Y01713D02*
X02071D01*
X02055Y01718D02*
X0207D01*
X02057Y01722D02*
X0207D01*
X02057Y01727D02*
X0207D01*
X02057Y01732D02*
X0207D01*
X02057Y01737D02*
X02074D01*
X02054Y01742D02*
X02078D01*
X02083Y01746D02*
X02101D01*
X02114Y01733*
Y01715D02*
Y01733D01*
X02101Y01702D02*
X02114Y01715D01*
X02083Y01702D02*
X02101D01*
X0207Y01715D02*
X02083Y01702D01*
X0207Y01715D02*
Y01733D01*
X02083Y01746*
X02076Y01756D02*
X02108D01*
X02081Y01761D02*
X02105D01*
X02086Y01766D02*
X02103D01*
X02087Y01771D02*
X021D01*
X02087Y01776D02*
X02098D01*
X02087Y01781D02*
X02095D01*
X02087Y01786D02*
X02093D01*
X02083Y0179D02*
X0209D01*
X02078Y01795D02*
X02088D01*
X02017Y018D02*
X02085D01*
X02022Y01795D02*
X02052D01*
X02027Y0179D02*
X02047D01*
X0203Y01786D02*
X02043D01*
X0203Y01781D02*
X02043D01*
X0203Y01776D02*
X02043D01*
Y01768D02*
Y01786D01*
X02056Y01799*
X02074*
X02087Y01786*
Y01768D02*
Y01786D01*
X02074Y01755D02*
X02087Y01768D01*
X02056Y01755D02*
X02074D01*
X02043Y01768D02*
X02056Y01755D01*
X0203Y01771D02*
X02043D01*
X02027Y01766D02*
X02044D01*
X02022Y01761D02*
X02049D01*
X02018Y01756D02*
X02054D01*
X02044Y01751D02*
X02057Y01738D01*
Y0172D02*
Y01738D01*
X02044Y01707D02*
X02057Y0172D01*
X02026Y01707D02*
X02044D01*
X02013Y0172D02*
X02026Y01707D01*
X02013Y0172D02*
Y01738D01*
X02026Y01751*
X02044*
X02049Y01747D02*
X02113D01*
X01288Y01752D02*
X0211D01*
X01288Y01742D02*
Y01755D01*
X01279Y01733D02*
X01288Y01742D01*
X01267Y01733D02*
X01279D01*
X01258Y01742D02*
X01267Y01733D01*
X01258Y01742D02*
Y01755D01*
X01267Y01764*
X01279*
X01288Y01755*
X01287Y01756D02*
X01998D01*
X01321Y01761D02*
X01993D01*
X01325Y01766D02*
X01988D01*
X01328Y01771D02*
X01985D01*
X01328Y01776D02*
X01985D01*
X01328Y01781D02*
X01985D01*
X01328Y01768D02*
Y01781D01*
X01319Y01759D02*
X01328Y01768D01*
X01306Y01759D02*
X01319D01*
X01297Y01768D02*
X01306Y01759D01*
X01297Y01768D02*
Y01781D01*
X01306Y0179*
X01319*
X01328Y01781*
X01323Y01786D02*
X01985D01*
X01362Y0179D02*
X01989D01*
X01367Y01795D02*
X01993D01*
X01999Y018D02*
X02017D01*
X0203Y01787*
Y01769D02*
Y01787D01*
X02017Y01756D02*
X0203Y01769D01*
X01999Y01756D02*
X02017D01*
X01985Y01769D02*
X01999Y01756D01*
X01985Y01769D02*
Y01787D01*
X01999Y018*
X01367Y018D02*
X01998D01*
X01367Y01805D02*
X01965D01*
X01365Y0181D02*
X0196D01*
X01358Y01817D02*
X01367Y01808D01*
Y01795D02*
Y01808D01*
X01358Y01786D02*
X01367Y01795D01*
X01345Y01786D02*
X01358D01*
X01336Y01795D02*
X01345Y01786D01*
X01336Y01795D02*
Y01808D01*
X01345Y01817*
X01358*
X0136Y01815D02*
X01382D01*
X01399D02*
X01955D01*
X01953Y01816D02*
Y01835D01*
X01966Y01848*
X01985*
X01998Y01835*
Y01816D02*
Y01835D01*
X01985Y01803D02*
X01998Y01816D01*
X01966Y01803D02*
X01985D01*
X01953Y01816D02*
X01966Y01803D01*
X01404Y01819D02*
X01953D01*
X01406Y01824D02*
X01953D01*
X01524Y01829D02*
X01953D01*
X01406D02*
X01507D01*
X01406Y01821D02*
Y01834D01*
X01397Y01812D02*
X01406Y01821D01*
X01384Y01812D02*
X01397D01*
X01375Y01821D02*
X01384Y01812D01*
X01375Y01821D02*
Y01834D01*
X01384Y01843*
X01397*
X01406Y01834*
X01406Y01834D02*
X01502D01*
X01436Y01839D02*
X015D01*
X01441Y01844D02*
X015D01*
Y01849D02*
X01509Y01858D01*
X01522*
X01531Y01849*
Y01836D02*
Y01849D01*
X01522Y01827D02*
X01531Y01836D01*
X01509Y01827D02*
X01522D01*
X015Y01836D02*
X01509Y01827D01*
X015Y01836D02*
Y01849D01*
X01445Y01849D02*
X015D01*
X01445Y01853D02*
X01489D01*
X01445Y01858D02*
X01484D01*
X01442Y01863D02*
X01462D01*
X01436Y01869D02*
X01445Y0186D01*
Y01848D02*
Y0186D01*
X01436Y01839D02*
X01445Y01848D01*
X01423Y01839D02*
X01436D01*
X01414Y01848D02*
X01423Y01839D01*
X01414Y01848D02*
Y0186D01*
X01423Y01869*
X01436*
X01438Y01868D02*
X01458D01*
X01445Y01883D02*
X0146D01*
X0145Y01887D02*
X01463D01*
X01454Y01892D02*
X01459D01*
X01454Y01897D02*
X01456D01*
X01451Y01907D02*
X01452D01*
X01446Y01912D02*
X01451D01*
X01418Y01926D02*
X01442D01*
X01414Y0193D02*
X01423Y01921D01*
X01401Y0193D02*
X01414D01*
X01237Y02072D02*
X01588D01*
X01617Y02062D02*
X01641D01*
X01622Y02067D02*
X01641D01*
X01627Y02072D02*
X01641D01*
X0163Y02077D02*
X01643D01*
X0163Y02081D02*
X01648D01*
X0163Y02086D02*
X01653D01*
X01621Y02101D02*
X01639D01*
X01575Y02106D02*
X01634D01*
X01566Y02115D02*
X01628D01*
X01571Y0211D02*
X01629D01*
X01245Y0212D02*
X01579D01*
X01231Y02101D02*
X01249D01*
X01236Y02096D02*
X01249D01*
X01239Y02091D02*
X01249D01*
X01239Y02086D02*
X0125D01*
X01239Y02081D02*
X01255D01*
X01239Y02077D02*
X0126D01*
X01282D02*
X01542D01*
X01287Y02081D02*
X01537D01*
X01292Y02086D02*
X01532D01*
X01293Y02091D02*
X01531D01*
X01293Y02096D02*
X01531D01*
X01293Y02101D02*
X01531D01*
X01293Y02106D02*
X01531D01*
X01289Y0211D02*
X01535D01*
X01284Y02115D02*
X0154D01*
X01544Y02119D02*
X01562D01*
X01575Y02106*
Y02088D02*
Y02106D01*
X01562Y02075D02*
X01575Y02088D01*
X01544Y02075D02*
X01562D01*
X01531Y02088D02*
X01544Y02075D01*
X01531Y02088D02*
Y02106D01*
X01544Y02119*
X01486Y02178D02*
X01533D01*
X01494Y02169D02*
X01588D01*
X01491Y02174D02*
X01561D01*
X01481Y02183D02*
X01506D01*
X01377Y02188D02*
X0142D01*
X01282Y02178D02*
X0134D01*
X01261Y02174D02*
X01335D01*
X01327Y02183D02*
X01463D01*
X01366Y02178D02*
X01458D01*
X01371Y02174D02*
X01453D01*
X01375Y02169D02*
X0145D01*
X01375Y02164D02*
X0145D01*
X01375Y02159D02*
X0145D01*
X01375Y02154D02*
X0145D01*
X01374Y02149D02*
X01452D01*
X01369Y02144D02*
X01457D01*
X01364Y0214D02*
X01462D01*
X01253D02*
X01342D01*
X01253Y02144D02*
X01337D01*
X01331Y02151D02*
Y02169D01*
X01344Y02182*
X01362*
X01375Y02169*
Y02151D02*
Y02169D01*
X01362Y02138D02*
X01375Y02151D01*
X01344Y02138D02*
X01362D01*
X01331Y02151D02*
X01344Y02138D01*
X01251Y02149D02*
X01332D01*
X01246Y02154D02*
X01331D01*
X01241Y02159D02*
X01331D01*
X01241Y02169D02*
X01331D01*
X0122Y02164D02*
X01331D01*
X012Y02159D02*
X01221D01*
X0118Y02154D02*
X01216D01*
X01168Y02149D02*
X01211D01*
X01196Y0212D02*
X01217D01*
X01196Y02125D02*
X01212D01*
X01196Y0213D02*
X01209D01*
X01192Y02135D02*
X01209D01*
X01187Y0214D02*
X01209D01*
X01155Y02144D02*
X01209D01*
X01143Y0214D02*
X01161D01*
X0113Y02135D02*
X01156D01*
X0097Y02028D02*
X0099D01*
X00975Y02023D02*
X00995D01*
X01081Y02013D02*
X01301D01*
X01081Y02009D02*
X01296D01*
X01079Y02004D02*
X01296D01*
X01074Y01999D02*
X01296D01*
X01069Y01994D02*
X01297D01*
X0128Y01989D02*
X01302D01*
X01243Y0196D02*
X01265D01*
X01248Y01955D02*
X01269D01*
X01248Y0195D02*
X01264D01*
X01248Y01946D02*
X01261D01*
X01246Y01941D02*
X01261D01*
X01241Y01936D02*
X01261D01*
X01284Y01926D02*
X01305D01*
X01289Y01931D02*
X01305D01*
X01292Y01936D02*
X01305D01*
X01292Y01941D02*
X01307D01*
X01292Y01946D02*
X01312D01*
X01328D02*
X0135D01*
X0133Y01965D02*
X01344D01*
X01329Y0196D02*
X01344D01*
X01324Y01955D02*
X01344D01*
X01288Y0195D02*
X01345D01*
X01283Y01955D02*
X01306D01*
X01278Y0196D02*
X01301D01*
X01283Y01965D02*
X013D01*
X01287Y0197D02*
X013D01*
X01287Y01975D02*
X013D01*
X01287Y0198D02*
X01305D01*
X01285Y01984D02*
X01342D01*
X01081Y02018D02*
X01338D01*
X01081Y02023D02*
X01098D01*
X01078Y02028D02*
X01093D01*
X01073Y02033D02*
X01088D01*
X01037Y02091D02*
X01048D01*
X01028Y02086D02*
X01043D01*
X01019Y02081D02*
X01039D01*
X01011Y02077D02*
X01039D01*
X01002Y02072D02*
X01039D01*
X0103Y02043D02*
X01087D01*
X01068Y02038D02*
X01087D01*
X0103D02*
X0105D01*
X0103Y02033D02*
X01045D01*
X01026Y02028D02*
X0104D01*
X01021Y02023D02*
X01037D01*
X0098Y02018D02*
X01037D01*
X00981Y02013D02*
X01037D01*
X01023Y01965D02*
X0126D01*
X01028Y0197D02*
X01256D01*
X01033Y01975D02*
X01256D01*
X01034Y0198D02*
X01256D01*
X01034Y01984D02*
X01259D01*
X01265Y01991D02*
X01278D01*
X01287Y01982*
Y01969D02*
Y01982D01*
X01278Y0196D02*
X01287Y01969D01*
X01265Y0196D02*
X01278D01*
X01256Y01969D02*
X01265Y0196D01*
X01256Y01969D02*
Y01982D01*
X01265Y01991*
X01034Y01989D02*
X01264D01*
X01034Y01994D02*
X01049D01*
X0103Y01999D02*
X01044D01*
X01025Y02004D02*
X01039D01*
X01037Y02006D02*
X0105Y01993D01*
X01068*
X01081Y02006*
Y02025*
X01068Y02038D02*
X01081Y02025D01*
X0105Y02038D02*
X01068D01*
X01037Y02025D02*
X0105Y02038D01*
X01037Y02006D02*
Y02025D01*
X00981Y02009D02*
X01037D01*
X00981Y02004D02*
X00999D01*
X00981Y01999D02*
X00994D01*
X00978Y01994D02*
X0099D01*
X00973Y01989D02*
X0099D01*
X00924Y01984D02*
X0099D01*
X00929Y0198D02*
X0099D01*
X00936Y01931D02*
X00952D01*
X00879Y01946D02*
X009D01*
X00884Y01941D02*
X00943D01*
X00889Y01936D02*
X00947D01*
X00886Y01912D02*
X00901D01*
X0089Y01916D02*
X00901D01*
X0089Y01921D02*
X00901D01*
X0089Y01926D02*
X00906D01*
X0089Y01931D02*
X00911D01*
X00921Y01946D02*
X00943D01*
X00925Y0195D02*
X00943D01*
X0093Y01955D02*
X00943D01*
X00933Y0196D02*
X00944D01*
X00933Y01965D02*
X00949D01*
X00933Y0197D02*
X00954D01*
X00933Y01975D02*
X00991D01*
X00976Y0197D02*
X00996D01*
X0099Y01976D02*
X01003Y01963D01*
X0099Y01976D02*
Y01994D01*
X01003Y02008*
X01021*
X01034Y01994*
Y01976D02*
Y01994D01*
X01021Y01963D02*
X01034Y01976D01*
X01003Y01963D02*
X01021D01*
X00981Y01965D02*
X01001D01*
X00986Y0196D02*
X01222D01*
X00987Y01955D02*
X01217D01*
X00987Y0195D02*
X01217D01*
X00987Y01946D02*
X01217D01*
X00987Y01941D02*
X01219D01*
X01207Y01931D02*
X01264D01*
X01261Y01934D02*
X0127Y01925D01*
X01261Y01934D02*
Y01947D01*
X0127Y01956*
X01283*
X01292Y01947*
Y01934D02*
Y01947D01*
X01283Y01925D02*
X01292Y01934D01*
X0127Y01925D02*
X01283D01*
X01247Y01926D02*
X01269D01*
X01206Y01902D02*
X01228D01*
X01129Y01878D02*
X01186D01*
X01129Y01873D02*
X01149D01*
X01125Y01883D02*
X01146D01*
X0112Y01888D02*
X01129Y01879D01*
Y01866D02*
Y01879D01*
X0112Y01857D02*
X01129Y01866D01*
X01118Y01857D02*
X0112D01*
X01118Y01845D02*
Y01857D01*
X01109Y01836D02*
X01118Y01845D01*
X01108Y01836D02*
X01109D01*
X01108Y01824D02*
Y01836D01*
X01099Y01815D02*
X01108Y01824D01*
X01097Y01815D02*
X01099D01*
X01097Y01802D02*
Y01815D01*
X01088Y01793D02*
X01097Y01802D01*
X01086Y01793D02*
X01088D01*
X01086Y01781D02*
Y01793D01*
X01077Y01772D02*
X01086Y01781D01*
X01075Y01772D02*
X01077D01*
X01075Y0176D02*
Y01772D01*
X01066Y01751D02*
X01075Y0176D01*
X01058Y01751D02*
X01066D01*
X01058Y0174D02*
Y01751D01*
X01049Y01731D02*
X01058Y0174D01*
X01036Y01731D02*
X01049D01*
X01027Y0174D02*
X01036Y01731D01*
X01027Y0174D02*
Y01752D01*
X01036Y01761*
X01044*
Y01772*
X01054Y01781*
X01055*
Y01794*
X01064Y01803*
X01066*
Y01815*
X01075Y01824*
X01077*
Y01837*
X01086Y01846*
X01087*
Y01858*
X01096Y01867*
X01098*
Y01879*
X01107Y01888*
X0112*
X0112Y01887D02*
X01141D01*
X00935Y01892D02*
X01139D01*
X0094Y01897D02*
X01139D01*
X00945Y01902D02*
X01139D01*
X00946Y01907D02*
X01143D01*
X01166D02*
X01223D01*
X01204Y01912D02*
X01222D01*
X01209Y01916D02*
X01222D01*
X01209Y01921D02*
X01223D01*
X01209Y01926D02*
X01227D01*
X01217Y01943D02*
X01226Y01934D01*
X01217Y01943D02*
Y01955D01*
X01226Y01964*
X01239*
X01248Y01955*
Y01943D02*
Y01955D01*
X01239Y01934D02*
X01248Y01943D01*
X01226Y01934D02*
X01239D01*
X01202Y01936D02*
X01224D01*
X00983D02*
X01185D01*
X00956Y01927D02*
X00974D01*
X00943Y0194D02*
X00956Y01927D01*
X00943Y0194D02*
Y01959D01*
X00956Y01972*
X00974*
X00987Y01959*
Y0194D02*
Y01959D01*
X00974Y01927D02*
X00987Y0194D01*
X00978Y01931D02*
X0118D01*
X00941Y01926D02*
X01178D01*
X00946Y01921D02*
X01178D01*
X00946Y01916D02*
X01178D01*
X00946Y01912D02*
X01183D01*
X01178Y01916D02*
X01187Y01907D01*
X01178Y01916D02*
Y01929D01*
X01187Y01938*
X012*
X01209Y01929*
Y01916D02*
Y01929D01*
X012Y01907D02*
X01209Y01916D01*
X01187Y01907D02*
X012D01*
X0117Y01902D02*
X0119D01*
X0117Y01897D02*
X01186D01*
X0117Y01892D02*
X01183D01*
X01167Y01887D02*
X01183D01*
X01162Y01883D02*
X01183D01*
X01148Y01881D02*
X01161D01*
X01139Y0189D02*
X01148Y01881D01*
X01139Y0189D02*
Y01903D01*
X01148Y01912*
X01161*
X0117Y01903*
Y0189D02*
Y01903D01*
X01161Y01881D02*
X0117Y0189D01*
X01169Y01873D02*
X01191D01*
X01174Y01868D02*
X01196D01*
X01174Y01863D02*
X01191D01*
X01174Y01858D02*
X01187D01*
X01173Y01853D02*
X01187D01*
X01168Y01849D02*
X01187D01*
X01152Y01846D02*
X01165D01*
X01143Y01855D02*
X01152Y01846D01*
X01143Y01855D02*
Y01868D01*
X01152Y01877*
X01165*
X01174Y01868*
Y01855D02*
Y01868D01*
X01165Y01846D02*
X01174Y01855D01*
X0117Y01842D02*
X01179Y01833D01*
Y0182D02*
Y01833D01*
X0117Y01811D02*
X01179Y0182D01*
X01157Y01811D02*
X0117D01*
X01148Y0182D02*
X01157Y01811D01*
X01148Y0182D02*
Y01833D01*
X01157Y01842*
X0117*
X01173Y01839D02*
X01195D01*
X0121D02*
X01275D01*
X01215Y01844D02*
X01276D01*
X01218Y01849D02*
X01281D01*
X01257Y01878D02*
X01357D01*
X01257Y01883D02*
X01353D01*
X01255Y01887D02*
X01353D01*
X01289Y01892D02*
X01353D01*
X01294Y01897D02*
X01355D01*
X01296Y01902D02*
X0136D01*
X01296Y01907D02*
X01394D01*
X01296Y01912D02*
X01392D01*
X01292Y01916D02*
X01392D01*
Y01909D02*
Y01921D01*
Y01909D02*
X01401Y019D01*
X01414*
X01421Y01907D02*
X01425D01*
X01423Y01912D02*
X0143D01*
X01423Y01916D02*
X01451D01*
X01423Y01921D02*
X01451D01*
X01423Y01909D02*
Y01921D01*
X01414Y019D02*
X01423Y01909D01*
X01416Y01902D02*
X01423D01*
X01382Y01897D02*
X01423D01*
X01384Y01892D02*
X01423D01*
X01384Y01887D02*
X01427D01*
X01384Y01883D02*
X01388D01*
X01362Y01873D02*
X01375D01*
X01353Y01882D02*
X01362Y01873D01*
X01353Y01882D02*
Y01895D01*
X01362Y01904*
X01375*
X01384Y01895*
Y01882D02*
Y01895D01*
X01375Y01873D02*
X01384Y01882D01*
X0134Y01873D02*
X01384D01*
X01345Y01868D02*
X01384D01*
Y01865D02*
Y01878D01*
X01379D02*
X01384D01*
X01393Y01887*
X01405*
X01414Y01878*
Y01873D02*
X01458D01*
X01414Y01878D02*
X01458D01*
X01414Y01865D02*
Y01878D01*
X01405Y01856D02*
X01414Y01865D01*
X01393Y01856D02*
X01405D01*
X01384Y01865D02*
X01393Y01856D01*
X01345Y01863D02*
X01385D01*
X01345Y01858D02*
X01351D01*
X01344Y01851D02*
X01353Y0186D01*
X01366*
X01375Y01851*
Y01838D02*
Y01851D01*
X01366Y01829D02*
X01375Y01838D01*
X01353Y01829D02*
X01366D01*
X01344Y01838D02*
X01353Y01829D01*
X01344Y01838D02*
Y01851D01*
X01342Y01853D02*
X01347D01*
X01337Y01849D02*
X01344D01*
X01304Y01844D02*
X01344D01*
X01296Y01851D02*
X01305Y01842D01*
Y01829D02*
Y01842D01*
X01296Y0182D02*
X01305Y01829D01*
X01284Y0182D02*
X01296D01*
X01275Y01829D02*
X01284Y0182D01*
X01275Y01829D02*
Y01842D01*
X01284Y01851*
X01296*
X01299Y01849D02*
X01321D01*
X01218Y01853D02*
X01316D01*
X01218Y01858D02*
X01314D01*
Y01869D02*
X01323Y01878D01*
X01336*
X01345Y01869*
Y01856D02*
Y01869D01*
X01336Y01847D02*
X01345Y01856D01*
X01323Y01847D02*
X01336D01*
X01314Y01856D02*
X01323Y01847D01*
X01314Y01856D02*
Y01869D01*
X01257Y01873D02*
X01318D01*
X01252Y01868D02*
X01314D01*
X01214Y01863D02*
X01314D01*
X01209Y01868D02*
X01218Y01859D01*
Y01846D02*
Y01859D01*
X01209Y01837D02*
X01218Y01846D01*
X01196Y01837D02*
X01209D01*
X01187Y01846D02*
X01196Y01837D01*
X01187Y01846D02*
Y01859D01*
X01196Y01868*
X01209*
X01209Y01868D02*
X01231D01*
X01205Y01873D02*
X01226D01*
X0121Y01878D02*
X01226D01*
X01213Y01883D02*
X01226D01*
X01213Y01887D02*
X01228D01*
X01213Y01892D02*
X01233D01*
X01213Y01881D02*
Y01894D01*
X01204Y01872D02*
X01213Y01881D01*
X01192Y01872D02*
X01204D01*
X01183Y01881D02*
X01192Y01872D01*
X01183Y01881D02*
Y01894D01*
X01192Y01903*
X01204*
X01213Y01894*
X0121Y01897D02*
X01268D01*
X01251Y01892D02*
X01272D01*
X01248Y01895D02*
X01257Y01886D01*
Y01873D02*
Y01886D01*
X01248Y01864D02*
X01257Y01873D01*
X01235Y01864D02*
X01248D01*
X01226Y01873D02*
X01235Y01864D01*
X01226Y01873D02*
Y01886D01*
X01235Y01895*
X01248*
X01247Y01902D02*
X01265D01*
X01252Y01907D02*
X01265D01*
X01253Y01912D02*
X01265D01*
Y01912D02*
X01274Y01921D01*
X01287*
X01296Y01912*
Y01899D02*
Y01912D01*
X01287Y0189D02*
X01296Y01899D01*
X01274Y0189D02*
X01287D01*
X01265Y01899D02*
X01274Y0189D01*
X01265Y01899D02*
Y01912D01*
X01253Y01916D02*
X0127D01*
X01253Y01908D02*
Y0192D01*
X01244Y01899D02*
X01253Y01908D01*
X01231Y01899D02*
X01244D01*
X01222Y01908D02*
X01231Y01899D01*
X01222Y01908D02*
Y0192D01*
X01231Y0193*
X01244*
X01253Y0192*
X01252Y01921D02*
X01309D01*
X01331D02*
X01392D01*
X01401Y0193*
X01335Y01926D02*
X01397D01*
X01335Y01931D02*
X01437D01*
X01335Y01936D02*
X01434D01*
X01335Y01926D02*
Y01938D01*
X01326Y01917D02*
X01335Y01926D01*
X01314Y01917D02*
X01326D01*
X01305Y01926D02*
X01314Y01917D01*
X01305Y01926D02*
Y01938D01*
X01314Y01947*
X01326*
X01335Y01938*
X01333Y01941D02*
X01434D01*
X01368Y01946D02*
X01434D01*
X01373Y0195D02*
X01439D01*
X0145Y0194D02*
X0147Y01954D01*
X01375Y01955D02*
X01455D01*
X01375Y0196D02*
X01462D01*
X01468Y01964D02*
X01476Y0197D01*
X01504Y01972*
X0153Y01959*
X01546Y01936*
X01548Y01908*
X01535Y01882D02*
X01548Y01908D01*
X01527Y01877D02*
X01535Y01882D01*
X01523Y01874D02*
X01527Y01877D01*
X0152Y01872D02*
X01523Y01874D01*
X01512Y01866D02*
X0152Y01872D01*
X01512Y01862D02*
Y01866D01*
X01503Y01853D02*
X01512Y01862D01*
X0149Y01853D02*
X01503D01*
X01482Y01861D02*
X0149Y01853D01*
X01479Y01859D02*
X01482Y01861D01*
X01467Y01859D02*
X01479D01*
X01458Y01868D02*
X01467Y01859D01*
X01458Y01868D02*
Y01881D01*
X01464Y01887*
X01457Y01894D02*
X01464Y01887D01*
X01454Y01902D02*
X01457Y01894D01*
X01454Y01891D02*
Y01902D01*
X01445Y01882D02*
X01454Y01891D01*
X01432Y01882D02*
X01445D01*
X01423Y01891D02*
X01432Y01882D01*
X01423Y01891D02*
Y01904D01*
X01432Y01913*
X01445*
X01452Y01906*
X01451Y01909D02*
X01452Y01906D01*
X01451Y01909D02*
Y01924D01*
X01444D02*
X01451D01*
X01434Y01933D02*
X01444Y01924D01*
X01434Y01933D02*
Y01946D01*
X01444Y01955*
X01455*
X01461Y0196*
X01461Y0196*
X01465Y01962*
X01468Y01964*
X01468*
X01375Y01965D02*
X01469D01*
X0137Y0197D02*
X01392D01*
X01361Y02009D02*
X01383D01*
X01357Y02013D02*
X01378D01*
X01362Y02018D02*
X01378D01*
X01366Y02023D02*
X01378D01*
X01366Y02028D02*
X0138D01*
X01366Y02033D02*
X01385D01*
X01407Y02028D02*
X01697D01*
X01442Y02033D02*
X01692D01*
X01444Y02057D02*
X01641D01*
X01448Y02052D02*
X01644D01*
X01448Y02047D02*
X01649D01*
X01448Y02043D02*
X01654D01*
X01446Y02038D02*
X01692D01*
X01672Y02043D02*
X01692D01*
X01677Y02047D02*
X01692D01*
X01682Y02052D02*
X01693D01*
X01685Y02057D02*
X01698D01*
X01705Y02065D02*
X01724D01*
X01737Y02052*
Y02033D02*
Y02052D01*
X01724Y0202D02*
X01737Y02033D01*
X01705Y0202D02*
X01724D01*
X01692Y02033D02*
X01705Y0202D01*
X01692Y02033D02*
Y02052D01*
X01705Y02065*
X01685Y02062D02*
X01702D01*
X01685Y02067D02*
X0174D01*
X01685Y02072D02*
X0174D01*
X01683Y02077D02*
X017D01*
X01678Y02081D02*
X01695D01*
X01672Y02087D02*
X01685Y02074D01*
Y02055D02*
Y02074D01*
X01672Y02042D02*
X01685Y02055D01*
X01654Y02042D02*
X01672D01*
X01641Y02055D02*
X01654Y02042D01*
X01641Y02055D02*
Y02074D01*
X01654Y02087*
X01672*
X01673Y02086D02*
X0169D01*
X0163Y02091D02*
X01687D01*
X01626Y02096D02*
X01687D01*
X01661Y02101D02*
X01687D01*
X01666Y02106D02*
X01687D01*
X01671Y0211D02*
X0169D01*
X01672Y02115D02*
X01695D01*
X017Y02121D02*
X01719D01*
X01732Y02108*
Y02089D02*
Y02108D01*
X01719Y02076D02*
X01732Y02089D01*
X017Y02076D02*
X01719D01*
X01687Y02089D02*
X017Y02076D01*
X01687Y02089D02*
Y02108D01*
X017Y02121*
X01672Y0212D02*
X017D01*
X01672Y02125D02*
X01719D01*
X01672Y0213D02*
X01709D01*
X01663Y0214D02*
X01684D01*
X01659Y02143D02*
X01672Y0213D01*
Y02112D02*
Y0213D01*
X01659Y02099D02*
X01672Y02112D01*
X01641Y02099D02*
X01659D01*
X01628Y02112D02*
X01641Y02099D01*
X01628Y02112D02*
Y0213D01*
X01641Y02143*
X01659*
X01613Y02149D02*
X01653D01*
X01603Y02159D02*
X01623D01*
X01494Y02164D02*
X01608D01*
X01494Y02159D02*
X01583D01*
X01494Y02154D02*
X01578D01*
X01492Y02149D02*
X01573D01*
X01487Y02144D02*
X01571D01*
X01463Y02139D02*
X01481D01*
X0145Y02152D02*
X01463Y02139D01*
X0145Y02152D02*
Y0217D01*
X01463Y02183*
X01481*
X01494Y0217*
Y02152D02*
Y0217D01*
X01481Y02139D02*
X01494Y02152D01*
X01482Y0214D02*
X01571D01*
X01253Y02135D02*
X01571D01*
X01253Y02129D02*
Y02147D01*
X0124Y0216D02*
X01253Y02147D01*
X01222Y0216D02*
X0124D01*
X01209Y02147D02*
X01222Y0216D01*
X01209Y02129D02*
Y02147D01*
Y02129D02*
X01222Y02115D01*
X0124*
X01253Y02129*
Y0213D02*
X01571D01*
Y02129D02*
Y02147D01*
X01584Y0216*
X01602*
X01615Y02147*
Y02129D02*
Y02147D01*
X01602Y02115D02*
X01615Y02129D01*
X01584Y02115D02*
X01602D01*
X01571Y02129D02*
X01584Y02115D01*
X0125Y02125D02*
X01574D01*
X01196Y02115D02*
X01258D01*
X0119Y02106D02*
X01249D01*
Y02106D02*
X01262Y02119D01*
X0128*
X01293Y02106*
Y02088D02*
Y02106D01*
X0128Y02075D02*
X01293Y02088D01*
X01262Y02075D02*
X0128D01*
X01249Y02088D02*
X01262Y02075D01*
X01249Y02088D02*
Y02106D01*
X01195Y0211D02*
X01253D01*
X01185Y02101D02*
X01203D01*
X01134Y02086D02*
X01151D01*
X01129Y02081D02*
X01146D01*
X01124Y02077D02*
X01142D01*
X01122Y02062D02*
X01139D01*
X01127Y02057D02*
X01139D01*
X01131Y02052D02*
X01142D01*
X01132Y02047D02*
X01147D01*
X01132Y02043D02*
X01152D01*
X01171D02*
X01343D01*
X01132Y02038D02*
X01338D01*
X01132Y02033D02*
X01335D01*
X01127Y02028D02*
X01335D01*
X01122Y02023D02*
X01335D01*
X01321Y02013D02*
X01343D01*
X01326Y02009D02*
X01348D01*
X01326Y02004D02*
X01343D01*
X01326Y01999D02*
X01339D01*
X01325Y01994D02*
X01339D01*
X0132Y01989D02*
X01339D01*
X01305Y01986D02*
X01317D01*
X01296Y01995D02*
X01305Y01986D01*
X01296Y01995D02*
Y02008D01*
X01305Y02017*
X01317*
X01326Y02008*
Y01995D02*
Y02008D01*
X01317Y01986D02*
X01326Y01995D01*
X01325Y0198D02*
X01347D01*
X01353Y01974D02*
X01366D01*
X01375Y01965*
Y01952D02*
Y01965D01*
X01366Y01943D02*
X01375Y01952D01*
X01353Y01943D02*
X01366D01*
X01344Y01952D02*
X01353Y01943D01*
X01344Y01952D02*
Y01965D01*
X01353Y01974*
X0133Y0197D02*
X01349D01*
X0133Y01961D02*
Y01974D01*
X01321Y01952D02*
X0133Y01961D01*
X01309Y01952D02*
X01321D01*
X013Y01961D02*
X01309Y01952D01*
X013Y01961D02*
Y01974D01*
X01309Y01983*
X01321*
X0133Y01974*
X0133Y01975D02*
X01387D01*
X01363Y0198D02*
X01383D01*
X01368Y01984D02*
X01383D01*
X0137Y01989D02*
X01383D01*
X0137Y01994D02*
X01386D01*
X0137Y01999D02*
X01391D01*
X0137Y01987D02*
Y02D01*
X01361Y01978D02*
X0137Y01987D01*
X01348Y01978D02*
X01361D01*
X01339Y01987D02*
X01348Y01978D01*
X01339Y01987D02*
Y02D01*
X01348Y02009*
X01361*
X0137Y02*
X01366Y02004D02*
X01405D01*
X01405Y02009D02*
X01409D01*
X01409Y02013D02*
X01414D01*
X01409Y02018D02*
X01423D01*
X01409Y02023D02*
X01428D01*
X01431Y02027D02*
X01444D01*
X01453Y02018*
Y02005D02*
Y02018D01*
X01444Y01996D02*
X01453Y02005D01*
X01436Y01996D02*
X01444D01*
X01436Y01992D02*
Y01996D01*
X01427Y01983D02*
X01436Y01992D01*
X01414Y01983D02*
X01427D01*
X01414Y01983D02*
X01414Y01983D01*
X01414Y01978D02*
Y01983D01*
X01405Y01969D02*
X01414Y01978D01*
X01392Y01969D02*
X01405D01*
X01383Y01978D02*
X01392Y01969D01*
X01383Y01978D02*
Y01991D01*
X01392Y02*
X01405*
X01405Y02*
Y02005*
X01414Y02014*
X01422*
Y02018*
X01431Y02027*
X01403Y02033D02*
X01424D01*
X014Y02035D02*
X01409Y02026D01*
Y02013D02*
Y02026D01*
X014Y02004D02*
X01409Y02013D01*
X01387Y02004D02*
X014D01*
X01378Y02013D02*
X01387Y02004D01*
X01378Y02013D02*
Y02026D01*
X01387Y02035*
X014*
X01399Y02067D02*
X01592D01*
X01585Y02074D02*
X01598Y02061D01*
X01585Y02074D02*
Y02093D01*
X01598Y02106*
X01617*
X0163Y02093*
Y02074D02*
Y02093D01*
X01617Y02061D02*
X0163Y02074D01*
X01598Y02061D02*
X01617D01*
X01404Y02062D02*
X01597D01*
X01405Y02057D02*
X01422D01*
X01405Y02052D02*
X01418D01*
X01404Y02047D02*
X01418D01*
X01399Y02043D02*
X01418D01*
Y0204D02*
Y02053D01*
X01427Y02062*
X01439*
X01448Y02053*
Y0204D02*
Y02053D01*
X01439Y02031D02*
X01448Y0204D01*
X01427Y02031D02*
X01439D01*
X01418Y0204D02*
X01427Y02031D01*
X01362Y02038D02*
X0142D01*
X01357Y02044D02*
X01366Y02035D01*
Y02022D02*
Y02035D01*
X01357Y02013D02*
X01366Y02022D01*
X01344Y02013D02*
X01357D01*
X01335Y02022D02*
X01344Y02013D01*
X01335Y02022D02*
Y02035D01*
X01344Y02044*
X01357*
X01358Y02043D02*
X0138D01*
X01175Y02047D02*
X01375D01*
X0118Y02052D02*
X01374D01*
X01232Y02067D02*
X0138D01*
X01227Y02062D02*
X01375D01*
X01374Y02061D02*
X01383Y0207D01*
X01396*
X01405Y02061*
Y02048D02*
Y02061D01*
X01396Y02039D02*
X01405Y02048D01*
X01383Y02039D02*
X01396D01*
X01374Y02048D02*
X01383Y02039D01*
X01374Y02048D02*
Y02061D01*
X01183Y02057D02*
X01374D01*
X01183Y02062D02*
X01207D01*
X01183Y02067D02*
X01202D01*
X01183Y02072D02*
X01197D01*
X01181Y02077D02*
X01194D01*
X01176Y02081D02*
X01194D01*
Y02074D02*
Y02093D01*
Y02074D02*
X01208Y02061D01*
X01226*
X01239Y02074*
Y02093*
X01226Y02106D02*
X01239Y02093D01*
X01208Y02106D02*
X01226D01*
X01194Y02093D02*
X01208Y02106D01*
X01137Y02096D02*
X01198D01*
X01137Y02091D02*
X01194D01*
X01171Y02086D02*
X01194D01*
X0117Y02087D02*
X01183Y02074D01*
Y02055D02*
Y02074D01*
X0117Y02042D02*
X01183Y02055D01*
X01152Y02042D02*
X0117D01*
X01139Y02055D02*
X01152Y02042D01*
X01139Y02055D02*
Y02074D01*
X01152Y02087*
X0117*
X01137Y02101D02*
X01163D01*
X01137Y02106D02*
X01158D01*
X01152Y02112D02*
Y0213D01*
X01165Y02143*
X01183*
X01196Y0213*
Y02112D02*
Y0213D01*
X01183Y02099D02*
X01196Y02112D01*
X01165Y02099D02*
X01183D01*
X01152Y02112D02*
X01165Y02099D01*
X01134Y0211D02*
X01153D01*
X01129Y02115D02*
X01152D01*
X01125Y0212D02*
X01152D01*
X01117Y0213D02*
X01152D01*
X01105Y02125D02*
X01152D01*
X01092Y0212D02*
X01105D01*
X01081Y02115D02*
X011D01*
X01072Y0211D02*
X01095D01*
X01046Y02096D02*
X01093D01*
X01054Y02101D02*
X01093D01*
X01063Y02106D02*
X01093D01*
X01074Y02091D02*
X01093D01*
X01079Y02086D02*
X01096D01*
X01084Y02081D02*
X011D01*
X01093Y02089D02*
X01106Y02076D01*
X01093Y02089D02*
Y02108D01*
X01106Y02121*
X01124*
X01137Y02108*
Y02089D02*
Y02108D01*
X01124Y02076D02*
X01137Y02089D01*
X01106Y02076D02*
X01124D01*
X01084Y02077D02*
X01105D01*
X01084Y02072D02*
X01139D01*
X01084Y02067D02*
X01139D01*
X01082Y02062D02*
X01098D01*
X01077Y02057D02*
X01093D01*
X01073Y02052D02*
X01088D01*
X01087Y02052D02*
X01101Y02065D01*
X01119*
X01132Y02052*
Y02033D02*
Y02052D01*
X01119Y0202D02*
X01132Y02033D01*
X01101Y0202D02*
X01119D01*
X01087Y02033D02*
X01101Y0202D01*
X01087Y02033D02*
Y02052D01*
X0103Y02047D02*
X01087D01*
X01028Y02052D02*
X0105D01*
X01024Y02057D02*
X01045D01*
X01019Y02062D02*
X01041D01*
X01039Y02063D02*
Y02082D01*
X01052Y02095*
X01071*
X01084Y02082*
Y02063D02*
Y02082D01*
X01071Y0205D02*
X01084Y02063D01*
X01052Y0205D02*
X01071D01*
X01039Y02063D02*
X01052Y0205D01*
X00993Y02067D02*
X01039D01*
X00986Y02062D02*
X00997D01*
X00979Y02057D02*
X00992D01*
X00973Y02052D02*
X00987D01*
X00966Y02047D02*
X00986D01*
X0096Y02043D02*
X00986D01*
X00953Y02038D02*
X00986D01*
Y02032D02*
Y02051D01*
X00999Y02064*
X01017*
X0103Y02051*
Y02032D02*
Y02051D01*
X01017Y02019D02*
X0103Y02032D01*
X00999Y02019D02*
X01017D01*
X00986Y02032D02*
X00999Y02019D01*
X00947Y02033D02*
X00986D01*
X0094Y02028D02*
X00949D01*
X00934Y02023D02*
X00944D01*
X00927Y02018D02*
X00939D01*
X00921Y02013D02*
X00937D01*
X00914Y02009D02*
X00937D01*
X00908Y02004D02*
X00937D01*
X00902Y01999D02*
X00937D01*
X00897Y01994D02*
X00941D01*
X00937Y01998D02*
X0095Y01985D01*
X00937Y01998D02*
Y02016D01*
X0095Y0203*
X00968*
X00981Y02016*
Y01998D02*
Y02016D01*
X00968Y01985D02*
X00981Y01998D01*
X0095Y01985D02*
X00968D01*
X00893Y01989D02*
X00946D01*
X00888Y01984D02*
X00896D01*
X00883Y0198D02*
X00892D01*
X00878Y01975D02*
X00888D01*
X00873Y0197D02*
X00888D01*
X00868Y01965D02*
X00888D01*
Y01958D02*
Y01976D01*
X00901Y01989*
X0092*
X00933Y01976*
Y01958D02*
Y01976D01*
X0092Y01945D02*
X00933Y01958D01*
X00901Y01945D02*
X0092D01*
X00888Y01958D02*
X00901Y01945D01*
X00863Y0196D02*
X00888D01*
X00858Y01955D02*
X00891D01*
X00853Y0195D02*
X00895D01*
X00848Y01946D02*
X00857D01*
X00843Y01941D02*
X00852D01*
X00838Y01936D02*
X00847D01*
X00833Y01931D02*
X00846D01*
X00829Y01926D02*
X00846D01*
X00825Y01921D02*
X00846D01*
X00821Y01916D02*
X00846D01*
X00818Y01912D02*
X0085D01*
X00814Y01907D02*
X00855D01*
X0081Y01902D02*
X00902D01*
X00901Y01903D02*
Y01921D01*
X00914Y01934*
X00933*
X00946Y01921*
Y01903D02*
Y01921D01*
X00933Y0189D02*
X00946Y01903D01*
X00914Y0189D02*
X00933D01*
X00901Y01903D02*
X00914Y0189D01*
X00881Y01907D02*
X00901D01*
X00859Y01903D02*
X00877D01*
X00846Y01916D02*
X00859Y01903D01*
X00846Y01916D02*
Y01935D01*
X00859Y01948*
X00877*
X0089Y01935*
Y01916D02*
Y01935D01*
X00877Y01903D02*
X0089Y01916D01*
X00848Y01887D02*
X0087D01*
X00849Y01883D02*
X00865D01*
X00849Y01878D02*
X00861D01*
X00849Y01873D02*
X00861D01*
X00848Y01868D02*
X00861D01*
X00844Y01863D02*
X00861D01*
Y0186D02*
Y01879D01*
X00874Y01892*
X00893*
X00906Y01879*
Y0186D02*
Y01879D01*
X00893Y01847D02*
X00906Y0186D01*
X00874Y01847D02*
X00893D01*
X00861Y0186D02*
X00874Y01847D01*
X00839Y01858D02*
X00863D01*
X00817Y01855D02*
X00836D01*
X00804Y01868D02*
X00817Y01855D01*
X00804Y01868D02*
Y01887D01*
X00817Y019*
X00836*
X00849Y01887*
Y01868D02*
Y01887D01*
X00836Y01855D02*
X00849Y01868D01*
X00809Y01844D02*
X00835D01*
X00814Y01839D02*
X0083D01*
X00814Y01834D02*
X00826D01*
X00814Y01829D02*
X00826D01*
X00814Y01824D02*
X00826D01*
X00813Y01819D02*
X00826D01*
X00808Y01815D02*
X00828D01*
X00782Y01807D02*
X00801D01*
X00769Y0182D02*
X00782Y01807D01*
X00769Y0182D02*
Y01839D01*
X00782Y01852*
X00801*
X00814Y01839*
Y0182D02*
Y01839D01*
X00801Y01807D02*
X00814Y0182D01*
X00803Y0181D02*
X00833D01*
X00826Y01816D02*
X00839Y01803D01*
X00826Y01816D02*
Y01835D01*
X00839Y01848*
X00858*
X00871Y01835*
Y01816D02*
Y01835D01*
X00858Y01803D02*
X00871Y01816D01*
X00839Y01803D02*
X00858D01*
X00743Y01805D02*
X00838D01*
X0074Y018D02*
X00807D01*
X00772Y01795D02*
X00802D01*
X00777Y0179D02*
X00797D01*
X00781Y01786D02*
X00794D01*
X00781Y01781D02*
X00794D01*
X00781Y01776D02*
X00794D01*
X00781Y01768D02*
Y01786D01*
X00768Y01799D02*
X00781Y01786D01*
X0075Y01799D02*
X00768D01*
X00737Y01786D02*
X0075Y01799D01*
X00737Y01768D02*
Y01786D01*
Y01768D02*
X0075Y01755D01*
X00768*
X00781Y01768*
Y01771D02*
X00794D01*
X0078Y01766D02*
X00797D01*
X00775Y01761D02*
X00802D01*
X00794Y01769D02*
X00807Y01756D01*
X00794Y01769D02*
Y01787D01*
X00807Y018*
X00826*
X00839Y01787*
Y01769D02*
Y01787D01*
X00826Y01756D02*
X00839Y01769D01*
X00807Y01756D02*
X00826D01*
X0077Y01756D02*
X00806D01*
X0078Y01751D02*
X00798D01*
X00811Y01738*
Y0172D02*
Y01738D01*
X00798Y01707D02*
X00811Y0172D01*
X0078Y01707D02*
X00798D01*
X00767Y0172D02*
X0078Y01707D01*
X00767Y0172D02*
Y01738D01*
X0078Y01751*
X00711Y01747D02*
X00775D01*
X00709Y01742D02*
X00719D01*
X00707Y01737D02*
X00714D01*
X00705Y01732D02*
X0071D01*
X00703Y01727D02*
X0071D01*
X00701Y01722D02*
X0071D01*
X00699Y01718D02*
X0071D01*
X00697Y01713D02*
X00712D01*
X00695Y01708D02*
X00717D01*
X0071Y01715D02*
X00723Y01702D01*
X0071Y01715D02*
Y01733D01*
X00723Y01746*
X00741*
X00755Y01733*
Y01715D02*
Y01733D01*
X00741Y01702D02*
X00755Y01715D01*
X00723Y01702D02*
X00741D01*
X00693Y01703D02*
X00722D01*
X00691Y01698D02*
X0098D01*
X00779Y01693D02*
X0098D01*
X00783Y01689D02*
X00967D01*
X00787Y01684D02*
X00962D01*
X00787Y01679D02*
X0096D01*
X00787Y01674D02*
X0096D01*
X00787Y01667D02*
Y01685D01*
X00774Y01698D02*
X00787Y01685D01*
X00755Y01698D02*
X00774D01*
X00742Y01685D02*
X00755Y01698D01*
X00742Y01667D02*
Y01685D01*
Y01667D02*
X00755Y01654D01*
X00774*
X00787Y01667*
Y01669D02*
X0096D01*
Y01668D02*
Y01681D01*
X00969Y0169*
X0098*
Y01701*
X00989Y0171*
X01001*
X01011Y01701*
Y01688D02*
Y01701D01*
X01001Y01679D02*
X01011Y01688D01*
X00991Y01679D02*
X01001D01*
X00991Y01668D02*
Y01679D01*
X00982Y01659D02*
X00991Y01668D01*
X00987Y01664D02*
X0107D01*
X00982Y01659D02*
X0107D01*
X00969D02*
X00982D01*
X0096Y01668D02*
X00969Y01659D01*
X00785Y01664D02*
X00964D01*
X0078Y01659D02*
X00969D01*
X00904Y01572D02*
X01441D01*
X00908Y01577D02*
X01437D01*
X00913Y01582D02*
X01432D01*
X00914Y01587D02*
X01429D01*
X00914Y01592D02*
X01427D01*
X00914Y01596D02*
X01425D01*
X00914Y01601D02*
X01424D01*
X0091Y01606D02*
X01424D01*
X00905Y01611D02*
X01424D01*
X00768Y01616D02*
X01424D01*
X00765Y01611D02*
X00879D01*
X0076Y01606D02*
X00875D01*
X00755Y01601D02*
X0087D01*
X00743Y01587D02*
X0087D01*
X00748Y01582D02*
X00871D01*
X00864Y01543D02*
X02125D01*
Y01539D02*
Y01557D01*
X02138Y0157*
X02157*
X0217Y01557*
Y01539D02*
Y01557D01*
X02157Y01526D02*
X0217Y01539D01*
X02138Y01526D02*
X02157D01*
X02125Y01539D02*
X02138Y01526D01*
X0086Y01538D02*
X02126D01*
X00855Y01533D02*
X00892D01*
X00736Y01528D02*
X00882D01*
X00688D02*
X00704D01*
X00693Y01533D02*
X00709D01*
X00699Y01548D02*
X00719D01*
X00699Y01553D02*
X00714D01*
X00699Y01558D02*
X00709D01*
X00694Y01562D02*
X00708D01*
X00689Y01567D02*
X00708D01*
X00651D02*
X00664D01*
X0065Y01562D02*
X00659D01*
X00648Y01558D02*
X00654D01*
X00647Y01553D02*
X00654D01*
X00647Y01548D02*
X00654D01*
X00646Y01543D02*
X00654D01*
X00645Y01538D02*
X00655D01*
X00644Y01533D02*
X0066D01*
X00644Y01528D02*
X00665D01*
X00643Y01524D02*
X007D01*
X00642Y01519D02*
X00698D01*
X00645Y01514D02*
X00698D01*
X0068Y01509D02*
X00698D01*
X00685Y01504D02*
X00698D01*
X0069Y01499D02*
X00702D01*
X0069Y01494D02*
X00707D01*
X0069Y0149D02*
X00773D01*
X0069Y01485D02*
X00778D01*
X0069Y0148D02*
X00783D01*
X00801D02*
X00866D01*
X00806Y01485D02*
X00864D01*
X00811Y0149D02*
X00864D01*
X00814Y01494D02*
X00864D01*
X00814Y01499D02*
X00864D01*
X00814Y01504D02*
X00865D01*
X00814Y01509D02*
X00867D01*
X00812Y01514D02*
X00869D01*
X00807Y01519D02*
X00872D01*
X00802Y01524D02*
X00877D01*
X00801Y01524D02*
X00814Y01511D01*
Y01493D02*
Y01511D01*
X00801Y0148D02*
X00814Y01493D01*
X00783Y0148D02*
X00801D01*
X0077Y01493D02*
X00783Y0148D01*
X0077Y01493D02*
Y01511D01*
X00783Y01524*
X00801*
X00699Y01543D02*
X0082D01*
X00699Y01539D02*
Y01557D01*
X00686Y0157D02*
X00699Y01557D01*
X00667Y0157D02*
X00686D01*
X00654Y01557D02*
X00667Y0157D01*
X00654Y01539D02*
Y01557D01*
Y01539D02*
X00667Y01526D01*
X00686*
X00699Y01539*
X00698Y01538D02*
X00824D01*
X00731Y01533D02*
X00829D01*
X00729Y01535D02*
X00742Y01522D01*
Y01503D02*
Y01522D01*
X00729Y0149D02*
X00742Y01503D01*
X00711Y0149D02*
X00729D01*
X00698Y01503D02*
X00711Y0149D01*
X00698Y01503D02*
Y01522D01*
X00711Y01535*
X00729*
X00742Y01548D02*
X0082D01*
X00747Y01553D02*
X0082D01*
X00752Y01558D02*
X0082D01*
X00753Y01562D02*
X00821D01*
X00753Y01567D02*
X00826D01*
X00753Y01572D02*
X00831D01*
X00753Y01558D02*
Y01577D01*
X0074Y01545D02*
X00753Y01558D01*
X00721Y01545D02*
X0074D01*
X00708Y01558D02*
X00721Y01545D01*
X00708Y01558D02*
Y01577D01*
X00652Y01572D02*
X00708D01*
X00656Y01587D02*
X00681D01*
X00657Y01592D02*
X00676D01*
X00658Y01596D02*
X00671D01*
X0066Y01601D02*
X00668D01*
X00661Y01606D02*
X00668D01*
X00662Y01611D02*
X00668D01*
X00663Y01616D02*
X00668D01*
X00665Y01621D02*
X00671D01*
X00666Y01625D02*
X00676D01*
X00667Y0163D02*
X00681D01*
X00668Y01635D02*
X00726D01*
X007Y0163D02*
X00723D01*
X00705Y01625D02*
X00723D01*
X0071Y01621D02*
X00723D01*
X00713Y01616D02*
X00723D01*
X00713Y01611D02*
X00726D01*
X00713Y01606D02*
X00731D01*
X00723Y01614D02*
X00736Y01601D01*
X00723Y01614D02*
Y01632D01*
X00736Y01645*
X00755*
X00768Y01632*
Y01614D02*
Y01632D01*
X00755Y01601D02*
X00768Y01614D01*
X00736Y01601D02*
X00755D01*
X00713Y01601D02*
X00736D01*
X0071Y01596D02*
X0087D01*
X00705Y01592D02*
X0087D01*
X00681Y01586D02*
X007D01*
X00668Y01599D02*
X00681Y01586D01*
X00668Y01599D02*
Y01618D01*
X00681Y01631*
X007*
X00713Y01618*
Y01599D02*
Y01618D01*
X007Y01586D02*
X00713Y01599D01*
X007Y01587D02*
X00718D01*
X00655Y01582D02*
X00713D01*
X00653Y01577D02*
X00708D01*
X00721Y0159*
X0074*
X00753Y01577*
X00753D02*
X00876D01*
X00883Y0157D02*
X00901D01*
X00914Y01583*
Y01601*
X00901Y01614D02*
X00914Y01601D01*
X00883Y01614D02*
X00901D01*
X0087Y01601D02*
X00883Y01614D01*
X0087Y01583D02*
Y01601D01*
Y01583D02*
X00883Y0157D01*
X00853Y01572D02*
X00881D01*
X00858Y01567D02*
X01449D01*
X01444Y01569D02*
X01462Y01562D01*
X01431Y01582D02*
X01444Y01569D01*
X01424Y016D02*
X01431Y01582D01*
X01424Y016D02*
Y01618D01*
X01431Y01636*
X01444Y01649*
X01462Y01656*
X0148*
X01498Y01649*
X01511Y01636*
X01518Y01618*
Y016D02*
Y01618D01*
X01511Y01582D02*
X01518Y016D01*
X01498Y01569D02*
X01511Y01582D01*
X0148Y01562D02*
X01498Y01569D01*
X01462Y01562D02*
X0148D01*
X00863Y01562D02*
X0146D01*
X00864Y01543D02*
Y01561D01*
X00851Y0153D02*
X00864Y01543D01*
X00833Y0153D02*
X00851D01*
X0082Y01543D02*
X00833Y0153D01*
X0082Y01543D02*
Y01561D01*
X00833Y01574*
X00851*
X00864Y01561*
Y01558D02*
X02072D01*
X00864Y01553D02*
X02077D01*
X00864Y01548D02*
X02082D01*
X02071Y01558D02*
X02084Y01545D01*
X02071Y01558D02*
Y01577D01*
X02084Y0159*
X02103*
X02116Y01577*
Y01572D02*
X02172D01*
X02143Y01587D02*
X02168D01*
X02148Y01592D02*
X02167D01*
X02153Y01596D02*
X02166D01*
X02156Y01601D02*
X02165D01*
X02156Y01606D02*
X02164D01*
X02156Y01611D02*
X02163D01*
X02156Y01616D02*
X02161D01*
X02153Y01621D02*
X0216D01*
X02148Y01625D02*
X02159D01*
X02143Y0163D02*
X02158D01*
X02098Y01635D02*
X02157D01*
X02101Y0163D02*
X02124D01*
X02101Y01625D02*
X02119D01*
X02101Y01621D02*
X02114D01*
X02101Y01616D02*
X02111D01*
X02098Y01611D02*
X02111D01*
X02093Y01606D02*
X02111D01*
X02069Y01601D02*
X02088D01*
X02056Y01614D02*
X02069Y01601D01*
X02056Y01614D02*
Y01632D01*
X02069Y01645*
X02088*
X02101Y01632*
Y01614D02*
Y01632D01*
X02088Y01601D02*
X02101Y01614D01*
X02088Y01601D02*
X02111D01*
X01517Y01596D02*
X02114D01*
X01515Y01592D02*
X02119D01*
X02111Y01599D02*
X02124Y01586D01*
X02111Y01599D02*
Y01618D01*
X02124Y01631*
X02143*
X02156Y01618*
Y01599D02*
Y01618D01*
X02143Y01586D02*
X02156Y01599D01*
X02124Y01586D02*
X02143D01*
X02106Y01587D02*
X02124D01*
X02111Y01582D02*
X0217D01*
X02116Y01577D02*
X02171D01*
X02116Y01558D02*
Y01577D01*
X02103Y01545D02*
X02116Y01558D01*
X02084Y01545D02*
X02103D01*
X0092Y01533D02*
X02093D01*
X00931Y01528D02*
X02088D01*
X00936Y01524D02*
X02083D01*
X00941Y01519D02*
X02082D01*
X00944Y01514D02*
X02082D01*
X00946Y01509D02*
X02082D01*
X00948Y01504D02*
X02082D01*
X00949Y01499D02*
X02086D01*
X02082Y01503D02*
X02095Y0149D01*
X02082Y01503D02*
Y01522D01*
X02095Y01535*
X02113*
X02126Y01522*
Y01503D02*
Y01522D01*
X02113Y0149D02*
X02126Y01503D01*
X02095Y0149D02*
X02113D01*
X00949Y01494D02*
X02091D01*
X00949Y0149D02*
X02134D01*
X00949Y01485D02*
X02134D01*
X00947Y0148D02*
X02134D01*
X02165Y01286D02*
X02179D01*
X02169Y01291D02*
X0218D01*
X02174Y01296D02*
X0218D01*
X02175Y013D02*
X02181D01*
X02175Y01305D02*
X02182D01*
X02175Y0131D02*
X02179D01*
X02169Y0132D02*
X02171D01*
X02164Y01325D02*
X02168D01*
X02121Y01359D02*
X02166D01*
X02126Y01354D02*
X02166D01*
X0213Y01349D02*
X02166D01*
X0213Y01344D02*
X02166D01*
X0213Y01339D02*
X02166D01*
X0213Y01334D02*
X02166D01*
X02128Y0133D02*
X02166D01*
X02123Y01325D02*
X0214D01*
X02118Y0132D02*
X02136D01*
X02112Y01267D02*
X0213D01*
X02154Y01228D02*
X02166D01*
X02159Y01233D02*
X02167D01*
X02164Y01237D02*
X02168D01*
X02164Y01242D02*
X02169D01*
X02164Y01247D02*
X02171D01*
X02164Y01252D02*
X02172D01*
X02163Y01257D02*
X02173D01*
X02158Y01262D02*
X02174D01*
X02153Y01267D02*
X02176D01*
X02117Y01271D02*
X02177D01*
X02122Y01276D02*
X02178D01*
X02122Y01281D02*
X02178D01*
X02122Y01286D02*
X0214D01*
X02122Y01291D02*
X02135D01*
X02121Y01296D02*
X0213D01*
X02116Y013D02*
X0213D01*
X02111Y01305D02*
X0213D01*
X00693Y01315D02*
X01878D01*
X00689Y0132D02*
X00706D01*
X00684Y01325D02*
X00701D01*
X00735Y01354D02*
X01391D01*
X01467Y01383D02*
X02166D01*
X01469Y01388D02*
X02166D01*
X01471Y01393D02*
X02166D01*
X01473Y01397D02*
X02166D01*
X01474Y01402D02*
X02166D01*
X01474Y01407D02*
X02166D01*
X01474Y01412D02*
X02166D01*
X01474Y01417D02*
X02166D01*
X01474Y01422D02*
X02166D01*
X01473Y01427D02*
X02166D01*
X01471Y01431D02*
X02166D01*
X01469Y01436D02*
X02166D01*
X01467Y01441D02*
X02166D01*
X01465Y01446D02*
X02166D01*
X01461Y01451D02*
X02166D01*
X01456Y01456D02*
X02166D01*
X01451Y01461D02*
X02166D01*
X01445Y01465D02*
X02166D01*
X01434Y0147D02*
X02144D01*
X00945Y01475D02*
X02139D01*
X00943Y0147D02*
X01391D01*
X00939Y01465D02*
X01379D01*
X00934Y01461D02*
X01373D01*
X00927Y01456D02*
X01368D01*
X00898Y01451D02*
X00915D01*
X00882Y01457D02*
X00898Y01451D01*
X0087Y01469D02*
X00882Y01457D01*
X00864Y01485D02*
X0087Y01469D01*
X00864Y01485D02*
Y01502D01*
X0087Y01517*
X00882Y01529*
X00898Y01536*
X00915*
X0093Y01529*
X00942Y01517*
X00949Y01502*
Y01485D02*
Y01502D01*
X00942Y01469D02*
X00949Y01485D01*
X0093Y01457D02*
X00942Y01469D01*
X00915Y01451D02*
X0093Y01457D01*
X00915Y01451D02*
X01363D01*
X00658Y01446D02*
X01359D01*
X00658Y01441D02*
X01357D01*
X00658Y01436D02*
X01355D01*
X00658Y01431D02*
X01353D01*
X00658Y01427D02*
X01351D01*
X00658Y01422D02*
X0135D01*
X00658Y01417D02*
X0135D01*
X00658Y01412D02*
X0135D01*
X00658Y01407D02*
X0135D01*
X00658Y01402D02*
X0135D01*
X00658Y01397D02*
X01351D01*
X00658Y01393D02*
X01353D01*
X00658Y01388D02*
X01355D01*
X00658Y01383D02*
X01357D01*
X00658Y01378D02*
X01359D01*
X00658Y01373D02*
X01363D01*
X00658Y01368D02*
X01368D01*
X00658Y01364D02*
X01373D01*
X0073Y01359D02*
X01379D01*
X00658D02*
X00703D01*
X00658Y01354D02*
X00698D01*
X00658Y01349D02*
X00694D01*
X00658Y01344D02*
X00694D01*
X00658Y01339D02*
X00694D01*
X00658Y01334D02*
X00694D01*
X00658Y0133D02*
X00696D01*
X00656Y01325D02*
X0066D01*
X00653Y0132D02*
X00655D01*
X00645Y0131D02*
X00649D01*
X00642Y01305D02*
X00649D01*
X00643Y013D02*
X00649D01*
X00644Y01296D02*
X0065D01*
X00644Y01291D02*
X00655D01*
X00645Y01286D02*
X00659D01*
X0066Y01218D02*
X00717D01*
X00705Y01247D02*
X00723D01*
X00705Y01242D02*
X00719D01*
X00705Y01237D02*
X00715D01*
X007Y01233D02*
X00715D01*
X00695Y01228D02*
X00715D01*
X00659Y01223D02*
X00715D01*
X00658Y01228D02*
X0067D01*
X00657Y01233D02*
X00665D01*
X00656Y01237D02*
X00661D01*
X00655Y01242D02*
X0066D01*
X00653Y01247D02*
X0066D01*
X00652Y01252D02*
X0066D01*
X00651Y01257D02*
X00661D01*
X0065Y01262D02*
X00666D01*
X00649Y01267D02*
X00671D01*
X00648Y01271D02*
X00707D01*
X00646Y01276D02*
X00702D01*
X00646Y01281D02*
X00702D01*
X00684Y01286D02*
X00702D01*
X00689Y01291D02*
X00702D01*
X00694Y01296D02*
X00703D01*
X00694Y013D02*
X00708D01*
X00694Y01305D02*
X00713D01*
X00694Y0131D02*
X0188D01*
X01383Y01252D02*
X01921D01*
X01388Y01247D02*
X01916D01*
X01392Y01242D02*
X01911D01*
X01395Y01237D02*
X0191D01*
X01397Y01233D02*
X0191D01*
X01399Y01228D02*
X0191D01*
X014Y01223D02*
X0191D01*
X014Y01218D02*
X01915D01*
X01679Y00971D02*
X01706D01*
X01681Y00966D02*
X01703D01*
X01681Y00961D02*
X01698D01*
X0168Y00956D02*
X01695D01*
X01593D02*
X01615D01*
X00847Y01039D02*
X01501D01*
X00842Y01043D02*
X01496D01*
X01442Y01009D02*
X01464D01*
X01449Y01D02*
X01488D01*
X01447Y01005D02*
X01488D01*
X01481Y01009D02*
X01488D01*
X01486Y01014D02*
X0149D01*
X01488Y01019D02*
X01495D01*
X01512D02*
X01534D01*
X01488Y01024D02*
X01529D01*
X01488Y01029D02*
X01527D01*
X01527Y01043D02*
X01532D01*
X01523Y01039D02*
X01527D01*
X01484Y01034D02*
X01527D01*
X00851D02*
X01462D01*
X00854Y01029D02*
X01457D01*
X00854Y01024D02*
X01457D01*
X00854Y01019D02*
X01457D01*
Y01017D02*
Y01029D01*
X01466Y01038*
X01479*
X01488Y01029*
Y01017D02*
Y01029D01*
X01479Y01008D02*
X01488Y01017D01*
X01466Y01008D02*
X01479D01*
X01457Y01017D02*
X01466Y01008D01*
X00854Y01014D02*
X0146D01*
X00851Y01009D02*
X01425D01*
X00846Y01005D02*
X0142D01*
X00842Y01D02*
X01418D01*
X01401Y00985D02*
X01423D01*
X01464Y00922D02*
X01528D01*
X01469Y00927D02*
X0153D01*
X01471Y00932D02*
X01535D01*
X01552D02*
X01574D01*
X01471Y00937D02*
X01569D01*
X01471Y00942D02*
X01567D01*
X01467Y00946D02*
X01567D01*
X01434Y00966D02*
X01456D01*
X01401Y00922D02*
X01404D01*
X01399Y00917D02*
X014D01*
X01394Y00912D02*
X014D01*
X01365Y00942D02*
X01379D01*
X01361Y00937D02*
X01374D01*
X01366Y00932D02*
X0137D01*
X01368Y00927D02*
X0137D01*
X01372Y00917D02*
X01373D01*
X01374Y00912D02*
X01378D01*
X01374Y00908D02*
X014D01*
X01374Y00903D02*
X01402D01*
X0138Y00898D02*
X01407D01*
X014Y00791D02*
X01422D01*
X01056Y0083D02*
X01388D01*
X01054Y00835D02*
X0139D01*
X0105Y0084D02*
X01395D01*
X01045Y00845D02*
X0141D01*
X01433Y00854D02*
X01454D01*
X01528Y00815D02*
X0173D01*
X01523Y00811D02*
X01725D01*
X01481D02*
X01503D01*
X01486Y00806D02*
X0172D01*
X01489Y00801D02*
X01719D01*
X01445Y00782D02*
X01466D01*
X01445Y00757D02*
X01614D01*
X01449Y00762D02*
X01617D01*
X0145Y00767D02*
X01622D01*
X01627Y00772D02*
X01645D01*
X01658Y00759*
Y0074D02*
Y00759D01*
X01645Y00727D02*
X01658Y0074D01*
X01627Y00727D02*
X01645D01*
X01614Y0074D02*
X01627Y00727D01*
X01614Y0074D02*
Y00759D01*
X01627Y00772*
X0145Y00772D02*
X01626D01*
X01449Y00777D02*
X01668D01*
X01482Y00782D02*
X0167D01*
X01486Y00786D02*
X01675D01*
X01489Y00791D02*
X0168D01*
X01489Y00796D02*
X01719D01*
X01702Y00791D02*
X01719D01*
X01706Y00786D02*
X01719D01*
X01713Y00762D02*
Y0078D01*
X017Y00749D02*
X01713Y00762D01*
X01681Y00749D02*
X017D01*
X01668Y00762D02*
X01681Y00749D01*
X01668Y00762D02*
Y0078D01*
X01681Y00793*
X017*
X01713Y0078*
X01711Y00782D02*
X01723D01*
X01713Y00777D02*
X01728D01*
X01713Y00772D02*
X01769D01*
X01754Y00777D02*
X01769D01*
X01759Y00782D02*
X01774D01*
X01763Y00786D02*
X01779D01*
X01807Y0084D02*
X01821D01*
X01811Y00835D02*
X01826D01*
X01855Y00782D02*
X01864D01*
X0186Y00786D02*
X01871D01*
X01863Y00791D02*
X01877D01*
X01863Y00796D02*
X01884D01*
X01863Y00801D02*
X0189D01*
X01863Y00806D02*
X01897D01*
X01861Y00811D02*
X01903D01*
X01948Y00859D02*
X01956D01*
X01953Y00864D02*
X01961D01*
X01957Y00869D02*
X01966D01*
X01957Y00874D02*
X01971D01*
X01957Y00879D02*
X01976D01*
X01957Y00883D02*
X01981D01*
X01956Y00888D02*
X01986D01*
X01951Y00893D02*
X01991D01*
X0199Y00942D02*
X02029D01*
X01995Y00937D02*
X02025D01*
X02Y00932D02*
X02021D01*
X02Y00927D02*
X02018D01*
X02Y00922D02*
X02014D01*
X02Y00917D02*
X0201D01*
X01999Y00912D02*
X02006D01*
X01994Y00908D02*
X02003D01*
X01989Y00903D02*
X01999D01*
X01946Y00898D02*
X01995D01*
X01899Y00908D02*
X01961D01*
X01904Y00903D02*
X01966D01*
X01894Y00912D02*
X01911D01*
X01717Y00937D02*
X01899D01*
X01722Y00942D02*
X01899D01*
X01726Y00946D02*
X01903D01*
X01726Y00951D02*
X01908D01*
X01935D02*
X02001D01*
X02002Y01043D02*
X0204D01*
X02007Y01039D02*
X02035D01*
X02012Y01034D02*
X02031D01*
X02014Y01029D02*
X02028D01*
X02014Y01024D02*
X02028D01*
X02014Y01019D02*
X02028D01*
X02014Y01014D02*
X02028D01*
X02011Y01009D02*
X02031D01*
X02006Y01005D02*
X02036D01*
X02002Y01D02*
X0204D01*
X02025Y0099D02*
X02064D01*
X0203Y00985D02*
X02062D01*
X02035Y0098D02*
X02059D01*
X02037Y00976D02*
X02055D01*
X02037Y00971D02*
X02051D01*
X02037Y00966D02*
X02048D01*
X02037Y00961D02*
X02044D01*
X02033Y00956D02*
X0204D01*
X02028Y00951D02*
X02036D01*
X0194Y00946D02*
X02033D01*
X01726Y00956D02*
X01948D01*
X01732Y00961D02*
X01943D01*
X01737Y00966D02*
X01938D01*
X01737Y00971D02*
X01937D01*
X01737Y00976D02*
X01937D01*
X01741Y0098D02*
X01937D01*
X01746Y00985D02*
X01937D01*
X01748Y0099D02*
X01941D01*
X01748Y00995D02*
X01946D01*
X01748Y01D02*
X01983D01*
X01977Y0099D02*
X02004D01*
X01981Y00985D02*
X01999D01*
X01981Y0098D02*
X01995D01*
X01981Y00976D02*
X01992D01*
X01981Y00971D02*
X01992D01*
X0198Y00966D02*
X01992D01*
X01975Y00961D02*
X01992D01*
Y0096D02*
Y00978D01*
X02006Y00991*
X02024*
X02037Y00978*
Y0096D02*
Y00978D01*
X02024Y00947D02*
X02037Y0096D01*
X02006Y00947D02*
X02024D01*
X01992Y0096D02*
X02006Y00947D01*
X0197Y00956D02*
X01996D01*
X01944Y00942D02*
X01965D01*
X01944Y00937D02*
X0196D01*
X01944Y00932D02*
X01955D01*
X01944Y00927D02*
X01955D01*
X01942Y00922D02*
X01955D01*
X01937Y00917D02*
X01955D01*
Y00914D02*
Y00932D01*
X01968Y00945*
X01987*
X02Y00932*
Y00914D02*
Y00932D01*
X01987Y009D02*
X02Y00914D01*
X01968Y009D02*
X01987D01*
X01955Y00914D02*
X01968Y009D01*
X01932Y00912D02*
X01956D01*
X01904Y00898D02*
X01924D01*
X01904Y00893D02*
X01919D01*
X01904Y00888D02*
X01914D01*
X01902Y00883D02*
X01913D01*
X01898Y00879D02*
X01913D01*
X01893Y00874D02*
X01913D01*
X01901Y00859D02*
X01922D01*
X01906Y00854D02*
X01951D01*
X01911Y00849D02*
X01946D01*
X01913Y00845D02*
X01941D01*
X01913Y0084D02*
X01937D01*
X01913Y00835D02*
X01932D01*
X01913Y0083D02*
X01927D01*
X0191Y00825D02*
X01922D01*
X01905Y0082D02*
X01916D01*
X01856Y00815D02*
X0191D01*
X01813Y0083D02*
X01869D01*
X01763Y00796D02*
X01819D01*
X01763Y00791D02*
X01819D01*
X01803Y00786D02*
X01822D01*
X01808Y00782D02*
X01827D01*
X01813Y00777D02*
X01858D01*
X01813Y00772D02*
X01851D01*
X01813Y00767D02*
X01845D01*
X01813Y00762D02*
X01838D01*
X01812Y00757D02*
X01831D01*
X01808Y00752D02*
X01822D01*
X01803Y00748D02*
X01814D01*
X01782Y00745D02*
X018D01*
X01769Y00758D02*
X01782Y00745D01*
X01769Y00758D02*
Y00776D01*
X01782Y0079*
X018*
X01813Y00776*
Y00758D02*
Y00776D01*
X018Y00745D02*
X01813Y00758D01*
X01758Y00743D02*
X01805D01*
X01758Y00738D02*
X01796D01*
X01758Y00733D02*
X01787D01*
X01758Y00728D02*
X01778D01*
X01753Y00723D02*
X0177D01*
X01748Y00718D02*
X01761D01*
X01727Y00716D02*
X01745D01*
X01714Y00729D02*
X01727Y00716D01*
X01714Y00729D02*
Y00747D01*
X01727Y0076*
X01745*
X01758Y00747*
Y00729D02*
Y00747D01*
X01745Y00716D02*
X01758Y00729D01*
X01704Y00709D02*
X01743D01*
X01703Y00704D02*
X01732D01*
X01698Y00699D02*
X01719D01*
X01693Y00694D02*
X01707D01*
X01644Y00689D02*
X01694D01*
X01644Y00694D02*
X0167D01*
X01644Y00699D02*
X01666D01*
X01643Y00704D02*
X01661D01*
X01659Y00705D02*
Y00724D01*
X01672Y00737*
X01691*
X01704Y00724*
Y00705D02*
Y00724D01*
X01691Y00692D02*
X01704Y00705D01*
X01672Y00692D02*
X01691D01*
X01659Y00705D02*
X01672Y00692D01*
X01639Y00709D02*
X01659D01*
X01634Y00714D02*
X01659D01*
X01598Y00718D02*
X01659D01*
X01593Y00714D02*
X0161D01*
X01219Y00709D02*
X01605D01*
X01214Y00714D02*
X01231D01*
X01165Y00718D02*
X01226D01*
X01165Y00714D02*
X0119D01*
X01165Y00709D02*
X01186D01*
X01163Y00704D02*
X01181D01*
X01158Y00699D02*
X0118D01*
X01154Y00694D02*
X0118D01*
X01125Y00689D02*
X0118D01*
X01085Y00709D02*
X0112D01*
X01095Y00704D02*
X01121D01*
X01105Y00699D02*
X01126D01*
X01115Y00694D02*
X01131D01*
X01141Y00685D02*
X0118D01*
X01171Y00675D02*
X0119D01*
X01201Y00665D02*
X01243D01*
X01216Y0066D02*
X01248D01*
X01215Y00675D02*
X01238D01*
X01219Y0068D02*
X01238D01*
X01224Y00685D02*
X01238D01*
X01225Y00689D02*
X01238D01*
X01225Y00694D02*
X01243D01*
X01251Y00702D02*
X01269D01*
X01282Y00689*
Y00671D02*
Y00689D01*
X01269Y00658D02*
X01282Y00671D01*
X01251Y00658D02*
X01269D01*
X01238Y00671D02*
X01251Y00658D01*
X01238Y00671D02*
Y00689D01*
X01251Y00702*
X01225Y00699D02*
X01248D01*
X01225Y00685D02*
Y00703D01*
X01212Y00672D02*
X01225Y00685D01*
X01193Y00672D02*
X01212D01*
X0118Y00685D02*
X01193Y00672D01*
X0118Y00685D02*
Y00703D01*
X01193Y00716*
X01212*
X01225Y00703*
X01224Y00704D02*
X016D01*
X016Y00703D02*
X01613Y00716D01*
X01631*
X01644Y00703*
Y00685D02*
Y00703D01*
X01631Y00672D02*
X01644Y00685D01*
X01613Y00672D02*
X01631D01*
X016Y00685D02*
X01613Y00672D01*
X016Y00685D02*
Y00703D01*
X01576Y00699D02*
X016D01*
X01573Y00702D02*
X01586Y00689D01*
Y00671D02*
Y00689D01*
X01573Y00658D02*
X01586Y00671D01*
X01555Y00658D02*
X01573D01*
X01542Y00671D02*
X01555Y00658D01*
X01542Y00671D02*
Y00689D01*
X01555Y00702*
X01573*
X01253Y00714D02*
X01571D01*
X01258Y00718D02*
X01566D01*
X01263Y00723D02*
X01561D01*
X01264Y00728D02*
X0156D01*
X01264Y00733D02*
X0156D01*
X01264Y00738D02*
X0156D01*
X01264Y00743D02*
X0156D01*
X0126Y00748D02*
X01564D01*
X01573Y00756D02*
X01591D01*
X01604Y00743*
Y00725D02*
Y00743D01*
X01591Y00712D02*
X01604Y00725D01*
X01573Y00712D02*
X01591D01*
X0156Y00725D02*
X01573Y00712D01*
X0156Y00725D02*
Y00743D01*
X01573Y00756*
X01255Y00752D02*
X01569D01*
X01211D02*
X01229D01*
X01211Y00748D02*
X01224D01*
X01211Y00743D02*
X0122D01*
X01208Y00738D02*
X0122D01*
X01203Y00733D02*
X0122D01*
X01198Y00728D02*
X0122D01*
Y00725D02*
Y00743D01*
X01233Y00756*
X01251*
X01264Y00743*
Y00725D02*
Y00743D01*
X01251Y00712D02*
X01264Y00725D01*
X01233Y00712D02*
X01251D01*
X0122Y00725D02*
X01233Y00712D01*
X01165Y00723D02*
X01221D01*
X0116Y00728D02*
X01178D01*
X01155Y00733D02*
X01173D01*
X011Y00757D02*
X01116D01*
X01105Y00752D02*
X0112D01*
X01154Y00782D02*
X01376D01*
X01149Y00786D02*
X01378D01*
X01145Y00791D02*
X01383D01*
X01105Y00801D02*
X01377D01*
X01104Y00806D02*
X01372D01*
X01099Y00811D02*
X01371D01*
X01094Y00815D02*
X01371D01*
X01056Y0082D02*
X01372D01*
X01056Y00825D02*
X01377D01*
X01355Y00859D02*
X0145D01*
X01362Y00864D02*
X01449D01*
X01381Y00869D02*
X01449D01*
X01386Y00874D02*
X01451D01*
X01389Y00879D02*
X01456D01*
X01385Y00893D02*
X01489D01*
X01389Y00888D02*
X01489D01*
X01389Y00883D02*
X01491D01*
X01354Y0087D02*
X01373Y00883D01*
X01351Y00868D02*
X01354Y0087D01*
X01347Y00867D02*
X01351Y00868D01*
X01343Y00865D02*
X01347Y00867D01*
X0134Y00864D02*
X01343Y00865D01*
X01336Y00864D02*
X0134Y00864D01*
X01332Y00863D02*
X01336Y00864D01*
X01328Y00863D02*
X01332Y00863D01*
X01324Y00864D02*
X01328Y00863D01*
X0132Y00864D02*
X01324Y00864D01*
X01316Y00865D02*
X0132Y00864D01*
X01312Y00867D02*
X01316Y00865D01*
X01309Y00869D02*
X01312Y00867D01*
X01306Y00871D02*
X01309Y00869D01*
X01302Y00873D02*
X01306Y00871D01*
X013Y00876D02*
X01302Y00873D01*
X01297Y00879D02*
X013Y00876D01*
X01295Y00882D02*
X01297Y00879D01*
X01293Y00885D02*
X01295Y00882D01*
X01291Y00889D02*
X01293Y00885D01*
X01289Y00893D02*
X01291Y00889D01*
X01288Y00896D02*
X01289Y00893D01*
X01288Y009D02*
X01288Y00896D01*
X01287Y00904D02*
X01288Y009D01*
X01287Y00904D02*
X01287Y00908D01*
X01288Y00912*
X01288Y00916*
X0129Y0092*
X01291Y00924*
X01293Y00927*
X01295Y0093*
X01297Y00934*
X013Y00936*
X01303Y00939*
X01306Y00941*
X00965Y00888D02*
X0128D01*
X00965Y00893D02*
X01278D01*
X00965Y00898D02*
X01277D01*
X00965Y00903D02*
X01277D01*
X0096Y00908D02*
X01277D01*
X00956Y00912D02*
X01278D01*
X00918Y00917D02*
X01278D01*
X00923Y00922D02*
X01278D01*
X00925Y00927D02*
X01281D01*
X00925Y00932D02*
X01284D01*
X00925Y00937D02*
X01287D01*
X00925Y00942D02*
X0129D01*
X00921Y00946D02*
X01296D01*
X00916Y00951D02*
X01303D01*
X01306Y00941D02*
X01328Y00956D01*
X01319Y00971D02*
X01321D01*
X01316Y00995D02*
X01418D01*
X01321Y0099D02*
X01418D01*
X01324Y00985D02*
X01388D01*
X01324Y0098D02*
X01383D01*
X01324Y00976D02*
X01379D01*
X01335Y00971D02*
X01379D01*
X0134Y00966D02*
X01379D01*
X01362Y00961D02*
X01382D01*
X01366Y00956D02*
X01387D01*
X01402D02*
X0141D01*
X01407Y00961D02*
X01411D01*
X0141Y00966D02*
X01416D01*
X0141Y00971D02*
X01451D01*
X0141Y00976D02*
X01449D01*
X0141Y00964D02*
Y00977D01*
X01401Y00955D02*
X0141Y00964D01*
X01388Y00955D02*
X01401D01*
X01379Y00964D02*
X01388Y00955D01*
X01379Y00964D02*
Y00977D01*
X01388Y00986*
X01401*
X0141Y00977*
X01406Y0098D02*
X01449D01*
X01444Y00985D02*
X01449D01*
X01449Y0099D02*
X01453D01*
X01449Y0099D02*
Y01003D01*
X0144Y01012D02*
X01449Y01003D01*
X01427Y01012D02*
X0144D01*
X01418Y01003D02*
X01427Y01012D01*
X01418Y0099D02*
Y01003D01*
Y0099D02*
X01427Y00981D01*
X0144*
X01449Y0099*
Y00995D02*
X01492D01*
X01503Y00976D02*
X01525D01*
X01506Y00951D02*
X01567D01*
X0151Y00956D02*
X01572D01*
X0151Y00961D02*
X0161D01*
X0151Y00966D02*
X01606D01*
X01508Y00971D02*
X01606D01*
X01543Y00976D02*
X01606D01*
X01548Y0098D02*
X01609D01*
X0155Y00985D02*
X01614D01*
X01544Y01D02*
X01566D01*
X01581Y01029D02*
X01604D01*
X01631Y01097D02*
X01653D01*
X01598Y01116D02*
X0162D01*
X0159Y01073D02*
X01611D01*
X01596Y01058D02*
X01604D01*
X01595Y01053D02*
X01599D01*
X01591Y01048D02*
X01596D01*
X01553Y01043D02*
X01596D01*
X01558Y01039D02*
X01596D01*
X01558Y01034D02*
X01599D01*
X01558Y01029D02*
X01566D01*
X01556Y01024D02*
X01561D01*
X01536Y01017D02*
X01549D01*
X01527Y01026D02*
X01536Y01017D01*
X01527Y01026D02*
Y01038D01*
X01536Y01048*
X01549*
X01558Y01038*
Y01026D02*
Y01038D01*
X01549Y01017D02*
X01558Y01026D01*
X01552Y01019D02*
X01558D01*
X01517Y01014D02*
X01558D01*
X01519Y01009D02*
X01558D01*
X01519Y01005D02*
X01562D01*
X01519Y01D02*
X01524D01*
X01519Y00999D02*
Y01012D01*
X0151Y01021D02*
X01519Y01012D01*
X01497Y01021D02*
X0151D01*
X01488Y01012D02*
X01497Y01021D01*
X01488Y00999D02*
Y01012D01*
Y00999D02*
X01497Y0099D01*
X0151*
X01519Y00999*
X01515Y00995D02*
X01519D01*
X01475Y0099D02*
X01519D01*
X0148Y00985D02*
X01519D01*
X0148Y0098D02*
X0152D01*
X0148Y00976D02*
X01486D01*
X01478Y00971D02*
X01482D01*
X01458Y00964D02*
X01471D01*
X01449Y00973D02*
X01458Y00964D01*
X01449Y00973D02*
Y00986D01*
X01458Y00995*
X01471*
X0148Y00986*
Y00973D02*
Y00986D01*
X01471Y00964D02*
X0148Y00973D01*
X01473Y00966D02*
X01479D01*
X01439Y00961D02*
X01479D01*
X01441Y00956D02*
X01479D01*
Y00956D02*
Y00968D01*
X01488Y00977*
X01501*
X0151Y00968*
Y00956D02*
Y00968D01*
X01501Y00947D02*
X0151Y00956D01*
X01488Y00947D02*
X01501D01*
X01479Y00956D02*
X01488Y00947D01*
X01441Y00951D02*
X01484D01*
X01436Y00942D02*
X0144D01*
X0141Y00946D02*
X01419Y00937D01*
X01366Y00951D02*
X0141D01*
X01366Y00946D02*
X0141D01*
Y00959*
X01419Y00968*
X01431*
X01441Y00959*
Y00946D02*
Y00959D01*
Y00946D02*
X01445D01*
X01431Y00937D02*
X01441Y00946D01*
X01419Y00937D02*
X01431D01*
X01393Y00942D02*
X01414D01*
X01397Y00937D02*
X0144D01*
X01401Y00932D02*
X0144D01*
X01401Y00927D02*
X01442D01*
X0144Y00929D02*
X01449Y0092D01*
X0144Y00929D02*
Y00942D01*
X01449Y00951*
X01462*
X01471Y00942*
Y00929D02*
Y00942D01*
X01462Y0092D02*
X01471Y00929D01*
X01449Y0092D02*
X01462D01*
X01426Y00922D02*
X01447D01*
X01431Y00917D02*
X01528D01*
X01431Y00912D02*
X01528D01*
X01424Y00898D02*
X01489D01*
X01429Y00903D02*
X01493D01*
X01431Y00905D02*
Y00918D01*
X01422Y00927D02*
X01431Y00918D01*
X01409Y00927D02*
X01422D01*
X014Y00918D02*
X01409Y00927D01*
X014Y00905D02*
Y00918D01*
Y00905D02*
X01409Y00896D01*
X01422*
X01431Y00905*
Y00908D02*
X01532D01*
X0156Y00893D02*
X01617D01*
X01607Y00879D02*
X01827D01*
X01607Y00874D02*
X01822D01*
X01607Y00869D02*
X01817D01*
X01602Y00864D02*
X01814D01*
X01559D02*
X01581D01*
X01564Y00859D02*
X01814D01*
X01568Y00854D02*
X01814D01*
X01568Y00849D02*
X01814D01*
X01802Y00845D02*
X01817D01*
X01568D02*
X01779D01*
X01565Y0084D02*
X01775D01*
X0156Y00835D02*
X0177D01*
X01522D02*
X01544D01*
X01527Y0083D02*
X01768D01*
X01529Y00825D02*
X01768D01*
X01529Y0082D02*
X01768D01*
X01752Y00815D02*
X01768D01*
X01757Y00811D02*
X01773D01*
X01762Y00806D02*
X01778D01*
X01763Y00786D02*
Y00804D01*
X0175Y00773D02*
X01763Y00786D01*
X01732Y00773D02*
X0175D01*
X01719Y00786D02*
X01732Y00773D01*
X01719Y00786D02*
Y00804D01*
X01732Y00817*
X0175*
X01763Y00804*
Y00801D02*
X01819D01*
X01804Y00806D02*
X01819D01*
X01808Y00811D02*
X01821D01*
X01813Y00815D02*
Y00833D01*
X018Y00847D02*
X01813Y00833D01*
X01781Y00847D02*
X018D01*
X01768Y00833D02*
X01781Y00847D01*
X01768Y00815D02*
Y00833D01*
Y00815D02*
X01781Y00802D01*
X018*
X01813Y00815*
Y00815D02*
X01826D01*
X01813Y0082D02*
X01831D01*
X01813Y00825D02*
X01872D01*
X01851Y0082D02*
X01877D01*
X0185Y00821D02*
X01863Y00808D01*
Y0079D02*
Y00808D01*
X0185Y00777D02*
X01863Y0079D01*
X01832Y00777D02*
X0185D01*
X01819Y0079D02*
X01832Y00777D01*
X01819Y0079D02*
Y00808D01*
X01832Y00821*
X0185*
X01846Y00835D02*
X01869D01*
X01851Y0084D02*
X01869D01*
X01856Y00845D02*
X01869D01*
X01859Y00849D02*
X01871D01*
X01859Y00854D02*
X01876D01*
X01882Y0086D02*
X019D01*
X01913Y00847*
Y00829D02*
Y00847D01*
X019Y00816D02*
X01913Y00829D01*
X01882Y00816D02*
X019D01*
X01869Y00829D02*
X01882Y00816D01*
X01869Y00829D02*
Y00847D01*
X01882Y0086*
X01859Y00859D02*
X01881D01*
X01855Y00869D02*
X01913D01*
Y00868D02*
Y00887D01*
X01926Y009*
X01944*
X01957Y00887*
Y00868D02*
Y00887D01*
X01944Y00855D02*
X01957Y00868D01*
X01926Y00855D02*
X01944D01*
X01913Y00868D02*
X01926Y00855D01*
X01859Y00864D02*
X01917D01*
X0185Y00874D02*
X0187D01*
X01846Y00879D02*
X01859Y00866D01*
Y00847D02*
Y00866D01*
X01846Y00834D02*
X01859Y00847D01*
X01827Y00834D02*
X01846D01*
X01814Y00847D02*
X01827Y00834D01*
X01814Y00847D02*
Y00866D01*
X01827Y00879*
X01846*
X01846Y00879D02*
X01865D01*
X01605Y00883D02*
X01861D01*
X01563Y00888D02*
X01583D01*
X01563Y00883D02*
X01578D01*
X01563Y00879D02*
X01576D01*
X0156Y00874D02*
X01576D01*
X01555Y00869D02*
X01576D01*
X01519D02*
X01541D01*
X01524Y00864D02*
X01546D01*
X01524Y00859D02*
X01541D01*
X01524Y00854D02*
X01537D01*
X01523Y00849D02*
X01537D01*
X01518Y00845D02*
X01537D01*
Y00842D02*
Y00855D01*
X01546Y00864*
X01559*
X01568Y00855*
Y00842D02*
Y00855D01*
X01559Y00833D02*
X01568Y00842D01*
X01546Y00833D02*
X01559D01*
X01537Y00842D02*
X01546Y00833D01*
X01482Y0084D02*
X01539D01*
X01477Y00845D02*
X01499D01*
X01485Y00835D02*
X01504D01*
X01485Y0083D02*
X01499D01*
X01485Y00825D02*
X01498D01*
X01481Y0082D02*
X01498D01*
Y00816D02*
Y00829D01*
X01507Y00838*
X0152*
X01529Y00829*
Y00816D02*
Y00829D01*
X0152Y00807D02*
X01529Y00816D01*
X01507Y00807D02*
X0152D01*
X01498Y00816D02*
X01507Y00807D01*
X01476Y00815D02*
X01498D01*
X01441D02*
X01463D01*
X01446Y00811D02*
X01467D01*
X01446Y00806D02*
X01462D01*
X01446Y00801D02*
X01459D01*
X01444Y00796D02*
X01459D01*
X01439Y00791D02*
X01459D01*
Y00789D02*
Y00802D01*
X01468Y00811*
X0148*
X01489Y00802*
Y00789D02*
Y00802D01*
X0148Y0078D02*
X01489Y00789D01*
X01468Y0078D02*
X0148D01*
X01459Y00789D02*
X01468Y0078D01*
X01404Y00786D02*
X01462D01*
X01407Y00782D02*
X01425D01*
X01407Y00777D02*
X0142D01*
X01407Y00772D02*
X01419D01*
X01211Y00757D02*
X01425D01*
X01207Y00762D02*
X0142D01*
X01419Y00763D02*
Y00776D01*
X01428Y00785*
X01441*
X0145Y00776*
Y00763D02*
Y00776D01*
X01441Y00754D02*
X0145Y00763D01*
X01428Y00754D02*
X01441D01*
X01419Y00763D02*
X01428Y00754D01*
X01402Y00767D02*
X01419D01*
X01376Y00772D02*
X01385Y00762D01*
X01376Y00772D02*
Y00784D01*
X01385Y00793*
X01397*
X01407Y00784*
Y00772D02*
Y00784D01*
X01397Y00762D02*
X01407Y00772D01*
X01385Y00762D02*
X01397D01*
X01203Y00767D02*
X0138D01*
X01198Y00772D02*
X01376D01*
X01156Y00777D02*
X01376D01*
X01156Y00772D02*
X01179D01*
X01156Y00767D02*
X01174D01*
X01156Y00762D02*
X01169D01*
X01151Y00757D02*
X01166D01*
X01147Y00752D02*
X01166D01*
X0111Y00748D02*
X01166D01*
X0111Y00743D02*
X01166D01*
Y0074D02*
Y00759D01*
X01179Y00772*
X01198*
X01211Y00759*
Y0074D02*
Y00759D01*
X01198Y00727D02*
X01211Y0074D01*
X01179Y00727D02*
X01198D01*
X01166Y0074D02*
X01179Y00727D01*
X0111Y00738D02*
X01169D01*
X0111Y00733D02*
X01129D01*
X0111Y00728D02*
X01125D01*
X0112Y00724D02*
X01133Y00737D01*
X01152*
X01165Y00724*
Y00705D02*
Y00724D01*
X01152Y00692D02*
X01165Y00705D01*
X01133Y00692D02*
X01152D01*
X0112Y00705D02*
X01133Y00692D01*
X0112Y00705D02*
Y00724D01*
X01105Y00723D02*
X0112D01*
X011Y00718D02*
X0112D01*
X01075Y00714D02*
X0112D01*
X01064Y00718D02*
X01076D01*
X01054Y00723D02*
X01071D01*
X01044Y00728D02*
X01066D01*
X01034Y00733D02*
X01066D01*
X01025Y00738D02*
X01066D01*
X01055Y00767D02*
X01111D01*
X01055Y00762D02*
X01111D01*
X01055Y00757D02*
X01076D01*
X0105Y00752D02*
X01071D01*
X01045Y00748D02*
X01066D01*
X01066Y00747D02*
X01079Y0076D01*
X01097*
X0111Y00747*
Y00729D02*
Y00747D01*
X01097Y00716D02*
X0111Y00729D01*
X01079Y00716D02*
X01097D01*
X01066Y00729D02*
X01079Y00716D01*
X01066Y00729D02*
Y00747D01*
X01018Y00743D02*
X01066D01*
X01011Y00748D02*
X01021D01*
X01003Y00752D02*
X01017D01*
X00996Y00757D02*
X01012D01*
X00989Y00762D02*
X01011D01*
X00981Y00767D02*
X01011D01*
X00974Y00772D02*
X01011D01*
X00967Y00777D02*
X01011D01*
X00947Y0082D02*
X00973D01*
X00952Y00825D02*
X01011D01*
X01003Y0084D02*
X01018D01*
X01007Y00845D02*
X01022D01*
X0101Y00849D02*
X01414D01*
X01342Y00854D02*
X01419D01*
X0101D02*
X01318D01*
X0101Y00859D02*
X01303D01*
X0101Y00864D02*
X01298D01*
X01007Y00869D02*
X01292D01*
X01002Y00874D02*
X01287D01*
X00997Y00879D02*
X01284D01*
X00964Y00883D02*
X01282D01*
X00959Y00879D02*
X00978D01*
X00954Y00874D02*
X00974D01*
X00943Y00859D02*
X00966D01*
X00948Y00854D02*
X00966D01*
X00953Y00849D02*
X00966D01*
X00955Y00845D02*
X00968D01*
X00955Y0084D02*
X00973D01*
X00955Y00835D02*
X00978D01*
X00955Y0083D02*
X01011D01*
X00998Y00835D02*
X01013D01*
X00979Y00834D02*
X00997D01*
X00966Y00847D02*
X00979Y00834D01*
X00966Y00847D02*
Y00866D01*
X00979Y00879*
X00997*
X0101Y00866*
Y00847D02*
Y00866D01*
X00997Y00834D02*
X0101Y00847D01*
X00994Y0082D02*
X01011D01*
X00998Y00815D02*
X01011D01*
X01003Y00811D02*
X01016D01*
X01011Y00815D02*
X01024Y00802D01*
X01011Y00815D02*
Y00833D01*
X01024Y00847*
X01043*
X01056Y00833*
Y00815D02*
Y00833D01*
X01043Y00802D02*
X01056Y00815D01*
X01024Y00802D02*
X01043D01*
X01005Y00806D02*
X01021D01*
X01005Y00801D02*
X01061D01*
X01005Y00796D02*
X01061D01*
X01005Y00791D02*
X01061D01*
X01046Y00786D02*
X01061D01*
X0105Y00782D02*
X01065D01*
X01055Y00777D02*
X0107D01*
X01055Y00758D02*
Y00776D01*
X01042Y00745D02*
X01055Y00758D01*
X01024Y00745D02*
X01042D01*
X01011Y00758D02*
X01024Y00745D01*
X01011Y00758D02*
Y00776D01*
X01024Y0079*
X01042*
X01055Y00776*
Y00772D02*
X01111D01*
X01096Y00777D02*
X01111D01*
X01101Y00782D02*
X01113D01*
X01105Y00786D02*
Y00804D01*
X01092Y00817D02*
X01105Y00804D01*
X01074Y00817D02*
X01092D01*
X01061Y00804D02*
X01074Y00817D01*
X01061Y00786D02*
Y00804D01*
Y00786D02*
X01074Y00773D01*
X01092*
X01105Y00786*
Y00786D02*
X01118D01*
X01124Y00793D02*
X01143D01*
X01156Y0078*
Y00762D02*
Y0078D01*
X01143Y00749D02*
X01156Y00762D01*
X01124Y00749D02*
X01143D01*
X01111Y00762D02*
X01124Y00749D01*
X01111Y00762D02*
Y0078D01*
X01124Y00793*
X01105Y00791D02*
X01122D01*
X01105Y00796D02*
X01417D01*
X01396Y00801D02*
X01415D01*
X01401Y00806D02*
X01415D01*
X0141Y00811D02*
X01415D01*
Y00811D02*
X01424Y0082D01*
X01437*
X01446Y00811*
Y00798D02*
Y00811D01*
X01437Y00789D02*
X01446Y00798D01*
X01424Y00789D02*
X01437D01*
X01415Y00798D02*
X01424Y00789D01*
X01415Y00798D02*
Y00811D01*
X01415Y00815D02*
X0142D01*
X01419Y0082D02*
X01458D01*
X01433Y00825D02*
X01454D01*
X01438Y0083D02*
X01454D01*
X01441Y00835D02*
X01454D01*
X01441Y0084D02*
X01457D01*
X01463Y00846D02*
X01476D01*
X01485Y00837*
Y00824D02*
Y00837D01*
X01476Y00815D02*
X01485Y00824D01*
X01463Y00815D02*
X01476D01*
X01454Y00824D02*
X01463Y00815D01*
X01454Y00824D02*
Y00837D01*
X01463Y00846*
X01441Y00845D02*
X01461D01*
X01441Y00833D02*
Y00846D01*
X01432Y00824D02*
X01441Y00833D01*
X01419Y00824D02*
X01432D01*
X01419Y00824D02*
X01419Y00824D01*
X01419Y0082D02*
Y00824D01*
X0141Y00811D02*
X01419Y0082D01*
X01402Y00811D02*
X0141D01*
X01402Y00806D02*
Y00811D01*
X01393Y00797D02*
X01402Y00806D01*
X0138Y00797D02*
X01393D01*
X01371Y00806D02*
X0138Y00797D01*
X01371Y00806D02*
Y00819D01*
X0138Y00828*
X01388*
Y00832*
X01397Y00841*
X0141*
X0141Y00841*
Y00846*
X01419Y00855*
X01432*
X01441Y00846*
X01437Y00849D02*
X01495D01*
X01475Y00854D02*
X01493D01*
X0148Y00859D02*
X01493D01*
X0148Y00864D02*
X01494D01*
X01474Y00879D02*
X01496D01*
X01502Y00873D02*
X01515D01*
X01524Y00864*
Y00851D02*
Y00864D01*
X01515Y00842D02*
X01524Y00851D01*
X01502Y00842D02*
X01515D01*
X01493Y00851D02*
X01502Y00842D01*
X01493Y00851D02*
Y00864D01*
X01502Y00873*
X0148Y00869D02*
X01498D01*
X0148Y00859D02*
Y00872D01*
X01471Y0085D02*
X0148Y00859D01*
X01458Y0085D02*
X01471D01*
X01449Y00859D02*
X01458Y0085D01*
X01449Y00859D02*
Y00872D01*
X01458Y00881*
X01471*
X0148Y00872*
X01479Y00874D02*
X01536D01*
X01512Y00879D02*
X01532D01*
X01517Y00883D02*
X01532D01*
X01519Y00888D02*
X01532D01*
X01519Y00893D02*
X01535D01*
X01519Y00898D02*
X0154D01*
X01519Y00886D02*
Y00898D01*
X0151Y00877D02*
X01519Y00886D01*
X01498Y00877D02*
X0151D01*
X01489Y00886D02*
X01498Y00877D01*
X01489Y00886D02*
Y00898D01*
X01498Y00908*
X0151*
X01519Y00898*
X01515Y00903D02*
X01572D01*
X01555Y00898D02*
X01577D01*
X01554Y00899D02*
X01563Y0089D01*
Y00877D02*
Y0089D01*
X01554Y00868D02*
X01563Y00877D01*
X01541Y00868D02*
X01554D01*
X01532Y00877D02*
X01541Y00868D01*
X01532Y00877D02*
Y0089D01*
X01541Y00899*
X01554*
Y00908D02*
X01571D01*
X01559Y00912D02*
X01571D01*
X01559Y00917D02*
X01572D01*
X01559Y00922D02*
X01577D01*
X01559Y00912D02*
Y00925D01*
X0155Y00903D02*
X01559Y00912D01*
X01537Y00903D02*
X0155D01*
X01528Y00912D02*
X01537Y00903D01*
X01528Y00912D02*
Y00925D01*
X01537Y00934*
X0155*
X01559Y00925*
X01557Y00927D02*
X01614D01*
X01597Y00922D02*
X01619D01*
X01591Y00932D02*
X01611D01*
X01596Y00937D02*
X01611D01*
X01598Y00942D02*
X01611D01*
X01598Y00946D02*
X01614D01*
X01598Y00939D02*
Y00951D01*
X01589Y00929D02*
X01598Y00939D01*
X01576Y00929D02*
X01589D01*
X01567Y00939D02*
X01576Y00929D01*
X01567Y00939D02*
Y00951D01*
X01576Y0096*
X01589*
X01598Y00951*
Y00951D02*
X01619D01*
X01638Y00946D02*
X01695D01*
X01676Y00951D02*
X01695D01*
X01678Y00942D02*
X01699D01*
X01683Y00937D02*
X01704D01*
X01685Y00932D02*
X01899D01*
Y00924D02*
Y00942D01*
X01912Y00955*
X01931*
X01944Y00942*
Y00924D02*
Y00942D01*
X01931Y00911D02*
X01944Y00924D01*
X01912Y00911D02*
X01931D01*
X01899Y00924D02*
X01912Y00911D01*
X01685Y00927D02*
X01899D01*
X01685Y00922D02*
X01901D01*
X01681Y00917D02*
X01906D01*
X01601D02*
X01659D01*
X01602Y00912D02*
X0162D01*
X01602Y00908D02*
X01615D01*
X01602Y00903D02*
X01615D01*
X01597Y00898D02*
X01615D01*
X01581Y00895D02*
X01593D01*
X01571Y00904D02*
X01581Y00895D01*
X01571Y00904D02*
Y00916D01*
X01581Y00925*
X01593*
X01602Y00916*
Y00904D02*
Y00916D01*
X01593Y00895D02*
X01602Y00904D01*
X01598Y00891D02*
X01607Y00881D01*
Y00869D02*
Y00881D01*
X01598Y0086D02*
X01607Y00869D01*
X01585Y0086D02*
X01598D01*
X01576Y00869D02*
X01585Y0086D01*
X01576Y00869D02*
Y00881D01*
X01585Y00891*
X01598*
X016Y00888D02*
X01622D01*
X01639D02*
X01859D01*
X01644Y00893D02*
X01859D01*
X01646Y00898D02*
X01859D01*
X01646Y00903D02*
X01859D01*
X01646Y00908D02*
X01864D01*
X01872Y00916D02*
X01891D01*
X01904Y00903*
Y00885D02*
Y00903D01*
X01891Y00872D02*
X01904Y00885D01*
X01872Y00872D02*
X01891D01*
X01859Y00885D02*
X01872Y00872D01*
X01859Y00885D02*
Y00903D01*
X01872Y00916*
X01642Y00912D02*
X01869D01*
X01637Y00917D02*
X01646Y00908D01*
Y00895D02*
Y00908D01*
X01637Y00886D02*
X01646Y00895D01*
X01624Y00886D02*
X01637D01*
X01615Y00895D02*
X01624Y00886D01*
X01615Y00895D02*
Y00908D01*
X01624Y00917*
X01637*
X01634Y00922D02*
X01654D01*
X01639Y00927D02*
X01654D01*
X01642Y00932D02*
X01654D01*
X01642Y00937D02*
X01657D01*
X01642Y00942D02*
X01662D01*
X01663Y00943D02*
X01676D01*
X01685Y00934*
Y00922D02*
Y00934D01*
X01676Y00912D02*
X01685Y00922D01*
X01663Y00912D02*
X01676D01*
X01654Y00922D02*
X01663Y00912D01*
X01654Y00922D02*
Y00934D01*
X01663Y00943*
X01633Y00951D02*
X01655D01*
X01632Y00952D02*
X01642Y00943D01*
Y0093D02*
Y00943D01*
X01632Y00921D02*
X01642Y0093D01*
X0162Y00921D02*
X01632D01*
X01611Y0093D02*
X0162Y00921D01*
X01611Y0093D02*
Y00943D01*
X0162Y00952*
X01632*
X01628Y00956D02*
X0165D01*
X01633Y00961D02*
X0165D01*
X01637Y00966D02*
X0165D01*
X01637Y00971D02*
X01651D01*
X01637Y00976D02*
X01656D01*
X01671Y01009D02*
X01728D01*
X01676Y01005D02*
X01721D01*
X01676Y01D02*
X01717D01*
X01676Y00995D02*
X01717D01*
X01675Y0099D02*
X01717D01*
X0167Y00985D02*
X01713D01*
X01672Y00978D02*
X01681Y00969D01*
Y00956D02*
Y00969D01*
X01672Y00947D02*
X01681Y00956D01*
X01659Y00947D02*
X01672D01*
X0165Y00956D02*
X01659Y00947D01*
X0165Y00956D02*
Y00969D01*
X01659Y00978*
X01672*
X01674Y00976D02*
X01706D01*
X01634Y0098D02*
X01708D01*
X01628Y00987D02*
X01637Y00978D01*
Y00965D02*
Y00978D01*
X01628Y00956D02*
X01637Y00965D01*
X01615Y00956D02*
X01628D01*
X01606Y00965D02*
X01615Y00956D01*
X01606Y00965D02*
Y00978D01*
X01615Y00987*
X01628*
X01629Y00985D02*
X01651D01*
X0155Y0099D02*
X01647D01*
X0155Y00982D02*
Y00995D01*
X0154Y00973D02*
X0155Y00982D01*
X01528Y00973D02*
X0154D01*
X01519Y00982D02*
X01528Y00973D01*
X01519Y00982D02*
Y00995D01*
X01528Y01004*
X0154*
X0155Y00995*
X01549Y00995D02*
X01645D01*
X0158Y01D02*
X01645D01*
X01585Y01005D02*
X01646D01*
X01654Y01013D02*
X01667D01*
X01676Y01004*
Y00991D02*
Y01004D01*
X01667Y00982D02*
X01676Y00991D01*
X01654Y00982D02*
X01667D01*
X01645Y00991D02*
X01654Y00982D01*
X01645Y00991D02*
Y01004D01*
X01654Y01013*
X01589Y01009D02*
X01651D01*
X01589Y01014D02*
X01728D01*
X01589Y01019D02*
X01728D01*
X01589Y01008D02*
Y01021D01*
X0158Y00999D02*
X01589Y01008D01*
X01567Y00999D02*
X0158D01*
X01558Y01008D02*
X01567Y00999D01*
X01558Y01008D02*
Y01021D01*
X01567Y0103*
X0158*
X01589Y01021*
X01586Y01024D02*
X0173D01*
X01618Y01029D02*
X01735D01*
X01623Y01034D02*
X01738D01*
X01626Y01039D02*
X01738D01*
X01626Y01043D02*
X01739D01*
X01626Y01048D02*
X01743D01*
X01623Y01053D02*
X01644D01*
X01617Y01059D02*
X01626Y0105D01*
Y01037D02*
Y0105D01*
X01617Y01028D02*
X01626Y01037D01*
X01605Y01028D02*
X01617D01*
X01596Y01037D02*
X01605Y01028D01*
X01596Y01037D02*
Y0105D01*
X01605Y01059*
X01617*
X01618Y01058D02*
X01639D01*
X01596Y01063D02*
X01636D01*
X01595Y01068D02*
X01636D01*
X0163Y01073D02*
X01636D01*
X01635Y01077D02*
X0164D01*
X01636Y01082D02*
X01644D01*
X01659D02*
X01681D01*
X01636Y01087D02*
X01676D01*
X01636Y01092D02*
X01675D01*
X01667Y01097D02*
X01675D01*
X01672Y01102D02*
X01677D01*
X01676Y01106D02*
X01681D01*
X01676Y0117D02*
X01698D01*
X01395Y01194D02*
X01698D01*
X01393Y01189D02*
X01693D01*
X01388Y01184D02*
X01692D01*
X01384Y01179D02*
X01692D01*
X01377Y01174D02*
X01693D01*
X01366Y0117D02*
X01661D01*
X00774Y01165D02*
X01656D01*
X00769Y0116D02*
X01653D01*
X00764Y01155D02*
X01653D01*
X00696Y01111D02*
X00707D01*
X00694Y01116D02*
X00702D01*
X00692Y01121D02*
X00698D01*
X0069Y01126D02*
X00697D01*
X00689Y01131D02*
X00697D01*
X00687Y01136D02*
X00697D01*
X00685Y0114D02*
X00697D01*
X00683Y01145D02*
X00702D01*
X00681Y0115D02*
X00706D01*
X0068Y01155D02*
X00744D01*
X00708Y01165D02*
X00734D01*
X00713Y0117D02*
X00732D01*
X00718Y01174D02*
X00732D01*
X00721Y01179D02*
X00732D01*
X00721Y01184D02*
X00732D01*
X00721Y01189D02*
X00735D01*
X00745Y01198D02*
X00763D01*
X00776Y01185*
Y01167D02*
Y01185D01*
X00763Y01154D02*
X00776Y01167D01*
X00745Y01154D02*
X00763D01*
X00732Y01167D02*
X00745Y01154D01*
X00732Y01167D02*
Y01185D01*
X00745Y01198*
X00721Y01194D02*
X0074D01*
X00719Y01199D02*
X01309D01*
X00705Y01252D02*
X01323D01*
X00704Y01257D02*
X01331D01*
X00699Y01262D02*
X01342D01*
X00692Y01269D02*
X00705Y01256D01*
Y01238D02*
Y01256D01*
X00692Y01225D02*
X00705Y01238D01*
X00673Y01225D02*
X00692D01*
X0066Y01238D02*
X00673Y01225D01*
X0066Y01238D02*
Y01256D01*
X00673Y01269*
X00692*
X00694Y01267D02*
X00712D01*
X00742Y01271D02*
X0196D01*
X00747Y01276D02*
X0196D01*
X00747Y01281D02*
X0196D01*
X01954Y01354D02*
X02089D01*
X0195Y01359D02*
X02094D01*
X01945Y01364D02*
X02166D01*
X01939Y01368D02*
X02166D01*
X01927Y01373D02*
X02166D01*
X01465Y01378D02*
X02166D01*
X01461Y01373D02*
X01909D01*
X01456Y01368D02*
X01897D01*
X01451Y01364D02*
X0189D01*
X01445Y01359D02*
X01885D01*
X014Y0135D02*
X01424D01*
X01377Y01359D02*
X014Y0135D01*
X01359Y01377D02*
X01377Y01359D01*
X0135Y014D02*
X01359Y01377D01*
X0135Y014D02*
Y01424D01*
X01359Y01447*
X01377Y01465*
X014Y01474*
X01424*
X01447Y01465*
X01465Y01447*
X01474Y01424*
Y014D02*
Y01424D01*
X01465Y01377D02*
X01474Y014D01*
X01447Y01359D02*
X01465Y01377D01*
X01424Y0135D02*
X01447Y01359D01*
X01434Y01354D02*
X01881D01*
X00739Y01349D02*
X01879D01*
X00739Y01344D02*
X01877D01*
X00739Y01339D02*
X01875D01*
X00739Y01334D02*
X01875D01*
X00737Y0133D02*
X01875D01*
X00732Y01325D02*
X01875D01*
X00727Y0132D02*
X01876D01*
X00707Y01319D02*
X00726D01*
X00694Y01332D02*
X00707Y01319D01*
X00694Y01332D02*
Y0135D01*
X00707Y01363*
X00726*
X00739Y0135*
Y01332D02*
Y0135D01*
X00726Y01319D02*
X00739Y01332D01*
X00736Y01305D02*
X01883D01*
X00741Y013D02*
X01888D01*
X00746Y01296D02*
X01893D01*
X00747Y01291D02*
X01904D01*
X00747Y01286D02*
X01964D01*
X01947Y013D02*
X02022D01*
X01952Y01305D02*
X02017D01*
X01955Y0131D02*
X02012D01*
X01957Y01315D02*
X0201D01*
X01959Y0132D02*
X0201D01*
X0196Y01325D02*
X0201D01*
X0196Y0133D02*
X0201D01*
X0196Y01334D02*
X02013D01*
X0196Y01339D02*
X02018D01*
X01958Y01344D02*
X02023D01*
X01956Y01349D02*
X02085D01*
X02041Y01344D02*
X02085D01*
X02046Y01339D02*
X02085D01*
X02051Y01334D02*
X02085D01*
X02054Y0133D02*
X02087D01*
X02054Y01325D02*
X02092D01*
X02052Y0131D02*
X0213D01*
X02054Y01315D02*
X02131D01*
X02054Y0132D02*
X02097D01*
X02085Y01332D02*
X02098Y01319D01*
X02085Y01332D02*
Y0135D01*
X02098Y01363*
X02117*
X0213Y0135*
Y01332D02*
Y0135D01*
X02117Y01319D02*
X0213Y01332D01*
X02098Y01319D02*
X02117D01*
X02047Y01305D02*
X02088D01*
X02023Y013D02*
X02041D01*
X0201Y01313D02*
X02023Y013D01*
X0201Y01313D02*
Y01331D01*
X02023Y01344*
X02041*
X02054Y01331*
Y01313D02*
Y01331D01*
X02041Y013D02*
X02054Y01313D01*
X02042Y013D02*
X02083D01*
X01943Y01296D02*
X02078D01*
X01909Y01289D02*
X01926D01*
X01894Y01295D02*
X01909Y01289D01*
X01882Y01307D02*
X01894Y01295D01*
X01875Y01323D02*
X01882Y01307D01*
X01875Y01323D02*
Y01339D01*
X01882Y01355*
X01894Y01367*
X01909Y01374*
X01926*
X01942Y01367*
X01954Y01355*
X0196Y01339*
Y01323D02*
Y01339D01*
X01954Y01307D02*
X0196Y01323D01*
X01942Y01295D02*
X01954Y01307D01*
X01926Y01289D02*
X01942Y01295D01*
X01932Y01291D02*
X01969D01*
X01995D02*
X02077D01*
X02Y01286D02*
X02077D01*
X02004Y01281D02*
X02077D01*
X02004Y01276D02*
X02077D01*
X02004Y01271D02*
X02082D01*
X02077Y01276D02*
X0209Y01263D01*
X02077Y01276D02*
Y01295D01*
X0209Y01308*
X02109*
X02122Y01295*
Y01276D02*
Y01295D01*
X02109Y01263D02*
X02122Y01276D01*
X0209Y01263D02*
X02109D01*
X02004Y01267D02*
X02087D01*
X02003Y01262D02*
X02125D01*
X01998Y01257D02*
X0212D01*
X01993Y01252D02*
X02119D01*
X02101Y01247D02*
X02119D01*
X02106Y01242D02*
X02119D01*
X02109Y01237D02*
X02119D01*
X02109Y01233D02*
X02124D01*
X02119Y01238D02*
X02132Y01225D01*
X02119Y01238D02*
Y01256D01*
X02132Y01269*
X02151*
X02164Y01256*
Y01238D02*
Y01256D01*
X02151Y01225D02*
X02164Y01238D01*
X02132Y01225D02*
X02151D01*
X02109Y01228D02*
X02129D01*
X02109Y01223D02*
X02164D01*
X02107Y01218D02*
X02163D01*
X01745Y01179D02*
X02048D01*
X0175Y01174D02*
X02048D01*
X01754Y0117D02*
X02048D01*
X01754Y01165D02*
X0205D01*
X0186Y0116D02*
X02055D01*
X01754D02*
X01837D01*
X01751Y01155D02*
X01833D01*
X01746Y0115D02*
X01822D01*
X01709D02*
X01731D01*
X01714Y01145D02*
X01817D01*
X01744Y01121D02*
X01821D01*
X01744Y01126D02*
X01816D01*
X01742Y01131D02*
X01814D01*
X01737Y01136D02*
X01814D01*
X01715Y0114D02*
X01814D01*
X01715Y01136D02*
X0172D01*
X01714Y01131D02*
X01715D01*
X01709Y01126D02*
X01713D01*
X01676Y01111D02*
X01718D01*
X01672Y01121D02*
X01713D01*
X01676Y01116D02*
X01713D01*
X01667Y01126D02*
X01689D01*
X01676Y0114D02*
X01684D01*
X01681Y01145D02*
X01685D01*
X01684Y0115D02*
X0169D01*
X01684Y01155D02*
X01726D01*
X01684Y0116D02*
X01723D01*
X01681Y01165D02*
X01723D01*
X01718Y0117D02*
X01723D01*
X01723Y01174D02*
X01727D01*
X01732Y0118D02*
X01745D01*
X01754Y01171*
Y01158D02*
Y01171D01*
X01745Y01149D02*
X01754Y01158D01*
X01732Y01149D02*
X01745D01*
X01723Y01158D02*
X01732Y01149D01*
X01723Y01158D02*
Y01171D01*
X01732Y0118*
X01723Y01179D02*
X01732D01*
X01723Y01184D02*
X02048D01*
X01722Y01189D02*
X02051D01*
X01714Y01197D02*
X01723Y01188D01*
Y01175D02*
Y01188D01*
X01714Y01166D02*
X01723Y01175D01*
X01701Y01166D02*
X01714D01*
X01692Y01175D02*
X01701Y01166D01*
X01692Y01175D02*
Y01188D01*
X01701Y01197*
X01714*
X01717Y01194D02*
X02056D01*
X02089Y01189D02*
X02103D01*
X02092Y01184D02*
X02103D01*
X02092Y01179D02*
X02103D01*
X02092Y01174D02*
X02106D01*
X02092Y0117D02*
X02111D01*
X0209Y01165D02*
X02116D01*
X01864Y0115D02*
X02093D01*
X01864Y01155D02*
X0206D01*
X017Y01106D02*
X02032D01*
X01706Y01092D02*
X01774D01*
X01706Y01087D02*
X01769D01*
X01701Y01082D02*
X01766D01*
X01664Y01077D02*
X01766D01*
X01667Y01073D02*
X01757D01*
X01667Y01068D02*
X01752D01*
X01667Y01063D02*
X01749D01*
X01664Y01058D02*
X01749D01*
X01645Y01052D02*
X01658D01*
X01636Y01061D02*
X01645Y01052D01*
X01636Y01061D02*
Y01074D01*
X01645Y01083*
X01658*
X01667Y01074*
Y01061D02*
Y01074D01*
X01658Y01052D02*
X01667Y01061D01*
X01659Y01053D02*
X01749D01*
X01771Y01043D02*
X01982D01*
X01769Y01039D02*
X01977D01*
X01769Y01034D02*
X01973D01*
X01768Y01029D02*
X0197D01*
X01763Y01024D02*
X0197D01*
X01758Y01019D02*
X0197D01*
X01758Y01014D02*
X0197D01*
Y01013D02*
Y01031D01*
X01983Y01044*
X02001*
X02014Y01031*
Y01013D02*
Y01031D01*
X02001Y00999D02*
X02014Y01013D01*
X01983Y00999D02*
X02001D01*
X0197Y01013D02*
X01983Y00999D01*
X01758Y01009D02*
X01973D01*
X01754Y01005D02*
X01978D01*
X01968Y00999D02*
X01981Y00986D01*
Y00967D02*
Y00986D01*
X01968Y00954D02*
X01981Y00967D01*
X0195Y00954D02*
X01968D01*
X01937Y00967D02*
X0195Y00954D01*
X01937Y00967D02*
Y00986D01*
X0195Y00999*
X01968*
X01972Y00995D02*
X02067D01*
X0206Y01D02*
X0207D01*
X02064Y01005D02*
X02073D01*
X02069Y01009D02*
X02075D01*
X02072Y01014D02*
X02078D01*
X02072Y01019D02*
X02081D01*
X02072Y01024D02*
X02084D01*
X02072Y01029D02*
X02087D01*
X02069Y01034D02*
X02089D01*
X02065Y01039D02*
X02092D01*
X0209Y01053D02*
X02101D01*
X02095Y01058D02*
X02103D01*
X021Y01063D02*
X02106D01*
X02101Y01068D02*
X02109D01*
X02101Y01073D02*
X02112D01*
X02101Y01077D02*
X02113D01*
X02101Y01082D02*
X02115D01*
X02097Y01087D02*
X02117D01*
X02092Y01092D02*
X02119D01*
X02069Y01111D02*
X02093D01*
X0207Y01116D02*
X02089D01*
X0207Y01121D02*
X02084D01*
X0207Y01126D02*
X02083D01*
X0207Y01131D02*
X02083D01*
X02066Y01136D02*
X02083D01*
X02061Y0114D02*
X02083D01*
X01864Y01145D02*
X02088D01*
X01862Y0114D02*
X02035D01*
X01857Y01136D02*
X0203D01*
X01844Y01131D02*
X02026D01*
X01842Y01126D02*
X02026D01*
X01823Y0112D02*
X01835D01*
X01814Y01129D02*
X01823Y0112D01*
X01814Y01129D02*
Y01142D01*
X01823Y01151*
X01833*
Y01156*
X01842Y01165*
X01855*
X01864Y01156*
Y01143D02*
Y01156D01*
X01855Y01134D02*
X01864Y01143D01*
X01844Y01134D02*
X01855D01*
X01844Y01129D02*
Y01134D01*
X01835Y0112D02*
X01844Y01129D01*
X01837Y01121D02*
X02026D01*
X01744Y01116D02*
X02026D01*
X01722Y01107D02*
X01735D01*
X01713Y01116D02*
X01722Y01107D01*
X01713Y01116D02*
Y01129D01*
X01722Y01138*
X01735*
X01744Y01129*
Y01116D02*
Y01129D01*
X01735Y01107D02*
X01744Y01116D01*
X01739Y01111D02*
X02027D01*
X0179Y01092D02*
X02011D01*
X01795Y01087D02*
X02007D01*
X01797Y01082D02*
X02002D01*
X01797Y01077D02*
X02001D01*
X01797Y01073D02*
X02001D01*
X01793Y01068D02*
X02001D01*
X01788Y01063D02*
X02001D01*
X0178Y01058D02*
X02005D01*
X0178Y01053D02*
X0201D01*
X01771Y01043D02*
X0178Y01052D01*
X01769Y01043D02*
X01771D01*
X01769Y0103D02*
Y01043D01*
X0176Y01021D02*
X01769Y0103D01*
X01758Y01021D02*
X0176D01*
X01758Y01009D02*
Y01021D01*
X01749Y01D02*
X01758Y01009D01*
X01748Y01D02*
X01749D01*
X01748Y00987D02*
Y01D01*
X01739Y00978D02*
X01748Y00987D01*
X01737Y00978D02*
X01739D01*
X01737Y00966D02*
Y00978D01*
X01728Y00957D02*
X01737Y00966D01*
X01726Y00957D02*
X01728D01*
X01726Y00946D02*
Y00957D01*
X01717Y00936D02*
X01726Y00946D01*
X01704Y00936D02*
X01717D01*
X01695Y00946D02*
X01704Y00936D01*
X01695Y00946D02*
Y00958D01*
X01704Y00967*
X01706*
Y00979*
X01715Y00988*
X01717*
Y01*
X01726Y01009*
X01728*
Y01022*
X01737Y01031*
X01738*
Y01043*
X01747Y01052*
X01749*
Y01064*
X01758Y01073*
X01766*
Y01084*
X01775Y01094*
X01788*
X01797Y01084*
Y01072D02*
Y01084D01*
X01788Y01063D02*
X01797Y01072D01*
X0178Y01063D02*
X01788D01*
X0178Y01052D02*
Y01063D01*
X01776Y01048D02*
X02098D01*
X0206Y01043D02*
X02095D01*
X02059Y01044D02*
X02072Y01031D01*
Y01012D02*
Y01031D01*
X02059Y00999D02*
X02072Y01012D01*
X02041Y00999D02*
X02059D01*
X02028Y01012D02*
X02041Y00999D01*
X02028Y01012D02*
Y01031D01*
X02041Y01044*
X02059*
X02036Y01053D02*
X02068D01*
X0204Y01058D02*
X02063D01*
X02045Y01063D02*
X02058D01*
X02045Y01068D02*
X02057D01*
X02045Y01073D02*
X02057D01*
X02045Y01077D02*
X02057D01*
X02044Y01082D02*
X02057D01*
X02039Y01087D02*
X02061D01*
X0207Y01096D02*
X02088D01*
X02101Y01083*
Y01064D02*
Y01083D01*
X02088Y01051D02*
X02101Y01064D01*
X0207Y01051D02*
X02088D01*
X02057Y01064D02*
X0207Y01051D01*
X02057Y01064D02*
Y01083D01*
X0207Y01096*
X02034Y01092D02*
X02066D01*
X02032Y01094D02*
X02045Y01081D01*
Y01063D02*
Y01081D01*
X02032Y0105D02*
X02045Y01063D01*
X02014Y0105D02*
X02032D01*
X02001Y01063D02*
X02014Y0105D01*
X02001Y01063D02*
Y01081D01*
X02014Y01094*
X02032*
X02026Y01112D02*
X02039Y01099D01*
X02026Y01112D02*
Y01131D01*
X02039Y01144*
X02057*
X0207Y01131*
Y01112D02*
Y01131D01*
X02057Y01099D02*
X0207Y01112D01*
X02039Y01099D02*
X02057D01*
X01705Y01102D02*
X02037D01*
X01706Y01088D02*
Y011D01*
X01697Y01079D02*
X01706Y01088D01*
X01684Y01079D02*
X01697D01*
X01675Y01088D02*
X01684Y01079D01*
X01675Y01088D02*
Y011D01*
X01684Y01109*
X01697*
X01706Y011*
Y01097D02*
X02121D01*
X02059Y01102D02*
X02123D01*
X02064Y01106D02*
X02125D01*
X02117Y01111D02*
X02127D01*
X02122Y01116D02*
X02129D01*
X02127Y01121D02*
X02131D01*
X02127Y01126D02*
X02133D01*
X02127Y01131D02*
X02135D01*
X02127Y01136D02*
X02137D01*
X02127Y0114D02*
X02139D01*
X02122Y01145D02*
X02141D01*
X02114Y01153D02*
X02127Y0114D01*
Y01122D02*
Y0114D01*
X02114Y01109D02*
X02127Y01122D01*
X02096Y01109D02*
X02114D01*
X02083Y01122D02*
X02096Y01109D01*
X02083Y01122D02*
Y0114D01*
X02096Y01153*
X02114*
X02118Y0115D02*
X02143D01*
X02081Y01155D02*
X02145D01*
X02085Y0116D02*
X02147D01*
X02135Y01165D02*
X02149D01*
X02139Y0117D02*
X02151D01*
X02144Y01174D02*
X02152D01*
X02148Y01179D02*
X02153D01*
X02148Y01184D02*
X02155D01*
X02148Y01189D02*
X02156D01*
X02148Y01194D02*
X02157D01*
X02145Y01199D02*
X02158D01*
X0214Y01203D02*
X0216D01*
X02135Y01208D02*
X02161D01*
X02102Y01213D02*
X02162D01*
X02097Y01208D02*
X02115D01*
X01399Y01203D02*
X0211D01*
X01397Y01199D02*
X02106D01*
X02103Y01196D02*
X02116Y01209D01*
X02135*
X02148Y01196*
Y01178D02*
Y01196D01*
X02135Y01165D02*
X02148Y01178D01*
X02116Y01165D02*
X02135D01*
X02103Y01178D02*
X02116Y01165D01*
X02103Y01178D02*
Y01196D01*
X02084Y01194D02*
X02103D01*
X02079Y01198D02*
X02092Y01185D01*
Y01167D02*
Y01185D01*
X02079Y01154D02*
X02092Y01167D01*
X02061Y01154D02*
X02079D01*
X02048Y01167D02*
X02061Y01154D01*
X02048Y01167D02*
Y01185D01*
X02061Y01198*
X02079*
X014Y01208D02*
X02077D01*
X014Y01213D02*
X01919D01*
X01945D02*
X02072D01*
X0195Y01218D02*
X02067D01*
X01954Y01223D02*
X02065D01*
X01954Y01228D02*
X02065D01*
X01954Y01233D02*
X02065D01*
X01954Y01237D02*
X02065D01*
X01953Y01242D02*
X02068D01*
X02078Y01252D02*
X02096D01*
X02109Y01239*
Y0122D02*
Y01239D01*
X02096Y01207D02*
X02109Y0122D01*
X02078Y01207D02*
X02096D01*
X02065Y0122D02*
X02078Y01207D01*
X02065Y0122D02*
Y01239D01*
X02078Y01252*
X01948Y01247D02*
X02073D01*
X01923Y01254D02*
X01941D01*
X0191Y01241D02*
X01923Y01254D01*
X0191Y01223D02*
Y01241D01*
Y01223D02*
X01923Y0121D01*
X01941*
X01954Y01223*
Y01241*
X01941Y01254D02*
X01954Y01241D01*
X01944Y01252D02*
X01971D01*
X01375Y01257D02*
X01966D01*
X01364Y01262D02*
X01961D01*
X0196Y01263D02*
Y01281D01*
X01973Y01294*
X01991*
X02004Y01281*
Y01263D02*
Y01281D01*
X01991Y0125D02*
X02004Y01263D01*
X01973Y0125D02*
X01991D01*
X0196Y01263D02*
X01973Y0125D01*
X00737Y01267D02*
X0196D01*
X00715Y01263D02*
X00734D01*
X00702Y01276D02*
X00715Y01263D01*
X00702Y01276D02*
Y01295D01*
X00715Y01308*
X00734*
X00747Y01295*
Y01276D02*
Y01295D01*
X00734Y01263D02*
X00747Y01276D01*
X00751Y01247D02*
X01318D01*
X00756Y01242D02*
X01314D01*
X00759Y01237D02*
X01311D01*
X00759Y01233D02*
X01309D01*
X00759Y01228D02*
X01307D01*
X00759Y01223D02*
X01306D01*
X00757Y01218D02*
X01306D01*
X00752Y01213D02*
X01306D01*
X00728Y01207D02*
X00746D01*
X00715Y0122D02*
X00728Y01207D01*
X00715Y0122D02*
Y01239D01*
X00728Y01252*
X00746*
X00759Y01239*
Y0122D02*
Y01239D01*
X00746Y01207D02*
X00759Y0122D01*
X00748Y01208D02*
X01306D01*
Y01206D02*
Y01225D01*
X01313Y01242*
X01326Y01255*
X01344Y01262*
X01362*
X0138Y01255*
X01393Y01242*
X014Y01225*
Y01206D02*
Y01225D01*
X01393Y01189D02*
X014Y01206D01*
X0138Y01175D02*
X01393Y01189D01*
X01362Y01168D02*
X0138Y01175D01*
X01344Y01168D02*
X01362D01*
X01326Y01175D02*
X01344Y01168D01*
X01313Y01189D02*
X01326Y01175D01*
X01306Y01206D02*
X01313Y01189D01*
X00714Y01203D02*
X01307D01*
X00709Y01208D02*
X00727D01*
X00662Y01213D02*
X00722D01*
X00663Y01208D02*
X00689D01*
X00664Y01203D02*
X00684D01*
X00665Y01199D02*
X00679D01*
X00666Y01194D02*
X00677D01*
X00667Y01189D02*
X00677D01*
X00669Y01184D02*
X00677D01*
X00671Y01179D02*
X00677D01*
X00672Y01174D02*
X0068D01*
X00674Y0117D02*
X00685D01*
X00677Y01178D02*
X0069Y01165D01*
X00677Y01178D02*
Y01196D01*
X0069Y01209*
X00708*
X00721Y01196*
Y01178D02*
Y01196D01*
X00708Y01165D02*
X00721Y01178D01*
X0069Y01165D02*
X00708D01*
X00676D02*
X0069D01*
X00678Y0116D02*
X00739D01*
X00731Y0115D02*
X01653D01*
X01644Y01136D02*
X01684D01*
Y01131D02*
Y01144D01*
X01693Y01153*
X01706*
X01715Y01144*
Y01131D02*
Y01144D01*
X01706Y01122D02*
X01715Y01131D01*
X01693Y01122D02*
X01706D01*
X01684Y01131D02*
X01693Y01122D01*
X01645Y01131D02*
X01684D01*
X01645Y01126D02*
X01653D01*
X01644Y01121D02*
X01648D01*
X01639Y01116D02*
X01645D01*
X01603Y01111D02*
X01645D01*
X01606Y01106D02*
X01645D01*
Y01105D02*
Y01118D01*
X01654Y01127*
X01666*
X01676Y01118*
Y01105D02*
Y01118D01*
X01666Y01096D02*
X01676Y01105D01*
X01654Y01096D02*
X01666D01*
X01645Y01105D02*
X01654Y01096D01*
X01606Y01102D02*
X01648D01*
X01606Y01097D02*
X01611D01*
X01602Y01092D02*
X01606D01*
X01597Y01087D02*
X01605D01*
X01562D02*
X01584D01*
X01566Y01082D02*
X01605D01*
Y01079D02*
Y01091D01*
X01615Y011*
X01627*
X01636Y01091*
Y01079D02*
Y01091D01*
X01627Y01069D02*
X01636Y01079D01*
X01615Y01069D02*
X01627D01*
X01605Y01079D02*
X01615Y01069D01*
X01567Y01077D02*
X01607D01*
X01567Y01073D02*
X01571D01*
X01565Y01068D02*
X01566D01*
X0156Y01063D02*
X01565D01*
X01527Y01048D02*
X01571D01*
X01527Y01053D02*
X01566D01*
X01565Y01054D02*
Y01067D01*
X01574Y01076*
X01587*
X01596Y01067*
Y01054D02*
Y01067D01*
X01587Y01045D02*
X01596Y01054D01*
X01574Y01045D02*
X01587D01*
X01565Y01054D02*
X01574Y01045D01*
X01525Y01058D02*
X01565D01*
X0152Y01063D02*
X01542D01*
X00824Y01068D02*
X01537D01*
X00824Y01073D02*
X01536D01*
X00824Y01077D02*
X01536D01*
X00822Y01082D02*
X01536D01*
X01545Y01091D02*
X01557D01*
X01567Y01082*
Y01069D02*
Y01082D01*
X01557Y0106D02*
X01567Y01069D01*
X01545Y0106D02*
X01557D01*
X01536Y01069D02*
X01545Y0106D01*
X01536Y01069D02*
Y01082D01*
X01545Y01091*
X00818Y01087D02*
X01541D01*
X00813Y01092D02*
X01579D01*
X00701Y01097D02*
X01575D01*
X00724Y01053D02*
X00734D01*
X00721Y01058D02*
X00729D01*
X00719Y01063D02*
X00724D01*
X00716Y01068D02*
X00723D01*
X00714Y01073D02*
X00723D01*
X00711Y01077D02*
X00723D01*
X00709Y01082D02*
X00723D01*
X00706Y01087D02*
X00727D01*
X00704Y01092D02*
X00732D01*
X00699Y01102D02*
X00765D01*
X00698Y01106D02*
X0076D01*
X00731Y01111D02*
X00755D01*
X00736Y01116D02*
X00754D01*
X0074Y01121D02*
X00754D01*
X00741Y01126D02*
X00754D01*
X00741Y01131D02*
X00754D01*
X00741Y01122D02*
Y0114D01*
X00728Y01109D02*
X00741Y01122D01*
X0071Y01109D02*
X00728D01*
X00697Y01122D02*
X0071Y01109D01*
X00697Y01122D02*
Y0114D01*
X0071Y01153*
X00728*
X00741Y0114*
Y01136D02*
X00758D01*
X00741Y0114D02*
X00763D01*
X00736Y01145D02*
X01657D01*
X01653Y01149D02*
X01662Y0114D01*
X01653Y01149D02*
Y01161D01*
X01662Y0117*
X01675*
X01684Y01161*
Y01149D02*
Y01161D01*
X01675Y0114D02*
X01684Y01149D01*
X01662Y0114D02*
X01675D01*
X01639Y0114D02*
X01661D01*
X00789D02*
X01619D01*
X00794Y01136D02*
X01615D01*
X00798Y01131D02*
X01614D01*
X00798Y01126D02*
X01614D01*
Y01122D02*
Y01135D01*
X01623Y01144*
X01636*
X01645Y01135*
Y01122D02*
Y01135D01*
X01636Y01113D02*
X01645Y01122D01*
X01623Y01113D02*
X01636D01*
X01614Y01122D02*
X01623Y01113D01*
X00798Y01121D02*
X01615D01*
X00798Y01116D02*
X01582D01*
X01575Y01109D02*
X01584Y01118D01*
X01597*
X01606Y01109*
Y01096D02*
Y01109D01*
X01597Y01087D02*
X01606Y01096D01*
X01584Y01087D02*
X01597D01*
X01575Y01096D02*
X01584Y01087D01*
X01575Y01096D02*
Y01109D01*
X00797Y01111D02*
X01578D01*
X00792Y01106D02*
X01575D01*
X00787Y01102D02*
X01575D01*
X00767Y01099D02*
X00785D01*
X00754Y01112D02*
X00767Y01099D01*
X00754Y01112D02*
Y01131D01*
X00767Y01144*
X00785*
X00798Y01131*
Y01112D02*
Y01131D01*
X00785Y01099D02*
X00798Y01112D01*
X00758Y01092D02*
X0079D01*
X00763Y01087D02*
X00785D01*
X00767Y01082D02*
X0078D01*
X00767Y01077D02*
X00779D01*
X00767Y01073D02*
X00779D01*
X00767Y01068D02*
X00779D01*
X00766Y01063D02*
X00779D01*
X00761Y01058D02*
X00784D01*
X00756Y01053D02*
X00788D01*
X00736Y01051D02*
X00754D01*
X00723Y01064D02*
X00736Y01051D01*
X00723Y01064D02*
Y01083D01*
X00736Y01096*
X00754*
X00767Y01083*
Y01064D02*
Y01083D01*
X00754Y01051D02*
X00767Y01064D01*
X00754Y01D02*
X00765D01*
X00751Y01005D02*
X0076D01*
X00747Y01009D02*
X00755D01*
X00744Y01014D02*
X00752D01*
X00741Y01019D02*
X00752D01*
X00739Y01024D02*
X00752D01*
X00736Y01029D02*
X00752D01*
X00734Y01034D02*
X00755D01*
X00731Y01039D02*
X0076D01*
X00729Y01043D02*
X00764D01*
X00726Y01048D02*
X01496D01*
X00824Y01063D02*
X01504D01*
X00824Y01063D02*
Y01081D01*
X00811Y01094D02*
X00824Y01081D01*
X00792Y01094D02*
X00811D01*
X00779Y01081D02*
X00792Y01094D01*
X00779Y01063D02*
Y01081D01*
Y01063D02*
X00792Y0105D01*
X00811*
X00824Y01063*
X00819Y01058D02*
X01499D01*
X01496Y01056D02*
X01506Y01065D01*
X01518*
X01527Y01056*
Y01043D02*
Y01056D01*
X01518Y01034D02*
X01527Y01043D01*
X01506Y01034D02*
X01518D01*
X01496Y01043D02*
X01506Y01034D01*
X01496Y01043D02*
Y01056D01*
X00814Y01053D02*
X01496D01*
X00784Y01043D02*
X00822D01*
X00789Y01039D02*
X00817D01*
X00794Y01034D02*
X00813D01*
X00796Y01029D02*
X0081D01*
X00796Y01024D02*
X0081D01*
X00796Y01019D02*
X0081D01*
X00796Y01014D02*
X0081D01*
X00793Y01009D02*
X00813D01*
X00789Y01005D02*
X00818D01*
X00765Y00999D02*
X00783D01*
X00752Y01012D02*
X00765Y00999D01*
X00752Y01012D02*
Y01031D01*
X00765Y01044*
X00783*
X00796Y01031*
Y01012D02*
Y01031D01*
X00783Y00999D02*
X00796Y01012D01*
X00784Y01D02*
X00822D01*
X0081Y01013D02*
X00823Y00999D01*
X0081Y01013D02*
Y01031D01*
X00823Y01044*
X00841*
X00854Y01031*
Y01013D02*
Y01031D01*
X00841Y00999D02*
X00854Y01013D01*
X00823Y00999D02*
X00841D01*
X0082Y0099D02*
X00847D01*
X00825Y00985D02*
X00843D01*
X0083Y0098D02*
X00843D01*
X00832Y00976D02*
X00843D01*
X00832Y00971D02*
X00843D01*
X00832Y00966D02*
X00844D01*
X00832Y00961D02*
X00849D01*
X00828Y00956D02*
X00854D01*
X00784D02*
X00791D01*
X0078Y00961D02*
X00787D01*
X00777Y00966D02*
X00787D01*
X00774Y00971D02*
X00787D01*
X0077Y00976D02*
X00787D01*
X00767Y0098D02*
X00789D01*
X00764Y00985D02*
X00794D01*
X0076Y0099D02*
X00799D01*
X00757Y00995D02*
X00852D01*
X00878D02*
X013D01*
X00883Y0099D02*
X01295D01*
X00887Y00985D02*
X01293D01*
X00887Y0098D02*
X01293D01*
X00887Y00976D02*
X01293D01*
X00887Y00971D02*
X01297D01*
X00887Y00967D02*
Y00986D01*
X00874Y00999D02*
X00887Y00986D01*
X00856Y00999D02*
X00874D01*
X00843Y00986D02*
X00856Y00999D01*
X00843Y00967D02*
Y00986D01*
Y00967D02*
X00856Y00954D01*
X00874*
X00887Y00967*
X00886Y00966D02*
X01316D01*
X01302D02*
X01315D01*
X01293Y00975D02*
X01302Y00966D01*
X01293Y00975D02*
Y00988D01*
X01302Y00997*
X01315*
X01324Y00988*
Y00975D02*
Y00988D01*
X01315Y00966D02*
X01324Y00975D01*
X01312Y00962D02*
X01321Y00971D01*
X01334*
X01342Y00963*
X01345Y00965*
X01357*
X01366Y00956*
Y00944D02*
Y00956D01*
X0136Y00937D02*
X01366Y00944D01*
X0136Y00937D02*
X01367Y0093D01*
X0137Y00922*
Y00933*
X0138Y00942*
X01392*
X01401Y00933*
Y0092D02*
Y00933D01*
X01392Y00911D02*
X01401Y0092D01*
X0138Y00911D02*
X01392D01*
X01372Y00919D02*
X0138Y00911D01*
X01372Y00919D02*
X01374Y00915D01*
Y00898D02*
Y00915D01*
Y00898D02*
X0138D01*
X01389Y00889*
Y00877D02*
Y00889D01*
X0138Y00868D02*
X01389Y00877D01*
X01368Y00868D02*
X0138D01*
X01359Y00862D02*
X01368Y00868D01*
X0135Y00855D02*
X01359Y00862D01*
X01326Y00852D02*
X0135Y00855D01*
X01303Y00859D02*
X01326Y00852D01*
X01285Y00876D02*
X01303Y00859D01*
X01277Y00898D02*
X01285Y00876D01*
X01277Y00898D02*
X01278Y00922D01*
X01291Y00943*
X01297Y00947*
X01302Y0095*
X01304Y00952*
X01312Y00958*
Y00962*
X00881Y00961D02*
X01312D01*
X00823Y00951D02*
X00889D01*
X00825Y00903D02*
X00835D01*
X00821Y00908D02*
X0083D01*
X00817Y00912D02*
X00825D01*
X00813Y00917D02*
X00824D01*
X00809Y00922D02*
X00824D01*
X00805Y00927D02*
X00824D01*
X00801Y00932D02*
X00824D01*
X00797Y00937D02*
X00829D01*
X00793Y00942D02*
X00834D01*
X00787Y0096D02*
X008Y00947D01*
X00787Y0096D02*
Y00978D01*
X008Y00991*
X00819*
X00832Y00978*
Y0096D02*
Y00978D01*
X00819Y00947D02*
X00832Y0096D01*
X008Y00947D02*
X00819D01*
X00787Y00951D02*
X00796D01*
X0079Y00946D02*
X00885D01*
X00859Y00942D02*
X0088D01*
X00864Y00937D02*
X0088D01*
X00869Y00932D02*
X0088D01*
X00869Y00927D02*
X0088D01*
X00869Y00922D02*
X00882D01*
X00858Y00903D02*
X0092D01*
Y00903D02*
X00933Y00916D01*
X00952*
X00965Y00903*
Y00885D02*
Y00903D01*
X00952Y00872D02*
X00965Y00885D01*
X00933Y00872D02*
X00952D01*
X0092Y00885D02*
X00933Y00872D01*
X0092Y00885D02*
Y00903D01*
X00863Y00908D02*
X00925D01*
X00869Y00914D02*
Y00932D01*
X00856Y00945D02*
X00869Y00932D01*
X00837Y00945D02*
X00856D01*
X00824Y00932D02*
X00837Y00945D01*
X00824Y00914D02*
Y00932D01*
Y00914D02*
X00837Y009D01*
X00856*
X00869Y00914*
Y00917D02*
X00887D01*
X0088Y00924D02*
X00893Y00911D01*
X0088Y00924D02*
Y00942D01*
X00893Y00955*
X00912*
X00925Y00942*
Y00924D02*
Y00942D01*
X00912Y00911D02*
X00925Y00924D01*
X00893Y00911D02*
X00912D01*
X00868Y00912D02*
X00892D01*
X00829Y00898D02*
X00878D01*
X00832Y00893D02*
X00873D01*
X00831Y00888D02*
X00868D01*
X00832Y00883D02*
X00867D01*
X00836Y00879D02*
X00867D01*
X00838Y00874D02*
X00867D01*
X0084Y00869D02*
X00867D01*
X00851Y00864D02*
X00871D01*
X00867Y00868D02*
X0088Y00855D01*
X00867Y00868D02*
Y00887D01*
X0088Y009*
X00898*
X00911Y00887*
Y00868D02*
Y00887D01*
X00898Y00855D02*
X00911Y00868D01*
X0088Y00855D02*
X00898D01*
X00858Y00859D02*
X00876D01*
X00862Y00854D02*
X00918D01*
X00864Y00849D02*
X00913D01*
X00867Y00845D02*
X00911D01*
X00871Y0084D02*
X00911D01*
X00881Y00835D02*
X00911D01*
X00897Y0083D02*
X00911D01*
Y00829D02*
Y00847D01*
X00924Y0086*
X00942*
X00955Y00847*
Y00829D02*
Y00847D01*
X00942Y00816D02*
X00955Y00829D01*
X00924Y00816D02*
X00942D01*
X00911Y00829D02*
X00924Y00816D01*
X00902Y00825D02*
X00914D01*
X00908Y0082D02*
X00919D01*
X00914Y00815D02*
X00968D01*
X0092Y00811D02*
X00963D01*
X00926Y00806D02*
X00961D01*
X00932Y00801D02*
X00961D01*
X00941Y00794D02*
X01029Y00735D01*
X01124Y0069*
X01225Y00657*
X01329Y00639*
X01435Y00635*
X0154Y00645*
X01643Y00669*
X01741Y00708*
X01834Y00759*
X01918Y00822*
X01994Y00896*
X02058Y00979*
X02111Y01071*
X02151Y01169*
X02177Y01271*
X02182Y01308*
X02175Y01313D02*
X02182Y01308D01*
X02175Y01313D02*
X02175Y01313D01*
X02175Y01296D02*
Y01313D01*
X02162Y01283D02*
X02175Y01296D01*
X02143Y01283D02*
X02162D01*
X0213Y01296D02*
X02143Y01283D01*
X0213Y01296D02*
Y01314D01*
X02143Y01327*
X02162*
X02173Y01316*
X02166Y01328D02*
X02173Y01316D01*
X02166Y01328D02*
Y01468D01*
X02165Y01467D02*
X02166Y01468D01*
X02147Y01467D02*
X02165D01*
X02134Y0148D02*
X02147Y01467D01*
X02134Y0148D02*
Y01499D01*
X02147Y01512*
X02165*
X02171Y01505*
X02175Y01511*
X02182Y01516*
X02178Y01547D02*
X02182Y01516D01*
X02156Y01638D02*
X02178Y01547D01*
X02123Y01727D02*
X02156Y01638D01*
X0208Y0181D02*
X02123Y01727D01*
X02027Y01888D02*
X0208Y0181D01*
X01997Y01924D02*
X02027Y01888D01*
X01993Y01928D02*
X01997Y01924D01*
X01993Y01928D02*
Y01929D01*
X01992Y0193D02*
X01993Y01929D01*
X01992Y0193D02*
X01993Y01936D01*
Y0194*
X01988Y01945D02*
X01993Y0194D01*
X01984Y01955D02*
X01988Y01945D01*
X01984Y01955D02*
Y01957D01*
X01981D02*
X01984D01*
X0197Y01962D02*
X01981Y01957D01*
X01962Y0197D02*
X0197Y01962D01*
X01957Y01981D02*
X01962Y0197D01*
X01957Y01981D02*
Y01984D01*
X01955D02*
X01957D01*
X01945Y01988D02*
X01955Y01984D01*
X0194Y01993D02*
X01945Y01988D01*
X01936Y01993D02*
X0194D01*
X0193Y01992D02*
X01936Y01993D01*
X01929D02*
X0193Y01992D01*
X01928Y01993D02*
X01929D01*
X01924Y01997D02*
X01928Y01993D01*
X01883Y02031D02*
X01924Y01997D01*
X01795Y02089D02*
X01883Y02031D01*
X017Y02134D02*
X01795Y02089D01*
X01599Y02167D02*
X017Y02134D01*
X01495Y02185D02*
X01599Y02167D01*
X01389Y02189D02*
X01495Y02185D01*
X01284Y02179D02*
X01389Y02189D01*
X01182Y02155D02*
X01284Y02179D01*
X01083Y02117D02*
X01182Y02155D01*
X00991Y02065D02*
X01083Y02117D01*
X00906Y02002D02*
X00991Y02065D01*
X0083Y01928D02*
X00906Y02002D01*
X00766Y01845D02*
X0083Y01928D01*
X00713Y01753D02*
X00766Y01845D01*
X00673Y01655D02*
X00713Y01753D01*
X00647Y01553D02*
X00673Y01655D01*
X00642Y01516D02*
X00647Y01553D01*
X00642Y01516D02*
X00649Y01511D01*
X00653Y01505*
X00659Y01512*
X00677*
X0069Y01499*
Y0148D02*
Y01499D01*
X00677Y01467D02*
X0069Y0148D01*
X00659Y01467D02*
X00677D01*
X00658Y01468D02*
X00659Y01467D01*
X00658Y01328D02*
Y01468D01*
X00651Y01316D02*
X00658Y01328D01*
X00651Y01316D02*
X00663Y01327D01*
X00681*
X00694Y01314*
Y01296D02*
Y01314D01*
X00681Y01283D02*
X00694Y01296D01*
X00663Y01283D02*
X00681D01*
X00649Y01296D02*
X00663Y01283D01*
X00649Y01296D02*
Y01313D01*
X00649Y01313D02*
X00649Y01313D01*
X00642Y01308D02*
X00649Y01313D01*
X00642Y01308D02*
X00646Y01277D01*
X00668Y01186*
X00701Y01098*
X00744Y01014*
X00797Y00936*
X00827Y009*
X00831Y00896*
Y00895D02*
Y00896D01*
Y00895D02*
X00832Y00895D01*
X00831Y00888D02*
X00832Y00895D01*
X00831Y00884D02*
Y00888D01*
Y00884D02*
X00836Y0088D01*
X00841Y00869*
Y00867D02*
Y00869D01*
Y00867D02*
X00843D01*
X00854Y00863*
X00863Y00854*
X00867Y00843*
Y00841D02*
Y00843D01*
Y00841D02*
X00869D01*
X0088Y00836*
X00884Y00831*
X00888*
X00895Y00832*
X00895Y00831*
X00896*
X009Y00827*
X00941Y00794*
X00938Y00796D02*
X00961D01*
Y0079D02*
Y00808D01*
X00974Y00821*
X00992*
X01005Y00808*
Y0079D02*
Y00808D01*
X00992Y00777D02*
X01005Y0079D01*
X00974Y00777D02*
X00992D01*
X00961Y0079D02*
X00974Y00777D01*
X00944Y00791D02*
X00961D01*
X00952Y00786D02*
X00965D01*
X00959Y00782D02*
X00969D01*
G54D18*
X00906Y01493D03*
X01331Y00906D03*
X01493Y01918D03*
X01918Y01331D03*
G54D19*
X01471Y01609D03*
X01353Y01215D03*
G54D20*
X01412Y01412D03*
G54D21*
X02152Y01212D03*
X00657Y01272D03*
X00672Y01212D03*
X00687Y01152D03*
X00712Y01092D03*
X00742Y01037D03*
X00772Y00987D03*
X00812Y00932D03*
X00852Y00887D03*
X00897Y00842D03*
X00947Y00802D03*
X00992Y00767D03*
X01052Y00732D03*
X01107Y00707D03*
X01167Y00682D03*
X01222Y00667D03*
X01297Y00677D03*
X01322Y00707D03*
X01573Y01015D03*
X01473Y01023D03*
X01456Y00936D03*
X01351Y0095D03*
X01328Y00956D03*
X01308Y00981D03*
X01302Y01032D03*
X01327Y01077D03*
X01352Y01127D03*
X01312Y01122D03*
X01322Y01162D03*
X01357Y01337D03*
X01337Y01287D03*
X01407Y01282D03*
X01432Y01337D03*
X01487Y01537D03*
X01467Y01487D03*
X01392D03*
X01417Y01542D03*
X01351Y01801D03*
X01234Y01722D03*
X01251Y01809D03*
X01163Y01826D03*
X01133Y0173D03*
X00975Y01675D03*
X00995Y01694D03*
X01042Y01746D03*
X0106Y01766D03*
X01071Y01788D03*
X01081Y01809D03*
X01092Y01831D03*
X01102Y01852D03*
X01113Y01872D03*
X01307Y02157D03*
X01272D03*
X01197Y02147D03*
X01137Y02127D03*
X01077Y02102D03*
X01027Y02072D03*
X00972Y02042D03*
X00922Y02002D03*
X00877Y01962D03*
X00832Y01912D03*
X00792Y01862D03*
X00757Y01812D03*
X00727Y01757D03*
X00702Y01702D03*
X00682Y01642D03*
X00662Y01582D03*
X00652Y01527D03*
X00742Y01457D03*
X00702Y01452D03*
X00667Y01447D03*
X00672Y01377D03*
X00767Y01352D03*
X00792Y01392D03*
X00832D03*
Y01432D03*
X00972Y01512D03*
X00957Y01547D03*
X01007Y01557D03*
X01052Y01607D03*
X01116Y01643D03*
X01086Y0166D03*
X01094Y01704D03*
X01125Y01686D03*
X01156Y01669D03*
X01195Y01695D03*
X01164Y01713D03*
X01173Y01756D03*
X01203Y01739D03*
X01212Y01783D03*
X01242Y01766D03*
X01273Y01748D03*
X01312Y01775D03*
X01282Y01792D03*
X0129Y01836D03*
X01321Y01818D03*
X01329Y01862D03*
X0136Y01845D03*
X01391Y01828D03*
X01502Y01662D03*
X01472Y01697D03*
X01512Y01702D03*
X01497Y01747D03*
X01522Y01792D03*
X01516Y01842D03*
X01496Y01868D03*
X01473Y01874D03*
X0145Y0194D03*
X01408Y01915D03*
X01438Y01898D03*
X0143Y01854D03*
X01399Y01871D03*
X01368Y01889D03*
X0132Y01932D03*
X01233Y01949D03*
X01193Y01923D03*
X01154Y01896D03*
X01159Y01861D03*
X01203Y01853D03*
X01198Y01888D03*
X01242Y01879D03*
X01237Y01914D03*
X01281Y01906D03*
X01276Y01941D03*
X01272Y01975D03*
X01311Y02002D03*
X01315Y01968D03*
X01359Y01958D03*
X01355Y01993D03*
X0135Y02028D03*
X01433Y02046D03*
X01389Y02055D03*
X01394Y0202D03*
X01398Y01985D03*
X01421Y01998D03*
X01438Y02011D03*
X01527Y01992D03*
X01517Y02047D03*
X01482D03*
X01492Y02077D03*
X01502Y02117D03*
X01517Y02157D03*
X01552D03*
X01627Y02147D03*
X01687Y02127D03*
X01747Y02102D03*
X01797Y02072D03*
X01852Y02042D03*
X01902Y02002D03*
X01947Y01962D03*
X01992Y01912D03*
X02032Y01862D03*
X02067Y01812D03*
X02097Y01757D03*
X02122Y01702D03*
X02142Y01642D03*
X02162Y01582D03*
X02172Y01527D03*
X02082Y01367D03*
X02122Y01372D03*
X02157Y01377D03*
X02152Y01447D03*
X02062Y01472D03*
X02032Y01432D03*
X01997D03*
X01992Y01392D03*
X01852Y01312D03*
X01867Y01277D03*
X01817Y01267D03*
X01772Y01217D03*
X01849Y01149D03*
X01829Y01135D03*
X01782Y01078D03*
X01764Y01058D03*
X01754Y01037D03*
X01743Y01015D03*
X01732Y00994D03*
X01722Y00972D03*
X01711Y00952D03*
X01631Y00902D03*
X01543Y00919D03*
X01504Y00892D03*
X01465Y00866D03*
X01426Y00839D03*
X01474Y00796D03*
X01469Y00831D03*
X01513Y00822D03*
X01509Y00857D03*
X01552Y00849D03*
X01548Y00884D03*
X01591Y00875D03*
X01587Y0091D03*
X01582Y00945D03*
X01622Y00971D03*
X01626Y00936D03*
X0167Y00928D03*
X01665Y00963D03*
X01661Y00998D03*
X01652Y01068D03*
X01669Y01155D03*
X01708Y01181D03*
X01738Y01164D03*
X01729Y01123D03*
X01699Y01138D03*
X01691Y01094D03*
X0166Y01111D03*
X01629Y01129D03*
X0159Y01102D03*
X01621Y01085D03*
X01611Y01043D03*
X01581Y0106D03*
X01551Y01076D03*
X01512Y01049D03*
X01543Y01032D03*
X01534Y00988D03*
X01503Y01006D03*
X01495Y00962D03*
X01464Y00979D03*
X01434Y00997D03*
X01394Y0097D03*
X01425Y00953D03*
X01415Y00911D03*
X01386Y00926D03*
X01373Y00883D03*
X01297Y00832D03*
X01307Y00777D03*
X01332Y00747D03*
X01342Y00777D03*
X01391Y00778D03*
X01387Y00813D03*
X01403Y00826D03*
X0143Y00804D03*
X01435Y00769D03*
X01517Y00667D03*
X01602D03*
X01657Y00682D03*
X01717Y00707D03*
X01772Y00732D03*
X01832Y00767D03*
X01877Y00802D03*
X01927Y00842D03*
X01972Y00887D03*
X02012Y00932D03*
X02052Y00987D03*
X02082Y01037D03*
X02112Y01092D03*
X02137Y01152D03*
X02167Y01272D03*
G54D22*
X02032Y01322D03*
X01982Y01272D03*
X01932Y01232D03*
X01877Y01192D03*
X01088Y00738D03*
X00889Y00878D03*
X00947Y01632D03*
X00677Y01548D03*
X00792Y01502D03*
X00842Y01552D03*
X00892Y01592D03*
X00759Y01777D03*
X01008Y02041D03*
X01472Y02161D03*
X01415Y02167D03*
X01353Y0216D03*
X01231Y02138D03*
X01271Y02097D03*
X01217Y02083D03*
X01174Y02121D03*
X01115Y02098D03*
X01161Y02065D03*
X0111Y02042D03*
X01061Y02073D03*
X01059Y02015D03*
X01012Y01985D03*
X00959Y02007D03*
X0091Y01967D03*
X00965Y0195D03*
X00924Y01912D03*
X00868Y01925D03*
X00827Y01878D03*
X00883Y01869D03*
X00848Y01826D03*
X00792Y0183D03*
X00816Y01778D03*
X00789Y01729D03*
X00732Y01724D03*
X00708Y01665D03*
X00765Y01676D03*
X00746Y01623D03*
X0069Y01609D03*
X0073Y01568D03*
X0072Y01513D03*
X00668Y01489D03*
X00697Y01412D03*
X00699Y01187D03*
X00672Y01305D03*
X00717Y01341D03*
X00724Y01286D03*
X00683Y01247D03*
X00737Y01229D03*
X00754Y01176D03*
X00719Y01131D03*
X00745Y01073D03*
X00776Y01122D03*
X00801Y01072D03*
X00774Y01022D03*
X00809Y00969D03*
X00832Y01022D03*
X00865Y00977D03*
X00846Y00923D03*
X00903Y00933D03*
X00943Y00894D03*
X00933Y00838D03*
X00983Y00799D03*
X00988Y00856D03*
X01034Y00824D03*
X01033Y00767D03*
X01083Y00795D03*
X01134Y00771D03*
X01142Y00714D03*
X01202Y00694D03*
X01188Y0075D03*
X01242Y00734D03*
X0126Y0068D03*
X01352Y00663D03*
X01409Y00657D03*
X01472Y00663D03*
X01564Y0068D03*
X01622Y00694D03*
X01582Y00734D03*
X01636Y0075D03*
X01682Y00714D03*
X01736Y00738D03*
X01691Y00771D03*
X01741Y00795D03*
X01791Y00767D03*
X01841Y00799D03*
X01791Y00824D03*
X01836Y00856D03*
X01891Y00838D03*
X01935Y00878D03*
X01881Y00894D03*
X01921Y00933D03*
X01978Y00923D03*
X02015Y00969D03*
X01959Y00977D03*
X01992Y01022D03*
X0205Y01022D03*
X02079Y01073D03*
X02023Y01072D03*
X02048Y01122D03*
X02105Y01131D03*
X02125Y01187D03*
X0207Y01176D03*
X02087Y01229D03*
X02141Y01247D03*
X02152Y01305D03*
X021Y01286D03*
X02108Y01341D03*
X02127Y01412D03*
X02156Y01489D03*
X02148Y01548D03*
X02104Y01513D03*
X02094Y01568D03*
X02134Y01609D03*
X02116Y01665D03*
X02079Y01623D03*
X0206Y01676D03*
X02092Y01724D03*
X02065Y01777D03*
X02035Y01729D03*
X02008Y01778D03*
X02033Y0183D03*
X01998Y01878D03*
X01976Y01826D03*
X01941Y01869D03*
X01956Y01925D03*
X01914Y01967D03*
X01901Y01912D03*
X01859Y0195D03*
X01865Y02007D03*
X01816Y02041D03*
X01812Y01985D03*
X01765Y02015D03*
X01763Y02073D03*
X01709Y02098D03*
X01714Y02042D03*
X01663Y02065D03*
X0165Y02121D03*
X01553Y02097D03*
X01607Y02083D03*
X01593Y02138D03*
M02*