%FSTAX23Y23*%
%MOIN*%
%SFA1B1*%

%IPPOS*%
%ADD16C,0.023900*%
%ADD17C,0.037500*%
%LNaltium_eib_128_panel-1*%
%LPD*%
G54D16*
X02112Y01092D03*
X02137Y01152D03*
G54D17*
X02032Y01322D03*
X01982Y01272D03*
X01932Y01232D03*
X01877Y01192D03*
X01088Y00738D03*
X00889Y00878D03*
X00947Y01632D03*
X00677Y01548D03*
X00792Y01502D03*
X00842Y01552D03*
X00892Y01592D03*
X00759Y01777D03*
X01008Y02041D03*
X01472Y02161D03*
X01415Y02167D03*
X01353Y0216D03*
X01231Y02138D03*
X01271Y02097D03*
X01217Y02083D03*
X01174Y02121D03*
X01115Y02098D03*
X01161Y02065D03*
X0111Y02042D03*
X01061Y02073D03*
X01059Y02015D03*
X01012Y01985D03*
X00959Y02007D03*
X0091Y01967D03*
X00965Y0195D03*
X00924Y01912D03*
X00868Y01925D03*
X00827Y01878D03*
X00883Y01869D03*
X00848Y01826D03*
X00792Y0183D03*
X00816Y01778D03*
X00789Y01729D03*
X00732Y01724D03*
X00708Y01665D03*
X00765Y01676D03*
X00746Y01623D03*
X0069Y01609D03*
X0073Y01568D03*
X0072Y01513D03*
X00668Y01489D03*
X00697Y01412D03*
X00699Y01187D03*
X00672Y01305D03*
X00717Y01341D03*
X00724Y01286D03*
X00683Y01247D03*
X00737Y01229D03*
X00754Y01176D03*
X00719Y01131D03*
X00745Y01073D03*
X00776Y01122D03*
X00801Y01072D03*
X00774Y01022D03*
X00809Y00969D03*
X00832Y01022D03*
X00865Y00977D03*
X00846Y00923D03*
X00903Y00933D03*
X00943Y00894D03*
X00933Y00838D03*
X00983Y00799D03*
X00988Y00856D03*
X01034Y00824D03*
X01033Y00767D03*
X01083Y00795D03*
X01134Y00771D03*
X01142Y00714D03*
X01202Y00694D03*
X01188Y0075D03*
X01242Y00734D03*
X0126Y0068D03*
X01352Y00663D03*
X01409Y00657D03*
X01472Y00663D03*
X01564Y0068D03*
X01622Y00694D03*
X01582Y00734D03*
X01636Y0075D03*
X01682Y00714D03*
X01736Y00738D03*
X01691Y00771D03*
X01741Y00795D03*
X01791Y00767D03*
X01841Y00799D03*
X01791Y00824D03*
X01836Y00856D03*
X01891Y00838D03*
X01935Y00878D03*
X01881Y00894D03*
X01921Y00933D03*
X01978Y00923D03*
X02015Y00969D03*
X01959Y00977D03*
X01992Y01022D03*
X0205Y01022D03*
X02079Y01073D03*
X02023Y01072D03*
X02048Y01122D03*
X02105Y01131D03*
X02125Y01187D03*
X0207Y01176D03*
X02087Y01229D03*
X02141Y01247D03*
X02152Y01305D03*
X021Y01286D03*
X02108Y01341D03*
X02127Y01412D03*
X02156Y01489D03*
X02148Y01548D03*
X02104Y01513D03*
X02094Y01568D03*
X02134Y01609D03*
X02116Y01665D03*
X02079Y01623D03*
X0206Y01676D03*
X02092Y01724D03*
X02065Y01777D03*
X02035Y01729D03*
X02008Y01778D03*
X02033Y0183D03*
X01998Y01878D03*
X01976Y01826D03*
X01941Y01869D03*
X01956Y01925D03*
X01914Y01967D03*
X01901Y01912D03*
X01859Y0195D03*
X01865Y02007D03*
X01816Y02041D03*
X01812Y01985D03*
X01765Y02015D03*
X01763Y02073D03*
X01709Y02098D03*
X01714Y02042D03*
X01663Y02065D03*
X0165Y02121D03*
X01553Y02097D03*
X01607Y02083D03*
X01593Y02138D03*
M02*