%FSTAX23Y23*%
%MOIN*%
%SFA1B1*%

%IPPOS*%
%ADD25C,0.002000*%
%ADD26C,0.002670*%
%LNaltium_eib_128_panel-1*%
%LPD*%
G54D25*
X00898Y01485D02*
Y01501D01*
X00914*
Y01485*
X00898*
X01323Y00898D02*
Y00914D01*
X01339*
Y00898*
X01323*
X01485Y0191D02*
Y01926D01*
X01501*
Y0191*
X01485*
X0191Y01323D02*
Y01339D01*
X01926*
Y01323*
X0191*
X01412Y01404D02*
X01404Y0142D01*
X0142*
X01412Y01404*
X02152Y01204D02*
X02156Y01208D01*
X0216*
X02156Y01212*
X0216Y01216*
X02156*
X02152Y0122*
X02148Y01216*
X02144*
X02148Y01212*
X02144Y01208*
X02148*
X02152Y01204*
X00657Y01264D02*
X00661Y01268D01*
X00665*
X00661Y01272*
X00665Y01276*
X00661*
X00657Y0128*
X00653Y01276*
X00649*
X00653Y01272*
X00649Y01268*
X00653*
X00657Y01264*
X00672Y01204D02*
X00676Y01208D01*
X0068*
X00676Y01212*
X0068Y01216*
X00676*
X00672Y0122*
X00668Y01216*
X00664*
X00668Y01212*
X00664Y01208*
X00668*
X00672Y01204*
X00687Y01144D02*
X00691Y01148D01*
X00695*
X00691Y01152*
X00695Y01156*
X00691*
X00687Y0116*
X00683Y01156*
X00679*
X00683Y01152*
X00679Y01148*
X00683*
X00687Y01144*
X00712Y01084D02*
X00716Y01088D01*
X0072*
X00716Y01092*
X0072Y01096*
X00716*
X00712Y011*
X00708Y01096*
X00704*
X00708Y01092*
X00704Y01088*
X00708*
X00712Y01084*
X00742Y01029D02*
X00746Y01033D01*
X0075*
X00746Y01037*
X0075Y01041*
X00746*
X00742Y01045*
X00738Y01041*
X00734*
X00738Y01037*
X00734Y01033*
X00738*
X00742Y01029*
X00772Y00979D02*
X00776Y00983D01*
X0078*
X00776Y00987*
X0078Y00991*
X00776*
X00772Y00995*
X00768Y00991*
X00764*
X00768Y00987*
X00764Y00983*
X00768*
X00772Y00979*
X00812Y00924D02*
X00816Y00928D01*
X0082*
X00816Y00932*
X0082Y00936*
X00816*
X00812Y0094*
X00808Y00936*
X00804*
X00808Y00932*
X00804Y00928*
X00808*
X00812Y00924*
X00852Y00879D02*
X00856Y00883D01*
X0086*
X00856Y00887*
X0086Y00891*
X00856*
X00852Y00895*
X00848Y00891*
X00844*
X00848Y00887*
X00844Y00883*
X00848*
X00852Y00879*
X00897Y00834D02*
X00901Y00838D01*
X00905*
X00901Y00842*
X00905Y00846*
X00901*
X00897Y0085*
X00893Y00846*
X00889*
X00893Y00842*
X00889Y00838*
X00893*
X00897Y00834*
X00947Y00794D02*
X00951Y00798D01*
X00955*
X00951Y00802*
X00955Y00806*
X00951*
X00947Y0081*
X00943Y00806*
X00939*
X00943Y00802*
X00939Y00798*
X00943*
X00947Y00794*
X00992Y00759D02*
X00996Y00763D01*
X01*
X00996Y00767*
X01Y00771*
X00996*
X00992Y00775*
X00988Y00771*
X00984*
X00988Y00767*
X00984Y00763*
X00988*
X00992Y00759*
X01052Y00724D02*
X01056Y00728D01*
X0106*
X01056Y00732*
X0106Y00736*
X01056*
X01052Y0074*
X01048Y00736*
X01044*
X01048Y00732*
X01044Y00728*
X01048*
X01052Y00724*
X01107Y00699D02*
X01111Y00703D01*
X01115*
X01111Y00707*
X01115Y00711*
X01111*
X01107Y00715*
X01103Y00711*
X01099*
X01103Y00707*
X01099Y00703*
X01103*
X01107Y00699*
X01167Y00674D02*
X01171Y00678D01*
X01175*
X01171Y00682*
X01175Y00686*
X01171*
X01167Y0069*
X01163Y00686*
X01159*
X01163Y00682*
X01159Y00678*
X01163*
X01167Y00674*
X01222Y00659D02*
X01226Y00663D01*
X0123*
X01226Y00667*
X0123Y00671*
X01226*
X01222Y00675*
X01218Y00671*
X01214*
X01218Y00667*
X01214Y00663*
X01218*
X01222Y00659*
X01297Y00669D02*
X01301Y00673D01*
X01305*
X01301Y00677*
X01305Y00681*
X01301*
X01297Y00685*
X01293Y00681*
X01289*
X01293Y00677*
X01289Y00673*
X01293*
X01297Y00669*
X01322Y00699D02*
X01326Y00703D01*
X0133*
X01326Y00707*
X0133Y00711*
X01326*
X01322Y00715*
X01318Y00711*
X01314*
X01318Y00707*
X01314Y00703*
X01318*
X01322Y00699*
X01573Y01007D02*
X01577Y01011D01*
X01581*
X01577Y01015*
X01581Y01019*
X01577*
X01573Y01023*
X01569Y01019*
X01565*
X01569Y01015*
X01565Y01011*
X01569*
X01573Y01007*
X01473Y01015D02*
X01477Y01019D01*
X01481*
X01477Y01023*
X01481Y01027*
X01477*
X01473Y01031*
X01469Y01027*
X01465*
X01469Y01023*
X01465Y01019*
X01469*
X01473Y01015*
X01456Y00928D02*
X0146Y00932D01*
X01464*
X0146Y00936*
X01464Y0094*
X0146*
X01456Y00944*
X01452Y0094*
X01448*
X01452Y00936*
X01448Y00932*
X01452*
X01456Y00928*
X01351Y00942D02*
X01355Y00946D01*
X01359*
X01355Y0095*
X01359Y00954*
X01355*
X01351Y00958*
X01347Y00954*
X01343*
X01347Y0095*
X01343Y00946*
X01347*
X01351Y00942*
X01328Y00948D02*
X01332Y00952D01*
X01336*
X01332Y00956*
X01336Y0096*
X01332*
X01328Y00964*
X01324Y0096*
X0132*
X01324Y00956*
X0132Y00952*
X01324*
X01328Y00948*
X01308Y00973D02*
X01312Y00977D01*
X01316*
X01312Y00981*
X01316Y00985*
X01312*
X01308Y00989*
X01304Y00985*
X013*
X01304Y00981*
X013Y00977*
X01304*
X01308Y00973*
X01302Y01024D02*
X01306Y01028D01*
X0131*
X01306Y01032*
X0131Y01036*
X01306*
X01302Y0104*
X01298Y01036*
X01294*
X01298Y01032*
X01294Y01028*
X01298*
X01302Y01024*
X01327Y01069D02*
X01331Y01073D01*
X01335*
X01331Y01077*
X01335Y01081*
X01331*
X01327Y01085*
X01323Y01081*
X01319*
X01323Y01077*
X01319Y01073*
X01323*
X01327Y01069*
X01352Y01119D02*
X01356Y01123D01*
X0136*
X01356Y01127*
X0136Y01131*
X01356*
X01352Y01135*
X01348Y01131*
X01344*
X01348Y01127*
X01344Y01123*
X01348*
X01352Y01119*
X01312Y01114D02*
X01316Y01118D01*
X0132*
X01316Y01122*
X0132Y01126*
X01316*
X01312Y0113*
X01308Y01126*
X01304*
X01308Y01122*
X01304Y01118*
X01308*
X01312Y01114*
X01322Y01154D02*
X01326Y01158D01*
X0133*
X01326Y01162*
X0133Y01166*
X01326*
X01322Y0117*
X01318Y01166*
X01314*
X01318Y01162*
X01314Y01158*
X01318*
X01322Y01154*
X01357Y01329D02*
X01361Y01333D01*
X01365*
X01361Y01337*
X01365Y01341*
X01361*
X01357Y01345*
X01353Y01341*
X01349*
X01353Y01337*
X01349Y01333*
X01353*
X01357Y01329*
X01337Y01279D02*
X01341Y01283D01*
X01345*
X01341Y01287*
X01345Y01291*
X01341*
X01337Y01295*
X01333Y01291*
X01329*
X01333Y01287*
X01329Y01283*
X01333*
X01337Y01279*
X01407Y01274D02*
X01411Y01278D01*
X01415*
X01411Y01282*
X01415Y01286*
X01411*
X01407Y0129*
X01403Y01286*
X01399*
X01403Y01282*
X01399Y01278*
X01403*
X01407Y01274*
X01432Y01329D02*
X01436Y01333D01*
X0144*
X01436Y01337*
X0144Y01341*
X01436*
X01432Y01345*
X01428Y01341*
X01424*
X01428Y01337*
X01424Y01333*
X01428*
X01432Y01329*
X01487Y01529D02*
X01491Y01533D01*
X01495*
X01491Y01537*
X01495Y01541*
X01491*
X01487Y01545*
X01483Y01541*
X01479*
X01483Y01537*
X01479Y01533*
X01483*
X01487Y01529*
X01467Y01479D02*
X01471Y01483D01*
X01475*
X01471Y01487*
X01475Y01491*
X01471*
X01467Y01495*
X01463Y01491*
X01459*
X01463Y01487*
X01459Y01483*
X01463*
X01467Y01479*
X01392D02*
X01396Y01483D01*
X014*
X01396Y01487*
X014Y01491*
X01396*
X01392Y01495*
X01388Y01491*
X01384*
X01388Y01487*
X01384Y01483*
X01388*
X01392Y01479*
X01417Y01534D02*
X01421Y01538D01*
X01425*
X01421Y01542*
X01425Y01546*
X01421*
X01417Y0155*
X01413Y01546*
X01409*
X01413Y01542*
X01409Y01538*
X01413*
X01417Y01534*
X01351Y01793D02*
X01355Y01797D01*
X01359*
X01355Y01801*
X01359Y01805*
X01355*
X01351Y01809*
X01347Y01805*
X01343*
X01347Y01801*
X01343Y01797*
X01347*
X01351Y01793*
X01234Y01714D02*
X01238Y01718D01*
X01242*
X01238Y01722*
X01242Y01726*
X01238*
X01234Y0173*
X0123Y01726*
X01226*
X0123Y01722*
X01226Y01718*
X0123*
X01234Y01714*
X01251Y01801D02*
X01255Y01805D01*
X01259*
X01255Y01809*
X01259Y01813*
X01255*
X01251Y01817*
X01247Y01813*
X01243*
X01247Y01809*
X01243Y01805*
X01247*
X01251Y01801*
X01163Y01818D02*
X01167Y01822D01*
X01171*
X01167Y01826*
X01171Y0183*
X01167*
X01163Y01834*
X01159Y0183*
X01155*
X01159Y01826*
X01155Y01822*
X01159*
X01163Y01818*
X01133Y01722D02*
X01137Y01726D01*
X01141*
X01137Y0173*
X01141Y01734*
X01137*
X01133Y01738*
X01129Y01734*
X01125*
X01129Y0173*
X01125Y01726*
X01129*
X01133Y01722*
X00975Y01667D02*
X00979Y01671D01*
X00983*
X00979Y01675*
X00983Y01679*
X00979*
X00975Y01683*
X00971Y01679*
X00967*
X00971Y01675*
X00967Y01671*
X00971*
X00975Y01667*
X00995Y01686D02*
X00999Y0169D01*
X01003*
X00999Y01694*
X01003Y01698*
X00999*
X00995Y01702*
X00991Y01698*
X00987*
X00991Y01694*
X00987Y0169*
X00991*
X00995Y01686*
X01042Y01738D02*
X01046Y01742D01*
X0105*
X01046Y01746*
X0105Y0175*
X01046*
X01042Y01754*
X01038Y0175*
X01034*
X01038Y01746*
X01034Y01742*
X01038*
X01042Y01738*
X0106Y01758D02*
X01064Y01762D01*
X01068*
X01064Y01766*
X01068Y0177*
X01064*
X0106Y01774*
X01056Y0177*
X01052*
X01056Y01766*
X01052Y01762*
X01056*
X0106Y01758*
X01071Y0178D02*
X01075Y01784D01*
X01079*
X01075Y01788*
X01079Y01792*
X01075*
X01071Y01796*
X01067Y01792*
X01063*
X01067Y01788*
X01063Y01784*
X01067*
X01071Y0178*
X01081Y01801D02*
X01085Y01805D01*
X01089*
X01085Y01809*
X01089Y01813*
X01085*
X01081Y01817*
X01077Y01813*
X01073*
X01077Y01809*
X01073Y01805*
X01077*
X01081Y01801*
X01092Y01823D02*
X01096Y01827D01*
X011*
X01096Y01831*
X011Y01835*
X01096*
X01092Y01839*
X01088Y01835*
X01084*
X01088Y01831*
X01084Y01827*
X01088*
X01092Y01823*
X01102Y01844D02*
X01106Y01848D01*
X0111*
X01106Y01852*
X0111Y01856*
X01106*
X01102Y0186*
X01098Y01856*
X01094*
X01098Y01852*
X01094Y01848*
X01098*
X01102Y01844*
X01113Y01864D02*
X01117Y01868D01*
X01121*
X01117Y01872*
X01121Y01876*
X01117*
X01113Y0188*
X01109Y01876*
X01105*
X01109Y01872*
X01105Y01868*
X01109*
X01113Y01864*
X01307Y02149D02*
X01311Y02153D01*
X01315*
X01311Y02157*
X01315Y02161*
X01311*
X01307Y02165*
X01303Y02161*
X01299*
X01303Y02157*
X01299Y02153*
X01303*
X01307Y02149*
X01272D02*
X01276Y02153D01*
X0128*
X01276Y02157*
X0128Y02161*
X01276*
X01272Y02165*
X01268Y02161*
X01264*
X01268Y02157*
X01264Y02153*
X01268*
X01272Y02149*
X01197Y02139D02*
X01201Y02143D01*
X01205*
X01201Y02147*
X01205Y02151*
X01201*
X01197Y02155*
X01193Y02151*
X01189*
X01193Y02147*
X01189Y02143*
X01193*
X01197Y02139*
X01137Y02119D02*
X01141Y02123D01*
X01145*
X01141Y02127*
X01145Y02131*
X01141*
X01137Y02135*
X01133Y02131*
X01129*
X01133Y02127*
X01129Y02123*
X01133*
X01137Y02119*
X01077Y02094D02*
X01081Y02098D01*
X01085*
X01081Y02102*
X01085Y02106*
X01081*
X01077Y0211*
X01073Y02106*
X01069*
X01073Y02102*
X01069Y02098*
X01073*
X01077Y02094*
X01027Y02064D02*
X01031Y02068D01*
X01035*
X01031Y02072*
X01035Y02076*
X01031*
X01027Y0208*
X01023Y02076*
X01019*
X01023Y02072*
X01019Y02068*
X01023*
X01027Y02064*
X00972Y02034D02*
X00976Y02038D01*
X0098*
X00976Y02042*
X0098Y02046*
X00976*
X00972Y0205*
X00968Y02046*
X00964*
X00968Y02042*
X00964Y02038*
X00968*
X00972Y02034*
X00922Y01994D02*
X00926Y01998D01*
X0093*
X00926Y02002*
X0093Y02006*
X00926*
X00922Y0201*
X00918Y02006*
X00914*
X00918Y02002*
X00914Y01998*
X00918*
X00922Y01994*
X00877Y01954D02*
X00881Y01958D01*
X00885*
X00881Y01962*
X00885Y01966*
X00881*
X00877Y0197*
X00873Y01966*
X00869*
X00873Y01962*
X00869Y01958*
X00873*
X00877Y01954*
X00832Y01904D02*
X00836Y01908D01*
X0084*
X00836Y01912*
X0084Y01916*
X00836*
X00832Y0192*
X00828Y01916*
X00824*
X00828Y01912*
X00824Y01908*
X00828*
X00832Y01904*
X00792Y01854D02*
X00796Y01858D01*
X008*
X00796Y01862*
X008Y01866*
X00796*
X00792Y0187*
X00788Y01866*
X00784*
X00788Y01862*
X00784Y01858*
X00788*
X00792Y01854*
X00757Y01804D02*
X00761Y01808D01*
X00765*
X00761Y01812*
X00765Y01816*
X00761*
X00757Y0182*
X00753Y01816*
X00749*
X00753Y01812*
X00749Y01808*
X00753*
X00757Y01804*
X00727Y01749D02*
X00731Y01753D01*
X00735*
X00731Y01757*
X00735Y01761*
X00731*
X00727Y01765*
X00723Y01761*
X00719*
X00723Y01757*
X00719Y01753*
X00723*
X00727Y01749*
X00702Y01694D02*
X00706Y01698D01*
X0071*
X00706Y01702*
X0071Y01706*
X00706*
X00702Y0171*
X00698Y01706*
X00694*
X00698Y01702*
X00694Y01698*
X00698*
X00702Y01694*
X00682Y01634D02*
X00686Y01638D01*
X0069*
X00686Y01642*
X0069Y01646*
X00686*
X00682Y0165*
X00678Y01646*
X00674*
X00678Y01642*
X00674Y01638*
X00678*
X00682Y01634*
X00662Y01574D02*
X00666Y01578D01*
X0067*
X00666Y01582*
X0067Y01586*
X00666*
X00662Y0159*
X00658Y01586*
X00654*
X00658Y01582*
X00654Y01578*
X00658*
X00662Y01574*
X00652Y01519D02*
X00656Y01523D01*
X0066*
X00656Y01527*
X0066Y01531*
X00656*
X00652Y01535*
X00648Y01531*
X00644*
X00648Y01527*
X00644Y01523*
X00648*
X00652Y01519*
X00742Y01449D02*
X00746Y01453D01*
X0075*
X00746Y01457*
X0075Y01461*
X00746*
X00742Y01465*
X00738Y01461*
X00734*
X00738Y01457*
X00734Y01453*
X00738*
X00742Y01449*
X00702Y01444D02*
X00706Y01448D01*
X0071*
X00706Y01452*
X0071Y01456*
X00706*
X00702Y0146*
X00698Y01456*
X00694*
X00698Y01452*
X00694Y01448*
X00698*
X00702Y01444*
X00667Y01439D02*
X00671Y01443D01*
X00675*
X00671Y01447*
X00675Y01451*
X00671*
X00667Y01455*
X00663Y01451*
X00659*
X00663Y01447*
X00659Y01443*
X00663*
X00667Y01439*
X00672Y01369D02*
X00676Y01373D01*
X0068*
X00676Y01377*
X0068Y01381*
X00676*
X00672Y01385*
X00668Y01381*
X00664*
X00668Y01377*
X00664Y01373*
X00668*
X00672Y01369*
X00767Y01344D02*
X00771Y01348D01*
X00775*
X00771Y01352*
X00775Y01356*
X00771*
X00767Y0136*
X00763Y01356*
X00759*
X00763Y01352*
X00759Y01348*
X00763*
X00767Y01344*
X00792Y01384D02*
X00796Y01388D01*
X008*
X00796Y01392*
X008Y01396*
X00796*
X00792Y014*
X00788Y01396*
X00784*
X00788Y01392*
X00784Y01388*
X00788*
X00792Y01384*
X00832D02*
X00836Y01388D01*
X0084*
X00836Y01392*
X0084Y01396*
X00836*
X00832Y014*
X00828Y01396*
X00824*
X00828Y01392*
X00824Y01388*
X00828*
X00832Y01384*
Y01424D02*
X00836Y01428D01*
X0084*
X00836Y01432*
X0084Y01436*
X00836*
X00832Y0144*
X00828Y01436*
X00824*
X00828Y01432*
X00824Y01428*
X00828*
X00832Y01424*
X00972Y01504D02*
X00976Y01508D01*
X0098*
X00976Y01512*
X0098Y01516*
X00976*
X00972Y0152*
X00968Y01516*
X00964*
X00968Y01512*
X00964Y01508*
X00968*
X00972Y01504*
X00957Y01539D02*
X00961Y01543D01*
X00965*
X00961Y01547*
X00965Y01551*
X00961*
X00957Y01555*
X00953Y01551*
X00949*
X00953Y01547*
X00949Y01543*
X00953*
X00957Y01539*
X01007Y01549D02*
X01011Y01553D01*
X01015*
X01011Y01557*
X01015Y01561*
X01011*
X01007Y01565*
X01003Y01561*
X00999*
X01003Y01557*
X00999Y01553*
X01003*
X01007Y01549*
X01052Y01599D02*
X01056Y01603D01*
X0106*
X01056Y01607*
X0106Y01611*
X01056*
X01052Y01615*
X01048Y01611*
X01044*
X01048Y01607*
X01044Y01603*
X01048*
X01052Y01599*
X01116Y01635D02*
X0112Y01639D01*
X01124*
X0112Y01643*
X01124Y01647*
X0112*
X01116Y01651*
X01112Y01647*
X01108*
X01112Y01643*
X01108Y01639*
X01112*
X01116Y01635*
X01086Y01652D02*
X0109Y01656D01*
X01094*
X0109Y0166*
X01094Y01664*
X0109*
X01086Y01668*
X01082Y01664*
X01078*
X01082Y0166*
X01078Y01656*
X01082*
X01086Y01652*
X01094Y01696D02*
X01098Y017D01*
X01102*
X01098Y01704*
X01102Y01708*
X01098*
X01094Y01712*
X0109Y01708*
X01086*
X0109Y01704*
X01086Y017*
X0109*
X01094Y01696*
X01125Y01678D02*
X01129Y01682D01*
X01133*
X01129Y01686*
X01133Y0169*
X01129*
X01125Y01694*
X01121Y0169*
X01117*
X01121Y01686*
X01117Y01682*
X01121*
X01125Y01678*
X01156Y01661D02*
X0116Y01665D01*
X01164*
X0116Y01669*
X01164Y01673*
X0116*
X01156Y01677*
X01152Y01673*
X01148*
X01152Y01669*
X01148Y01665*
X01152*
X01156Y01661*
X01195Y01687D02*
X01199Y01691D01*
X01203*
X01199Y01695*
X01203Y01699*
X01199*
X01195Y01703*
X01191Y01699*
X01187*
X01191Y01695*
X01187Y01691*
X01191*
X01195Y01687*
X01164Y01705D02*
X01168Y01709D01*
X01172*
X01168Y01713*
X01172Y01717*
X01168*
X01164Y01721*
X0116Y01717*
X01156*
X0116Y01713*
X01156Y01709*
X0116*
X01164Y01705*
X01173Y01748D02*
X01177Y01752D01*
X01181*
X01177Y01756*
X01181Y0176*
X01177*
X01173Y01764*
X01169Y0176*
X01165*
X01169Y01756*
X01165Y01752*
X01169*
X01173Y01748*
X01203Y01731D02*
X01207Y01735D01*
X01211*
X01207Y01739*
X01211Y01743*
X01207*
X01203Y01747*
X01199Y01743*
X01195*
X01199Y01739*
X01195Y01735*
X01199*
X01203Y01731*
X01212Y01775D02*
X01216Y01779D01*
X0122*
X01216Y01783*
X0122Y01787*
X01216*
X01212Y01791*
X01208Y01787*
X01204*
X01208Y01783*
X01204Y01779*
X01208*
X01212Y01775*
X01242Y01758D02*
X01246Y01762D01*
X0125*
X01246Y01766*
X0125Y0177*
X01246*
X01242Y01774*
X01238Y0177*
X01234*
X01238Y01766*
X01234Y01762*
X01238*
X01242Y01758*
X01273Y0174D02*
X01277Y01744D01*
X01281*
X01277Y01748*
X01281Y01752*
X01277*
X01273Y01756*
X01269Y01752*
X01265*
X01269Y01748*
X01265Y01744*
X01269*
X01273Y0174*
X01312Y01767D02*
X01316Y01771D01*
X0132*
X01316Y01775*
X0132Y01779*
X01316*
X01312Y01783*
X01308Y01779*
X01304*
X01308Y01775*
X01304Y01771*
X01308*
X01312Y01767*
X01282Y01784D02*
X01286Y01788D01*
X0129*
X01286Y01792*
X0129Y01796*
X01286*
X01282Y018*
X01278Y01796*
X01274*
X01278Y01792*
X01274Y01788*
X01278*
X01282Y01784*
X0129Y01828D02*
X01294Y01832D01*
X01298*
X01294Y01836*
X01298Y0184*
X01294*
X0129Y01844*
X01286Y0184*
X01282*
X01286Y01836*
X01282Y01832*
X01286*
X0129Y01828*
X01321Y0181D02*
X01325Y01814D01*
X01329*
X01325Y01818*
X01329Y01822*
X01325*
X01321Y01826*
X01317Y01822*
X01313*
X01317Y01818*
X01313Y01814*
X01317*
X01321Y0181*
X01329Y01854D02*
X01333Y01858D01*
X01337*
X01333Y01862*
X01337Y01866*
X01333*
X01329Y0187*
X01325Y01866*
X01321*
X01325Y01862*
X01321Y01858*
X01325*
X01329Y01854*
X0136Y01837D02*
X01364Y01841D01*
X01368*
X01364Y01845*
X01368Y01849*
X01364*
X0136Y01853*
X01356Y01849*
X01352*
X01356Y01845*
X01352Y01841*
X01356*
X0136Y01837*
X01391Y0182D02*
X01395Y01824D01*
X01399*
X01395Y01828*
X01399Y01832*
X01395*
X01391Y01836*
X01387Y01832*
X01383*
X01387Y01828*
X01383Y01824*
X01387*
X01391Y0182*
X01502Y01654D02*
X01506Y01658D01*
X0151*
X01506Y01662*
X0151Y01666*
X01506*
X01502Y0167*
X01498Y01666*
X01494*
X01498Y01662*
X01494Y01658*
X01498*
X01502Y01654*
X01472Y01689D02*
X01476Y01693D01*
X0148*
X01476Y01697*
X0148Y01701*
X01476*
X01472Y01705*
X01468Y01701*
X01464*
X01468Y01697*
X01464Y01693*
X01468*
X01472Y01689*
X01512Y01694D02*
X01516Y01698D01*
X0152*
X01516Y01702*
X0152Y01706*
X01516*
X01512Y0171*
X01508Y01706*
X01504*
X01508Y01702*
X01504Y01698*
X01508*
X01512Y01694*
X01497Y01739D02*
X01501Y01743D01*
X01505*
X01501Y01747*
X01505Y01751*
X01501*
X01497Y01755*
X01493Y01751*
X01489*
X01493Y01747*
X01489Y01743*
X01493*
X01497Y01739*
X01522Y01784D02*
X01526Y01788D01*
X0153*
X01526Y01792*
X0153Y01796*
X01526*
X01522Y018*
X01518Y01796*
X01514*
X01518Y01792*
X01514Y01788*
X01518*
X01522Y01784*
X01516Y01834D02*
X0152Y01838D01*
X01524*
X0152Y01842*
X01524Y01846*
X0152*
X01516Y0185*
X01512Y01846*
X01508*
X01512Y01842*
X01508Y01838*
X01512*
X01516Y01834*
X01496Y0186D02*
X015Y01864D01*
X01504*
X015Y01868*
X01504Y01872*
X015*
X01496Y01876*
X01492Y01872*
X01488*
X01492Y01868*
X01488Y01864*
X01492*
X01496Y0186*
X01473Y01866D02*
X01477Y0187D01*
X01481*
X01477Y01874*
X01481Y01878*
X01477*
X01473Y01882*
X01469Y01878*
X01465*
X01469Y01874*
X01465Y0187*
X01469*
X01473Y01866*
X0145Y01932D02*
X01454Y01936D01*
X01458*
X01454Y0194*
X01458Y01944*
X01454*
X0145Y01948*
X01446Y01944*
X01442*
X01446Y0194*
X01442Y01936*
X01446*
X0145Y01932*
X01408Y01907D02*
X01412Y01911D01*
X01416*
X01412Y01915*
X01416Y01919*
X01412*
X01408Y01923*
X01404Y01919*
X014*
X01404Y01915*
X014Y01911*
X01404*
X01408Y01907*
X01438Y0189D02*
X01442Y01894D01*
X01446*
X01442Y01898*
X01446Y01902*
X01442*
X01438Y01906*
X01434Y01902*
X0143*
X01434Y01898*
X0143Y01894*
X01434*
X01438Y0189*
X0143Y01846D02*
X01434Y0185D01*
X01438*
X01434Y01854*
X01438Y01858*
X01434*
X0143Y01862*
X01426Y01858*
X01422*
X01426Y01854*
X01422Y0185*
X01426*
X0143Y01846*
X01399Y01863D02*
X01403Y01867D01*
X01407*
X01403Y01871*
X01407Y01875*
X01403*
X01399Y01879*
X01395Y01875*
X01391*
X01395Y01871*
X01391Y01867*
X01395*
X01399Y01863*
X01368Y01881D02*
X01372Y01885D01*
X01376*
X01372Y01889*
X01376Y01893*
X01372*
X01368Y01897*
X01364Y01893*
X0136*
X01364Y01889*
X0136Y01885*
X01364*
X01368Y01881*
X0132Y01924D02*
X01324Y01928D01*
X01328*
X01324Y01932*
X01328Y01936*
X01324*
X0132Y0194*
X01316Y01936*
X01312*
X01316Y01932*
X01312Y01928*
X01316*
X0132Y01924*
X01233Y01941D02*
X01237Y01945D01*
X01241*
X01237Y01949*
X01241Y01953*
X01237*
X01233Y01957*
X01229Y01953*
X01225*
X01229Y01949*
X01225Y01945*
X01229*
X01233Y01941*
X01193Y01915D02*
X01197Y01919D01*
X01201*
X01197Y01923*
X01201Y01927*
X01197*
X01193Y01931*
X01189Y01927*
X01185*
X01189Y01923*
X01185Y01919*
X01189*
X01193Y01915*
X01154Y01888D02*
X01158Y01892D01*
X01162*
X01158Y01896*
X01162Y019*
X01158*
X01154Y01904*
X0115Y019*
X01146*
X0115Y01896*
X01146Y01892*
X0115*
X01154Y01888*
X01159Y01853D02*
X01163Y01857D01*
X01167*
X01163Y01861*
X01167Y01865*
X01163*
X01159Y01869*
X01155Y01865*
X01151*
X01155Y01861*
X01151Y01857*
X01155*
X01159Y01853*
X01203Y01845D02*
X01207Y01849D01*
X01211*
X01207Y01853*
X01211Y01857*
X01207*
X01203Y01861*
X01199Y01857*
X01195*
X01199Y01853*
X01195Y01849*
X01199*
X01203Y01845*
X01198Y0188D02*
X01202Y01884D01*
X01206*
X01202Y01888*
X01206Y01892*
X01202*
X01198Y01896*
X01194Y01892*
X0119*
X01194Y01888*
X0119Y01884*
X01194*
X01198Y0188*
X01242Y01871D02*
X01246Y01875D01*
X0125*
X01246Y01879*
X0125Y01883*
X01246*
X01242Y01887*
X01238Y01883*
X01234*
X01238Y01879*
X01234Y01875*
X01238*
X01242Y01871*
X01237Y01906D02*
X01241Y0191D01*
X01245*
X01241Y01914*
X01245Y01918*
X01241*
X01237Y01922*
X01233Y01918*
X01229*
X01233Y01914*
X01229Y0191*
X01233*
X01237Y01906*
X01281Y01898D02*
X01285Y01902D01*
X01289*
X01285Y01906*
X01289Y0191*
X01285*
X01281Y01914*
X01277Y0191*
X01273*
X01277Y01906*
X01273Y01902*
X01277*
X01281Y01898*
X01276Y01933D02*
X0128Y01937D01*
X01284*
X0128Y01941*
X01284Y01945*
X0128*
X01276Y01949*
X01272Y01945*
X01268*
X01272Y01941*
X01268Y01937*
X01272*
X01276Y01933*
X01272Y01967D02*
X01276Y01971D01*
X0128*
X01276Y01975*
X0128Y01979*
X01276*
X01272Y01983*
X01268Y01979*
X01264*
X01268Y01975*
X01264Y01971*
X01268*
X01272Y01967*
X01311Y01994D02*
X01315Y01998D01*
X01319*
X01315Y02002*
X01319Y02006*
X01315*
X01311Y0201*
X01307Y02006*
X01303*
X01307Y02002*
X01303Y01998*
X01307*
X01311Y01994*
X01315Y0196D02*
X01319Y01964D01*
X01323*
X01319Y01968*
X01323Y01972*
X01319*
X01315Y01976*
X01311Y01972*
X01307*
X01311Y01968*
X01307Y01964*
X01311*
X01315Y0196*
X01359Y0195D02*
X01363Y01954D01*
X01367*
X01363Y01958*
X01367Y01962*
X01363*
X01359Y01966*
X01355Y01962*
X01351*
X01355Y01958*
X01351Y01954*
X01355*
X01359Y0195*
X01355Y01985D02*
X01359Y01989D01*
X01363*
X01359Y01993*
X01363Y01997*
X01359*
X01355Y02001*
X01351Y01997*
X01347*
X01351Y01993*
X01347Y01989*
X01351*
X01355Y01985*
X0135Y0202D02*
X01354Y02024D01*
X01358*
X01354Y02028*
X01358Y02032*
X01354*
X0135Y02036*
X01346Y02032*
X01342*
X01346Y02028*
X01342Y02024*
X01346*
X0135Y0202*
X01433Y02038D02*
X01437Y02042D01*
X01441*
X01437Y02046*
X01441Y0205*
X01437*
X01433Y02054*
X01429Y0205*
X01425*
X01429Y02046*
X01425Y02042*
X01429*
X01433Y02038*
X01389Y02047D02*
X01393Y02051D01*
X01397*
X01393Y02055*
X01397Y02059*
X01393*
X01389Y02063*
X01385Y02059*
X01381*
X01385Y02055*
X01381Y02051*
X01385*
X01389Y02047*
X01394Y02012D02*
X01398Y02016D01*
X01402*
X01398Y0202*
X01402Y02024*
X01398*
X01394Y02028*
X0139Y02024*
X01386*
X0139Y0202*
X01386Y02016*
X0139*
X01394Y02012*
X01398Y01977D02*
X01402Y01981D01*
X01406*
X01402Y01985*
X01406Y01989*
X01402*
X01398Y01993*
X01394Y01989*
X0139*
X01394Y01985*
X0139Y01981*
X01394*
X01398Y01977*
X01421Y0199D02*
X01425Y01994D01*
X01429*
X01425Y01998*
X01429Y02002*
X01425*
X01421Y02006*
X01417Y02002*
X01413*
X01417Y01998*
X01413Y01994*
X01417*
X01421Y0199*
X01438Y02003D02*
X01442Y02007D01*
X01446*
X01442Y02011*
X01446Y02015*
X01442*
X01438Y02019*
X01434Y02015*
X0143*
X01434Y02011*
X0143Y02007*
X01434*
X01438Y02003*
X01527Y01984D02*
X01531Y01988D01*
X01535*
X01531Y01992*
X01535Y01996*
X01531*
X01527Y02*
X01523Y01996*
X01519*
X01523Y01992*
X01519Y01988*
X01523*
X01527Y01984*
X01517Y02039D02*
X01521Y02043D01*
X01525*
X01521Y02047*
X01525Y02051*
X01521*
X01517Y02055*
X01513Y02051*
X01509*
X01513Y02047*
X01509Y02043*
X01513*
X01517Y02039*
X01482D02*
X01486Y02043D01*
X0149*
X01486Y02047*
X0149Y02051*
X01486*
X01482Y02055*
X01478Y02051*
X01474*
X01478Y02047*
X01474Y02043*
X01478*
X01482Y02039*
X01492Y02069D02*
X01496Y02073D01*
X015*
X01496Y02077*
X015Y02081*
X01496*
X01492Y02085*
X01488Y02081*
X01484*
X01488Y02077*
X01484Y02073*
X01488*
X01492Y02069*
X01502Y02109D02*
X01506Y02113D01*
X0151*
X01506Y02117*
X0151Y02121*
X01506*
X01502Y02125*
X01498Y02121*
X01494*
X01498Y02117*
X01494Y02113*
X01498*
X01502Y02109*
X01517Y02149D02*
X01521Y02153D01*
X01525*
X01521Y02157*
X01525Y02161*
X01521*
X01517Y02165*
X01513Y02161*
X01509*
X01513Y02157*
X01509Y02153*
X01513*
X01517Y02149*
X01552D02*
X01556Y02153D01*
X0156*
X01556Y02157*
X0156Y02161*
X01556*
X01552Y02165*
X01548Y02161*
X01544*
X01548Y02157*
X01544Y02153*
X01548*
X01552Y02149*
X01627Y02139D02*
X01631Y02143D01*
X01635*
X01631Y02147*
X01635Y02151*
X01631*
X01627Y02155*
X01623Y02151*
X01619*
X01623Y02147*
X01619Y02143*
X01623*
X01627Y02139*
X01687Y02119D02*
X01691Y02123D01*
X01695*
X01691Y02127*
X01695Y02131*
X01691*
X01687Y02135*
X01683Y02131*
X01679*
X01683Y02127*
X01679Y02123*
X01683*
X01687Y02119*
X01747Y02094D02*
X01751Y02098D01*
X01755*
X01751Y02102*
X01755Y02106*
X01751*
X01747Y0211*
X01743Y02106*
X01739*
X01743Y02102*
X01739Y02098*
X01743*
X01747Y02094*
X01797Y02064D02*
X01801Y02068D01*
X01805*
X01801Y02072*
X01805Y02076*
X01801*
X01797Y0208*
X01793Y02076*
X01789*
X01793Y02072*
X01789Y02068*
X01793*
X01797Y02064*
X01852Y02034D02*
X01856Y02038D01*
X0186*
X01856Y02042*
X0186Y02046*
X01856*
X01852Y0205*
X01848Y02046*
X01844*
X01848Y02042*
X01844Y02038*
X01848*
X01852Y02034*
X01902Y01994D02*
X01906Y01998D01*
X0191*
X01906Y02002*
X0191Y02006*
X01906*
X01902Y0201*
X01898Y02006*
X01894*
X01898Y02002*
X01894Y01998*
X01898*
X01902Y01994*
X01947Y01954D02*
X01951Y01958D01*
X01955*
X01951Y01962*
X01955Y01966*
X01951*
X01947Y0197*
X01943Y01966*
X01939*
X01943Y01962*
X01939Y01958*
X01943*
X01947Y01954*
X01992Y01904D02*
X01996Y01908D01*
X02*
X01996Y01912*
X02Y01916*
X01996*
X01992Y0192*
X01988Y01916*
X01984*
X01988Y01912*
X01984Y01908*
X01988*
X01992Y01904*
X02032Y01854D02*
X02036Y01858D01*
X0204*
X02036Y01862*
X0204Y01866*
X02036*
X02032Y0187*
X02028Y01866*
X02024*
X02028Y01862*
X02024Y01858*
X02028*
X02032Y01854*
X02067Y01804D02*
X02071Y01808D01*
X02075*
X02071Y01812*
X02075Y01816*
X02071*
X02067Y0182*
X02063Y01816*
X02059*
X02063Y01812*
X02059Y01808*
X02063*
X02067Y01804*
X02097Y01749D02*
X02101Y01753D01*
X02105*
X02101Y01757*
X02105Y01761*
X02101*
X02097Y01765*
X02093Y01761*
X02089*
X02093Y01757*
X02089Y01753*
X02093*
X02097Y01749*
X02122Y01694D02*
X02126Y01698D01*
X0213*
X02126Y01702*
X0213Y01706*
X02126*
X02122Y0171*
X02118Y01706*
X02114*
X02118Y01702*
X02114Y01698*
X02118*
X02122Y01694*
X02142Y01634D02*
X02146Y01638D01*
X0215*
X02146Y01642*
X0215Y01646*
X02146*
X02142Y0165*
X02138Y01646*
X02134*
X02138Y01642*
X02134Y01638*
X02138*
X02142Y01634*
X02162Y01574D02*
X02166Y01578D01*
X0217*
X02166Y01582*
X0217Y01586*
X02166*
X02162Y0159*
X02158Y01586*
X02154*
X02158Y01582*
X02154Y01578*
X02158*
X02162Y01574*
X02172Y01519D02*
X02176Y01523D01*
X0218*
X02176Y01527*
X0218Y01531*
X02176*
X02172Y01535*
X02168Y01531*
X02164*
X02168Y01527*
X02164Y01523*
X02168*
X02172Y01519*
X02082Y01359D02*
X02086Y01363D01*
X0209*
X02086Y01367*
X0209Y01371*
X02086*
X02082Y01375*
X02078Y01371*
X02074*
X02078Y01367*
X02074Y01363*
X02078*
X02082Y01359*
X02122Y01364D02*
X02126Y01368D01*
X0213*
X02126Y01372*
X0213Y01376*
X02126*
X02122Y0138*
X02118Y01376*
X02114*
X02118Y01372*
X02114Y01368*
X02118*
X02122Y01364*
X02157Y01369D02*
X02161Y01373D01*
X02165*
X02161Y01377*
X02165Y01381*
X02161*
X02157Y01385*
X02153Y01381*
X02149*
X02153Y01377*
X02149Y01373*
X02153*
X02157Y01369*
X02152Y01439D02*
X02156Y01443D01*
X0216*
X02156Y01447*
X0216Y01451*
X02156*
X02152Y01455*
X02148Y01451*
X02144*
X02148Y01447*
X02144Y01443*
X02148*
X02152Y01439*
X02062Y01464D02*
X02066Y01468D01*
X0207*
X02066Y01472*
X0207Y01476*
X02066*
X02062Y0148*
X02058Y01476*
X02054*
X02058Y01472*
X02054Y01468*
X02058*
X02062Y01464*
X02032Y01424D02*
X02036Y01428D01*
X0204*
X02036Y01432*
X0204Y01436*
X02036*
X02032Y0144*
X02028Y01436*
X02024*
X02028Y01432*
X02024Y01428*
X02028*
X02032Y01424*
X01997D02*
X02001Y01428D01*
X02005*
X02001Y01432*
X02005Y01436*
X02001*
X01997Y0144*
X01993Y01436*
X01989*
X01993Y01432*
X01989Y01428*
X01993*
X01997Y01424*
X01992Y01384D02*
X01996Y01388D01*
X02*
X01996Y01392*
X02Y01396*
X01996*
X01992Y014*
X01988Y01396*
X01984*
X01988Y01392*
X01984Y01388*
X01988*
X01992Y01384*
X01852Y01304D02*
X01856Y01308D01*
X0186*
X01856Y01312*
X0186Y01316*
X01856*
X01852Y0132*
X01848Y01316*
X01844*
X01848Y01312*
X01844Y01308*
X01848*
X01852Y01304*
X01867Y01269D02*
X01871Y01273D01*
X01875*
X01871Y01277*
X01875Y01281*
X01871*
X01867Y01285*
X01863Y01281*
X01859*
X01863Y01277*
X01859Y01273*
X01863*
X01867Y01269*
X01817Y01259D02*
X01821Y01263D01*
X01825*
X01821Y01267*
X01825Y01271*
X01821*
X01817Y01275*
X01813Y01271*
X01809*
X01813Y01267*
X01809Y01263*
X01813*
X01817Y01259*
X01772Y01209D02*
X01776Y01213D01*
X0178*
X01776Y01217*
X0178Y01221*
X01776*
X01772Y01225*
X01768Y01221*
X01764*
X01768Y01217*
X01764Y01213*
X01768*
X01772Y01209*
X01849Y01141D02*
X01853Y01145D01*
X01857*
X01853Y01149*
X01857Y01153*
X01853*
X01849Y01157*
X01845Y01153*
X01841*
X01845Y01149*
X01841Y01145*
X01845*
X01849Y01141*
X01829Y01127D02*
X01833Y01131D01*
X01837*
X01833Y01135*
X01837Y01139*
X01833*
X01829Y01143*
X01825Y01139*
X01821*
X01825Y01135*
X01821Y01131*
X01825*
X01829Y01127*
X01782Y0107D02*
X01786Y01074D01*
X0179*
X01786Y01078*
X0179Y01082*
X01786*
X01782Y01086*
X01778Y01082*
X01774*
X01778Y01078*
X01774Y01074*
X01778*
X01782Y0107*
X01764Y0105D02*
X01768Y01054D01*
X01772*
X01768Y01058*
X01772Y01062*
X01768*
X01764Y01066*
X0176Y01062*
X01756*
X0176Y01058*
X01756Y01054*
X0176*
X01764Y0105*
X01754Y01029D02*
X01758Y01033D01*
X01762*
X01758Y01037*
X01762Y01041*
X01758*
X01754Y01045*
X0175Y01041*
X01746*
X0175Y01037*
X01746Y01033*
X0175*
X01754Y01029*
X01743Y01007D02*
X01747Y01011D01*
X01751*
X01747Y01015*
X01751Y01019*
X01747*
X01743Y01023*
X01739Y01019*
X01735*
X01739Y01015*
X01735Y01011*
X01739*
X01743Y01007*
X01732Y00986D02*
X01736Y0099D01*
X0174*
X01736Y00994*
X0174Y00998*
X01736*
X01732Y01002*
X01728Y00998*
X01724*
X01728Y00994*
X01724Y0099*
X01728*
X01732Y00986*
X01722Y00964D02*
X01726Y00968D01*
X0173*
X01726Y00972*
X0173Y00976*
X01726*
X01722Y0098*
X01718Y00976*
X01714*
X01718Y00972*
X01714Y00968*
X01718*
X01722Y00964*
X01711Y00944D02*
X01715Y00948D01*
X01719*
X01715Y00952*
X01719Y00956*
X01715*
X01711Y0096*
X01707Y00956*
X01703*
X01707Y00952*
X01703Y00948*
X01707*
X01711Y00944*
X01631Y00894D02*
X01635Y00898D01*
X01639*
X01635Y00902*
X01639Y00906*
X01635*
X01631Y0091*
X01627Y00906*
X01623*
X01627Y00902*
X01623Y00898*
X01627*
X01631Y00894*
X01543Y00911D02*
X01547Y00915D01*
X01551*
X01547Y00919*
X01551Y00923*
X01547*
X01543Y00927*
X01539Y00923*
X01535*
X01539Y00919*
X01535Y00915*
X01539*
X01543Y00911*
X01504Y00884D02*
X01508Y00888D01*
X01512*
X01508Y00892*
X01512Y00896*
X01508*
X01504Y009*
X015Y00896*
X01496*
X015Y00892*
X01496Y00888*
X015*
X01504Y00884*
X01465Y00858D02*
X01469Y00862D01*
X01473*
X01469Y00866*
X01473Y0087*
X01469*
X01465Y00874*
X01461Y0087*
X01457*
X01461Y00866*
X01457Y00862*
X01461*
X01465Y00858*
X01426Y00831D02*
X0143Y00835D01*
X01434*
X0143Y00839*
X01434Y00843*
X0143*
X01426Y00847*
X01422Y00843*
X01418*
X01422Y00839*
X01418Y00835*
X01422*
X01426Y00831*
X01474Y00788D02*
X01478Y00792D01*
X01482*
X01478Y00796*
X01482Y008*
X01478*
X01474Y00804*
X0147Y008*
X01466*
X0147Y00796*
X01466Y00792*
X0147*
X01474Y00788*
X01469Y00823D02*
X01473Y00827D01*
X01477*
X01473Y00831*
X01477Y00835*
X01473*
X01469Y00839*
X01465Y00835*
X01461*
X01465Y00831*
X01461Y00827*
X01465*
X01469Y00823*
X01513Y00814D02*
X01517Y00818D01*
X01521*
X01517Y00822*
X01521Y00826*
X01517*
X01513Y0083*
X01509Y00826*
X01505*
X01509Y00822*
X01505Y00818*
X01509*
X01513Y00814*
X01509Y00849D02*
X01513Y00853D01*
X01517*
X01513Y00857*
X01517Y00861*
X01513*
X01509Y00865*
X01505Y00861*
X01501*
X01505Y00857*
X01501Y00853*
X01505*
X01509Y00849*
X01552Y00841D02*
X01556Y00845D01*
X0156*
X01556Y00849*
X0156Y00853*
X01556*
X01552Y00857*
X01548Y00853*
X01544*
X01548Y00849*
X01544Y00845*
X01548*
X01552Y00841*
X01548Y00876D02*
X01552Y0088D01*
X01556*
X01552Y00884*
X01556Y00888*
X01552*
X01548Y00892*
X01544Y00888*
X0154*
X01544Y00884*
X0154Y0088*
X01544*
X01548Y00876*
X01591Y00867D02*
X01595Y00871D01*
X01599*
X01595Y00875*
X01599Y00879*
X01595*
X01591Y00883*
X01587Y00879*
X01583*
X01587Y00875*
X01583Y00871*
X01587*
X01591Y00867*
X01587Y00902D02*
X01591Y00906D01*
X01595*
X01591Y0091*
X01595Y00914*
X01591*
X01587Y00918*
X01583Y00914*
X01579*
X01583Y0091*
X01579Y00906*
X01583*
X01587Y00902*
X01582Y00937D02*
X01586Y00941D01*
X0159*
X01586Y00945*
X0159Y00949*
X01586*
X01582Y00953*
X01578Y00949*
X01574*
X01578Y00945*
X01574Y00941*
X01578*
X01582Y00937*
X01622Y00963D02*
X01626Y00967D01*
X0163*
X01626Y00971*
X0163Y00975*
X01626*
X01622Y00979*
X01618Y00975*
X01614*
X01618Y00971*
X01614Y00967*
X01618*
X01622Y00963*
X01626Y00928D02*
X0163Y00932D01*
X01634*
X0163Y00936*
X01634Y0094*
X0163*
X01626Y00944*
X01622Y0094*
X01618*
X01622Y00936*
X01618Y00932*
X01622*
X01626Y00928*
X0167Y0092D02*
X01674Y00924D01*
X01678*
X01674Y00928*
X01678Y00932*
X01674*
X0167Y00936*
X01666Y00932*
X01662*
X01666Y00928*
X01662Y00924*
X01666*
X0167Y0092*
X01665Y00955D02*
X01669Y00959D01*
X01673*
X01669Y00963*
X01673Y00967*
X01669*
X01665Y00971*
X01661Y00967*
X01657*
X01661Y00963*
X01657Y00959*
X01661*
X01665Y00955*
X01661Y0099D02*
X01665Y00994D01*
X01669*
X01665Y00998*
X01669Y01002*
X01665*
X01661Y01006*
X01657Y01002*
X01653*
X01657Y00998*
X01653Y00994*
X01657*
X01661Y0099*
X01652Y0106D02*
X01656Y01064D01*
X0166*
X01656Y01068*
X0166Y01072*
X01656*
X01652Y01076*
X01648Y01072*
X01644*
X01648Y01068*
X01644Y01064*
X01648*
X01652Y0106*
X01669Y01147D02*
X01673Y01151D01*
X01677*
X01673Y01155*
X01677Y01159*
X01673*
X01669Y01163*
X01665Y01159*
X01661*
X01665Y01155*
X01661Y01151*
X01665*
X01669Y01147*
X01708Y01173D02*
X01712Y01177D01*
X01716*
X01712Y01181*
X01716Y01185*
X01712*
X01708Y01189*
X01704Y01185*
X017*
X01704Y01181*
X017Y01177*
X01704*
X01708Y01173*
X01738Y01156D02*
X01742Y0116D01*
X01746*
X01742Y01164*
X01746Y01168*
X01742*
X01738Y01172*
X01734Y01168*
X0173*
X01734Y01164*
X0173Y0116*
X01734*
X01738Y01156*
X01729Y01115D02*
X01733Y01119D01*
X01737*
X01733Y01123*
X01737Y01127*
X01733*
X01729Y01131*
X01725Y01127*
X01721*
X01725Y01123*
X01721Y01119*
X01725*
X01729Y01115*
X01699Y0113D02*
X01703Y01134D01*
X01707*
X01703Y01138*
X01707Y01142*
X01703*
X01699Y01146*
X01695Y01142*
X01691*
X01695Y01138*
X01691Y01134*
X01695*
X01699Y0113*
X01691Y01086D02*
X01695Y0109D01*
X01699*
X01695Y01094*
X01699Y01098*
X01695*
X01691Y01102*
X01687Y01098*
X01683*
X01687Y01094*
X01683Y0109*
X01687*
X01691Y01086*
X0166Y01103D02*
X01664Y01107D01*
X01668*
X01664Y01111*
X01668Y01115*
X01664*
X0166Y01119*
X01656Y01115*
X01652*
X01656Y01111*
X01652Y01107*
X01656*
X0166Y01103*
X01629Y01121D02*
X01633Y01125D01*
X01637*
X01633Y01129*
X01637Y01133*
X01633*
X01629Y01137*
X01625Y01133*
X01621*
X01625Y01129*
X01621Y01125*
X01625*
X01629Y01121*
X0159Y01094D02*
X01594Y01098D01*
X01598*
X01594Y01102*
X01598Y01106*
X01594*
X0159Y0111*
X01586Y01106*
X01582*
X01586Y01102*
X01582Y01098*
X01586*
X0159Y01094*
X01621Y01077D02*
X01625Y01081D01*
X01629*
X01625Y01085*
X01629Y01089*
X01625*
X01621Y01093*
X01617Y01089*
X01613*
X01617Y01085*
X01613Y01081*
X01617*
X01621Y01077*
X01611Y01035D02*
X01615Y01039D01*
X01619*
X01615Y01043*
X01619Y01047*
X01615*
X01611Y01051*
X01607Y01047*
X01603*
X01607Y01043*
X01603Y01039*
X01607*
X01611Y01035*
X01581Y01052D02*
X01585Y01056D01*
X01589*
X01585Y0106*
X01589Y01064*
X01585*
X01581Y01068*
X01577Y01064*
X01573*
X01577Y0106*
X01573Y01056*
X01577*
X01581Y01052*
X01551Y01068D02*
X01555Y01072D01*
X01559*
X01555Y01076*
X01559Y0108*
X01555*
X01551Y01084*
X01547Y0108*
X01543*
X01547Y01076*
X01543Y01072*
X01547*
X01551Y01068*
X01512Y01041D02*
X01516Y01045D01*
X0152*
X01516Y01049*
X0152Y01053*
X01516*
X01512Y01057*
X01508Y01053*
X01504*
X01508Y01049*
X01504Y01045*
X01508*
X01512Y01041*
X01543Y01024D02*
X01547Y01028D01*
X01551*
X01547Y01032*
X01551Y01036*
X01547*
X01543Y0104*
X01539Y01036*
X01535*
X01539Y01032*
X01535Y01028*
X01539*
X01543Y01024*
X01534Y0098D02*
X01538Y00984D01*
X01542*
X01538Y00988*
X01542Y00992*
X01538*
X01534Y00996*
X0153Y00992*
X01526*
X0153Y00988*
X01526Y00984*
X0153*
X01534Y0098*
X01503Y00998D02*
X01507Y01002D01*
X01511*
X01507Y01006*
X01511Y0101*
X01507*
X01503Y01014*
X01499Y0101*
X01495*
X01499Y01006*
X01495Y01002*
X01499*
X01503Y00998*
X01495Y00954D02*
X01499Y00958D01*
X01503*
X01499Y00962*
X01503Y00966*
X01499*
X01495Y0097*
X01491Y00966*
X01487*
X01491Y00962*
X01487Y00958*
X01491*
X01495Y00954*
X01464Y00971D02*
X01468Y00975D01*
X01472*
X01468Y00979*
X01472Y00983*
X01468*
X01464Y00987*
X0146Y00983*
X01456*
X0146Y00979*
X01456Y00975*
X0146*
X01464Y00971*
X01434Y00989D02*
X01438Y00993D01*
X01442*
X01438Y00997*
X01442Y01001*
X01438*
X01434Y01005*
X0143Y01001*
X01426*
X0143Y00997*
X01426Y00993*
X0143*
X01434Y00989*
X01394Y00962D02*
X01398Y00966D01*
X01402*
X01398Y0097*
X01402Y00974*
X01398*
X01394Y00978*
X0139Y00974*
X01386*
X0139Y0097*
X01386Y00966*
X0139*
X01394Y00962*
X01425Y00945D02*
X01429Y00949D01*
X01433*
X01429Y00953*
X01433Y00957*
X01429*
X01425Y00961*
X01421Y00957*
X01417*
X01421Y00953*
X01417Y00949*
X01421*
X01425Y00945*
X01415Y00903D02*
X01419Y00907D01*
X01423*
X01419Y00911*
X01423Y00915*
X01419*
X01415Y00919*
X01411Y00915*
X01407*
X01411Y00911*
X01407Y00907*
X01411*
X01415Y00903*
X01386Y00918D02*
X0139Y00922D01*
X01394*
X0139Y00926*
X01394Y0093*
X0139*
X01386Y00934*
X01382Y0093*
X01378*
X01382Y00926*
X01378Y00922*
X01382*
X01386Y00918*
X01373Y00875D02*
X01377Y00879D01*
X01381*
X01377Y00883*
X01381Y00887*
X01377*
X01373Y00891*
X01369Y00887*
X01365*
X01369Y00883*
X01365Y00879*
X01369*
X01373Y00875*
X01297Y00824D02*
X01301Y00828D01*
X01305*
X01301Y00832*
X01305Y00836*
X01301*
X01297Y0084*
X01293Y00836*
X01289*
X01293Y00832*
X01289Y00828*
X01293*
X01297Y00824*
X01307Y00769D02*
X01311Y00773D01*
X01315*
X01311Y00777*
X01315Y00781*
X01311*
X01307Y00785*
X01303Y00781*
X01299*
X01303Y00777*
X01299Y00773*
X01303*
X01307Y00769*
X01332Y00739D02*
X01336Y00743D01*
X0134*
X01336Y00747*
X0134Y00751*
X01336*
X01332Y00755*
X01328Y00751*
X01324*
X01328Y00747*
X01324Y00743*
X01328*
X01332Y00739*
X01342Y00769D02*
X01346Y00773D01*
X0135*
X01346Y00777*
X0135Y00781*
X01346*
X01342Y00785*
X01338Y00781*
X01334*
X01338Y00777*
X01334Y00773*
X01338*
X01342Y00769*
X01391Y0077D02*
X01395Y00774D01*
X01399*
X01395Y00778*
X01399Y00782*
X01395*
X01391Y00786*
X01387Y00782*
X01383*
X01387Y00778*
X01383Y00774*
X01387*
X01391Y0077*
X01387Y00805D02*
X01391Y00809D01*
X01395*
X01391Y00813*
X01395Y00817*
X01391*
X01387Y00821*
X01383Y00817*
X01379*
X01383Y00813*
X01379Y00809*
X01383*
X01387Y00805*
X01403Y00818D02*
X01407Y00822D01*
X01411*
X01407Y00826*
X01411Y0083*
X01407*
X01403Y00834*
X01399Y0083*
X01395*
X01399Y00826*
X01395Y00822*
X01399*
X01403Y00818*
X0143Y00796D02*
X01434Y008D01*
X01438*
X01434Y00804*
X01438Y00808*
X01434*
X0143Y00812*
X01426Y00808*
X01422*
X01426Y00804*
X01422Y008*
X01426*
X0143Y00796*
X01435Y00761D02*
X01439Y00765D01*
X01443*
X01439Y00769*
X01443Y00773*
X01439*
X01435Y00777*
X01431Y00773*
X01427*
X01431Y00769*
X01427Y00765*
X01431*
X01435Y00761*
X01517Y00659D02*
X01521Y00663D01*
X01525*
X01521Y00667*
X01525Y00671*
X01521*
X01517Y00675*
X01513Y00671*
X01509*
X01513Y00667*
X01509Y00663*
X01513*
X01517Y00659*
X01602D02*
X01606Y00663D01*
X0161*
X01606Y00667*
X0161Y00671*
X01606*
X01602Y00675*
X01598Y00671*
X01594*
X01598Y00667*
X01594Y00663*
X01598*
X01602Y00659*
X01657Y00674D02*
X01661Y00678D01*
X01665*
X01661Y00682*
X01665Y00686*
X01661*
X01657Y0069*
X01653Y00686*
X01649*
X01653Y00682*
X01649Y00678*
X01653*
X01657Y00674*
X01717Y00699D02*
X01721Y00703D01*
X01725*
X01721Y00707*
X01725Y00711*
X01721*
X01717Y00715*
X01713Y00711*
X01709*
X01713Y00707*
X01709Y00703*
X01713*
X01717Y00699*
X01772Y00724D02*
X01776Y00728D01*
X0178*
X01776Y00732*
X0178Y00736*
X01776*
X01772Y0074*
X01768Y00736*
X01764*
X01768Y00732*
X01764Y00728*
X01768*
X01772Y00724*
X01832Y00759D02*
X01836Y00763D01*
X0184*
X01836Y00767*
X0184Y00771*
X01836*
X01832Y00775*
X01828Y00771*
X01824*
X01828Y00767*
X01824Y00763*
X01828*
X01832Y00759*
X01877Y00794D02*
X01881Y00798D01*
X01885*
X01881Y00802*
X01885Y00806*
X01881*
X01877Y0081*
X01873Y00806*
X01869*
X01873Y00802*
X01869Y00798*
X01873*
X01877Y00794*
X01927Y00834D02*
X01931Y00838D01*
X01935*
X01931Y00842*
X01935Y00846*
X01931*
X01927Y0085*
X01923Y00846*
X01919*
X01923Y00842*
X01919Y00838*
X01923*
X01927Y00834*
X01972Y00879D02*
X01976Y00883D01*
X0198*
X01976Y00887*
X0198Y00891*
X01976*
X01972Y00895*
X01968Y00891*
X01964*
X01968Y00887*
X01964Y00883*
X01968*
X01972Y00879*
X02012Y00924D02*
X02016Y00928D01*
X0202*
X02016Y00932*
X0202Y00936*
X02016*
X02012Y0094*
X02008Y00936*
X02004*
X02008Y00932*
X02004Y00928*
X02008*
X02012Y00924*
X02052Y00979D02*
X02056Y00983D01*
X0206*
X02056Y00987*
X0206Y00991*
X02056*
X02052Y00995*
X02048Y00991*
X02044*
X02048Y00987*
X02044Y00983*
X02048*
X02052Y00979*
X02082Y01029D02*
X02086Y01033D01*
X0209*
X02086Y01037*
X0209Y01041*
X02086*
X02082Y01045*
X02078Y01041*
X02074*
X02078Y01037*
X02074Y01033*
X02078*
X02082Y01029*
X02112Y01084D02*
X02116Y01088D01*
X0212*
X02116Y01092*
X0212Y01096*
X02116*
X02112Y011*
X02108Y01096*
X02104*
X02108Y01092*
X02104Y01088*
X02108*
X02112Y01084*
X02137Y01144D02*
X02141Y01148D01*
X02145*
X02141Y01152*
X02145Y01156*
X02141*
X02137Y0116*
X02133Y01156*
X02129*
X02133Y01152*
X02129Y01148*
X02133*
X02137Y01144*
X02167Y01264D02*
X02171Y01268D01*
X02175*
X02171Y01272*
X02175Y01276*
X02171*
X02167Y0128*
X02163Y01276*
X02159*
X02163Y01272*
X02159Y01268*
X02163*
X02167Y01264*
X02024Y01314D02*
X02028Y01322D01*
X02024Y0133*
X02032Y01326*
X0204Y0133*
X02036Y01322*
X0204Y01314*
X02032Y01318*
X02024Y01314*
X01974Y01264D02*
X01978Y01272D01*
X01974Y0128*
X01982Y01276*
X0199Y0128*
X01986Y01272*
X0199Y01264*
X01982Y01268*
X01974Y01264*
X01924Y01224D02*
X01928Y01232D01*
X01924Y0124*
X01932Y01236*
X0194Y0124*
X01936Y01232*
X0194Y01224*
X01932Y01228*
X01924Y01224*
X01869Y01184D02*
X01873Y01192D01*
X01869Y012*
X01877Y01196*
X01885Y012*
X01881Y01192*
X01885Y01184*
X01877Y01188*
X01869Y01184*
X0108Y0073D02*
X01084Y00738D01*
X0108Y00746*
X01088Y00742*
X01096Y00746*
X01092Y00738*
X01096Y0073*
X01088Y00734*
X0108Y0073*
X00881Y0087D02*
X00885Y00878D01*
X00881Y00886*
X00889Y00882*
X00897Y00886*
X00893Y00878*
X00897Y0087*
X00889Y00874*
X00881Y0087*
X00939Y01624D02*
X00943Y01632D01*
X00939Y0164*
X00947Y01636*
X00955Y0164*
X00951Y01632*
X00955Y01624*
X00947Y01628*
X00939Y01624*
X00669Y0154D02*
X00673Y01548D01*
X00669Y01556*
X00677Y01552*
X00685Y01556*
X00681Y01548*
X00685Y0154*
X00677Y01544*
X00669Y0154*
X00784Y01494D02*
X00788Y01502D01*
X00784Y0151*
X00792Y01506*
X008Y0151*
X00796Y01502*
X008Y01494*
X00792Y01498*
X00784Y01494*
X00834Y01544D02*
X00838Y01552D01*
X00834Y0156*
X00842Y01556*
X0085Y0156*
X00846Y01552*
X0085Y01544*
X00842Y01548*
X00834Y01544*
X00884Y01584D02*
X00888Y01592D01*
X00884Y016*
X00892Y01596*
X009Y016*
X00896Y01592*
X009Y01584*
X00892Y01588*
X00884Y01584*
X00751Y01769D02*
X00755Y01777D01*
X00751Y01785*
X00759Y01781*
X00767Y01785*
X00763Y01777*
X00767Y01769*
X00759Y01773*
X00751Y01769*
X01Y02033D02*
X01004Y02041D01*
X01Y02049*
X01008Y02045*
X01016Y02049*
X01012Y02041*
X01016Y02033*
X01008Y02037*
X01Y02033*
X01464Y02153D02*
X01468Y02161D01*
X01464Y02169*
X01472Y02165*
X0148Y02169*
X01476Y02161*
X0148Y02153*
X01472Y02157*
X01464Y02153*
X01407Y02159D02*
X01411Y02167D01*
X01407Y02175*
X01415Y02171*
X01423Y02175*
X01419Y02167*
X01423Y02159*
X01415Y02163*
X01407Y02159*
X01345Y02152D02*
X01349Y0216D01*
X01345Y02168*
X01353Y02164*
X01361Y02168*
X01357Y0216*
X01361Y02152*
X01353Y02156*
X01345Y02152*
X01223Y0213D02*
X01227Y02138D01*
X01223Y02146*
X01231Y02142*
X01239Y02146*
X01235Y02138*
X01239Y0213*
X01231Y02134*
X01223Y0213*
X01263Y02089D02*
X01267Y02097D01*
X01263Y02105*
X01271Y02101*
X01279Y02105*
X01275Y02097*
X01279Y02089*
X01271Y02093*
X01263Y02089*
X01209Y02075D02*
X01213Y02083D01*
X01209Y02091*
X01217Y02087*
X01225Y02091*
X01221Y02083*
X01225Y02075*
X01217Y02079*
X01209Y02075*
X01166Y02113D02*
X0117Y02121D01*
X01166Y02129*
X01174Y02125*
X01182Y02129*
X01178Y02121*
X01182Y02113*
X01174Y02117*
X01166Y02113*
X01107Y0209D02*
X01111Y02098D01*
X01107Y02106*
X01115Y02102*
X01123Y02106*
X01119Y02098*
X01123Y0209*
X01115Y02094*
X01107Y0209*
X01153Y02057D02*
X01157Y02065D01*
X01153Y02073*
X01161Y02069*
X01169Y02073*
X01165Y02065*
X01169Y02057*
X01161Y02061*
X01153Y02057*
X01102Y02034D02*
X01106Y02042D01*
X01102Y0205*
X0111Y02046*
X01118Y0205*
X01114Y02042*
X01118Y02034*
X0111Y02038*
X01102Y02034*
X01053Y02065D02*
X01057Y02073D01*
X01053Y02081*
X01061Y02077*
X01069Y02081*
X01065Y02073*
X01069Y02065*
X01061Y02069*
X01053Y02065*
X01051Y02007D02*
X01055Y02015D01*
X01051Y02023*
X01059Y02019*
X01067Y02023*
X01063Y02015*
X01067Y02007*
X01059Y02011*
X01051Y02007*
X01004Y01977D02*
X01008Y01985D01*
X01004Y01993*
X01012Y01989*
X0102Y01993*
X01016Y01985*
X0102Y01977*
X01012Y01981*
X01004Y01977*
X00951Y01999D02*
X00955Y02007D01*
X00951Y02015*
X00959Y02011*
X00967Y02015*
X00963Y02007*
X00967Y01999*
X00959Y02003*
X00951Y01999*
X00902Y01959D02*
X00906Y01967D01*
X00902Y01975*
X0091Y01971*
X00918Y01975*
X00914Y01967*
X00918Y01959*
X0091Y01963*
X00902Y01959*
X00957Y01942D02*
X00961Y0195D01*
X00957Y01958*
X00965Y01954*
X00973Y01958*
X00969Y0195*
X00973Y01942*
X00965Y01946*
X00957Y01942*
X00916Y01904D02*
X0092Y01912D01*
X00916Y0192*
X00924Y01916*
X00932Y0192*
X00928Y01912*
X00932Y01904*
X00924Y01908*
X00916Y01904*
X0086Y01917D02*
X00864Y01925D01*
X0086Y01933*
X00868Y01929*
X00876Y01933*
X00872Y01925*
X00876Y01917*
X00868Y01921*
X0086Y01917*
X00819Y0187D02*
X00823Y01878D01*
X00819Y01886*
X00827Y01882*
X00835Y01886*
X00831Y01878*
X00835Y0187*
X00827Y01874*
X00819Y0187*
X00875Y01861D02*
X00879Y01869D01*
X00875Y01877*
X00883Y01873*
X00891Y01877*
X00887Y01869*
X00891Y01861*
X00883Y01865*
X00875Y01861*
X0084Y01818D02*
X00844Y01826D01*
X0084Y01834*
X00848Y0183*
X00856Y01834*
X00852Y01826*
X00856Y01818*
X00848Y01822*
X0084Y01818*
X00784Y01822D02*
X00788Y0183D01*
X00784Y01838*
X00792Y01834*
X008Y01838*
X00796Y0183*
X008Y01822*
X00792Y01826*
X00784Y01822*
X00808Y0177D02*
X00812Y01778D01*
X00808Y01786*
X00816Y01782*
X00824Y01786*
X0082Y01778*
X00824Y0177*
X00816Y01774*
X00808Y0177*
X00781Y01721D02*
X00785Y01729D01*
X00781Y01737*
X00789Y01733*
X00797Y01737*
X00793Y01729*
X00797Y01721*
X00789Y01725*
X00781Y01721*
X00724Y01716D02*
X00728Y01724D01*
X00724Y01732*
X00732Y01728*
X0074Y01732*
X00736Y01724*
X0074Y01716*
X00732Y0172*
X00724Y01716*
X007Y01657D02*
X00704Y01665D01*
X007Y01673*
X00708Y01669*
X00716Y01673*
X00712Y01665*
X00716Y01657*
X00708Y01661*
X007Y01657*
X00757Y01668D02*
X00761Y01676D01*
X00757Y01684*
X00765Y0168*
X00773Y01684*
X00769Y01676*
X00773Y01668*
X00765Y01672*
X00757Y01668*
X00738Y01615D02*
X00742Y01623D01*
X00738Y01631*
X00746Y01627*
X00754Y01631*
X0075Y01623*
X00754Y01615*
X00746Y01619*
X00738Y01615*
X00682Y01601D02*
X00686Y01609D01*
X00682Y01617*
X0069Y01613*
X00698Y01617*
X00694Y01609*
X00698Y01601*
X0069Y01605*
X00682Y01601*
X00722Y0156D02*
X00726Y01568D01*
X00722Y01576*
X0073Y01572*
X00738Y01576*
X00734Y01568*
X00738Y0156*
X0073Y01564*
X00722Y0156*
X00712Y01505D02*
X00716Y01513D01*
X00712Y01521*
X0072Y01517*
X00728Y01521*
X00724Y01513*
X00728Y01505*
X0072Y01509*
X00712Y01505*
X0066Y01481D02*
X00664Y01489D01*
X0066Y01497*
X00668Y01493*
X00676Y01497*
X00672Y01489*
X00676Y01481*
X00668Y01485*
X0066Y01481*
X00689Y01404D02*
X00693Y01412D01*
X00689Y0142*
X00697Y01416*
X00705Y0142*
X00701Y01412*
X00705Y01404*
X00697Y01408*
X00689Y01404*
X00691Y01179D02*
X00695Y01187D01*
X00691Y01195*
X00699Y01191*
X00707Y01195*
X00703Y01187*
X00707Y01179*
X00699Y01183*
X00691Y01179*
X00664Y01297D02*
X00668Y01305D01*
X00664Y01313*
X00672Y01309*
X0068Y01313*
X00676Y01305*
X0068Y01297*
X00672Y01301*
X00664Y01297*
X00709Y01333D02*
X00713Y01341D01*
X00709Y01349*
X00717Y01345*
X00725Y01349*
X00721Y01341*
X00725Y01333*
X00717Y01337*
X00709Y01333*
X00716Y01278D02*
X0072Y01286D01*
X00716Y01294*
X00724Y0129*
X00732Y01294*
X00728Y01286*
X00732Y01278*
X00724Y01282*
X00716Y01278*
X00675Y01239D02*
X00679Y01247D01*
X00675Y01255*
X00683Y01251*
X00691Y01255*
X00687Y01247*
X00691Y01239*
X00683Y01243*
X00675Y01239*
X00729Y01221D02*
X00733Y01229D01*
X00729Y01237*
X00737Y01233*
X00745Y01237*
X00741Y01229*
X00745Y01221*
X00737Y01225*
X00729Y01221*
X00746Y01168D02*
X0075Y01176D01*
X00746Y01184*
X00754Y0118*
X00762Y01184*
X00758Y01176*
X00762Y01168*
X00754Y01172*
X00746Y01168*
X00711Y01123D02*
X00715Y01131D01*
X00711Y01139*
X00719Y01135*
X00727Y01139*
X00723Y01131*
X00727Y01123*
X00719Y01127*
X00711Y01123*
X00737Y01065D02*
X00741Y01073D01*
X00737Y01081*
X00745Y01077*
X00753Y01081*
X00749Y01073*
X00753Y01065*
X00745Y01069*
X00737Y01065*
X00768Y01114D02*
X00772Y01122D01*
X00768Y0113*
X00776Y01126*
X00784Y0113*
X0078Y01122*
X00784Y01114*
X00776Y01118*
X00768Y01114*
X00793Y01064D02*
X00797Y01072D01*
X00793Y0108*
X00801Y01076*
X00809Y0108*
X00805Y01072*
X00809Y01064*
X00801Y01068*
X00793Y01064*
X00766Y01014D02*
X0077Y01022D01*
X00766Y0103*
X00774Y01026*
X00782Y0103*
X00778Y01022*
X00782Y01014*
X00774Y01018*
X00766Y01014*
X00801Y00961D02*
X00805Y00969D01*
X00801Y00977*
X00809Y00973*
X00817Y00977*
X00813Y00969*
X00817Y00961*
X00809Y00965*
X00801Y00961*
X00824Y01014D02*
X00828Y01022D01*
X00824Y0103*
X00832Y01026*
X0084Y0103*
X00836Y01022*
X0084Y01014*
X00832Y01018*
X00824Y01014*
X00857Y00969D02*
X00861Y00977D01*
X00857Y00985*
X00865Y00981*
X00873Y00985*
X00869Y00977*
X00873Y00969*
X00865Y00973*
X00857Y00969*
X00838Y00915D02*
X00842Y00923D01*
X00838Y00931*
X00846Y00927*
X00854Y00931*
X0085Y00923*
X00854Y00915*
X00846Y00919*
X00838Y00915*
X00895Y00925D02*
X00899Y00933D01*
X00895Y00941*
X00903Y00937*
X00911Y00941*
X00907Y00933*
X00911Y00925*
X00903Y00929*
X00895Y00925*
X00935Y00886D02*
X00939Y00894D01*
X00935Y00902*
X00943Y00898*
X00951Y00902*
X00947Y00894*
X00951Y00886*
X00943Y0089*
X00935Y00886*
X00925Y0083D02*
X00929Y00838D01*
X00925Y00846*
X00933Y00842*
X00941Y00846*
X00937Y00838*
X00941Y0083*
X00933Y00834*
X00925Y0083*
X00975Y00791D02*
X00979Y00799D01*
X00975Y00807*
X00983Y00803*
X00991Y00807*
X00987Y00799*
X00991Y00791*
X00983Y00795*
X00975Y00791*
X0098Y00848D02*
X00984Y00856D01*
X0098Y00864*
X00988Y0086*
X00996Y00864*
X00992Y00856*
X00996Y00848*
X00988Y00852*
X0098Y00848*
X01026Y00816D02*
X0103Y00824D01*
X01026Y00832*
X01034Y00828*
X01042Y00832*
X01038Y00824*
X01042Y00816*
X01034Y0082*
X01026Y00816*
X01025Y00759D02*
X01029Y00767D01*
X01025Y00775*
X01033Y00771*
X01041Y00775*
X01037Y00767*
X01041Y00759*
X01033Y00763*
X01025Y00759*
X01075Y00787D02*
X01079Y00795D01*
X01075Y00803*
X01083Y00799*
X01091Y00803*
X01087Y00795*
X01091Y00787*
X01083Y00791*
X01075Y00787*
X01126Y00763D02*
X0113Y00771D01*
X01126Y00779*
X01134Y00775*
X01142Y00779*
X01138Y00771*
X01142Y00763*
X01134Y00767*
X01126Y00763*
X01134Y00706D02*
X01138Y00714D01*
X01134Y00722*
X01142Y00718*
X0115Y00722*
X01146Y00714*
X0115Y00706*
X01142Y0071*
X01134Y00706*
X01194Y00686D02*
X01198Y00694D01*
X01194Y00702*
X01202Y00698*
X0121Y00702*
X01206Y00694*
X0121Y00686*
X01202Y0069*
X01194Y00686*
X0118Y00742D02*
X01184Y0075D01*
X0118Y00758*
X01188Y00754*
X01196Y00758*
X01192Y0075*
X01196Y00742*
X01188Y00746*
X0118Y00742*
X01234Y00726D02*
X01238Y00734D01*
X01234Y00742*
X01242Y00738*
X0125Y00742*
X01246Y00734*
X0125Y00726*
X01242Y0073*
X01234Y00726*
X01252Y00672D02*
X01256Y0068D01*
X01252Y00688*
X0126Y00684*
X01268Y00688*
X01264Y0068*
X01268Y00672*
X0126Y00676*
X01252Y00672*
X01344Y00655D02*
X01348Y00663D01*
X01344Y00671*
X01352Y00667*
X0136Y00671*
X01356Y00663*
X0136Y00655*
X01352Y00659*
X01344Y00655*
X01401Y00649D02*
X01405Y00657D01*
X01401Y00665*
X01409Y00661*
X01417Y00665*
X01413Y00657*
X01417Y00649*
X01409Y00653*
X01401Y00649*
X01464Y00655D02*
X01468Y00663D01*
X01464Y00671*
X01472Y00667*
X0148Y00671*
X01476Y00663*
X0148Y00655*
X01472Y00659*
X01464Y00655*
X01556Y00672D02*
X0156Y0068D01*
X01556Y00688*
X01564Y00684*
X01572Y00688*
X01568Y0068*
X01572Y00672*
X01564Y00676*
X01556Y00672*
X01614Y00686D02*
X01618Y00694D01*
X01614Y00702*
X01622Y00698*
X0163Y00702*
X01626Y00694*
X0163Y00686*
X01622Y0069*
X01614Y00686*
X01574Y00726D02*
X01578Y00734D01*
X01574Y00742*
X01582Y00738*
X0159Y00742*
X01586Y00734*
X0159Y00726*
X01582Y0073*
X01574Y00726*
X01628Y00742D02*
X01632Y0075D01*
X01628Y00758*
X01636Y00754*
X01644Y00758*
X0164Y0075*
X01644Y00742*
X01636Y00746*
X01628Y00742*
X01674Y00706D02*
X01678Y00714D01*
X01674Y00722*
X01682Y00718*
X0169Y00722*
X01686Y00714*
X0169Y00706*
X01682Y0071*
X01674Y00706*
X01728Y0073D02*
X01732Y00738D01*
X01728Y00746*
X01736Y00742*
X01744Y00746*
X0174Y00738*
X01744Y0073*
X01736Y00734*
X01728Y0073*
X01683Y00763D02*
X01687Y00771D01*
X01683Y00779*
X01691Y00775*
X01699Y00779*
X01695Y00771*
X01699Y00763*
X01691Y00767*
X01683Y00763*
X01733Y00787D02*
X01737Y00795D01*
X01733Y00803*
X01741Y00799*
X01749Y00803*
X01745Y00795*
X01749Y00787*
X01741Y00791*
X01733Y00787*
X01783Y00759D02*
X01787Y00767D01*
X01783Y00775*
X01791Y00771*
X01799Y00775*
X01795Y00767*
X01799Y00759*
X01791Y00763*
X01783Y00759*
X01833Y00791D02*
X01837Y00799D01*
X01833Y00807*
X01841Y00803*
X01849Y00807*
X01845Y00799*
X01849Y00791*
X01841Y00795*
X01833Y00791*
X01783Y00816D02*
X01787Y00824D01*
X01783Y00832*
X01791Y00828*
X01799Y00832*
X01795Y00824*
X01799Y00816*
X01791Y0082*
X01783Y00816*
X01828Y00848D02*
X01832Y00856D01*
X01828Y00864*
X01836Y0086*
X01844Y00864*
X0184Y00856*
X01844Y00848*
X01836Y00852*
X01828Y00848*
X01883Y0083D02*
X01887Y00838D01*
X01883Y00846*
X01891Y00842*
X01899Y00846*
X01895Y00838*
X01899Y0083*
X01891Y00834*
X01883Y0083*
X01927Y0087D02*
X01931Y00878D01*
X01927Y00886*
X01935Y00882*
X01943Y00886*
X01939Y00878*
X01943Y0087*
X01935Y00874*
X01927Y0087*
X01873Y00886D02*
X01877Y00894D01*
X01873Y00902*
X01881Y00898*
X01889Y00902*
X01885Y00894*
X01889Y00886*
X01881Y0089*
X01873Y00886*
X01913Y00925D02*
X01917Y00933D01*
X01913Y00941*
X01921Y00937*
X01929Y00941*
X01925Y00933*
X01929Y00925*
X01921Y00929*
X01913Y00925*
X0197Y00915D02*
X01974Y00923D01*
X0197Y00931*
X01978Y00927*
X01986Y00931*
X01982Y00923*
X01986Y00915*
X01978Y00919*
X0197Y00915*
X02007Y00961D02*
X02011Y00969D01*
X02007Y00977*
X02015Y00973*
X02023Y00977*
X02019Y00969*
X02023Y00961*
X02015Y00965*
X02007Y00961*
X01951Y00969D02*
X01955Y00977D01*
X01951Y00985*
X01959Y00981*
X01967Y00985*
X01963Y00977*
X01967Y00969*
X01959Y00973*
X01951Y00969*
X01984Y01014D02*
X01988Y01022D01*
X01984Y0103*
X01992Y01026*
X02Y0103*
X01996Y01022*
X02Y01014*
X01992Y01018*
X01984Y01014*
X02042Y01014D02*
X02046Y01022D01*
X02042Y0103*
X0205Y01026*
X02058Y0103*
X02054Y01022*
X02058Y01014*
X0205Y01018*
X02042Y01014*
X02071Y01065D02*
X02075Y01073D01*
X02071Y01081*
X02079Y01077*
X02087Y01081*
X02083Y01073*
X02087Y01065*
X02079Y01069*
X02071Y01065*
X02015Y01064D02*
X02019Y01072D01*
X02015Y0108*
X02023Y01076*
X02031Y0108*
X02027Y01072*
X02031Y01064*
X02023Y01068*
X02015Y01064*
X0204Y01114D02*
X02044Y01122D01*
X0204Y0113*
X02048Y01126*
X02056Y0113*
X02052Y01122*
X02056Y01114*
X02048Y01118*
X0204Y01114*
X02097Y01123D02*
X02101Y01131D01*
X02097Y01139*
X02105Y01135*
X02113Y01139*
X02109Y01131*
X02113Y01123*
X02105Y01127*
X02097Y01123*
X02117Y01179D02*
X02121Y01187D01*
X02117Y01195*
X02125Y01191*
X02133Y01195*
X02129Y01187*
X02133Y01179*
X02125Y01183*
X02117Y01179*
X02062Y01168D02*
X02066Y01176D01*
X02062Y01184*
X0207Y0118*
X02078Y01184*
X02074Y01176*
X02078Y01168*
X0207Y01172*
X02062Y01168*
X02079Y01221D02*
X02083Y01229D01*
X02079Y01237*
X02087Y01233*
X02095Y01237*
X02091Y01229*
X02095Y01221*
X02087Y01225*
X02079Y01221*
X02133Y01239D02*
X02137Y01247D01*
X02133Y01255*
X02141Y01251*
X02149Y01255*
X02145Y01247*
X02149Y01239*
X02141Y01243*
X02133Y01239*
X02144Y01297D02*
X02148Y01305D01*
X02144Y01313*
X02152Y01309*
X0216Y01313*
X02156Y01305*
X0216Y01297*
X02152Y01301*
X02144Y01297*
X02092Y01278D02*
X02096Y01286D01*
X02092Y01294*
X021Y0129*
X02108Y01294*
X02104Y01286*
X02108Y01278*
X021Y01282*
X02092Y01278*
X021Y01333D02*
X02104Y01341D01*
X021Y01349*
X02108Y01345*
X02116Y01349*
X02112Y01341*
X02116Y01333*
X02108Y01337*
X021Y01333*
X02119Y01404D02*
X02123Y01412D01*
X02119Y0142*
X02127Y01416*
X02135Y0142*
X02131Y01412*
X02135Y01404*
X02127Y01408*
X02119Y01404*
X02148Y01481D02*
X02152Y01489D01*
X02148Y01497*
X02156Y01493*
X02164Y01497*
X0216Y01489*
X02164Y01481*
X02156Y01485*
X02148Y01481*
X0214Y0154D02*
X02144Y01548D01*
X0214Y01556*
X02148Y01552*
X02156Y01556*
X02152Y01548*
X02156Y0154*
X02148Y01544*
X0214Y0154*
X02096Y01505D02*
X021Y01513D01*
X02096Y01521*
X02104Y01517*
X02112Y01521*
X02108Y01513*
X02112Y01505*
X02104Y01509*
X02096Y01505*
X02086Y0156D02*
X0209Y01568D01*
X02086Y01576*
X02094Y01572*
X02102Y01576*
X02098Y01568*
X02102Y0156*
X02094Y01564*
X02086Y0156*
X02126Y01601D02*
X0213Y01609D01*
X02126Y01617*
X02134Y01613*
X02142Y01617*
X02138Y01609*
X02142Y01601*
X02134Y01605*
X02126Y01601*
X02108Y01657D02*
X02112Y01665D01*
X02108Y01673*
X02116Y01669*
X02124Y01673*
X0212Y01665*
X02124Y01657*
X02116Y01661*
X02108Y01657*
X02071Y01615D02*
X02075Y01623D01*
X02071Y01631*
X02079Y01627*
X02087Y01631*
X02083Y01623*
X02087Y01615*
X02079Y01619*
X02071Y01615*
X02052Y01668D02*
X02056Y01676D01*
X02052Y01684*
X0206Y0168*
X02068Y01684*
X02064Y01676*
X02068Y01668*
X0206Y01672*
X02052Y01668*
X02084Y01716D02*
X02088Y01724D01*
X02084Y01732*
X02092Y01728*
X021Y01732*
X02096Y01724*
X021Y01716*
X02092Y0172*
X02084Y01716*
X02057Y01769D02*
X02061Y01777D01*
X02057Y01785*
X02065Y01781*
X02073Y01785*
X02069Y01777*
X02073Y01769*
X02065Y01773*
X02057Y01769*
X02027Y01721D02*
X02031Y01729D01*
X02027Y01737*
X02035Y01733*
X02043Y01737*
X02039Y01729*
X02043Y01721*
X02035Y01725*
X02027Y01721*
X02Y0177D02*
X02004Y01778D01*
X02Y01786*
X02008Y01782*
X02016Y01786*
X02012Y01778*
X02016Y0177*
X02008Y01774*
X02Y0177*
X02025Y01822D02*
X02029Y0183D01*
X02025Y01838*
X02033Y01834*
X02041Y01838*
X02037Y0183*
X02041Y01822*
X02033Y01826*
X02025Y01822*
X0199Y0187D02*
X01994Y01878D01*
X0199Y01886*
X01998Y01882*
X02006Y01886*
X02002Y01878*
X02006Y0187*
X01998Y01874*
X0199Y0187*
X01968Y01818D02*
X01972Y01826D01*
X01968Y01834*
X01976Y0183*
X01984Y01834*
X0198Y01826*
X01984Y01818*
X01976Y01822*
X01968Y01818*
X01933Y01861D02*
X01937Y01869D01*
X01933Y01877*
X01941Y01873*
X01949Y01877*
X01945Y01869*
X01949Y01861*
X01941Y01865*
X01933Y01861*
X01948Y01917D02*
X01952Y01925D01*
X01948Y01933*
X01956Y01929*
X01964Y01933*
X0196Y01925*
X01964Y01917*
X01956Y01921*
X01948Y01917*
X01906Y01959D02*
X0191Y01967D01*
X01906Y01975*
X01914Y01971*
X01922Y01975*
X01918Y01967*
X01922Y01959*
X01914Y01963*
X01906Y01959*
X01893Y01904D02*
X01897Y01912D01*
X01893Y0192*
X01901Y01916*
X01909Y0192*
X01905Y01912*
X01909Y01904*
X01901Y01908*
X01893Y01904*
X01851Y01942D02*
X01855Y0195D01*
X01851Y01958*
X01859Y01954*
X01867Y01958*
X01863Y0195*
X01867Y01942*
X01859Y01946*
X01851Y01942*
X01857Y01999D02*
X01861Y02007D01*
X01857Y02015*
X01865Y02011*
X01873Y02015*
X01869Y02007*
X01873Y01999*
X01865Y02003*
X01857Y01999*
X01808Y02033D02*
X01812Y02041D01*
X01808Y02049*
X01816Y02045*
X01824Y02049*
X0182Y02041*
X01824Y02033*
X01816Y02037*
X01808Y02033*
X01804Y01977D02*
X01808Y01985D01*
X01804Y01993*
X01812Y01989*
X0182Y01993*
X01816Y01985*
X0182Y01977*
X01812Y01981*
X01804Y01977*
X01757Y02007D02*
X01761Y02015D01*
X01757Y02023*
X01765Y02019*
X01773Y02023*
X01769Y02015*
X01773Y02007*
X01765Y02011*
X01757Y02007*
X01755Y02065D02*
X01759Y02073D01*
X01755Y02081*
X01763Y02077*
X01771Y02081*
X01767Y02073*
X01771Y02065*
X01763Y02069*
X01755Y02065*
X01701Y0209D02*
X01705Y02098D01*
X01701Y02106*
X01709Y02102*
X01717Y02106*
X01713Y02098*
X01717Y0209*
X01709Y02094*
X01701Y0209*
X01706Y02034D02*
X0171Y02042D01*
X01706Y0205*
X01714Y02046*
X01722Y0205*
X01718Y02042*
X01722Y02034*
X01714Y02038*
X01706Y02034*
X01655Y02057D02*
X01659Y02065D01*
X01655Y02073*
X01663Y02069*
X01671Y02073*
X01667Y02065*
X01671Y02057*
X01663Y02061*
X01655Y02057*
X01642Y02113D02*
X01646Y02121D01*
X01642Y02129*
X0165Y02125*
X01658Y02129*
X01654Y02121*
X01658Y02113*
X0165Y02117*
X01642Y02113*
X01545Y02089D02*
X01549Y02097D01*
X01545Y02105*
X01553Y02101*
X01561Y02105*
X01557Y02097*
X01561Y02089*
X01553Y02093*
X01545Y02089*
X01599Y02075D02*
X01603Y02083D01*
X01599Y02091*
X01607Y02087*
X01615Y02091*
X01611Y02083*
X01615Y02075*
X01607Y02079*
X01599Y02075*
X01585Y0213D02*
X01589Y02138D01*
X01585Y02146*
X01593Y02142*
X01601Y02146*
X01597Y02138*
X01601Y0213*
X01593Y02134*
X01585Y0213*
G54D26*
X01479Y01609D02*
D01*
X01479Y01609*
X01479Y0161*
X01479Y0161*
X01479Y01611*
X01479Y01612*
X01478Y01612*
X01478Y01613*
X01478Y01613*
X01477Y01614*
X01477Y01614*
X01477Y01614*
X01476Y01615*
X01476Y01615*
X01475Y01615*
X01475Y01616*
X01475Y01616*
X01474Y01616*
X01473Y01616*
X01473Y01617*
X01472Y01617*
X01472Y01617*
X01471Y01617*
X01471*
X0147Y01617*
X0147Y01617*
X01469Y01617*
X01469Y01616*
X01468Y01616*
X01467Y01616*
X01467Y01616*
X01467Y01615*
X01466Y01615*
X01466Y01615*
X01465Y01614*
X01465Y01614*
X01465Y01614*
X01464Y01613*
X01464Y01613*
X01464Y01612*
X01463Y01612*
X01463Y01611*
X01463Y0161*
X01463Y0161*
X01463Y01609*
X01463Y01609*
X01463Y01608*
X01463Y01608*
X01463Y01607*
X01463Y01607*
X01463Y01606*
X01464Y01606*
X01464Y01605*
X01464Y01605*
X01465Y01604*
X01465Y01604*
X01465Y01603*
X01466Y01603*
X01466Y01602*
X01467Y01602*
X01467Y01602*
X01467Y01602*
X01468Y01601*
X01469Y01601*
X01469Y01601*
X0147Y01601*
X0147Y01601*
X01471Y01601*
X01471*
X01472Y01601*
X01472Y01601*
X01473Y01601*
X01473Y01601*
X01474Y01601*
X01475Y01602*
X01475Y01602*
X01475Y01602*
X01476Y01602*
X01476Y01603*
X01477Y01603*
X01477Y01604*
X01477Y01604*
X01478Y01605*
X01478Y01605*
X01478Y01606*
X01479Y01606*
X01479Y01607*
X01479Y01607*
X01479Y01608*
X01479Y01608*
X01479Y01609*
X01361Y01215D02*
D01*
X01361Y01216*
X01361Y01216*
X01361Y01217*
X01361Y01217*
X0136Y01218*
X0136Y01218*
X0136Y01219*
X0136Y01219*
X01359Y0122*
X01359Y0122*
X01359Y01221*
X01358Y01221*
X01358Y01221*
X01357Y01222*
X01357Y01222*
X01356Y01222*
X01356Y01223*
X01355Y01223*
X01355Y01223*
X01354Y01223*
X01354Y01223*
X01353Y01223*
X01353*
X01352Y01223*
X01352Y01223*
X01351Y01223*
X0135Y01223*
X0135Y01223*
X01349Y01222*
X01349Y01222*
X01348Y01222*
X01348Y01221*
X01348Y01221*
X01347Y01221*
X01347Y0122*
X01346Y0122*
X01346Y01219*
X01346Y01219*
X01346Y01218*
X01345Y01218*
X01345Y01217*
X01345Y01217*
X01345Y01216*
X01345Y01216*
X01345Y01215*
X01345Y01215*
X01345Y01214*
X01345Y01213*
X01345Y01213*
X01345Y01212*
X01346Y01212*
X01346Y01211*
X01346Y01211*
X01346Y0121*
X01347Y0121*
X01347Y0121*
X01348Y01209*
X01348Y01209*
X01348Y01208*
X01349Y01208*
X01349Y01208*
X0135Y01208*
X0135Y01207*
X01351Y01207*
X01352Y01207*
X01352Y01207*
X01353Y01207*
X01353*
X01354Y01207*
X01354Y01207*
X01355Y01207*
X01355Y01207*
X01356Y01208*
X01356Y01208*
X01357Y01208*
X01357Y01208*
X01358Y01209*
X01358Y01209*
X01359Y0121*
X01359Y0121*
X01359Y0121*
X0136Y01211*
X0136Y01211*
X0136Y01212*
X0136Y01212*
X01361Y01213*
X01361Y01213*
X01361Y01214*
X01361Y01215*
X01361Y01215*
M02*