%FSTAX23Y23*%
%MOIN*%
%SFA1B1*%

%IPPOS*%
%ADD11C,0.008000*%
%ADD12C,0.007000*%
%ADD14C,0.005000*%
%ADD15C,0.006000*%
%LNaltium_eib_128_panel-1*%
%LPD*%
G54D11*
X01259Y02122D02*
X01259Y0212D01*
X01259Y0212*
X0126Y02119*
X01261Y02118*
X01262Y02118*
X01263Y02119*
X01264Y02119*
X01265Y0212*
X01265Y02121*
Y02122*
X01265Y02123D02*
X01265Y02122D01*
X01264Y02124D02*
X01265Y02123D01*
X01263Y02125D02*
X01264Y02124D01*
X01262Y02125D02*
X01263Y02125D01*
X01261Y02125D02*
X01262Y02125D01*
X0126Y02124D02*
X01261Y02125D01*
X01259Y02124D02*
X0126Y02124D01*
X01259Y02123D02*
X01259Y02124D01*
X01259Y02122D02*
X01259Y02123D01*
X01145Y02087D02*
X01145Y02086D01*
X01146Y02085*
X01146Y02085*
X01147Y02084*
X01148Y02084*
X01149Y02084*
X0115Y02085*
X01151Y02086*
X01151Y02087*
Y02088*
X01151Y02089D02*
X01151Y02088D01*
X0115Y0209D02*
X01151Y02089D01*
X01149Y0209D02*
X0115Y0209D01*
X01148Y02091D02*
X01149Y0209D01*
X01147Y02091D02*
X01148Y02091D01*
X01146Y0209D02*
X01147Y02091D01*
X01146Y02089D02*
X01146Y0209D01*
X01145Y02089D02*
X01146Y02089D01*
X01145Y02087D02*
X01145Y02089D01*
X01039Y02036D02*
X01039Y02035D01*
X0104Y02034*
X01041Y02033*
X01042Y02033*
X01043Y02033*
X01044Y02033*
X01045Y02034*
X01045Y02034*
X01046Y02035*
Y02036*
X01045Y02038D02*
X01046Y02036D01*
X01045Y02038D02*
X01045Y02038D01*
X01044Y02039D02*
X01045Y02038D01*
X01043Y02039D02*
X01044Y02039D01*
X01042Y02039D02*
X01043Y02039D01*
X01041Y02039D02*
X01042Y02039D01*
X0104Y02038D02*
X01041Y02039D01*
X01039Y02037D02*
X0104Y02038D01*
X01039Y02036D02*
X01039Y02037D01*
X00942Y01967D02*
X00942Y01966D01*
X00943Y01965*
X00944Y01964*
X00945Y01964*
X00946Y01964*
X00947Y01964*
X00948Y01965*
X00948Y01966*
X00949Y01967*
Y01968*
X00948Y01969D02*
X00949Y01968D01*
X00948Y0197D02*
X00948Y01969D01*
X00947Y0197D02*
X00948Y0197D01*
X00946Y01971D02*
X00947Y0197D01*
X00945Y0197D02*
X00946Y01971D01*
X00944Y0197D02*
X00945Y0197D01*
X00943Y01969D02*
X00944Y0197D01*
X00942Y01968D02*
X00943Y01969D01*
X00942Y01967D02*
X00942Y01968D01*
X00858Y01884D02*
X00858Y01882D01*
X00858Y01882*
X00859Y01881*
X0086Y0188*
X00861Y0188*
X00862Y01881*
X00863Y01881*
X00864Y01882*
X00864Y01883*
Y01884*
X00864Y01885D02*
X00864Y01884D01*
X00863Y01886D02*
X00864Y01885D01*
X00862Y01887D02*
X00863Y01886D01*
X00861Y01887D02*
X00862Y01887D01*
X0086Y01887D02*
X00861Y01887D01*
X00859Y01886D02*
X0086Y01887D01*
X00858Y01886D02*
X00859Y01886D01*
X00858Y01885D02*
X00858Y01886D01*
X00858Y01884D02*
X00858Y01885D01*
X00789Y01788D02*
X00789Y01787D01*
X0079Y01786*
X0079Y01786*
X00791Y01785*
X00792Y01785*
X00793Y01785*
X00794Y01786*
X00795Y01787*
X00795Y01788*
Y01789*
X00795Y0179D02*
X00795Y01789D01*
X00794Y01791D02*
X00795Y0179D01*
X00793Y01791D02*
X00794Y01791D01*
X00792Y01792D02*
X00793Y01791D01*
X00791Y01792D02*
X00792Y01792D01*
X0079Y01791D02*
X00791Y01792D01*
X0079Y0179D02*
X0079Y01791D01*
X00789Y01789D02*
X0079Y0179D01*
X00789Y01788D02*
X00789Y01789D01*
X00736Y01682D02*
X00736Y01681D01*
X00736Y0168*
X00737Y01679*
X00738Y01679*
X00739Y01679*
X0074Y01679*
X00741Y0168*
X00742Y0168*
X00742Y01682*
Y01683*
X00742Y01684D02*
X00742Y01683D01*
X00741Y01684D02*
X00742Y01684D01*
X0074Y01685D02*
X00741Y01684D01*
X00739Y01685D02*
X0074Y01685D01*
X00738Y01685D02*
X00739Y01685D01*
X00737Y01685D02*
X00738Y01685D01*
X00736Y01684D02*
X00737Y01685D01*
X00736Y01683D02*
X00736Y01684D01*
X00736Y01682D02*
X00736Y01683D01*
X00701Y0157D02*
X00701Y01569D01*
X00702Y01568*
X00702Y01567*
X00703Y01567*
X00705Y01566*
X00706Y01567*
X00706Y01567*
X00707Y01568*
X00708Y01569*
Y0157*
X00707Y01571D02*
X00708Y0157D01*
X00706Y01572D02*
X00707Y01571D01*
X00706Y01573D02*
X00706Y01572D01*
X00705Y01573D02*
X00706Y01573D01*
X00703Y01573D02*
X00705Y01573D01*
X00702Y01573D02*
X00703Y01573D01*
X00702Y01572D02*
X00702Y01573D01*
X00701Y01571D02*
X00702Y01572D01*
X00701Y0157D02*
X00701Y01571D01*
X00688Y01334D02*
X00688Y01333D01*
X00688Y01332*
X00689Y01332*
X0069Y01331*
X00691Y01331*
X00692Y01331*
X00693Y01332*
X00694Y01333*
X00694Y01334*
Y01335*
X00694Y01336D02*
X00694Y01335D01*
X00693Y01337D02*
X00694Y01336D01*
X00692Y01337D02*
X00693Y01337D01*
X00691Y01338D02*
X00692Y01337D01*
X0069Y01338D02*
X00691Y01338D01*
X00689Y01337D02*
X0069Y01338D01*
X00688Y01336D02*
X00689Y01337D01*
X00688Y01336D02*
X00688Y01336D01*
X00688Y01334D02*
X00688Y01336D01*
X0071Y01219D02*
X0071Y01218D01*
X0071Y01217*
X00711Y01216*
X00712Y01216*
X00713Y01216*
X00714Y01216*
X00715Y01217*
X00716Y01217*
X00716Y01218*
Y01219*
X00716Y01221D02*
X00716Y01219D01*
X00715Y01221D02*
X00716Y01221D01*
X00714Y01222D02*
X00715Y01221D01*
X00713Y01222D02*
X00714Y01222D01*
X00712Y01222D02*
X00713Y01222D01*
X00711Y01222D02*
X00712Y01222D01*
X0071Y01221D02*
X00711Y01222D01*
X0071Y0122D02*
X0071Y01221D01*
X0071Y01219D02*
X0071Y0122D01*
X00751Y01107D02*
X00751Y01106D01*
X00751Y01105*
X00752Y01105*
X00753Y01104*
X00754Y01104*
X00755Y01104*
X00756Y01105*
X00757Y01106*
X00757Y01107*
Y01108*
X00757Y01109D02*
X00757Y01108D01*
X00756Y0111D02*
X00757Y01109D01*
X00755Y0111D02*
X00756Y0111D01*
X00754Y01111D02*
X00755Y0111D01*
X00753Y01111D02*
X00754Y01111D01*
X00752Y0111D02*
X00753Y01111D01*
X00751Y01109D02*
X00752Y0111D01*
X00751Y01108D02*
X00751Y01109D01*
X00751Y01107D02*
X00751Y01108D01*
X00809Y01004D02*
X00809Y01003D01*
X0081Y01002*
X00811Y01001*
X00812Y01001*
X00813Y01001*
X00814Y01001*
X00815Y01002*
X00815Y01002*
X00816Y01003*
Y01004*
X00815Y01006D02*
X00816Y01004D01*
X00815Y01006D02*
X00815Y01006D01*
X00814Y01007D02*
X00815Y01006D01*
X00813Y01007D02*
X00814Y01007D01*
X00812Y01007D02*
X00813Y01007D01*
X00811Y01007D02*
X00812Y01007D01*
X0081Y01006D02*
X00811Y01007D01*
X00809Y01005D02*
X0081Y01006D01*
X00809Y01004D02*
X00809Y01005D01*
X00883Y00912D02*
X00883Y00911D01*
X00884Y0091*
X00885Y0091*
X00886Y00909*
X00887Y00909*
X00888Y00909*
X00889Y0091*
X00889Y00911*
X0089Y00912*
Y00913*
X00889Y00914D02*
X0089Y00913D01*
X00889Y00915D02*
X00889Y00914D01*
X00888Y00915D02*
X00889Y00915D01*
X00887Y00916D02*
X00888Y00915D01*
X00886Y00916D02*
X00887Y00916D01*
X00885Y00915D02*
X00886Y00916D01*
X00884Y00914D02*
X00885Y00915D01*
X00883Y00914D02*
X00884Y00914D01*
X00883Y00912D02*
X00883Y00914D01*
X00972Y00833D02*
X00972Y00832D01*
X00972Y00831*
X00973Y00831*
X00974Y0083*
X00975Y0083*
X00976Y0083*
X00977Y00831*
X00978Y00832*
X00978Y00833*
Y00834*
X00978Y00835D02*
X00978Y00834D01*
X00977Y00836D02*
X00978Y00835D01*
X00976Y00836D02*
X00977Y00836D01*
X00975Y00837D02*
X00976Y00836D01*
X00974Y00837D02*
X00975Y00837D01*
X00973Y00836D02*
X00974Y00837D01*
X00972Y00835D02*
X00973Y00836D01*
X00972Y00834D02*
X00972Y00835D01*
X00972Y00833D02*
X00972Y00834D01*
X01071Y0077D02*
X01071Y00769D01*
X01072Y00768*
X01073Y00768*
X01074Y00767*
X01075Y00767*
X01076Y00767*
X01077Y00768*
X01077Y00769*
X01078Y0077*
Y00771*
X01077Y00772D02*
X01078Y00771D01*
X01077Y00773D02*
X01077Y00772D01*
X01076Y00773D02*
X01077Y00773D01*
X01075Y00774D02*
X01076Y00773D01*
X01074Y00774D02*
X01075Y00774D01*
X01073Y00773D02*
X01074Y00774D01*
X01072Y00772D02*
X01073Y00773D01*
X01071Y00771D02*
X01072Y00772D01*
X01071Y0077D02*
X01071Y00771D01*
X0118Y00724D02*
X01181Y00723D01*
X01181Y00722*
X01182Y00721*
X01183Y00721*
X01184Y0072*
X01185Y00721*
X01186Y00721*
X01187Y00722*
X01187Y00723*
Y00724*
X01187Y00725D02*
X01187Y00724D01*
X01186Y00726D02*
X01187Y00725D01*
X01185Y00727D02*
X01186Y00726D01*
X01184Y00727D02*
X01185Y00727D01*
X01183Y00727D02*
X01184Y00727D01*
X01182Y00727D02*
X01183Y00727D01*
X01181Y00726D02*
X01182Y00727D01*
X01181Y00725D02*
X01181Y00726D01*
X0118Y00724D02*
X01181Y00725D01*
X01637Y00724D02*
X01637Y00723D01*
X01638Y00722*
X01639Y00721*
X0164Y00721*
X01641Y0072*
X01642Y00721*
X01643Y00721*
X01643Y00722*
X01644Y00723*
Y00724*
X01643Y00725D02*
X01644Y00724D01*
X01643Y00726D02*
X01643Y00725D01*
X01642Y00727D02*
X01643Y00726D01*
X01641Y00727D02*
X01642Y00727D01*
X0164Y00727D02*
X01641Y00727D01*
X01639Y00727D02*
X0164Y00727D01*
X01638Y00726D02*
X01639Y00727D01*
X01637Y00725D02*
X01638Y00726D01*
X01637Y00724D02*
X01637Y00725D01*
X01746Y0077D02*
X01747Y00769D01*
X01747Y00768*
X01748Y00768*
X01749Y00767*
X0175Y00767*
X01751Y00767*
X01752Y00768*
X01753Y00769*
X01753Y0077*
Y00771*
X01753Y00772D02*
X01753Y00771D01*
X01752Y00773D02*
X01753Y00772D01*
X01751Y00773D02*
X01752Y00773D01*
X0175Y00774D02*
X01751Y00773D01*
X01749Y00774D02*
X0175Y00774D01*
X01748Y00773D02*
X01749Y00774D01*
X01747Y00772D02*
X01748Y00773D01*
X01747Y00771D02*
X01747Y00772D01*
X01746Y0077D02*
X01747Y00771D01*
X01846Y00833D02*
X01846Y00832D01*
X01846Y00831*
X01847Y00831*
X01848Y0083*
X01849Y0083*
X0185Y0083*
X01851Y00831*
X01852Y00832*
X01852Y00833*
Y00834*
X01852Y00835D02*
X01852Y00834D01*
X01851Y00836D02*
X01852Y00835D01*
X0185Y00836D02*
X01851Y00836D01*
X01849Y00837D02*
X0185Y00836D01*
X01848Y00837D02*
X01849Y00837D01*
X01847Y00836D02*
X01848Y00837D01*
X01846Y00835D02*
X01847Y00836D01*
X01846Y00834D02*
X01846Y00835D01*
X01846Y00833D02*
X01846Y00834D01*
X01934Y00912D02*
X01935Y00911D01*
X01935Y0091*
X01936Y0091*
X01937Y00909*
X01938Y00909*
X01939Y00909*
X0194Y0091*
X01941Y00911*
X01941Y00912*
Y00913*
X01941Y00914D02*
X01941Y00913D01*
X0194Y00915D02*
X01941Y00914D01*
X01939Y00915D02*
X0194Y00915D01*
X01938Y00916D02*
X01939Y00915D01*
X01937Y00916D02*
X01938Y00916D01*
X01936Y00915D02*
X01937Y00916D01*
X01935Y00914D02*
X01936Y00915D01*
X01935Y00914D02*
X01935Y00914D01*
X01934Y00912D02*
X01935Y00914D01*
X02008Y01004D02*
X02008Y01003D01*
X02009Y01002*
X0201Y01001*
X02011Y01001*
X02012Y01001*
X02013Y01001*
X02014Y01002*
X02014Y01002*
X02015Y01003*
Y01004*
X02014Y01006D02*
X02015Y01004D01*
X02014Y01006D02*
X02014Y01006D01*
X02013Y01007D02*
X02014Y01006D01*
X02012Y01007D02*
X02013Y01007D01*
X02011Y01007D02*
X02012Y01007D01*
X0201Y01007D02*
X02011Y01007D01*
X02009Y01006D02*
X0201Y01007D01*
X02008Y01005D02*
X02009Y01006D01*
X02008Y01004D02*
X02008Y01005D01*
X02067Y01107D02*
X02067Y01106D01*
X02068Y01105*
X02068Y01105*
X02069Y01104*
X0207Y01104*
X02071Y01104*
X02072Y01105*
X02073Y01106*
X02073Y01107*
Y01108*
X02073Y01109D02*
X02073Y01108D01*
X02072Y0111D02*
X02073Y01109D01*
X02071Y0111D02*
X02072Y0111D01*
X0207Y01111D02*
X02071Y0111D01*
X02069Y01111D02*
X0207Y01111D01*
X02068Y0111D02*
X02069Y01111D01*
X02068Y01109D02*
X02068Y0111D01*
X02067Y01108D02*
X02068Y01109D01*
X02067Y01107D02*
X02067Y01108D01*
X02108Y01219D02*
X02108Y01218D01*
X02108Y01217*
X02109Y01216*
X0211Y01216*
X02111Y01216*
X02112Y01216*
X02113Y01217*
X02114Y01217*
X02114Y01218*
Y01219*
X02114Y01221D02*
X02114Y01219D01*
X02113Y01221D02*
X02114Y01221D01*
X02112Y01222D02*
X02113Y01221D01*
X02111Y01222D02*
X02112Y01222D01*
X0211Y01222D02*
X02111Y01222D01*
X02109Y01222D02*
X0211Y01222D01*
X02108Y01221D02*
X02109Y01222D01*
X02108Y0122D02*
X02108Y01221D01*
X02108Y01219D02*
X02108Y0122D01*
X0213Y01334D02*
X0213Y01333D01*
X0213Y01332*
X02131Y01332*
X02132Y01331*
X02133Y01331*
X02134Y01331*
X02135Y01332*
X02136Y01333*
X02136Y01334*
Y01335*
X02136Y01336D02*
X02136Y01335D01*
X02135Y01337D02*
X02136Y01336D01*
X02134Y01337D02*
X02135Y01337D01*
X02133Y01338D02*
X02134Y01337D01*
X02132Y01338D02*
X02133Y01338D01*
X02131Y01337D02*
X02132Y01338D01*
X0213Y01336D02*
X02131Y01337D01*
X0213Y01336D02*
X0213Y01336D01*
X0213Y01334D02*
X0213Y01336D01*
X02117Y0157D02*
X02117Y01569D01*
X02117Y01568*
X02118Y01567*
X02119Y01567*
X0212Y01566*
X02121Y01567*
X02122Y01567*
X02123Y01568*
X02123Y01569*
Y0157*
X02123Y01571D02*
X02123Y0157D01*
X02122Y01572D02*
X02123Y01571D01*
X02121Y01573D02*
X02122Y01572D01*
X0212Y01573D02*
X02121Y01573D01*
X02119Y01573D02*
X0212Y01573D01*
X02118Y01573D02*
X02119Y01573D01*
X02117Y01572D02*
X02118Y01573D01*
X02117Y01571D02*
X02117Y01572D01*
X02117Y0157D02*
X02117Y01571D01*
X02082Y01682D02*
X02082Y01681D01*
X02082Y0168*
X02083Y01679*
X02084Y01679*
X02085Y01679*
X02086Y01679*
X02087Y0168*
X02088Y0168*
X02088Y01682*
Y01683*
X02088Y01684D02*
X02088Y01683D01*
X02087Y01684D02*
X02088Y01684D01*
X02086Y01685D02*
X02087Y01684D01*
X02085Y01685D02*
X02086Y01685D01*
X02084Y01685D02*
X02085Y01685D01*
X02083Y01685D02*
X02084Y01685D01*
X02082Y01684D02*
X02083Y01685D01*
X02082Y01683D02*
X02082Y01684D01*
X02082Y01682D02*
X02082Y01683D01*
X02029Y01788D02*
X02029Y01787D01*
X02029Y01786*
X0203Y01786*
X02031Y01785*
X02032Y01785*
X02033Y01785*
X02034Y01786*
X02035Y01787*
X02035Y01788*
Y01789*
X02035Y0179D02*
X02035Y01789D01*
X02034Y01791D02*
X02035Y0179D01*
X02033Y01791D02*
X02034Y01791D01*
X02032Y01792D02*
X02033Y01791D01*
X02031Y01792D02*
X02032Y01792D01*
X0203Y01791D02*
X02031Y01792D01*
X02029Y0179D02*
X0203Y01791D01*
X02029Y01789D02*
X02029Y0179D01*
X02029Y01788D02*
X02029Y01789D01*
X0196Y01884D02*
X0196Y01882D01*
X0196Y01882*
X01961Y01881*
X01962Y0188*
X01963Y0188*
X01964Y01881*
X01965Y01881*
X01966Y01882*
X01966Y01883*
Y01884*
X01966Y01885D02*
X01966Y01884D01*
X01965Y01886D02*
X01966Y01885D01*
X01964Y01887D02*
X01965Y01886D01*
X01963Y01887D02*
X01964Y01887D01*
X01962Y01887D02*
X01963Y01887D01*
X01961Y01886D02*
X01962Y01887D01*
X0196Y01886D02*
X01961Y01886D01*
X0196Y01885D02*
X0196Y01886D01*
X0196Y01884D02*
X0196Y01885D01*
X01875Y01967D02*
X01875Y01966D01*
X01876Y01965*
X01877Y01964*
X01878Y01964*
X01879Y01964*
X0188Y01964*
X01881Y01965*
X01881Y01966*
X01882Y01967*
Y01968*
X01881Y01969D02*
X01882Y01968D01*
X01881Y0197D02*
X01881Y01969D01*
X0188Y0197D02*
X01881Y0197D01*
X01879Y01971D02*
X0188Y0197D01*
X01878Y0197D02*
X01879Y01971D01*
X01877Y0197D02*
X01878Y0197D01*
X01876Y01969D02*
X01877Y0197D01*
X01875Y01968D02*
X01876Y01969D01*
X01875Y01967D02*
X01875Y01968D01*
X01778Y02036D02*
X01779Y02035D01*
X01779Y02034*
X0178Y02033*
X01781Y02033*
X01782Y02033*
X01783Y02033*
X01784Y02034*
X01785Y02034*
X01785Y02035*
Y02036*
X01785Y02038D02*
X01785Y02036D01*
X01784Y02038D02*
X01785Y02038D01*
X01783Y02039D02*
X01784Y02038D01*
X01782Y02039D02*
X01783Y02039D01*
X01781Y02039D02*
X01782Y02039D01*
X0178Y02039D02*
X01781Y02039D01*
X01779Y02038D02*
X0178Y02039D01*
X01779Y02037D02*
X01779Y02038D01*
X01778Y02036D02*
X01779Y02037D01*
X01673Y02087D02*
X01673Y02086D01*
X01673Y02085*
X01674Y02085*
X01675Y02084*
X01676Y02084*
X01677Y02084*
X01678Y02085*
X01679Y02086*
X01679Y02087*
Y02088*
X01679Y02089D02*
X01679Y02088D01*
X01678Y0209D02*
X01679Y02089D01*
X01677Y0209D02*
X01678Y0209D01*
X01676Y02091D02*
X01677Y0209D01*
X01675Y02091D02*
X01676Y02091D01*
X01674Y0209D02*
X01675Y02091D01*
X01673Y02089D02*
X01674Y0209D01*
X01673Y02089D02*
X01673Y02089D01*
X01673Y02087D02*
X01673Y02089D01*
X01559Y02122D02*
X01559Y0212D01*
X0156Y0212*
X0156Y02119*
X01561Y02118*
X01562Y02118*
X01563Y02119*
X01564Y02119*
X01565Y0212*
X01565Y02121*
Y02122*
X01565Y02123D02*
X01565Y02122D01*
X01564Y02124D02*
X01565Y02123D01*
X01563Y02125D02*
X01564Y02124D01*
X01562Y02125D02*
X01563Y02125D01*
X01561Y02125D02*
X01562Y02125D01*
X0156Y02124D02*
X01561Y02125D01*
X0156Y02124D02*
X0156Y02124D01*
X01559Y02123D02*
X0156Y02124D01*
X01559Y02122D02*
X01559Y02123D01*
G54D12*
X02042Y01506D02*
X02074Y01514D01*
X02042Y01506D02*
X02053Y01526D01*
X02059Y01505*
X0206Y01566D02*
X02065Y01544D01*
X02044Y01539D02*
X0206Y01566D01*
X02039Y01537D02*
X02044Y01539D01*
X02032Y01541D02*
X02039Y01537D01*
X02029Y01552D02*
X02032Y01541D01*
X02029Y01552D02*
X02033Y01559D01*
X02012Y01621D02*
X02021Y01601D01*
X02012Y01621D02*
X02027Y01628D01*
X02026Y01616D02*
X02027Y01628D01*
X02026Y01616D02*
X02028Y01611D01*
X02036Y01608*
X02046Y01613*
X02048Y0162*
X02044Y0163D02*
X02048Y0162D01*
X02037Y01633D02*
X02044Y0163D01*
X02026Y01668D02*
X02035Y01648D01*
X02015Y01639D02*
X02026Y01668D01*
X0201Y01637D02*
X02015Y01639D01*
X02003Y0164D02*
X0201Y01637D01*
X01999Y0165D02*
X02003Y0164D01*
X01999Y0165D02*
X02001Y01657D01*
X0198Y0171D02*
X01982Y01698D01*
X0198Y0171D02*
X01983Y01725D01*
X01992Y01732*
X01983Y01725D02*
X01992Y01712D01*
X02Y0171*
X02004Y01713*
X02006Y01721*
X02Y0173D02*
X02006Y01721D01*
X01992Y01732D02*
X02Y0173D01*
X01976Y01765D02*
X01989Y01747D01*
X0197Y01735D02*
X01976Y01765D01*
X01966Y01732D02*
X0197Y01735D01*
X01958Y01733D02*
X01966Y01732D01*
X01952Y01742D02*
X01958Y01733D01*
X01952Y01742D02*
X01953Y0175D01*
X01913Y01802D02*
X01928Y01786D01*
X01932Y0179*
X01933Y01821*
X01937Y01825*
X01912Y01852D02*
X01927Y01836D01*
X01891Y01825D02*
X01892Y01833D01*
X01891Y01825D02*
X01899Y01817D01*
X01907Y01817*
X01911Y01821*
X01912Y01852*
X01866Y01882D02*
X01867Y01874D01*
X01863Y0187D02*
X01867Y01874D01*
X01856Y01869D02*
X01863Y0187D01*
X01847Y01876D02*
X01856Y01869D01*
X01846Y01883D02*
X01847Y01876D01*
X01846Y01883D02*
X01849Y01888D01*
X01857Y01889*
X01859Y01901D02*
X01867Y01902D01*
X01876Y01895*
X01877Y01887*
X01873Y01883D02*
X01877Y01887D01*
X01866Y01882D02*
X01873Y01883D01*
X01857Y01889D02*
X01866Y01882D01*
X01856Y01896D02*
X01857Y01889D01*
X01856Y01896D02*
X01859Y01901D01*
X01833Y01928D02*
X01851Y01914D01*
X01816Y01906D02*
X01818Y01898D01*
X01826Y01891*
X01834Y01892*
X01837Y01897*
X01833Y01928D02*
X01837Y01897D01*
X01773Y01955D02*
X01788Y01947D01*
X01766Y01953D02*
X01773Y01955D01*
X01763Y01948D02*
X01766Y01953D01*
X01763Y01948D02*
X01765Y0194D01*
X01775Y01935*
X01782Y01937*
X01793Y01957*
X0179Y01964D02*
X01793Y01957D01*
X01781Y01969D02*
X0179Y01964D01*
X01773Y01967D02*
X01781Y01969D01*
X01743Y01989D02*
X01763Y01979D01*
X01743Y01989D02*
X01752Y0196D01*
X0175Y01955D02*
X01752Y0196D01*
X01742Y01952D02*
X0175Y01955D01*
X01733Y01958D02*
X01742Y01952D01*
X0173Y01965D02*
X01733Y01958D01*
X01686Y01987D02*
X01693Y0199D01*
X01675Y0199D02*
X01686Y01987D01*
X01672Y01997D02*
X01675Y0199D01*
X01679Y02018D02*
X01686Y02022D01*
X01696Y02018*
X017Y02011*
X01693Y0199D02*
X017Y02011D01*
X01679Y02018D02*
X01693Y0199D01*
X01672Y01997D02*
X01679Y02018D01*
X01637Y02009D02*
X0164Y02002D01*
X01651Y01999*
X01658Y02002*
X0166Y02007*
X01656Y02014D02*
X0166Y02007D01*
X01651Y02016D02*
X01656Y02014D01*
X01663Y02018*
X01665Y02023*
X01661Y0203D02*
X01665Y02023D01*
X01651Y02034D02*
X01661Y0203D01*
X01644Y0203D02*
X01651Y02034D01*
X01577Y02059D02*
X01599Y02056D01*
X01583Y02025D02*
X01588Y02057D01*
X01574Y02037D02*
X01583Y02025D01*
X01549Y02047D02*
X01554Y02046D01*
X0154Y0206D02*
X01546Y02064D01*
X01557Y02062*
X01562Y02056*
X01561Y02051D02*
X01562Y02056D01*
X01554Y02046D02*
X01561Y02051D01*
X01554Y02046D02*
X01559Y0204D01*
X01558Y02034D02*
X01559Y0204D01*
X01552Y0203D02*
X01558Y02034D01*
X01541Y02032D02*
X01552Y0203D01*
X01536Y02038D02*
X01541Y02032D01*
X01237Y02052D02*
X0124Y0203D01*
X01258Y02055D02*
X01262Y02034D01*
X01252Y0206D02*
X01258Y02055D01*
X01241Y02058D02*
X01252Y0206D01*
X01237Y02052D02*
X01241Y02058D01*
X01237Y02052D02*
X01262Y02034D01*
X01257Y02027D02*
X01262Y02034D01*
X01246Y02026D02*
X01257Y02027D01*
X0124Y0203D02*
X01246Y02026D01*
X01133Y0202D02*
X01154Y02027D01*
X01143Y02023D02*
X01154Y01992D01*
X0114Y01999D02*
X01154Y01992D01*
X01038Y01967D02*
X01058Y01977D01*
X01038Y01967D02*
X01068Y01958D01*
X01071Y01953*
X01068Y01945D02*
X01071Y01953D01*
X01059Y0194D02*
X01068Y01945D01*
X01051Y01942D02*
X01059Y0194D01*
X00971Y01892D02*
X00976Y01895D01*
X00956Y01894D02*
X00957Y01902D01*
X00966Y01908*
X00973Y01907*
X00977Y01903*
X00976Y01895D02*
X00977Y01903D01*
X00976Y01895D02*
X00983Y01894D01*
X00987Y0189*
X00986Y01882D02*
X00987Y0189D01*
X00977Y01875D02*
X00986Y01882D01*
X00969Y01876D02*
X00977Y01875D01*
X00891Y01829D02*
X00915Y01806D01*
X00891Y01805D02*
X00915Y01806D01*
X00891Y01805D02*
X00906Y01821D01*
X00848Y01707D02*
X00861Y01725D01*
X00824Y0173D02*
X00826Y01722D01*
X00824Y0173D02*
X0083Y01739D01*
X00838Y0174*
X00847Y01734*
X00848Y01727*
X00845Y01722D02*
X00848Y01727D01*
X00835Y01716D02*
X00845Y01722D01*
X00835Y01716D02*
X00848Y01707D01*
X00807Y01623D02*
X00817Y01631D01*
X00793Y01618D02*
X00807Y01623D01*
X00783Y01622D02*
X00793Y01618D01*
X0078Y01629D02*
X00783Y01622D01*
X0078Y01629D02*
X00785Y0164D01*
X00792Y01642*
X00797Y0164*
X008Y01633*
X00793Y01618D02*
X008Y01633D01*
X00752Y01519D02*
X00757Y01518D01*
X00784Y01533*
X00789Y01532*
X00784Y01511D02*
X00789Y01532D01*
X00762Y01324D02*
X00768Y01319D01*
X00756Y01324D02*
X00762Y01324D01*
X00751Y01318D02*
X00756Y01324D01*
X00751Y01318D02*
X00752Y01307D01*
X00758Y01302*
X00763Y01302*
X00768Y01308*
X00774Y01303*
X00768Y01319D02*
X00768Y01308D01*
X00768Y01319D02*
X00773Y01325D01*
X00778Y01325*
X00784Y0132*
X00785Y01309*
X0078Y01304D02*
X00785Y01309D01*
X00774Y01303D02*
X0078Y01304D01*
X00775Y01213D02*
X00779Y01219D01*
X00775Y01213D02*
X00778Y01202D01*
X00784Y01198*
X00806Y01203D02*
X0081Y01209D01*
X00807Y0122D02*
X0081Y01209D01*
X00801Y01224D02*
X00807Y0122D01*
X00779Y01219D02*
X00801Y01224D01*
X0079Y01222D02*
X00794Y01206D01*
X008Y01202*
X00806Y01203*
X00833Y01144D02*
X0084Y01141D01*
X00844Y01131*
X00841Y01124D02*
X00844Y01131D01*
X00821Y01115D02*
X00841Y01124D01*
X00813Y01118D02*
X00821Y01115D01*
X00809Y01128D02*
X00813Y01118D01*
X00809Y01128D02*
X00812Y01136D01*
X00833Y01144*
X00821Y01115D02*
X00833Y01144D01*
X00821Y01099D02*
X00829Y01079D01*
X00825Y01089D02*
X00856Y01102D01*
X0085Y01087D02*
X00856Y01102D01*
X00891Y01031D02*
X00895Y01046D01*
X00867Y01029D02*
X00895Y01046D01*
X00861Y01038D02*
X00872Y0102D01*
X0088Y01007D02*
X00892Y00988D01*
X00886Y00998D02*
X00914Y01015D01*
X0091Y01D02*
X00914Y01015D01*
X00928Y00954D02*
X00943Y00938D01*
X00964Y00956D02*
X00964Y00963D01*
X00957Y00972D02*
X00964Y00963D01*
X00949Y00972D02*
X00957Y00972D01*
X00945Y00969D02*
X00949Y00972D01*
X00943Y00938D02*
X00945Y00969D01*
X00952Y00926D02*
X00967Y0091D01*
X0096Y00918D02*
X00985Y0094D01*
X00984Y00924D02*
X00985Y0094D01*
X01043Y00896D02*
X01044Y00889D01*
X01035Y00903D02*
X01043Y00896D01*
X01027Y00903D02*
X01035Y00903D01*
X01024Y00898D02*
X01027Y00903D01*
X01024Y00898D02*
X01024Y00891D01*
X01029Y00887*
X01017Y0089D02*
X01024Y00891D01*
X01013Y00886D02*
X01017Y0089D01*
X01013Y00886D02*
X01014Y00878D01*
X01022Y00871*
X0103Y00872*
X01038Y00858D02*
X01055Y00844D01*
X01046Y00851D02*
X01068Y00876D01*
X01069Y00861*
X01105Y00821D02*
X01122Y00849D01*
X01128Y00827*
X01109Y00838D02*
X01128Y00827D01*
X01132Y00805D02*
X01151Y00794D01*
X01142Y00799D02*
X01159Y00828D01*
X01163Y00813*
X01213Y00811D02*
X01233Y00803D01*
X01227Y00788D02*
X01233Y00803D01*
X01219Y00797D02*
X01227Y00788D01*
X01214Y00799D02*
X01219Y00797D01*
X01207Y00796D02*
X01214Y00799D01*
X01203Y00786D02*
X01207Y00796D01*
X01203Y00786D02*
X01206Y00778D01*
X01216Y00775*
X01224Y00778*
X01235Y00767D02*
X01256Y00759D01*
X01246Y00763D02*
X01257Y00794D01*
X01264Y0078*
X01564Y00793D02*
X01576Y00792D01*
X0159Y00785*
X01594Y00775*
X01575Y0078D02*
X0159Y00785D01*
X01572Y00772D02*
X01575Y0078D01*
X01572Y00772D02*
X01573Y00767D01*
X01581Y00764*
X01591Y00768*
X01594Y00775*
X0161Y00775D02*
X0163Y00783D01*
X01608Y0081D02*
X0162Y00779D01*
X01608Y0081D02*
X01623Y00804D01*
X01663Y00826D02*
X01682Y00837D01*
X01663Y00826D02*
X01665Y00821D01*
X01696Y00813*
X01698Y00809*
X01711Y00816D02*
X0173Y00827D01*
X01704Y0085D02*
X01721Y00822D01*
X01704Y0085D02*
X01719Y00846D01*
X01761Y00866D02*
X01769Y00865D01*
X01758Y0087D02*
X01761Y00866D01*
X01758Y0087D02*
X01758Y00878D01*
X01767Y00885*
X01775Y00884*
X01778Y0088*
X01777Y00872D02*
X01778Y0088D01*
X01788Y00859D02*
X01789Y00867D01*
X01779Y00852D02*
X01788Y00859D01*
X01772Y00853D02*
X01779Y00852D01*
X01768Y00857D02*
X01772Y00853D01*
X01768Y00857D02*
X01769Y00865D01*
X01777Y00872*
X01785Y00871*
X01789Y00867*
X01804Y00872D02*
X0182Y00886D01*
X01791Y00905D02*
X01812Y00879D01*
X01791Y00905D02*
X01806Y00903D01*
X0185Y00927D02*
X01861Y00939D01*
X0186Y00947D02*
X01861Y00939D01*
X01856Y0095D02*
X0186Y00947D01*
X01848Y0095D02*
X01856Y0095D01*
X01841Y00942D02*
X01848Y0095D01*
X01841Y00942D02*
X01841Y00934D01*
X01858Y00919*
X01866Y0092*
X01873Y00928*
X01873Y00936D02*
X01873Y00928D01*
X01886Y00944D02*
X01901Y0096D01*
X01869Y00974D02*
X01894Y00952D01*
X01869Y00974D02*
X01884Y00975D01*
X01911Y01017D02*
X01913Y01009D01*
X01911Y01017D02*
X01917Y01026D01*
X01925Y01028*
X01943Y01017*
X01945Y01009*
X01939Y01D02*
X01945Y01009D01*
X01932Y00998D02*
X01939Y01D01*
X01913Y01009D02*
X01932Y00998D01*
X01913Y01009D02*
X01943Y01017D01*
X01956Y01026D02*
X01967Y01045D01*
X01937Y01038D02*
X01967Y01045D01*
X01932Y01041D02*
X01937Y01038D01*
X01931Y01048D02*
X01932Y01041D01*
X01931Y01048D02*
X01936Y01058D01*
X01944Y0106*
X01971Y01109D02*
X01986Y01115D01*
X01971Y01109D02*
X02002Y01096D01*
X01998Y01086D02*
X02006Y01107D01*
X02012Y0112D02*
X0202Y01141D01*
X01987Y01148D02*
X01994Y01151D01*
X01983Y01138D02*
X01987Y01148D01*
X01983Y01138D02*
X01986Y01131D01*
X01991Y01129*
X0202Y01141*
X02043Y01186D02*
X02048Y01208D01*
X02014Y0121D02*
X02021Y01214D01*
X02012Y01199D02*
X02014Y0121D01*
X02012Y01199D02*
X02016Y01192D01*
X02022Y01191*
X02048Y01208*
X02051Y01222D02*
X02056Y01244D01*
X0203Y01227D02*
X02056Y01244D01*
X02024Y01228D02*
X0203Y01227D01*
X0202Y01235D02*
X02024Y01228D01*
X0202Y01235D02*
X02023Y01246D01*
X02029Y0125*
X02039Y0131D02*
X02045Y01315D01*
X02039Y01299D02*
X02039Y0131D01*
X02039Y01299D02*
X02044Y01293D01*
X02049Y01293*
X02055Y01298*
X02055Y01303*
X02055Y01298D02*
X0206Y01292D01*
X02066Y01292*
X02072Y01297*
X02072Y01308*
X02067Y01314D02*
X02072Y01308D01*
X02073Y01328D02*
X02075Y0135D01*
X02041Y01347D02*
X02047Y01352D01*
X02041Y01336D02*
X02041Y01347D01*
X02041Y01336D02*
X02046Y0133D01*
X02051Y01329*
X02075Y0135*
G54D14*
X01432Y01609D02*
X01432Y01605D01*
X01433Y01601*
X01434Y01597*
X01435Y01594*
X01437Y0159*
X01439Y01587*
X01441Y01584*
X01444Y01581*
X01447Y01578*
X0145Y01576*
X01453Y01574*
X01457Y01572*
X0146Y01571*
X01464Y0157*
X01468Y0157*
X01472Y01569*
X01476Y0157*
X0148Y0157*
X01484Y01572*
X01487Y01573*
X01491Y01575*
X01494Y01577*
X01497Y01579*
X015Y01582*
X01503Y01585*
X01505Y01588*
X01507Y01592*
X01508Y01595*
X01509Y01599*
X0151Y01603*
X01511Y01607*
Y01611*
X0151Y01615D02*
X01511Y01611D01*
X01509Y01619D02*
X0151Y01615D01*
X01508Y01622D02*
X01509Y01619D01*
X01507Y01626D02*
X01508Y01622D01*
X01505Y01629D02*
X01507Y01626D01*
X01503Y01633D02*
X01505Y01629D01*
X015Y01636D02*
X01503Y01633D01*
X01497Y01638D02*
X015Y01636D01*
X01494Y01641D02*
X01497Y01638D01*
X01491Y01643D02*
X01494Y01641D01*
X01487Y01645D02*
X01491Y01643D01*
X01484Y01646D02*
X01487Y01645D01*
X0148Y01647D02*
X01484Y01646D01*
X01476Y01648D02*
X0148Y01647D01*
X01472Y01648D02*
X01476Y01648D01*
X01468Y01648D02*
X01472Y01648D01*
X01464Y01648D02*
X01468Y01648D01*
X0146Y01647D02*
X01464Y01648D01*
X01457Y01646D02*
X0146Y01647D01*
X01453Y01644D02*
X01457Y01646D01*
X0145Y01642D02*
X01453Y01644D01*
X01447Y0164D02*
X0145Y01642D01*
X01444Y01637D02*
X01447Y0164D01*
X01441Y01634D02*
X01444Y01637D01*
X01439Y01631D02*
X01441Y01634D01*
X01437Y01628D02*
X01439Y01631D01*
X01435Y01624D02*
X01437Y01628D01*
X01434Y0162D02*
X01435Y01624D01*
X01433Y01617D02*
X01434Y0162D01*
X01432Y01613D02*
X01433Y01617D01*
X01432Y01609D02*
X01432Y01613D01*
X01358Y01412D02*
X01358Y01407D01*
X01358Y01403*
X01359Y01398*
X01361Y01394*
X01362Y0139*
X01365Y01386*
X01367Y01382*
X0137Y01378*
X01373Y01374*
X01376Y01371*
X0138Y01368*
X01384Y01366*
X01388Y01363*
X01392Y01362*
X01396Y0136*
X01401Y01359*
X01405Y01358*
X0141Y01358*
X01414*
X01419Y01358*
X01424Y01359*
X01428Y0136*
X01432Y01362*
X01437Y01363*
X01441Y01366*
X01444Y01368*
X01448Y01371*
X01451Y01374*
X01454Y01378*
X01457Y01382*
X0146Y01386*
X01462Y0139*
X01463Y01394*
X01465Y01398*
X01466Y01403*
X01466Y01407*
X01466Y01412*
X01466Y01417D02*
X01466Y01412D01*
X01466Y01421D02*
X01466Y01417D01*
X01465Y01426D02*
X01466Y01421D01*
X01463Y0143D02*
X01465Y01426D01*
X01462Y01434D02*
X01463Y0143D01*
X0146Y01439D02*
X01462Y01434D01*
X01457Y01443D02*
X0146Y01439D01*
X01454Y01446D02*
X01457Y01443D01*
X01451Y0145D02*
X01454Y01446D01*
X01448Y01453D02*
X01451Y0145D01*
X01444Y01456D02*
X01448Y01453D01*
X01441Y01458D02*
X01444Y01456D01*
X01437Y01461D02*
X01441Y01458D01*
X01432Y01463D02*
X01437Y01461D01*
X01428Y01464D02*
X01432Y01463D01*
X01424Y01465D02*
X01428Y01464D01*
X01419Y01466D02*
X01424Y01465D01*
X01414Y01466D02*
X01419Y01466D01*
X0141Y01466D02*
X01414D01*
X01405Y01466D02*
X0141Y01466D01*
X01401Y01465D02*
X01405Y01466D01*
X01396Y01464D02*
X01401Y01465D01*
X01392Y01463D02*
X01396Y01464D01*
X01388Y01461D02*
X01392Y01463D01*
X01384Y01458D02*
X01388Y01461D01*
X0138Y01456D02*
X01384Y01458D01*
X01376Y01453D02*
X0138Y01456D01*
X01373Y0145D02*
X01376Y01453D01*
X0137Y01446D02*
X01373Y0145D01*
X01367Y01443D02*
X0137Y01446D01*
X01365Y01439D02*
X01367Y01443D01*
X01362Y01434D02*
X01365Y01439D01*
X01361Y0143D02*
X01362Y01434D01*
X01359Y01426D02*
X01361Y0143D01*
X01358Y01421D02*
X01359Y01426D01*
X01358Y01417D02*
X01358Y01421D01*
X01358Y01412D02*
X01358Y01417D01*
X01314Y01215D02*
X01314Y01211D01*
X01314Y01207*
X01315Y01204*
X01317Y012*
X01318Y01196*
X0132Y01193*
X01323Y0119*
X01325Y01187*
X01328Y01184*
X01332Y01182*
X01335Y0118*
X01339Y01178*
X01342Y01177*
X01346Y01176*
X0135Y01176*
X01354Y01176*
X01358Y01176*
X01362Y01177*
X01365Y01178*
X01369Y01179*
X01373Y01181*
X01376Y01183*
X01379Y01186*
X01382Y01188*
X01384Y01191*
X01387Y01195*
X01388Y01198*
X0139Y01202*
X01391Y01205*
X01392Y01209*
X01392Y01213*
Y01217*
X01392Y01221D02*
X01392Y01217D01*
X01391Y01225D02*
X01392Y01221D01*
X0139Y01229D02*
X01391Y01225D01*
X01388Y01232D02*
X0139Y01229D01*
X01387Y01236D02*
X01388Y01232D01*
X01384Y01239D02*
X01387Y01236D01*
X01382Y01242D02*
X01384Y01239D01*
X01379Y01245D02*
X01382Y01242D01*
X01376Y01247D02*
X01379Y01245D01*
X01373Y01249D02*
X01376Y01247D01*
X01369Y01251D02*
X01373Y01249D01*
X01365Y01252D02*
X01369Y01251D01*
X01362Y01254D02*
X01365Y01252D01*
X01358Y01254D02*
X01362Y01254D01*
X01354Y01255D02*
X01358Y01254D01*
X0135Y01254D02*
X01354Y01255D01*
X01346Y01254D02*
X0135Y01254D01*
X01342Y01253D02*
X01346Y01254D01*
X01339Y01252D02*
X01342Y01253D01*
X01335Y0125D02*
X01339Y01252D01*
X01332Y01248D02*
X01335Y0125D01*
X01328Y01246D02*
X01332Y01248D01*
X01325Y01243D02*
X01328Y01246D01*
X01323Y0124D02*
X01325Y01243D01*
X0132Y01237D02*
X01323Y0124D01*
X01318Y01234D02*
X0132Y01237D01*
X01317Y0123D02*
X01318Y01234D01*
X01315Y01227D02*
X01317Y0123D01*
X01314Y01223D02*
X01315Y01227D01*
X01314Y01219D02*
X01314Y01223D01*
X01314Y01215D02*
X01314Y01219D01*
X0164Y00722D02*
X01641Y00727D01*
X01653Y00694D02*
X01663Y0077D01*
X01749Y00768D02*
Y00774D01*
X01764Y0082D02*
X01768Y00743D01*
X01848Y00837D02*
X01849Y00831D01*
X01855Y00884D02*
X01871Y00809D01*
X01936Y00916D02*
X01938Y0091D01*
X01935Y00964D02*
X01963Y00892D01*
X02009Y01007D02*
X02012Y01002D01*
X02001Y01054D02*
X0204Y00988D01*
X02068Y0111D02*
X02071Y01105D01*
X02051Y01155D02*
X02101Y01096D01*
X02108Y01221D02*
X02112Y01217D01*
X02085Y01263D02*
X02143Y01213D01*
X0213Y01336D02*
X02135Y01333D01*
X021Y01374D02*
X02166Y01334D01*
X02116Y0157D02*
X02122Y01569D01*
X02076Y01597D02*
X02151Y0158D01*
X02081Y01682D02*
X02087Y01681D01*
X02037Y01701D02*
X02114Y01697D01*
X02028Y01788D02*
X02034Y01788D01*
X01982Y018D02*
X02058Y01808D01*
X0196Y01882D02*
X01965Y01884D01*
X01912Y01887D02*
X01986Y01907D01*
X01875Y01965D02*
X01881Y01968D01*
X01827Y01962D02*
X01897Y01994D01*
X01779Y02034D02*
X01784Y02037D01*
X01732Y02022D02*
X01796Y02065D01*
X01674Y02085D02*
X01678Y02089D01*
X01629Y02066D02*
X01685Y02119D01*
X0156Y02118D02*
X01564Y02123D01*
X01519Y02093D02*
X01566Y02154D01*
X01258D02*
X01305Y02093D01*
X0126Y02123D02*
X01264Y02118D01*
X01139Y02119D02*
X01195Y02066D01*
X01146Y02089D02*
X01151Y02085D01*
X01028Y02065D02*
X01092Y02022D01*
X0104Y02037D02*
X01045Y02034D01*
X00927Y01994D02*
X00997Y01962D01*
X00943Y01968D02*
X00949Y01965D01*
X00838Y01907D02*
X00913Y01887D01*
X00859Y01884D02*
X00865Y01882D01*
X00766Y01808D02*
X00842Y018D01*
X0079Y01788D02*
X00796Y01788D01*
X0071Y01697D02*
X00787Y01701D01*
X00737Y01681D02*
X00743Y01682D01*
X00673Y0158D02*
X00748Y01597D01*
X00702Y01569D02*
X00708Y0157D01*
X00658Y01334D02*
X00724Y01374D01*
X0069Y01333D02*
X00694Y01336D01*
X00681Y01213D02*
X00739Y01263D01*
X00712Y01217D02*
X00716Y01221D01*
X00723Y01096D02*
X00773Y01155D01*
X00753Y01105D02*
X00757Y0111D01*
X00784Y00988D02*
X00823Y01054D01*
X00812Y01002D02*
X00815Y01007D01*
X00861Y00892D02*
X00889Y00964D01*
X00886Y0091D02*
X00888Y00916D01*
X01184Y00727D02*
X01185Y00722D01*
X01161Y0077D02*
X01171Y00694D01*
X01075Y00774D02*
X01075Y00768D01*
X01057Y00743D02*
X0106Y0082D01*
X00975Y00831D02*
X00976Y00837D01*
X00953Y00809D02*
X00969Y00884D01*
G54D15*
X01315Y02127D02*
X01324Y02136D01*
X01332Y02127D02*
Y02153D01*
X01319Y02136D02*
X01332D01*
X01315Y0214D02*
X01319Y02136D01*
X01315Y0214D02*
Y02149D01*
X01319Y02153*
X01332*
X01376Y02149D02*
X0138Y02153D01*
X01389*
X01393Y02149*
X01376Y0214D02*
X01385D01*
X01376Y02132D02*
Y0214D01*
Y02132D02*
X0138Y02127D01*
X01389*
X01393Y02132*
Y02149*
X01528Y02165D02*
X01534Y02171D01*
X01524Y0218D02*
X01543Y02162D01*
X01512Y02168D02*
X01524Y0218D01*
X0149Y02132D02*
X01503Y0212D01*
X01481Y02116D02*
X01493Y02129D01*
X01478Y02119D02*
X01491Y02107D01*
X01478Y02131D02*
X01478Y02119D01*
X01478Y02131D02*
X0149Y02132D01*
X01495Y0215D02*
X01495Y02143D01*
X01495Y0215D02*
X01501Y02156D01*
X01507Y02156*
X0151Y02153*
X0151Y02147*
X01505Y02141D02*
X0151Y02147D01*
X01505Y02141D02*
X01505Y02134D01*
X01508Y02131*
X01514Y02132*
X0152Y02138*
X0152Y02144D02*
X0152Y02138D01*
X01531Y0215D02*
X01543Y02162D01*
X02111Y01436D02*
Y01454D01*
X02106Y01458D02*
X02111Y01454D01*
X02098Y01458D02*
X02106D01*
X02093Y01454D02*
X02098Y01458D01*
X02093Y01436D02*
X02098Y01432D01*
X02106*
X02111Y01436*
X02093Y01445D02*
X02102D01*
X02093Y01436D02*
Y01445D01*
X02019Y0136D02*
X02023Y01356D01*
X02041*
X02045Y0136*
Y01369*
X02041Y01373D02*
X02045Y01369D01*
X02019Y01415D02*
X02045D01*
X02028Y01432D02*
X02032Y01428D01*
X02023Y01432D02*
X02028D01*
X02019Y01428D02*
X02023Y01432D01*
X02019Y01415D02*
Y01428D01*
X02032Y01415D02*
Y01428D01*
X02036Y01432*
X02041*
X02045Y01428*
Y01415D02*
Y01428D01*
X02041Y01403D02*
X02045Y01398D01*
Y0139D02*
Y01398D01*
X02041Y01385D02*
X02045Y0139D01*
X02023Y01385D02*
X02041D01*
X02019Y0139D02*
X02023Y01385D01*
X02019Y0139D02*
Y01398D01*
X02023Y01403*
X02041*
X02023Y01385D02*
X02041Y01403D01*
X02019Y01369D02*
X02023Y01373D01*
X02019Y0136D02*
Y01369D01*
X01997Y01363D02*
X02002Y01366D01*
X02005Y01374*
X02002Y01379D02*
X02005Y01374D01*
X01985Y01384D02*
X02002Y01379D01*
X0198Y01381D02*
X01985Y01384D01*
X01977Y01373D02*
X0198Y01381D01*
X01977Y01373D02*
X0198Y01367D01*
X0197Y01349D02*
X01981Y01355D01*
X0197Y01349D02*
X01995Y01341D01*
X01993Y01333D02*
X01998Y0135D01*
X01977Y01307D02*
X01981Y01306D01*
X01974Y01312D02*
X01977Y01307D01*
X01974Y01312D02*
X01977Y01325D01*
X01968Y0131D02*
X01974Y01312D01*
X01964Y01311D02*
X01968Y0131D01*
X01961Y01316D02*
X01964Y01311D01*
X01961Y01316D02*
X01965Y01329D01*
X0199Y01321*
X01986Y01309D02*
X0199Y01321D01*
X01981Y01306D02*
X01986Y01309D01*
X01993Y01174D02*
Y01191D01*
X01976D02*
X01985Y012D01*
X01993Y01191*
X01976Y01187D02*
X01993D01*
X01976Y01174D02*
Y01191D01*
X01964Y01174D02*
Y012D01*
X01946Y01174D02*
X01964Y012D01*
X01946Y01174D02*
Y012D01*
X01917Y01178D02*
Y01183D01*
X01921Y01187*
X01934*
X01917Y01191D02*
X01921Y01187D01*
X01917Y01191D02*
Y01196D01*
X01921Y012*
X01934*
Y01174D02*
Y012D01*
X01921Y01174D02*
X01934D01*
X01917Y01178D02*
X01921Y01174D01*
X01881Y01152D02*
X0189D01*
X01881Y01143D02*
Y01152D01*
Y01143D02*
X01886Y01139D01*
X01894*
X01899Y01143*
Y01161*
X01894Y01165D02*
X01899Y01161D01*
X01886Y01165D02*
X01894D01*
X01881Y01161D02*
X01886Y01165D01*
X01252Y01368D02*
X01255Y01376D01*
X01223Y01326D02*
X01226Y01334D01*
X01208Y01322D02*
X01214Y01339D01*
X01239Y0133*
X01233Y01314D02*
X01239Y0133D01*
X01226Y01294D02*
X01229Y01302D01*
X01203Y01307D02*
X01227Y01298D01*
X01201Y01303D02*
X01204Y01311D01*
X01198Y01293D02*
X01222Y01284D01*
X01218Y01272D02*
X01222Y01284D01*
X01212Y01269D02*
X01218Y01272D01*
X01208Y0127D02*
X01212Y01269D01*
X01205Y01276D02*
X01208Y0127D01*
X01193Y0128D02*
X01198Y01293D01*
X01205Y01276D02*
X0121Y01288D01*
X012Y01273D02*
X01205Y01276D01*
X01196Y01275D02*
X012Y01273D01*
X01193Y0128D02*
X01196Y01275D01*
X0074Y01438D02*
X00745Y01434D01*
X00732Y01438D02*
X0074D01*
X00727Y01434D02*
X00732Y01438D01*
X00727Y01425D02*
X00736D01*
X00727Y01416D02*
Y01425D01*
Y01416D02*
X00732Y01412D01*
X0074*
X00745Y01416*
Y01434*
X00845Y01475D02*
X00854D01*
X00841Y01471D02*
X00845Y01475D01*
X00799Y01449D02*
Y01466D01*
X00782Y01462D02*
X00799D01*
X00782Y01449D02*
Y01466D01*
X00791Y01475*
X00799Y01466*
X00811Y01471D02*
X00816Y01475D01*
X00824*
X00829Y01471*
Y01453D02*
Y01471D01*
X00824Y01449D02*
X00829Y01453D01*
X00816Y01449D02*
X00824D01*
X00811Y01453D02*
X00816Y01449D01*
X00811Y01453D02*
Y01471D01*
X00829Y01453*
X00841D02*
X00845Y01449D01*
X00854*
X00858Y01453*
Y01471*
X00854Y01475D02*
X00858Y01471D01*
X00872Y01643D02*
X00877Y01646D01*
X0088Y01654*
X00877Y01659D02*
X0088Y01654D01*
X0086Y01664D02*
X00877Y01659D01*
X00855Y01661D02*
X0086Y01664D01*
X00852Y01653D02*
X00855Y01661D01*
X00852Y01653D02*
X00855Y01647D01*
X00845Y01629D02*
X00856Y01635D01*
X00845Y01629D02*
X0087Y01621D01*
X00868Y01613D02*
X00873Y0163D01*
X00847Y01588D02*
X00852Y01605D01*
X00843Y0159D02*
X0086Y01585D01*
X00837Y016D02*
X00843Y0159D01*
X00837Y016D02*
X00848Y01606D01*
X00865Y01601*
X00973Y01539D02*
Y01556D01*
X00965Y01565D02*
X00973Y01556D01*
X00956Y01552D02*
X00973D01*
X00914Y01539D02*
Y01556D01*
X00897Y01552D02*
X00914D01*
X00897Y01539D02*
Y01556D01*
X00906Y01565*
X00914Y01556*
X00926Y01539D02*
Y01565D01*
Y01539D02*
X00944Y01565D01*
Y01539D02*
Y01565D01*
X00956Y01539D02*
Y01556D01*
X00965Y01565*
X00966Y01611D02*
X00971Y01615D01*
X00979*
X00984Y01611*
X00966Y01602D02*
X00975D01*
X00966Y01593D02*
Y01602D01*
Y01593D02*
X00971Y01589D01*
X00979*
X00984Y01593*
Y01611*
X01315Y01701D02*
X01391Y01675D01*
X01229Y01223D02*
X01391Y01675D01*
X01153Y0125D02*
X01229Y01223D01*
X01153Y0125D02*
X01315Y01701D01*
X01327Y01654D02*
X01338Y01659D01*
X01327Y01654D02*
X01352Y01645D01*
X01349Y01637D02*
X01354Y01654D01*
X01339Y0161D02*
X01345Y01626D01*
X01322Y01615D02*
X01345Y01626D01*
X01319Y01631D02*
X01324Y01633D01*
X01316Y01622D02*
X01319Y01631D01*
X01316Y01622D02*
X01318Y01617D01*
X01322Y01615*
X01321Y01598D02*
X01326Y01601D01*
X01331Y016*
X01333Y01594*
X0133Y01586D02*
X01333Y01594D01*
X01325Y01583D02*
X0133Y01586D01*
X01321Y01585D02*
X01325Y01583D01*
X01318Y0159D02*
X01321Y01585D01*
X01306Y01595D02*
X01308Y01589D01*
X01306Y01595D02*
X01309Y01603D01*
X01314Y01605*
X01318Y01604*
X01321Y01598*
X01318Y0159D02*
X01321Y01598D01*
X01312Y01588D02*
X01318Y0159D01*
X01308Y01589D02*
X01312Y01588D01*
X01286Y01539D02*
X01288Y01534D01*
X01286Y01539D02*
X01289Y01547D01*
X01294Y0155*
X01311Y01544*
X01313Y01539*
X0131Y0153D02*
X01313Y01539D01*
X01305Y01528D02*
X0131Y0153D01*
X0128Y01524D02*
X01305Y01515D01*
X01287Y01517D02*
X01293Y01519D01*
X01284Y01509D02*
X01287Y01517D01*
X01284Y01509D02*
X01287Y01503D01*
X01299Y01499*
X01274Y01481D02*
X01277Y01489D01*
X01274Y01481D02*
X01277Y01475D01*
X01289Y01471*
X01281Y01474D02*
X01285Y01486D01*
X01291Y01489*
X01293Y01483*
X01289Y01471D02*
X01293Y01483D01*
X01269Y01465D02*
X01285Y01459D01*
X01264Y01453D02*
X01269Y01465D01*
X01264Y01453D02*
X01267Y01448D01*
X01279Y01443*
X01259Y01438D02*
X01275Y01432D01*
X01254Y01425D02*
X01259Y01438D01*
X01254Y01425D02*
X01257Y0142D01*
X01269Y01415*
X01261Y01405D02*
X01264Y014D01*
X01261Y01392D02*
X01264Y014D01*
X01244Y01398D02*
X01247Y01392D01*
X01244Y01398D02*
X01247Y01406D01*
X01253Y01408*
X01261Y01405*
X01251Y01391D02*
X01257Y01407D01*
X01247Y01392D02*
X01251Y01391D01*
X01229Y01381D02*
X01231Y01385D01*
X01229Y01381D02*
X01254Y01372D01*
X01525Y01273D02*
X01531Y0129D01*
X01505Y01294D02*
X0151Y01297D01*
X01502Y01286D02*
X01505Y01294D01*
X01502Y01286D02*
X01504Y01281D01*
X01508Y01279*
X01531Y0129*
X01532Y01305D02*
X01536Y01304D01*
X01534Y013D02*
X01536Y01304D01*
X0153Y01301D02*
X01534Y013D01*
X0153Y01301D02*
X01532Y01305D01*
X01518Y01332D02*
X01529Y01337D01*
X01518Y01332D02*
X01543Y01323D01*
X0154Y01315D02*
X01546Y01331D01*
X01625Y01347D02*
X01637Y01352D01*
X01631Y01363D02*
X01637Y01352D01*
X01631Y01363D02*
X01656Y01354D01*
X01625Y01347D02*
X0165Y01338D01*
X01621Y01336D02*
X01646Y01327D01*
X01635Y01322D02*
X01646Y01327D01*
X01635Y01322D02*
X0164Y0131D01*
X01616Y01319D02*
X0164Y0131D01*
X01611Y01308D02*
X01636Y01299D01*
X0163Y01283D02*
X01636Y01299D01*
X01651Y01275D02*
X01657Y01292D01*
X01651Y01275D02*
X01655Y01274D01*
X01677Y01284*
X01681Y01283*
X01685Y01294D02*
X01691Y01311D01*
X01664Y01311D02*
X01688Y01302D01*
X01664Y01311D02*
X01675Y01316D01*
X01672Y01335D02*
X01675Y01329D01*
X01672Y01335D02*
X01675Y01343D01*
X01681Y01346*
X01697Y0134*
X017Y01334*
X01697Y01326D02*
X017Y01334D01*
X01691Y01323D02*
X01697Y01326D01*
X01675Y01329D02*
X01691Y01323D01*
X01675Y01329D02*
X01697Y0134D01*
X01705Y0135D02*
X01711Y01366D01*
X01689Y01356D02*
X01711Y01366D01*
X01685Y01357D02*
X01689Y01356D01*
X01682Y01363D02*
X01685Y01357D01*
X01682Y01363D02*
X01685Y01371D01*
X01691Y01373*
X01665Y01394D02*
X01669Y01393D01*
X01665Y01394D02*
X01667Y01398D01*
X01671Y01397*
X01669Y01393D02*
X01671Y01397D01*
X01669Y01393D02*
X01681Y01398D01*
X01658Y01437D02*
X01682Y01428D01*
X01652Y01421D02*
X01676Y01412D01*
X01658Y01437D02*
X01676Y01412D01*
X01668Y01465D02*
X01692Y01456D01*
X0168Y01447D02*
X01684Y01459D01*
X01674Y01444D02*
X0168Y01447D01*
X01666Y01447D02*
X01674Y01444D01*
X01663Y01453D02*
X01666Y01447D01*
X01663Y01453D02*
X01668Y01465D01*
X01672Y01476D02*
X01675Y01485D01*
X01698Y01485D02*
X01701Y0148D01*
X01699Y01476D02*
X01701Y0148D01*
X01694Y01473D02*
X01699Y01476D01*
X01673Y0148D02*
X01694Y01473D01*
X01629Y01499D02*
X01632Y01493D01*
X01629Y01499D02*
X01632Y01507D01*
X01637Y0151*
X01654Y01504*
X01656Y01498*
X01653Y0149D02*
X01656Y01498D01*
X01648Y01488D02*
X01653Y0149D01*
X01633Y01471D02*
X01636Y01479D01*
X01618Y01467D02*
X01623Y01483D01*
X01648Y01475*
X01642Y01458D02*
X01648Y01475D01*
X01613Y01456D02*
X01638Y01447D01*
X01609Y01443D02*
X01613Y01456D01*
X01598Y01412D02*
X01622Y01403D01*
X01603Y01428D02*
X01622Y01403D01*
X01603Y01428D02*
X01628Y01419D01*
X01627Y01442D02*
X01632Y01431D01*
X01625Y01438D02*
X0163Y0145D01*
X0162Y01435D02*
X01625Y01438D01*
X01612Y01438D02*
X0162Y01435D01*
X01609Y01443D02*
X01612Y01438D01*
X01572Y01444D02*
X01578Y01447D01*
X01564Y01447D02*
X01572Y01444D01*
X01561Y01453D02*
X01564Y01447D01*
X01561Y01453D02*
X01566Y01465D01*
X0159Y01456*
X01578Y01447D02*
X01582Y01459D01*
X01579Y01451D02*
X01584Y0144D01*
X01576Y0143D02*
X01579Y01424D01*
X01576Y01416D02*
X01579Y01424D01*
X0156Y01422D02*
X01562Y01417D01*
X0156Y01422D02*
X01563Y0143D01*
X01568Y01433*
X01576Y0143*
X01566Y01415D02*
X01572Y01431D01*
X01562Y01417D02*
X01566Y01415D01*
X01554Y01407D02*
X01567Y01393D01*
X01548Y0139D02*
X01567Y01393D01*
X01555Y0137D02*
X01559Y01369D01*
X01555Y0137D02*
X01556Y01374D01*
X0156Y01373*
X01559Y01369D02*
X0156Y01373D01*
X01582Y01355D02*
X01598Y01349D01*
X01604Y01351*
X01607Y0136*
X01604Y01365D02*
X01607Y0136D01*
X01588Y01371D02*
X01604Y01365D01*
X01582Y01368D02*
X01588Y01371D01*
X01579Y0136D02*
X01582Y01368D01*
X01579Y0136D02*
X01582Y01355D01*
X01574Y01345D02*
X01598Y01336D01*
X0158Y01324D02*
X01586Y0134D01*
X01568Y01328D02*
X01592Y0132D01*
X01564Y01317D02*
X01588Y01308D01*
X01582Y01292D02*
X01588Y01308D01*
X01597Y01268D02*
X016Y01262D01*
X01597Y01268D02*
X016Y01276D01*
X01606Y01279*
X01622Y01273*
X01625Y01267*
X01622Y01259D02*
X01625Y01267D01*
X01616Y01256D02*
X01622Y01259D01*
X01613Y01262D02*
X01616Y0127D01*
X01608Y01273D02*
X01616Y0127D01*
X01605Y01265D02*
X01608Y01273D01*
X01605Y01265D02*
X01613Y01262D01*
X01608Y01259D02*
X01613Y01262D01*
X016Y01262D02*
X01608Y01259D01*
X01554Y01226D02*
X01558Y01225D01*
X01553Y01222D02*
X01554Y01226D01*
X01553Y01222D02*
X01557Y01221D01*
X01558Y01225*
X01563Y01236D02*
X01568Y01253D01*
X01541Y01253D02*
X01552Y01259D01*
X01541Y01253D02*
X01565Y01245D01*
X01586Y01236D02*
X01597Y01241D01*
X01592Y01252D02*
X01597Y01241D01*
X01592Y01252D02*
X01616Y01244D01*
X01586Y01236D02*
X0161Y01227D01*
X01579Y01216D02*
X01582Y01225D01*
X0158Y0122D02*
X01605Y01212D01*
X01603Y01208D02*
X01606Y01216D01*
X01572Y01198D02*
X01597Y01189D01*
X01569Y0119D02*
X01575Y01206D01*
X01548Y01195D02*
X01554Y01211D01*
X01531Y01201D02*
X01554Y01211D01*
X01527Y01202D02*
X01531Y01201D01*
X01528Y01216D02*
X01533Y01218D01*
X01525Y01208D02*
X01528Y01216D01*
X01525Y01208D02*
X01527Y01202D01*
X01437Y0115D02*
X01599Y01602D01*
X01787Y01534*
X01625Y01082D02*
X01787Y01534D01*
X01437Y0115D02*
X01625Y01082D01*
X01294Y00684D02*
X01316Y00671D01*
X01287Y00672D02*
X01294Y00684D01*
X01287Y00672D02*
X01289Y00666D01*
X01299Y00666D02*
X013Y0066D01*
X01304Y00658*
X0131Y00659*
X01316Y00671*
X01432Y00666D02*
X01441Y00674D01*
X01432Y00679D02*
Y00687D01*
X01436Y00692*
X01449*
Y00666D02*
Y00692D01*
X01436Y00674D02*
X01449D01*
X01432Y00679D02*
X01436Y00674D01*
X01376Y00679D02*
X01385D01*
X01376Y0067D02*
Y00679D01*
Y0067D02*
X0138Y00666D01*
X01389*
X01393Y0067*
Y00687*
X01389Y00692D02*
X01393Y00687D01*
X0138Y00692D02*
X01389D01*
X01376Y00687D02*
X0138Y00692D01*
X0133Y00721D02*
X01334Y00729D01*
X01314Y0072D02*
X01323Y00735D01*
X01345Y00722*
X01337Y00707D02*
X01345Y00722D01*
X01316Y00705D02*
X01317Y00699D01*
X01312Y00707D02*
X01316Y00705D01*
X01306Y00705D02*
X01312Y00707D01*
X01302Y00698D02*
X01306Y00705D01*
X01302Y00698D02*
X01303Y00692D01*
X01313Y00691D02*
X01315Y00686D01*
X01313Y00691D02*
X01317Y00699D01*
X01327Y00699D02*
X01329Y00693D01*
X01324Y00685D02*
X01329Y00693D01*
X01319Y00683D02*
X01324Y00685D01*
X01315Y00686D02*
X01319Y00683D01*
X01299Y00666D02*
X01305Y00677D01*
X01293Y00664D02*
X01299Y00666D01*
X01289Y00666D02*
X01293Y00664D01*
M02*