%FSTAX23Y23*%
%MOIN*%
%SFA1B1*%

%IPPOS*%
%ADD10C,0.016000*%
%ADD11C,0.008000*%
%ADD12C,0.007000*%
%ADD13C,0.010000*%
%ADD14C,0.005000*%
%ADD15C,0.006000*%
%LNaltium_eib_128_panel-1*%
%LPD*%
G54D10*
X01411Y01482D02*
Y01582D01*
X01391Y01552D02*
X01431D01*
X01391D02*
X01411Y01582D01*
X01431Y01552*
G54D11*
X01259Y02122D02*
X01259Y0212D01*
X01259Y0212*
X0126Y02119*
X01261Y02118*
X01262Y02118*
X01263Y02119*
X01264Y02119*
X01265Y0212*
X01265Y02121*
Y02122*
X01265Y02123D02*
X01265Y02122D01*
X01264Y02124D02*
X01265Y02123D01*
X01263Y02125D02*
X01264Y02124D01*
X01262Y02125D02*
X01263Y02125D01*
X01261Y02125D02*
X01262Y02125D01*
X0126Y02124D02*
X01261Y02125D01*
X01259Y02124D02*
X0126Y02124D01*
X01259Y02123D02*
X01259Y02124D01*
X01259Y02122D02*
X01259Y02123D01*
X01145Y02087D02*
X01145Y02086D01*
X01146Y02085*
X01146Y02085*
X01147Y02084*
X01148Y02084*
X01149Y02084*
X0115Y02085*
X01151Y02086*
X01151Y02087*
Y02088*
X01151Y02089D02*
X01151Y02088D01*
X0115Y0209D02*
X01151Y02089D01*
X01149Y0209D02*
X0115Y0209D01*
X01148Y02091D02*
X01149Y0209D01*
X01147Y02091D02*
X01148Y02091D01*
X01146Y0209D02*
X01147Y02091D01*
X01146Y02089D02*
X01146Y0209D01*
X01145Y02089D02*
X01146Y02089D01*
X01145Y02087D02*
X01145Y02089D01*
X01039Y02036D02*
X01039Y02035D01*
X0104Y02034*
X01041Y02033*
X01042Y02033*
X01043Y02033*
X01044Y02033*
X01045Y02034*
X01045Y02034*
X01046Y02035*
Y02036*
X01045Y02038D02*
X01046Y02036D01*
X01045Y02038D02*
X01045Y02038D01*
X01044Y02039D02*
X01045Y02038D01*
X01043Y02039D02*
X01044Y02039D01*
X01042Y02039D02*
X01043Y02039D01*
X01041Y02039D02*
X01042Y02039D01*
X0104Y02038D02*
X01041Y02039D01*
X01039Y02037D02*
X0104Y02038D01*
X01039Y02036D02*
X01039Y02037D01*
X00942Y01967D02*
X00942Y01966D01*
X00943Y01965*
X00944Y01964*
X00945Y01964*
X00946Y01964*
X00947Y01964*
X00948Y01965*
X00948Y01966*
X00949Y01967*
Y01968*
X00948Y01969D02*
X00949Y01968D01*
X00948Y0197D02*
X00948Y01969D01*
X00947Y0197D02*
X00948Y0197D01*
X00946Y01971D02*
X00947Y0197D01*
X00945Y0197D02*
X00946Y01971D01*
X00944Y0197D02*
X00945Y0197D01*
X00943Y01969D02*
X00944Y0197D01*
X00942Y01968D02*
X00943Y01969D01*
X00942Y01967D02*
X00942Y01968D01*
X00858Y01884D02*
X00858Y01882D01*
X00858Y01882*
X00859Y01881*
X0086Y0188*
X00861Y0188*
X00862Y01881*
X00863Y01881*
X00864Y01882*
X00864Y01883*
Y01884*
X00864Y01885D02*
X00864Y01884D01*
X00863Y01886D02*
X00864Y01885D01*
X00862Y01887D02*
X00863Y01886D01*
X00861Y01887D02*
X00862Y01887D01*
X0086Y01887D02*
X00861Y01887D01*
X00859Y01886D02*
X0086Y01887D01*
X00858Y01886D02*
X00859Y01886D01*
X00858Y01885D02*
X00858Y01886D01*
X00858Y01884D02*
X00858Y01885D01*
X00789Y01788D02*
X00789Y01787D01*
X0079Y01786*
X0079Y01786*
X00791Y01785*
X00792Y01785*
X00793Y01785*
X00794Y01786*
X00795Y01787*
X00795Y01788*
Y01789*
X00795Y0179D02*
X00795Y01789D01*
X00794Y01791D02*
X00795Y0179D01*
X00793Y01791D02*
X00794Y01791D01*
X00792Y01792D02*
X00793Y01791D01*
X00791Y01792D02*
X00792Y01792D01*
X0079Y01791D02*
X00791Y01792D01*
X0079Y0179D02*
X0079Y01791D01*
X00789Y01789D02*
X0079Y0179D01*
X00789Y01788D02*
X00789Y01789D01*
X00736Y01682D02*
X00736Y01681D01*
X00736Y0168*
X00737Y01679*
X00738Y01679*
X00739Y01679*
X0074Y01679*
X00741Y0168*
X00742Y0168*
X00742Y01682*
Y01683*
X00742Y01684D02*
X00742Y01683D01*
X00741Y01684D02*
X00742Y01684D01*
X0074Y01685D02*
X00741Y01684D01*
X00739Y01685D02*
X0074Y01685D01*
X00738Y01685D02*
X00739Y01685D01*
X00737Y01685D02*
X00738Y01685D01*
X00736Y01684D02*
X00737Y01685D01*
X00736Y01683D02*
X00736Y01684D01*
X00736Y01682D02*
X00736Y01683D01*
X00701Y0157D02*
X00701Y01569D01*
X00702Y01568*
X00702Y01567*
X00703Y01567*
X00705Y01566*
X00706Y01567*
X00706Y01567*
X00707Y01568*
X00708Y01569*
Y0157*
X00707Y01571D02*
X00708Y0157D01*
X00706Y01572D02*
X00707Y01571D01*
X00706Y01573D02*
X00706Y01572D01*
X00705Y01573D02*
X00706Y01573D01*
X00703Y01573D02*
X00705Y01573D01*
X00702Y01573D02*
X00703Y01573D01*
X00702Y01572D02*
X00702Y01573D01*
X00701Y01571D02*
X00702Y01572D01*
X00701Y0157D02*
X00701Y01571D01*
X00688Y01334D02*
X00688Y01333D01*
X00688Y01332*
X00689Y01332*
X0069Y01331*
X00691Y01331*
X00692Y01331*
X00693Y01332*
X00694Y01333*
X00694Y01334*
Y01335*
X00694Y01336D02*
X00694Y01335D01*
X00693Y01337D02*
X00694Y01336D01*
X00692Y01337D02*
X00693Y01337D01*
X00691Y01338D02*
X00692Y01337D01*
X0069Y01338D02*
X00691Y01338D01*
X00689Y01337D02*
X0069Y01338D01*
X00688Y01336D02*
X00689Y01337D01*
X00688Y01336D02*
X00688Y01336D01*
X00688Y01334D02*
X00688Y01336D01*
X0071Y01219D02*
X0071Y01218D01*
X0071Y01217*
X00711Y01216*
X00712Y01216*
X00713Y01216*
X00714Y01216*
X00715Y01217*
X00716Y01217*
X00716Y01218*
Y01219*
X00716Y01221D02*
X00716Y01219D01*
X00715Y01221D02*
X00716Y01221D01*
X00714Y01222D02*
X00715Y01221D01*
X00713Y01222D02*
X00714Y01222D01*
X00712Y01222D02*
X00713Y01222D01*
X00711Y01222D02*
X00712Y01222D01*
X0071Y01221D02*
X00711Y01222D01*
X0071Y0122D02*
X0071Y01221D01*
X0071Y01219D02*
X0071Y0122D01*
X00751Y01107D02*
X00751Y01106D01*
X00751Y01105*
X00752Y01105*
X00753Y01104*
X00754Y01104*
X00755Y01104*
X00756Y01105*
X00757Y01106*
X00757Y01107*
Y01108*
X00757Y01109D02*
X00757Y01108D01*
X00756Y0111D02*
X00757Y01109D01*
X00755Y0111D02*
X00756Y0111D01*
X00754Y01111D02*
X00755Y0111D01*
X00753Y01111D02*
X00754Y01111D01*
X00752Y0111D02*
X00753Y01111D01*
X00751Y01109D02*
X00752Y0111D01*
X00751Y01108D02*
X00751Y01109D01*
X00751Y01107D02*
X00751Y01108D01*
X00809Y01004D02*
X00809Y01003D01*
X0081Y01002*
X00811Y01001*
X00812Y01001*
X00813Y01001*
X00814Y01001*
X00815Y01002*
X00815Y01002*
X00816Y01003*
Y01004*
X00815Y01006D02*
X00816Y01004D01*
X00815Y01006D02*
X00815Y01006D01*
X00814Y01007D02*
X00815Y01006D01*
X00813Y01007D02*
X00814Y01007D01*
X00812Y01007D02*
X00813Y01007D01*
X00811Y01007D02*
X00812Y01007D01*
X0081Y01006D02*
X00811Y01007D01*
X00809Y01005D02*
X0081Y01006D01*
X00809Y01004D02*
X00809Y01005D01*
X00883Y00912D02*
X00883Y00911D01*
X00884Y0091*
X00885Y0091*
X00886Y00909*
X00887Y00909*
X00888Y00909*
X00889Y0091*
X00889Y00911*
X0089Y00912*
Y00913*
X00889Y00914D02*
X0089Y00913D01*
X00889Y00915D02*
X00889Y00914D01*
X00888Y00915D02*
X00889Y00915D01*
X00887Y00916D02*
X00888Y00915D01*
X00886Y00916D02*
X00887Y00916D01*
X00885Y00915D02*
X00886Y00916D01*
X00884Y00914D02*
X00885Y00915D01*
X00883Y00914D02*
X00884Y00914D01*
X00883Y00912D02*
X00883Y00914D01*
X00972Y00833D02*
X00972Y00832D01*
X00972Y00831*
X00973Y00831*
X00974Y0083*
X00975Y0083*
X00976Y0083*
X00977Y00831*
X00978Y00832*
X00978Y00833*
Y00834*
X00978Y00835D02*
X00978Y00834D01*
X00977Y00836D02*
X00978Y00835D01*
X00976Y00836D02*
X00977Y00836D01*
X00975Y00837D02*
X00976Y00836D01*
X00974Y00837D02*
X00975Y00837D01*
X00973Y00836D02*
X00974Y00837D01*
X00972Y00835D02*
X00973Y00836D01*
X00972Y00834D02*
X00972Y00835D01*
X00972Y00833D02*
X00972Y00834D01*
X01071Y0077D02*
X01071Y00769D01*
X01072Y00768*
X01073Y00768*
X01074Y00767*
X01075Y00767*
X01076Y00767*
X01077Y00768*
X01077Y00769*
X01078Y0077*
Y00771*
X01077Y00772D02*
X01078Y00771D01*
X01077Y00773D02*
X01077Y00772D01*
X01076Y00773D02*
X01077Y00773D01*
X01075Y00774D02*
X01076Y00773D01*
X01074Y00774D02*
X01075Y00774D01*
X01073Y00773D02*
X01074Y00774D01*
X01072Y00772D02*
X01073Y00773D01*
X01071Y00771D02*
X01072Y00772D01*
X01071Y0077D02*
X01071Y00771D01*
X0118Y00724D02*
X01181Y00723D01*
X01181Y00722*
X01182Y00721*
X01183Y00721*
X01184Y0072*
X01185Y00721*
X01186Y00721*
X01187Y00722*
X01187Y00723*
Y00724*
X01187Y00725D02*
X01187Y00724D01*
X01186Y00726D02*
X01187Y00725D01*
X01185Y00727D02*
X01186Y00726D01*
X01184Y00727D02*
X01185Y00727D01*
X01183Y00727D02*
X01184Y00727D01*
X01182Y00727D02*
X01183Y00727D01*
X01181Y00726D02*
X01182Y00727D01*
X01181Y00725D02*
X01181Y00726D01*
X0118Y00724D02*
X01181Y00725D01*
X01637Y00724D02*
X01637Y00723D01*
X01638Y00722*
X01639Y00721*
X0164Y00721*
X01641Y0072*
X01642Y00721*
X01643Y00721*
X01643Y00722*
X01644Y00723*
Y00724*
X01643Y00725D02*
X01644Y00724D01*
X01643Y00726D02*
X01643Y00725D01*
X01642Y00727D02*
X01643Y00726D01*
X01641Y00727D02*
X01642Y00727D01*
X0164Y00727D02*
X01641Y00727D01*
X01639Y00727D02*
X0164Y00727D01*
X01638Y00726D02*
X01639Y00727D01*
X01637Y00725D02*
X01638Y00726D01*
X01637Y00724D02*
X01637Y00725D01*
X01746Y0077D02*
X01747Y00769D01*
X01747Y00768*
X01748Y00768*
X01749Y00767*
X0175Y00767*
X01751Y00767*
X01752Y00768*
X01753Y00769*
X01753Y0077*
Y00771*
X01753Y00772D02*
X01753Y00771D01*
X01752Y00773D02*
X01753Y00772D01*
X01751Y00773D02*
X01752Y00773D01*
X0175Y00774D02*
X01751Y00773D01*
X01749Y00774D02*
X0175Y00774D01*
X01748Y00773D02*
X01749Y00774D01*
X01747Y00772D02*
X01748Y00773D01*
X01747Y00771D02*
X01747Y00772D01*
X01746Y0077D02*
X01747Y00771D01*
X01846Y00833D02*
X01846Y00832D01*
X01846Y00831*
X01847Y00831*
X01848Y0083*
X01849Y0083*
X0185Y0083*
X01851Y00831*
X01852Y00832*
X01852Y00833*
Y00834*
X01852Y00835D02*
X01852Y00834D01*
X01851Y00836D02*
X01852Y00835D01*
X0185Y00836D02*
X01851Y00836D01*
X01849Y00837D02*
X0185Y00836D01*
X01848Y00837D02*
X01849Y00837D01*
X01847Y00836D02*
X01848Y00837D01*
X01846Y00835D02*
X01847Y00836D01*
X01846Y00834D02*
X01846Y00835D01*
X01846Y00833D02*
X01846Y00834D01*
X01934Y00912D02*
X01935Y00911D01*
X01935Y0091*
X01936Y0091*
X01937Y00909*
X01938Y00909*
X01939Y00909*
X0194Y0091*
X01941Y00911*
X01941Y00912*
Y00913*
X01941Y00914D02*
X01941Y00913D01*
X0194Y00915D02*
X01941Y00914D01*
X01939Y00915D02*
X0194Y00915D01*
X01938Y00916D02*
X01939Y00915D01*
X01937Y00916D02*
X01938Y00916D01*
X01936Y00915D02*
X01937Y00916D01*
X01935Y00914D02*
X01936Y00915D01*
X01935Y00914D02*
X01935Y00914D01*
X01934Y00912D02*
X01935Y00914D01*
X02008Y01004D02*
X02008Y01003D01*
X02009Y01002*
X0201Y01001*
X02011Y01001*
X02012Y01001*
X02013Y01001*
X02014Y01002*
X02014Y01002*
X02015Y01003*
Y01004*
X02014Y01006D02*
X02015Y01004D01*
X02014Y01006D02*
X02014Y01006D01*
X02013Y01007D02*
X02014Y01006D01*
X02012Y01007D02*
X02013Y01007D01*
X02011Y01007D02*
X02012Y01007D01*
X0201Y01007D02*
X02011Y01007D01*
X02009Y01006D02*
X0201Y01007D01*
X02008Y01005D02*
X02009Y01006D01*
X02008Y01004D02*
X02008Y01005D01*
X02067Y01107D02*
X02067Y01106D01*
X02068Y01105*
X02068Y01105*
X02069Y01104*
X0207Y01104*
X02071Y01104*
X02072Y01105*
X02073Y01106*
X02073Y01107*
Y01108*
X02073Y01109D02*
X02073Y01108D01*
X02072Y0111D02*
X02073Y01109D01*
X02071Y0111D02*
X02072Y0111D01*
X0207Y01111D02*
X02071Y0111D01*
X02069Y01111D02*
X0207Y01111D01*
X02068Y0111D02*
X02069Y01111D01*
X02068Y01109D02*
X02068Y0111D01*
X02067Y01108D02*
X02068Y01109D01*
X02067Y01107D02*
X02067Y01108D01*
X02108Y01219D02*
X02108Y01218D01*
X02108Y01217*
X02109Y01216*
X0211Y01216*
X02111Y01216*
X02112Y01216*
X02113Y01217*
X02114Y01217*
X02114Y01218*
Y01219*
X02114Y01221D02*
X02114Y01219D01*
X02113Y01221D02*
X02114Y01221D01*
X02112Y01222D02*
X02113Y01221D01*
X02111Y01222D02*
X02112Y01222D01*
X0211Y01222D02*
X02111Y01222D01*
X02109Y01222D02*
X0211Y01222D01*
X02108Y01221D02*
X02109Y01222D01*
X02108Y0122D02*
X02108Y01221D01*
X02108Y01219D02*
X02108Y0122D01*
X0213Y01334D02*
X0213Y01333D01*
X0213Y01332*
X02131Y01332*
X02132Y01331*
X02133Y01331*
X02134Y01331*
X02135Y01332*
X02136Y01333*
X02136Y01334*
Y01335*
X02136Y01336D02*
X02136Y01335D01*
X02135Y01337D02*
X02136Y01336D01*
X02134Y01337D02*
X02135Y01337D01*
X02133Y01338D02*
X02134Y01337D01*
X02132Y01338D02*
X02133Y01338D01*
X02131Y01337D02*
X02132Y01338D01*
X0213Y01336D02*
X02131Y01337D01*
X0213Y01336D02*
X0213Y01336D01*
X0213Y01334D02*
X0213Y01336D01*
X02117Y0157D02*
X02117Y01569D01*
X02117Y01568*
X02118Y01567*
X02119Y01567*
X0212Y01566*
X02121Y01567*
X02122Y01567*
X02123Y01568*
X02123Y01569*
Y0157*
X02123Y01571D02*
X02123Y0157D01*
X02122Y01572D02*
X02123Y01571D01*
X02121Y01573D02*
X02122Y01572D01*
X0212Y01573D02*
X02121Y01573D01*
X02119Y01573D02*
X0212Y01573D01*
X02118Y01573D02*
X02119Y01573D01*
X02117Y01572D02*
X02118Y01573D01*
X02117Y01571D02*
X02117Y01572D01*
X02117Y0157D02*
X02117Y01571D01*
X02082Y01682D02*
X02082Y01681D01*
X02082Y0168*
X02083Y01679*
X02084Y01679*
X02085Y01679*
X02086Y01679*
X02087Y0168*
X02088Y0168*
X02088Y01682*
Y01683*
X02088Y01684D02*
X02088Y01683D01*
X02087Y01684D02*
X02088Y01684D01*
X02086Y01685D02*
X02087Y01684D01*
X02085Y01685D02*
X02086Y01685D01*
X02084Y01685D02*
X02085Y01685D01*
X02083Y01685D02*
X02084Y01685D01*
X02082Y01684D02*
X02083Y01685D01*
X02082Y01683D02*
X02082Y01684D01*
X02082Y01682D02*
X02082Y01683D01*
X02029Y01788D02*
X02029Y01787D01*
X02029Y01786*
X0203Y01786*
X02031Y01785*
X02032Y01785*
X02033Y01785*
X02034Y01786*
X02035Y01787*
X02035Y01788*
Y01789*
X02035Y0179D02*
X02035Y01789D01*
X02034Y01791D02*
X02035Y0179D01*
X02033Y01791D02*
X02034Y01791D01*
X02032Y01792D02*
X02033Y01791D01*
X02031Y01792D02*
X02032Y01792D01*
X0203Y01791D02*
X02031Y01792D01*
X02029Y0179D02*
X0203Y01791D01*
X02029Y01789D02*
X02029Y0179D01*
X02029Y01788D02*
X02029Y01789D01*
X0196Y01884D02*
X0196Y01882D01*
X0196Y01882*
X01961Y01881*
X01962Y0188*
X01963Y0188*
X01964Y01881*
X01965Y01881*
X01966Y01882*
X01966Y01883*
Y01884*
X01966Y01885D02*
X01966Y01884D01*
X01965Y01886D02*
X01966Y01885D01*
X01964Y01887D02*
X01965Y01886D01*
X01963Y01887D02*
X01964Y01887D01*
X01962Y01887D02*
X01963Y01887D01*
X01961Y01886D02*
X01962Y01887D01*
X0196Y01886D02*
X01961Y01886D01*
X0196Y01885D02*
X0196Y01886D01*
X0196Y01884D02*
X0196Y01885D01*
X01875Y01967D02*
X01875Y01966D01*
X01876Y01965*
X01877Y01964*
X01878Y01964*
X01879Y01964*
X0188Y01964*
X01881Y01965*
X01881Y01966*
X01882Y01967*
Y01968*
X01881Y01969D02*
X01882Y01968D01*
X01881Y0197D02*
X01881Y01969D01*
X0188Y0197D02*
X01881Y0197D01*
X01879Y01971D02*
X0188Y0197D01*
X01878Y0197D02*
X01879Y01971D01*
X01877Y0197D02*
X01878Y0197D01*
X01876Y01969D02*
X01877Y0197D01*
X01875Y01968D02*
X01876Y01969D01*
X01875Y01967D02*
X01875Y01968D01*
X01778Y02036D02*
X01779Y02035D01*
X01779Y02034*
X0178Y02033*
X01781Y02033*
X01782Y02033*
X01783Y02033*
X01784Y02034*
X01785Y02034*
X01785Y02035*
Y02036*
X01785Y02038D02*
X01785Y02036D01*
X01784Y02038D02*
X01785Y02038D01*
X01783Y02039D02*
X01784Y02038D01*
X01782Y02039D02*
X01783Y02039D01*
X01781Y02039D02*
X01782Y02039D01*
X0178Y02039D02*
X01781Y02039D01*
X01779Y02038D02*
X0178Y02039D01*
X01779Y02037D02*
X01779Y02038D01*
X01778Y02036D02*
X01779Y02037D01*
X01673Y02087D02*
X01673Y02086D01*
X01673Y02085*
X01674Y02085*
X01675Y02084*
X01676Y02084*
X01677Y02084*
X01678Y02085*
X01679Y02086*
X01679Y02087*
Y02088*
X01679Y02089D02*
X01679Y02088D01*
X01678Y0209D02*
X01679Y02089D01*
X01677Y0209D02*
X01678Y0209D01*
X01676Y02091D02*
X01677Y0209D01*
X01675Y02091D02*
X01676Y02091D01*
X01674Y0209D02*
X01675Y02091D01*
X01673Y02089D02*
X01674Y0209D01*
X01673Y02089D02*
X01673Y02089D01*
X01673Y02087D02*
X01673Y02089D01*
X01559Y02122D02*
X01559Y0212D01*
X0156Y0212*
X0156Y02119*
X01561Y02118*
X01562Y02118*
X01563Y02119*
X01564Y02119*
X01565Y0212*
X01565Y02121*
Y02122*
X01565Y02123D02*
X01565Y02122D01*
X01564Y02124D02*
X01565Y02123D01*
X01563Y02125D02*
X01564Y02124D01*
X01562Y02125D02*
X01563Y02125D01*
X01561Y02125D02*
X01562Y02125D01*
X0156Y02124D02*
X01561Y02125D01*
X0156Y02124D02*
X0156Y02124D01*
X01559Y02123D02*
X0156Y02124D01*
X01559Y02122D02*
X01559Y02123D01*
G54D12*
X01369Y01502D02*
X0138D01*
X01369Y01485D02*
Y01518D01*
X01391*
X01533Y01569D02*
X01548Y01571D01*
X01516Y01426D02*
X01538D01*
X01516Y01453D02*
X01522Y01459D01*
X01533*
X01538Y01453*
Y01448D02*
Y01453D01*
X01516Y01426D02*
X01538Y01448D01*
X01502Y01426D02*
Y01459D01*
X01491Y01448D02*
X01502Y01459D01*
X0148D02*
X01491Y01448D01*
X0148Y01426D02*
Y01459D01*
X01248Y01262D02*
Y01284D01*
Y01262D02*
X01264D01*
Y01284D02*
X01275D01*
X01259Y01278D02*
X01264Y01284D01*
X01259Y01273D02*
Y01278D01*
Y01273D02*
X01264Y01262D01*
X01275D02*
X01281Y01267D01*
Y01278*
X01275Y01284D02*
X01281Y01278D01*
X01259Y01299D02*
X01281D01*
X01259D02*
Y01304D01*
X01264Y0131*
X01259Y01315D02*
X01264Y01321D01*
X01259Y01315D02*
X01264Y0131D01*
X01281*
X01264Y01321D02*
X01281D01*
X01264Y01347D02*
X01281D01*
X01264Y01358D02*
X01281D01*
X01259Y01352D02*
X01264Y01358D01*
X01259Y01352D02*
X01264Y01347D01*
X01259Y01341D02*
X01264Y01347D01*
X01259Y01336D02*
Y01341D01*
Y01336D02*
X01281D01*
X01323Y01329D02*
X01334Y0134D01*
Y01307D02*
Y0134D01*
X01323Y01307D02*
X01345D01*
X0136Y01313D02*
X01365D01*
X0136Y01307D02*
Y01313D01*
Y01307D02*
X01365D01*
Y01313*
X01378Y01324D02*
Y0134D01*
X014*
X01395Y01329D02*
X014Y01324D01*
X01389Y01329D02*
X01395D01*
X01378Y01324D02*
X01389Y01329D01*
X01378Y01313D02*
X01384Y01307D01*
X01395*
X014Y01313*
Y01324*
X0142Y01329D02*
X01426Y01324D01*
X01415Y01329D02*
X0142D01*
X01415Y01307D02*
Y01329D01*
X01426Y01307D02*
Y01324D01*
X01431Y01329*
X01437Y01324*
Y01307D02*
Y01324D01*
X01452Y01307D02*
Y01329D01*
X01457*
X01463Y01324*
X01468Y01329*
X01463Y01307D02*
Y01324D01*
X01474Y01307D02*
Y01324D01*
X01468Y01329D02*
X01474Y01324D01*
X0148Y01366D02*
X01502D01*
X0148D02*
X01502Y01388D01*
X0148Y01393D02*
X01485Y01399D01*
X01496*
X01502Y01393*
Y01388D02*
Y01393D01*
X01516Y01382D02*
X01538D01*
X01553D02*
Y01399D01*
X01575*
X0157Y01388D02*
X01575Y01382D01*
X01564Y01388D02*
X0157D01*
X01553Y01382D02*
X01564Y01388D01*
X01553Y01371D02*
X01559Y01366D01*
X0157*
X01575Y01371*
Y01382*
X0159Y01371D02*
Y01382D01*
Y01371D02*
X01596Y01366D01*
X01607*
X01612Y01371*
Y01377*
X01607Y01382D02*
X01612Y01377D01*
X0159Y01382D02*
X01607D01*
X0159D02*
X01601Y01393D01*
X01612Y01399*
X01634Y01469D02*
X01644Y01483D01*
X01643Y01463D02*
X01653Y01476D01*
X01651Y01484D02*
X01653Y01476D01*
X01644Y01483D02*
X01651Y01484D01*
X01642Y01491D02*
X01644Y01483D01*
X01638Y01494D02*
X01642Y01491D01*
X01625Y01476D02*
X01638Y01494D01*
X01595Y01497D02*
X01608Y01515D01*
X01604Y01491D02*
X01614Y01504D01*
X01613Y01484D02*
X01623Y01498D01*
X01621Y01506D02*
X01623Y01498D01*
X01614Y01504D02*
X01621Y01506D01*
X01613Y01512D02*
X01614Y01504D01*
X01608Y01515D02*
X01613Y01512D01*
X01584Y01545D02*
X01602Y01533D01*
X01575Y01532D02*
X01584Y01545D01*
X01575Y01532D02*
X01587Y0153D01*
X01591Y01527*
X01593Y01519*
X01586Y0151D02*
X01593Y01519D01*
X01579Y01509D02*
X01586Y0151D01*
X0157Y01515D02*
X01579Y01509D01*
X01568Y01523D02*
X0157Y01515D01*
X0155Y01529D02*
X01553Y01534D01*
X01558Y01531*
X01555Y01526D02*
X01558Y01531D01*
X0155Y01529D02*
X01555Y01526D01*
X0152Y01551D02*
X01538Y01538D01*
X01529Y01544D02*
X01548Y01571D01*
Y02064D02*
X0157Y0206D01*
X01554Y02029D02*
X01559Y02062D01*
X01554Y02029D02*
X01567Y02039D01*
X01588Y02041D02*
X01593Y0204D01*
X01601Y02055D02*
X01606Y02049D01*
X0159Y02057D02*
X01601Y02055D01*
X01584Y02052D02*
X0159Y02057D01*
X01583Y02047D02*
X01584Y02052D01*
X01583Y02047D02*
X01588Y02041D01*
X01581Y02036D02*
X01588Y02041D01*
X0158Y02031D02*
X01581Y02036D01*
X0158Y02031D02*
X01585Y02024D01*
X01596Y02023*
X01602Y02027*
X01665Y02D02*
X01672Y02021D01*
X01644Y02007D02*
X01651Y02028D01*
X01658Y02031*
X01669Y02028*
X01672Y02021*
X01644Y02007D02*
X01672Y02021D01*
X01644Y02007D02*
X01648Y02D01*
X01658Y01996*
X01665Y02*
X01688Y02004D02*
X01693Y02002D01*
X01704Y02016D02*
X01707Y02009D01*
X01693Y02019D02*
X01704Y02016D01*
X01686D02*
X01693Y02019D01*
X01684Y02011D02*
X01686Y02016D01*
X01684Y02011D02*
X01688Y02004D01*
X01681Y02D02*
X01688Y02004D01*
X01679Y01995D02*
X01681Y02D01*
X01679Y01995D02*
X01683Y01988D01*
X01693Y01984*
X017Y01988*
X01742Y01971D02*
X01757Y01963D01*
X01759Y01956*
X01757Y01951D02*
X01759Y01956D01*
X01749Y01949D02*
X01757Y01951D01*
X0174Y01954D02*
X01749Y01949D01*
X01737Y01961D02*
X0174Y01954D01*
X01737Y01961D02*
X01748Y01981D01*
X01755Y01983*
X01765Y01978*
X01767Y01971*
X01783Y01968D02*
X01802Y01958D01*
X01772Y01949D02*
X01802Y01958D01*
X0177Y01944D02*
X01772Y01949D01*
X0177Y01944D02*
X01772Y01937D01*
X01782Y01931*
X01789Y01934*
X01826Y01905D02*
X01834Y01906D01*
X01823Y01901D02*
X01826Y01905D01*
X01823Y01901D02*
X01824Y01893D01*
X01832Y01886*
X0184Y01888*
X01844Y01892*
X01842Y019D02*
X01844Y01892D01*
X01853Y01913D02*
X01854Y01905D01*
X01844Y01919D02*
X01853Y01913D01*
X01836Y01918D02*
X01844Y01919D01*
X01833Y01914D02*
X01836Y01918D01*
X01833Y01914D02*
X01834Y01906D01*
X01842Y019*
X0185Y01901*
X01854Y01905*
X01869Y019D02*
X01886Y01887D01*
X01855Y01883D02*
X01886Y01887D01*
X01852Y01879D02*
X01855Y01883D01*
X01852Y01879D02*
X01853Y01871D01*
X01862Y01864*
X01869Y01865*
X01893Y01823D02*
X01908Y01807D01*
X01893Y01823D02*
X01897Y01827D01*
X01928Y01826*
X01932Y0183*
X01942Y01819D02*
X01957Y01803D01*
X01926Y01804D02*
X01957Y01803D01*
X01922Y018D02*
X01926Y01804D01*
X01922Y01793D02*
X01922Y018D01*
X01922Y01793D02*
X0193Y01785D01*
X01937Y01784*
X01953Y0174D02*
X01964Y01734D01*
X01979Y01731*
X01988Y01737*
X0197Y01745D02*
X01979Y01731D01*
X0197Y01745D02*
X01971Y01753D01*
X01976Y01756*
X01984Y01754*
X0199Y01745*
X01988Y01737D02*
X0199Y01745D01*
X02001Y01728D02*
X02013Y0171D01*
X01983Y01716D02*
X02013Y0171D01*
X01978Y01713D02*
X01983Y01716D01*
X01977Y01705D02*
X01978Y01713D01*
X01977Y01705D02*
X01983Y01696D01*
X01991Y01695*
X02Y01648D02*
X02009Y01628D01*
X02024Y01634*
X02014Y01642D02*
X02024Y01634D01*
X02012Y01647D02*
X02014Y01642D01*
X02012Y01647D02*
X02015Y01654D01*
X02025Y01659*
X02032Y01656*
X02036Y01646*
X02034Y01639D02*
X02036Y01646D01*
X02045Y01628D02*
X02054Y01608D01*
X02025Y01619D02*
X02054Y01608D01*
X0202Y01616D02*
X02025Y01619D01*
X02017Y01609D02*
X0202Y01616D01*
X02017Y01609D02*
X02022Y01599D01*
X02029Y01596*
X02031Y01544D02*
X02052Y01533D01*
X02031Y01544D02*
X02063Y01553D01*
X02046Y01554D02*
X02052Y01533D01*
X02071Y01523D02*
X02077Y01501D01*
X0205Y01517D02*
X02077Y01501D01*
X02045Y01515D02*
X0205Y01517D01*
X02041Y01509D02*
X02045Y01515D01*
X02041Y01509D02*
X02044Y01498D01*
X02051Y01494*
X0204Y01328D02*
X02045Y01322D01*
X0204Y01328D02*
X02041Y01339D01*
X02047Y01344*
X02052Y01344*
X02057Y01338*
X02057Y01332D02*
X02057Y01338D01*
X02063Y01343*
X02069Y01343*
X02074Y01337*
X02073Y01326D02*
X02074Y01337D01*
X02067Y01321D02*
X02073Y01326D01*
X02071Y01283D02*
X02072Y01305D01*
X02038Y01291D02*
X02043Y01285D01*
X02038Y01291D02*
X02039Y01302D01*
X02045Y01307*
X0205Y01307*
X02071Y01283*
X02049Y01215D02*
X02054Y01236D01*
X02018Y01227D02*
X02023Y01221D01*
X02018Y01227D02*
X02021Y01238D01*
X02027Y01242*
X02033Y01241*
X02049Y01215*
X02041Y01179D02*
X02046Y012D01*
X02025Y01205D02*
X02041Y01179D01*
X02019Y01206D02*
X02025Y01205D01*
X02013Y01202D02*
X02019Y01206D01*
X0201Y01191D02*
X02013Y01202D01*
X0201Y01191D02*
X02014Y01185D01*
X01982Y01136D02*
X01988Y01121D01*
X01982Y01136D02*
X02013Y01123D01*
X02009Y01113D02*
X02017Y01134D01*
X01995Y01079D02*
X02003Y01099D01*
X01983Y01108D02*
X01995Y01079D01*
X01978Y0111D02*
X01983Y01108D01*
X0197Y01107D02*
X01978Y0111D01*
X01966Y01097D02*
X0197Y01107D01*
X01966Y01097D02*
X01969Y01089D01*
X01932Y01051D02*
X0194Y01053D01*
X01927Y01042D02*
X01932Y01051D01*
X01927Y01042D02*
X01928Y01034D01*
X01947Y01023*
X01955Y01024*
X0196Y01034*
X01959Y01041D02*
X0196Y01034D01*
X0194Y01053D02*
X01959Y01041D01*
X0194Y01053D02*
X01947Y01023D01*
X01932Y00988D02*
X01944Y01007D01*
X01925Y01019D02*
X01932Y00988D01*
X01921Y01022D02*
X01925Y01019D01*
X01913Y0102D02*
X01921Y01022D01*
X01907Y0101D02*
X01913Y0102D01*
X01907Y0101D02*
X01909Y01003D01*
X01872Y00953D02*
X01883Y00965D01*
X01865Y00952D02*
X01872Y00953D01*
X0186Y00956D02*
X01865Y00952D01*
X0186Y00963D02*
X0186Y00956D01*
X0186Y00963D02*
X01867Y00972D01*
X01875Y00972*
X01892Y00958*
X01892Y0095*
X01885Y00942D02*
X01892Y0095D01*
X01877Y00941D02*
X01885Y00942D01*
X01857Y0091D02*
X01872Y00926D01*
X01839Y0094D02*
X01864Y00918D01*
X01839Y0094D02*
X01841Y00924D01*
X018Y00891D02*
X018Y00898D01*
X01797Y00903D02*
X018Y00898D01*
X01789Y00903D02*
X01797Y00903D01*
X01781Y00896D02*
X01789Y00903D01*
X0178Y00889D02*
X01781Y00896D01*
X0178Y00889D02*
X01783Y00884D01*
X01791Y00884*
X01794Y00872D02*
X01802Y00871D01*
X0181Y00878*
X01811Y00886*
X01807Y0089D02*
X01811Y00886D01*
X018Y00891D02*
X01807Y0089D01*
X01791Y00884D02*
X018Y00891D01*
X0179Y00876D02*
X01791Y00884D01*
X0179Y00876D02*
X01794Y00872D01*
X01769Y00844D02*
X01786Y00858D01*
X01757Y00876D02*
X01778Y00851D01*
X01755Y00861D02*
X01757Y00876D01*
X01688Y00841D02*
X01707Y00852D01*
X0171Y00847*
X01702Y00817D02*
X0171Y00847D01*
X01702Y00817D02*
X01704Y00812D01*
X01673Y00794D02*
X01692Y00805D01*
X01665Y00828D02*
X01682Y00799D01*
X01662Y00813D02*
X01665Y00828D01*
X01603Y00802D02*
X01611Y00811D01*
X01597Y00788D02*
X01603Y00802D01*
X01597Y00788D02*
X01601Y00778D01*
X01597Y00788D02*
X01612Y00794D01*
X01619Y00791*
X01621Y00786*
X01618Y00778D02*
X01621Y00786D01*
X01608Y00775D02*
X01618Y00778D01*
X01601Y00778D02*
X01608Y00775D01*
X01568Y00759D02*
X01589Y00767D01*
X01567Y00794D02*
X01578Y00763D01*
X0156Y0078D02*
X01567Y00794D01*
X0124Y00801D02*
X0126Y00793D01*
X01234Y00785D02*
X0124Y00801D01*
X01234Y00785D02*
X01246Y00787D01*
X01251Y00785*
X01255Y00778*
X01251Y00767D02*
X01255Y00778D01*
X01243Y00764D02*
X01251Y00767D01*
X01233Y00768D02*
X01243Y00764D01*
X0123Y00775D02*
X01233Y00768D01*
X01194Y00783D02*
X01214Y00775D01*
X01204Y00779D02*
X01216Y0081D01*
X01202Y00804D02*
X01216Y0081D01*
X0114Y008D02*
X01157Y00829D01*
X01134Y00823D02*
X01157Y00829D01*
X01134Y00823D02*
X01153Y00812D01*
X01094Y00827D02*
X01113Y00816D01*
X01103Y00822D02*
X0112Y0085D01*
X01105Y00846D02*
X0112Y0085D01*
X01051Y00869D02*
X01055Y00865D01*
X01035Y00867D02*
X01036Y00859D01*
X01045Y00852*
X01052Y00853*
X01056Y00857*
X01055Y00865D02*
X01056Y00857D01*
X01055Y00865D02*
X01063Y00866D01*
X01066Y0087*
X01066Y00878D02*
X01066Y0087D01*
X01057Y00885D02*
X01066Y00878D01*
X0105Y00884D02*
X01057Y00885D01*
X01018Y00903D02*
X01033Y00905D01*
X01012Y00879D02*
X01033Y00905D01*
X01004Y00886D02*
X01021Y00872D01*
X00947Y00932D02*
X00962Y00916D01*
X00968Y0095D02*
X00976Y0095D01*
X00983Y00942*
X00983Y00934D02*
X00983Y00942D01*
X00978Y0093D02*
X00983Y00934D01*
X00947Y00932D02*
X00978Y0093D01*
X00923Y0096D02*
X00938Y00944D01*
X0093Y00952D02*
X00955Y00974D01*
X0094Y00975D02*
X00955Y00974D01*
X00895Y01025D02*
X0091Y01022D01*
X00882Y01004D02*
X0091Y01022D01*
X00876Y01014D02*
X00888Y00995D01*
X00857Y01045D02*
X00868Y01026D01*
X00862Y01036D02*
X00891Y01053D01*
X00875Y01057D02*
X00891Y01053D01*
X00852Y01097D02*
X00855Y01104D01*
X00851Y01114D02*
X00855Y01104D01*
X00844Y01117D02*
X00851Y01114D01*
X00823Y01109D02*
X00844Y01117D01*
X0082Y01102D02*
X00823Y01109D01*
X0082Y01102D02*
X00824Y01091D01*
X00832Y01088*
X00852Y01097*
X00823Y01109D02*
X00852Y01097D01*
X00804Y01141D02*
X00813Y0112D01*
X00808Y01131D02*
X00839Y01143D01*
X00825Y01149D02*
X00839Y01143D01*
X00782Y01205D02*
X00804Y0121D01*
X00776Y0121D02*
X00782Y01205D01*
X00773Y0122D02*
X00776Y0121D01*
X00773Y0122D02*
X00778Y01227D01*
X00794Y01231D02*
X00799Y01232D01*
X00806Y01228*
X00808Y01217*
X00804Y0121D02*
X00808Y01217D01*
X00789Y01224D02*
X00793Y01208D01*
X00789Y01224D02*
X00794Y01231D01*
X00763Y0131D02*
X00768Y01316D01*
X00757Y0131D02*
X00763Y0131D01*
X00751Y01315D02*
X00757Y0131D01*
X00751Y01326D02*
X00751Y01315D01*
X00751Y01326D02*
X00756Y01332D01*
X00761Y01332*
X00767Y01327*
X00772Y01333*
X00767Y01327D02*
X00768Y01316D01*
X00774Y01311*
X00779Y01311*
X00784Y01317*
X00784Y01328D02*
X00784Y01317D01*
X00778Y01333D02*
X00784Y01328D01*
X00772Y01333D02*
X00778Y01333D01*
X0076Y01548D02*
X00765Y01547D01*
X0078Y0152*
X00786Y01518*
X00791Y01539*
X00811Y0163D02*
X00811Y01618D01*
X00805Y01645D02*
X00811Y0163D01*
X00795Y01649D02*
X00805Y01645D01*
X00788Y01647D02*
X00795Y01649D01*
X00783Y01637D02*
X00788Y01647D01*
X00783Y01637D02*
X00786Y01629D01*
X00791Y01627*
X00798Y0163*
X00805Y01645*
X00853Y01713D02*
X00865Y01732D01*
X00851Y01741D02*
X00865Y01732D01*
X00835Y01745D02*
X00842Y01747D01*
X00828Y01736D02*
X00835Y01745D01*
X00828Y01736D02*
X0083Y01729D01*
X00839Y01722*
X00847Y01724*
X0085Y01729*
X00851Y01741*
X00912Y01827D02*
X00913Y01804D01*
X00888Y01826D02*
X00913Y01804D01*
X00897Y01811D02*
X00912Y01827D01*
X00992Y01887D02*
X00993Y01894D01*
X00983Y0188D02*
X00992Y01887D01*
X00975Y01881D02*
X00983Y0188D01*
X00972Y01885D02*
X00975Y01881D01*
X00972Y01885D02*
X00973Y01893D01*
X00978Y01897*
X00965Y01894D02*
X00973Y01893D01*
X00962Y01899D02*
X00965Y01894D01*
X00962Y01899D02*
X00963Y01906D01*
X00972Y01913*
X0098Y01912*
X01045Y0197D02*
X01064Y01981D01*
X01075Y01949D02*
X01077Y01956D01*
X01065Y01944D02*
X01075Y01949D01*
X01058Y01946D02*
X01065Y01944D01*
X01055Y01951D02*
X01058Y01946D01*
X01055Y01951D02*
X01064Y01981D01*
X0114Y02022D02*
X01161Y02029D01*
X01151Y02026D02*
X01161Y01995D01*
X01168Y02009*
X01248Y02031D02*
X01254Y02027D01*
X01265Y02029*
X0127Y02035*
X01266Y02057D02*
X0127Y02035D01*
X01249Y02059D02*
X0126Y02061D01*
X01244Y02053D02*
X01249Y02059D01*
X01244Y02053D02*
X01248Y02031D01*
X01266Y02057*
X0126Y02061D02*
X01266Y02057D01*
G54D13*
X01263Y0164D02*
X01269Y01655D01*
X01278Y01638*
X01263Y0164D02*
X01278Y01638D01*
X01265Y01641D02*
X01273Y01646D01*
X01281Y01651*
X01289Y01656*
X01298Y0166*
X01306Y01664*
X01315Y01667*
X01324Y0167*
X01333Y01673*
X01342Y01675*
X01351Y01677*
X01361Y01679*
X0137Y0168*
X01379Y01681*
X01389Y01682*
X01398Y01682*
X01408Y01681*
G54D14*
X01294Y01215D02*
X01304D01*
X01314D02*
X01314Y01211D01*
X01314Y01207*
X01315Y01204*
X01317Y012*
X01318Y01196*
X0132Y01193*
X01323Y0119*
X01325Y01187*
X01328Y01184*
X01332Y01182*
X01335Y0118*
X01339Y01178*
X01342Y01177*
X01346Y01176*
X0135Y01176*
X01354Y01176*
X01358Y01176*
X01362Y01177*
X01365Y01178*
X01369Y01179*
X01373Y01181*
X01376Y01183*
X01379Y01186*
X01382Y01188*
X01384Y01191*
X01387Y01195*
X01388Y01198*
X0139Y01202*
X01391Y01205*
X01392Y01209*
X01392Y01213*
Y01217*
X01392Y01221D02*
X01392Y01217D01*
X01391Y01225D02*
X01392Y01221D01*
X0139Y01229D02*
X01391Y01225D01*
X01388Y01232D02*
X0139Y01229D01*
X01387Y01236D02*
X01388Y01232D01*
X01384Y01239D02*
X01387Y01236D01*
X01382Y01242D02*
X01384Y01239D01*
X01379Y01245D02*
X01382Y01242D01*
X01376Y01247D02*
X01379Y01245D01*
X01373Y01249D02*
X01376Y01247D01*
X01369Y01251D02*
X01373Y01249D01*
X01365Y01252D02*
X01369Y01251D01*
X01362Y01254D02*
X01365Y01252D01*
X01358Y01254D02*
X01362Y01254D01*
X01354Y01255D02*
X01358Y01254D01*
X0135Y01254D02*
X01354Y01255D01*
X01346Y01254D02*
X0135Y01254D01*
X01342Y01253D02*
X01346Y01254D01*
X01339Y01252D02*
X01342Y01253D01*
X01335Y0125D02*
X01339Y01252D01*
X01332Y01248D02*
X01335Y0125D01*
X01328Y01246D02*
X01332Y01248D01*
X01325Y01243D02*
X01328Y01246D01*
X01323Y0124D02*
X01325Y01243D01*
X0132Y01237D02*
X01323Y0124D01*
X01318Y01234D02*
X0132Y01237D01*
X01317Y0123D02*
X01318Y01234D01*
X01315Y01227D02*
X01317Y0123D01*
X01314Y01223D02*
X01315Y01227D01*
X01314Y01219D02*
X01314Y01223D01*
X01314Y01215D02*
X01314Y01219D01*
X01353Y01284D02*
Y01294D01*
Y01274D02*
Y01284D01*
X01412*
Y01274D02*
Y01284D01*
Y01294*
Y01702D02*
Y01765D01*
X0151Y0158D02*
X01521Y01572D01*
X0151Y0158D02*
X0152Y01581D01*
X0151Y0158D02*
X01512Y0157D01*
X01432Y01609D02*
X01432Y01605D01*
X01433Y01601*
X01434Y01597*
X01435Y01594*
X01437Y0159*
X01439Y01587*
X01441Y01584*
X01444Y01581*
X01447Y01578*
X0145Y01576*
X01453Y01574*
X01457Y01572*
X0146Y01571*
X01464Y0157*
X01468Y0157*
X01472Y01569*
X01476Y0157*
X0148Y0157*
X01484Y01572*
X01487Y01573*
X01491Y01575*
X01494Y01577*
X01497Y01579*
X015Y01582*
X01503Y01585*
X01505Y01588*
X01507Y01592*
X01508Y01595*
X01509Y01599*
X0151Y01603*
X01511Y01607*
Y01611*
X0151Y01615D02*
X01511Y01611D01*
X01509Y01619D02*
X0151Y01615D01*
X01508Y01622D02*
X01509Y01619D01*
X01507Y01626D02*
X01508Y01622D01*
X01505Y01629D02*
X01507Y01626D01*
X01503Y01633D02*
X01505Y01629D01*
X015Y01636D02*
X01503Y01633D01*
X01497Y01638D02*
X015Y01636D01*
X01494Y01641D02*
X01497Y01638D01*
X01491Y01643D02*
X01494Y01641D01*
X01487Y01645D02*
X01491Y01643D01*
X01484Y01646D02*
X01487Y01645D01*
X0148Y01647D02*
X01484Y01646D01*
X01476Y01648D02*
X0148Y01647D01*
X01472Y01648D02*
X01476Y01648D01*
X01468Y01648D02*
X01472Y01648D01*
X01464Y01648D02*
X01468Y01648D01*
X0146Y01647D02*
X01464Y01648D01*
X01457Y01646D02*
X0146Y01647D01*
X01453Y01644D02*
X01457Y01646D01*
X0145Y01642D02*
X01453Y01644D01*
X01447Y0164D02*
X0145Y01642D01*
X01444Y01637D02*
X01447Y0164D01*
X01441Y01634D02*
X01444Y01637D01*
X01439Y01631D02*
X01441Y01634D01*
X01437Y01628D02*
X01439Y01631D01*
X01435Y01624D02*
X01437Y01628D01*
X01434Y0162D02*
X01435Y01624D01*
X01433Y01617D02*
X01434Y0162D01*
X01432Y01613D02*
X01433Y01617D01*
X01432Y01609D02*
X01432Y01613D01*
X01412Y01599D02*
Y01662D01*
X01431Y01648D02*
X01432Y01638D01*
X01422Y01636D02*
X01432Y01638D01*
X0141Y01654D02*
X01432Y01638D01*
X01226Y01685D02*
X01256Y01641D01*
X01278Y01609D02*
X01308Y01565D01*
X0133Y01532D02*
X0136Y01488D01*
X01358Y01412D02*
X01358Y01407D01*
X01358Y01403*
X01359Y01398*
X01361Y01394*
X01362Y0139*
X01365Y01386*
X01367Y01382*
X0137Y01378*
X01373Y01374*
X01376Y01371*
X0138Y01368*
X01384Y01366*
X01388Y01363*
X01392Y01362*
X01396Y0136*
X01401Y01359*
X01405Y01358*
X0141Y01358*
X01414*
X01419Y01358*
X01424Y01359*
X01428Y0136*
X01432Y01362*
X01437Y01363*
X01441Y01366*
X01444Y01368*
X01448Y01371*
X01451Y01374*
X01454Y01378*
X01457Y01382*
X0146Y01386*
X01462Y0139*
X01463Y01394*
X01465Y01398*
X01466Y01403*
X01466Y01407*
X01466Y01412*
X01466Y01417D02*
X01466Y01412D01*
X01466Y01421D02*
X01466Y01417D01*
X01465Y01426D02*
X01466Y01421D01*
X01463Y0143D02*
X01465Y01426D01*
X01462Y01434D02*
X01463Y0143D01*
X0146Y01439D02*
X01462Y01434D01*
X01457Y01443D02*
X0146Y01439D01*
X01454Y01446D02*
X01457Y01443D01*
X01451Y0145D02*
X01454Y01446D01*
X01448Y01453D02*
X01451Y0145D01*
X01444Y01456D02*
X01448Y01453D01*
X01441Y01458D02*
X01444Y01456D01*
X01437Y01461D02*
X01441Y01458D01*
X01432Y01463D02*
X01437Y01461D01*
X01428Y01464D02*
X01432Y01463D01*
X01424Y01465D02*
X01428Y01464D01*
X01419Y01466D02*
X01424Y01465D01*
X01414Y01466D02*
X01419Y01466D01*
X0141Y01466D02*
X01414D01*
X01405Y01466D02*
X0141Y01466D01*
X01401Y01465D02*
X01405Y01466D01*
X01396Y01464D02*
X01401Y01465D01*
X01392Y01463D02*
X01396Y01464D01*
X01388Y01461D02*
X01392Y01463D01*
X01384Y01458D02*
X01388Y01461D01*
X0138Y01456D02*
X01384Y01458D01*
X01376Y01453D02*
X0138Y01456D01*
X01373Y0145D02*
X01376Y01453D01*
X0137Y01446D02*
X01373Y0145D01*
X01367Y01443D02*
X0137Y01446D01*
X01365Y01439D02*
X01367Y01443D01*
X01362Y01434D02*
X01365Y01439D01*
X01361Y0143D02*
X01362Y01434D01*
X01359Y01426D02*
X01361Y0143D01*
X01358Y01421D02*
X01359Y01426D01*
X01358Y01417D02*
X01358Y01421D01*
X01358Y01412D02*
X01358Y01417D01*
X01382Y01456D02*
X01412Y01412D01*
X01294D02*
X01304D01*
X01284D02*
X01294D01*
Y01215D02*
Y01412D01*
X01284Y01215D02*
X01294D01*
X00886Y0091D02*
X00888Y00916D01*
X00861Y00892D02*
X00889Y00964D01*
X00812Y01002D02*
X00815Y01007D01*
X00784Y00988D02*
X00823Y01054D01*
X00753Y01105D02*
X00757Y0111D01*
X00723Y01096D02*
X00773Y01155D01*
X00712Y01217D02*
X00716Y01221D01*
X00681Y01213D02*
X00739Y01263D01*
X0069Y01333D02*
X00694Y01336D01*
X00658Y01334D02*
X00724Y01374D01*
X00702Y01569D02*
X00708Y0157D01*
X00673Y0158D02*
X00748Y01597D01*
X00737Y01681D02*
X00743Y01682D01*
X0071Y01697D02*
X00787Y01701D01*
X0079Y01788D02*
X00796Y01788D01*
X00766Y01808D02*
X00842Y018D01*
X00859Y01884D02*
X00865Y01882D01*
X00838Y01907D02*
X00913Y01887D01*
X00943Y01968D02*
X00949Y01965D01*
X00927Y01994D02*
X00997Y01962D01*
X0104Y02037D02*
X01045Y02034D01*
X01028Y02065D02*
X01092Y02022D01*
X01146Y02089D02*
X01151Y02085D01*
X01139Y02119D02*
X01195Y02066D01*
X0126Y02123D02*
X01264Y02118D01*
X01258Y02154D02*
X01305Y02093D01*
X01455Y02085D02*
X01477Y02052D01*
X01451Y02082D02*
X01455Y02085D01*
X01426Y02074D02*
X01426Y02072D01*
X01427Y0207*
X01427Y02068*
X01429Y02067*
X0143Y02066*
X01432Y02065*
X01434Y02065*
X01436*
X01437Y02065*
X01439Y02066*
X01441Y02067*
X01442Y02068*
X01443Y0207*
X01443Y02072*
X01444Y02074*
X01443Y02075D02*
X01444Y02074D01*
X01443Y02077D02*
X01443Y02075D01*
X01442Y02079D02*
X01443Y02077D01*
X01441Y0208D02*
X01442Y02079D01*
X01439Y02081D02*
X01441Y0208D01*
X01437Y02082D02*
X01439Y02081D01*
X01436Y02082D02*
X01437Y02082D01*
X01434Y02082D02*
X01436D01*
X01432Y02082D02*
X01434Y02082D01*
X0143Y02081D02*
X01432Y02082D01*
X01429Y0208D02*
X0143Y02081D01*
X01427Y02079D02*
X01429Y0208D01*
X01427Y02077D02*
X01427Y02079D01*
X01426Y02075D02*
X01427Y02077D01*
X01426Y02074D02*
X01426Y02075D01*
X00972Y01759D02*
X01422Y02062D01*
X00972Y01759D02*
X00994Y01726D01*
X01477Y02052*
X00992Y01701D02*
X01501Y02044D01*
X00948Y01766D02*
X00992Y01701D01*
X00948Y01766D02*
X01457Y0211D01*
X01501Y02044*
X01519Y02093D02*
X01566Y02154D01*
X0156Y02118D02*
X01564Y02123D01*
X01629Y02066D02*
X01685Y02119D01*
X01674Y02085D02*
X01678Y02089D01*
X01732Y02022D02*
X01796Y02065D01*
X01779Y02034D02*
X01784Y02037D01*
X01827Y01962D02*
X01897Y01994D01*
X01875Y01965D02*
X01881Y01968D01*
X01912Y01887D02*
X01986Y01907D01*
X0196Y01882D02*
X01965Y01884D01*
X01982Y018D02*
X02058Y01808D01*
X02028Y01788D02*
X02034Y01788D01*
X02037Y01701D02*
X02114Y01697D01*
X02081Y01682D02*
X02087Y01681D01*
X02076Y01597D02*
X02151Y0158D01*
X02116Y0157D02*
X02122Y01569D01*
X021Y01374D02*
X02166Y01334D01*
X0213Y01336D02*
X02135Y01333D01*
X02085Y01263D02*
X02143Y01213D01*
X02108Y01221D02*
X02112Y01217D01*
X02051Y01155D02*
X02101Y01096D01*
X02068Y0111D02*
X02071Y01105D01*
X02001Y01054D02*
X0204Y00988D01*
X02009Y01007D02*
X02012Y01002D01*
X01935Y00964D02*
X01963Y00892D01*
X01936Y00916D02*
X01938Y0091D01*
X01855Y00884D02*
X01871Y00809D01*
X01848Y00837D02*
X01849Y00831D01*
X01764Y0082D02*
X01768Y00743D01*
X01749Y00768D02*
Y00774D01*
X01653Y00694D02*
X01663Y0077D01*
X0164Y00722D02*
X01641Y00727D01*
X01347Y00772D02*
X01369Y0074D01*
X01373Y00742*
X01381Y00751D02*
X01381Y00749D01*
X01381Y00747*
X01382Y00745*
X01383Y00744*
X01385Y00743*
X01387Y00742*
X01389Y00742*
X0139*
X01392Y00742*
X01394Y00743*
X01395Y00744*
X01397Y00745*
X01398Y00747*
X01398Y00749*
X01398Y00751*
X01398Y00752D02*
X01398Y00751D01*
X01398Y00754D02*
X01398Y00752D01*
X01397Y00756D02*
X01398Y00754D01*
X01395Y00757D02*
X01397Y00756D01*
X01394Y00758D02*
X01395Y00757D01*
X01392Y00759D02*
X01394Y00758D01*
X0139Y00759D02*
X01392Y00759D01*
X01389Y00759D02*
X0139D01*
X01387Y00759D02*
X01389Y00759D01*
X01385Y00758D02*
X01387Y00759D01*
X01383Y00757D02*
X01385Y00758D01*
X01382Y00756D02*
X01383Y00757D01*
X01381Y00754D02*
X01382Y00756D01*
X01381Y00752D02*
X01381Y00754D01*
X01381Y00751D02*
X01381Y00752D01*
X01402Y00762D02*
X01853Y01065D01*
X01831Y01098D02*
X01853Y01065D01*
X01347Y00772D02*
X01831Y01098D01*
X01323Y0078D02*
X01367Y00714D01*
X01877Y01058*
X01833Y01123D02*
X01877Y01058D01*
X01323Y0078D02*
X01833Y01123D01*
X01184Y00727D02*
X01185Y00722D01*
X01161Y0077D02*
X01171Y00694D01*
X01075Y00774D02*
X01075Y00768D01*
X01057Y00743D02*
X0106Y0082D01*
X00975Y00831D02*
X00976Y00837D01*
X00953Y00809D02*
X00969Y00884D01*
G54D15*
X01484Y02109D02*
X01489Y02116D01*
X01473Y02116D02*
X01484Y0213D01*
X01516Y02158D02*
X0153Y02148D01*
X01519Y02156D02*
X0153Y02169D01*
X01526Y02172D02*
X0154Y02162D01*
X01514Y0217D02*
X01526Y02172D01*
X01514Y0217D02*
X01516Y02158D01*
X01499Y0215D02*
X01505Y02151D01*
X01494Y02143D02*
X01499Y0215D01*
X01494Y02143D02*
X01495Y02137D01*
X01498Y02135*
X01504Y02136*
X01509Y02143*
X01516Y02143*
X01519Y02141*
X0152Y02135*
X01515Y02128D02*
X0152Y02135D01*
X01509Y02127D02*
X01515Y02128D01*
X01494Y02101D02*
X01505Y02115D01*
X01473Y02116D02*
X01494Y02101D01*
X01389Y02153D02*
X01393Y02149D01*
X0138Y02153D02*
X01389D01*
X01376Y02149D02*
X0138Y02153D01*
X01376Y02132D02*
Y02149D01*
X01384Y0214D02*
X01393D01*
Y02132D02*
Y0214D01*
X01389Y02127D02*
X01393Y02132D01*
X0138Y02127D02*
X01389D01*
X01376Y02132D02*
X0138Y02127D01*
X01325Y02136D02*
X01334Y02127D01*
X01317Y02136D02*
X0133D01*
X01334Y0214*
Y02149*
X0133Y02153D02*
X01334Y02149D01*
X01317Y02153D02*
X0133D01*
X01317Y02127D02*
Y02153D01*
X00733Y01425D02*
X00742D01*
Y01416D02*
Y01425D01*
X00738Y01412D02*
X00742Y01416D01*
X00729Y01412D02*
X00738D01*
X00725Y01416D02*
X00729Y01412D01*
X00725Y01416D02*
Y01434D01*
X00729Y01438*
X00738*
X00742Y01434*
X00794Y01449D02*
X00798Y01453D01*
X00785Y01449D02*
X00794D01*
X00781Y01453D02*
X00785Y01449D01*
X00781Y01453D02*
Y01471D01*
X00785Y01475*
X00794*
X00798Y01471*
X00823Y01475D02*
X00828Y01471D01*
X00815Y01475D02*
X00823D01*
X0081Y01471D02*
X00815Y01475D01*
X0081Y01453D02*
Y01471D01*
X00828Y01453D02*
Y01471D01*
X0081Y01453D02*
X00828Y01471D01*
X0081Y01453D02*
X00815Y01449D01*
X00823*
X00828Y01453*
X0084Y01449D02*
Y01466D01*
X00848Y01475*
X0084Y01462D02*
X00857D01*
Y01449D02*
Y01466D01*
X00848Y01475D02*
X00857Y01466D01*
X00862Y01639D02*
X00866Y01656D01*
X00862Y01657D02*
X00879Y01653D01*
X00851Y01651D02*
X00862Y01657D01*
X00851Y01651D02*
X00857Y0164D01*
X00874Y01636*
X00855Y0158D02*
X0086Y01583D01*
X00838Y01584D02*
X00855Y0158D01*
X00835Y0159D02*
X00838Y01584D01*
X00835Y0159D02*
X00837Y01598D01*
X00843Y01601*
X00844Y01622D02*
X0085Y01612D01*
X00844Y01622D02*
X00869Y01616D01*
X00867Y01607D02*
X00871Y01624D01*
X00859Y01597D02*
X00862Y01591D01*
X0086Y01583D02*
X00862Y01591D01*
X00896Y01539D02*
Y01556D01*
X00905Y01565D02*
X00913Y01556D01*
X00896D02*
X00905Y01565D01*
X00896Y01552D02*
X00913D01*
Y01539D02*
Y01556D01*
X00925Y01539D02*
Y01565D01*
X00943Y01539*
Y01565*
X00955Y01539D02*
Y01556D01*
X00963Y01565*
X00955Y01552D02*
X00972D01*
Y01539D02*
Y01556D01*
X00963Y01565D02*
X00972Y01556D01*
X00974Y01602D02*
X00983D01*
Y01593D02*
Y01602D01*
X00978Y01589D02*
X00983Y01593D01*
X0097Y01589D02*
X00978D01*
X00965Y01593D02*
X0097Y01589D01*
X00965Y01593D02*
Y01611D01*
X0097Y01615*
X00978*
X00983Y01611*
X01276Y01803D02*
X01291Y01813D01*
X01274Y01807D02*
X01284Y01792D01*
X01274Y01807D02*
X01276Y01819D01*
X01288Y01816*
X01298Y01802*
X01318Y01799D02*
X01333Y01777D01*
X01328Y01805D02*
X01343Y01784D01*
X01328Y01805D02*
X01343Y01815D01*
X0136Y01811D02*
X01374Y01821D01*
X01377Y01838D02*
X01392Y01817D01*
X01377Y01838D02*
X01388Y01846D01*
X01394Y01844*
X01404Y0183*
X01402Y01824D02*
X01404Y0183D01*
X01392Y01817D02*
X01402Y01824D01*
X01372Y01824D02*
X01382Y0181D01*
X0136Y01827D02*
X01372Y01824D01*
X01357Y01815D02*
X0136Y01827D01*
X01357Y01815D02*
X01367Y018D01*
X01343Y01784D02*
X01357Y01794D01*
X01335Y01795D02*
X01343Y01799D01*
X01311Y01778D02*
X01325Y01788D01*
X01304Y01789D02*
X01318Y01767D01*
X0129Y0178D02*
X01296Y01779D01*
X01283Y01775D02*
X0129Y0178D01*
X01282Y01769D02*
X01283Y01775D01*
X01282Y01769D02*
X01291Y01755D01*
X01297Y01753*
X01305Y01758*
X01306Y01764*
X01296Y01779D02*
X01306Y01764D01*
X01291Y01755D02*
X01296Y01779D01*
X01266Y01763D02*
X0128Y01742D01*
X01262Y01745D02*
X01266Y01763D01*
X01262Y01745D02*
X01277Y01755D01*
X01223Y01729D02*
X01233Y01715D01*
X01231Y01709D02*
X01233Y01715D01*
X01221Y01701D02*
X01231Y01709D01*
X01206Y01723D02*
X01221Y01701D01*
X01206Y01723D02*
X01217Y0173D01*
X01223Y01729*
X01238Y01729D02*
X01245Y01734D01*
X0123Y0174D02*
X01245Y01749D01*
X0123Y0174D02*
X01245Y01718D01*
X0131Y01645D02*
X01313Y0165D01*
X01322Y01652*
X01327Y01649*
X01328Y01645*
X01325Y01639D02*
X01328Y01645D01*
X0133Y01636D02*
X01331Y01632D01*
X01325Y01639D02*
X0133Y01636D01*
X01321Y01638D02*
X01325Y01639D01*
X01314Y01628D02*
X01319Y01625D01*
X01328Y01627*
X01331Y01632*
X0135Y01659D02*
X01357Y01634D01*
X01341Y01643D02*
X0135Y01659D01*
X01341Y01643D02*
X01358Y01647D01*
X01378Y01652D02*
X01381Y01657D01*
X0138Y01662D02*
X01381Y01657D01*
X01375Y01665D02*
X0138Y01662D01*
X01371Y01664D02*
X01375Y01665D01*
X01368Y01659D02*
X01371Y01664D01*
X01368Y01659D02*
X01369Y01654D01*
X01374Y01651*
X01378Y01652*
X0158Y01433D02*
Y01442D01*
X01576Y01429D02*
X0158Y01433D01*
X01567Y01429D02*
X01576D01*
X01563Y01433D02*
X01567Y01429D01*
X01563Y01433D02*
Y01442D01*
X01567Y01446*
X01576*
X0158Y01442*
X01592Y01429D02*
Y01446D01*
Y01437D02*
X01601Y01446D01*
X01605*
X02106Y01458D02*
X02111Y01454D01*
X02098Y01458D02*
X02106D01*
X02093Y01454D02*
X02098Y01458D01*
X02093Y01436D02*
Y01454D01*
X02102Y01445D02*
X02111D01*
Y01436D02*
Y01445D01*
X02106Y01432D02*
X02111Y01436D01*
X02098Y01432D02*
X02106D01*
X02093Y01436D02*
X02098Y01432D01*
X02019Y01374D02*
X02023Y01378D01*
X02019Y0142D02*
X02045D01*
X02032Y01433D02*
X02036Y01437D01*
X02041*
X02045Y01433*
Y0142D02*
Y01433D01*
X02032Y0142D02*
Y01433D01*
X02028Y01437D02*
X02032Y01433D01*
X02023Y01437D02*
X02028D01*
X02019Y01433D02*
X02023Y01437D01*
X02019Y0142D02*
Y01433D01*
Y01403D02*
X02023Y01408D01*
X02019Y01395D02*
Y01403D01*
Y01395D02*
X02023Y0139D01*
X02041*
X02045Y01395*
Y01403*
X02041Y01408D02*
X02045Y01403D01*
X02023Y01408D02*
X02041D01*
X02023D02*
X02041Y0139D01*
Y01378D02*
X02045Y01374D01*
Y01365D02*
Y01374D01*
X02041Y01361D02*
X02045Y01365D01*
X02023Y01361D02*
X02041D01*
X02019Y01365D02*
X02023Y01361D01*
X02019Y01365D02*
Y01374D01*
X0199Y01372D02*
X01995Y01375D01*
X01999Y01374*
X02003Y01368*
X01999Y01356D02*
X02003Y01368D01*
X01974Y01363D02*
X01999Y01356D01*
X01987Y01359D02*
X0199Y01372D01*
X01987Y01377D02*
X0199Y01372D01*
X01983Y01378D02*
X01987Y01377D01*
X01977Y01375D02*
X01983Y01378D01*
X01974Y01363D02*
X01977Y01375D01*
X0196Y0131D02*
X01963Y01304D01*
X0196Y0131D02*
X01962Y01318D01*
X01968Y01321*
X01969Y01342D02*
X01975Y01332D01*
X01969Y01342D02*
X01994Y01336D01*
X01992Y01327D02*
X01996Y01344D01*
X01984Y01317D02*
X01987Y01311D01*
X01985Y01303D02*
X01987Y01311D01*
X0198Y013D02*
X01985Y01303D01*
X01963Y01304D02*
X0198Y013D01*
X01916Y01187D02*
X01933D01*
X01975Y01174D02*
Y012D01*
X01988Y01187D02*
X01992Y01183D01*
Y01178D02*
Y01183D01*
X01988Y01174D02*
X01992Y01178D01*
X01975Y01174D02*
X01988D01*
X01975Y01187D02*
X01988D01*
X01992Y01191*
Y01196*
X01988Y012D02*
X01992Y01196D01*
X01975Y012D02*
X01988D01*
X01963Y01174D02*
Y012D01*
X01945D02*
X01963Y01174D01*
X01945D02*
Y012D01*
X01933Y01174D02*
Y01191D01*
X01925Y012D02*
X01933Y01191D01*
X01916D02*
X01925Y012D01*
X01916Y01174D02*
Y01191D01*
X01893Y01165D02*
X01898Y01161D01*
X01885Y01165D02*
X01893D01*
X0188Y01161D02*
X01885Y01165D01*
X0188Y01143D02*
Y01161D01*
X01889Y01152D02*
X01898D01*
Y01143D02*
Y01152D01*
X01893Y01139D02*
X01898Y01143D01*
X01885Y01139D02*
X01893D01*
X0188Y01143D02*
X01885Y01139D01*
X01519Y01041D02*
X0152Y01047D01*
X01518Y01051D02*
X0152Y01047D01*
X01512Y01052D02*
X01518Y01051D01*
X01501Y01045D02*
X01512Y01052D01*
X01513Y01058*
X0151Y01062D02*
X01513Y01058D01*
X01504Y01063D02*
X0151Y01062D01*
X01494Y01056D02*
X01504Y01063D01*
X01494Y01056D02*
X01508Y01034D01*
X01519Y01041*
X01546Y01036D02*
X0156Y01014D01*
X01556Y01042D02*
X0157Y01021D01*
X01556Y01042D02*
X0157Y01052D01*
X01588Y01048D02*
X01602Y01058D01*
X01605Y01075D02*
X01619Y01054D01*
X01605Y01075D02*
X01616Y01083D01*
X01622Y01081*
X01631Y01067*
X0163Y01061D02*
X01631Y01067D01*
X01619Y01054D02*
X0163Y01061D01*
X016Y01061D02*
X01609Y01047D01*
X01587Y01064D02*
X016Y01061D01*
X01585Y01052D02*
X01587Y01064D01*
X01585Y01052D02*
X01595Y01037D01*
X0157Y01021D02*
X01585Y0103D01*
X01563Y01031D02*
X0157Y01036D01*
X01539Y01015D02*
X01553Y01025D01*
X01531Y01026D02*
X01546Y01004D01*
X01524Y01015D02*
X01534Y01001D01*
X01532Y00995D02*
X01534Y01001D01*
X01525Y0099D02*
X01532Y00995D01*
X01519Y00991D02*
X01525Y0099D01*
X01519Y00991D02*
X01524Y01015D01*
X01518Y01017D02*
X01524Y01015D01*
X01511Y01012D02*
X01518Y01017D01*
X01509Y01006D02*
X01511Y01012D01*
X01509Y01006D02*
X01519Y00991D01*
X0149Y00982D02*
X01493Y01D01*
X01508Y00979*
X0149Y00982D02*
X01504Y00992D01*
X01465Y00966D02*
X01473Y0097D01*
X01458Y00976D02*
X01473Y00986D01*
X01458Y00976D02*
X01473Y00955D01*
X01434Y0096D02*
X01448Y00938D01*
X01434Y0096D02*
X01445Y00967D01*
X01451Y00966*
X0146Y00952*
X01459Y00946D02*
X0146Y00952D01*
X01448Y00938D02*
X01459Y00946D01*
X01283Y00664D02*
X01292Y00679D01*
X01294Y00657D02*
X01299Y00665D01*
X01443Y00674D02*
X01452Y00666D01*
X01435D02*
Y00692D01*
Y00674D02*
X01448D01*
X01452Y00679*
Y00687*
X01448Y00692D02*
X01452Y00687D01*
X01435Y00692D02*
X01448D01*
X01389D02*
X01393Y00687D01*
X0138Y00692D02*
X01389D01*
X01376Y00687D02*
X0138Y00692D01*
X01384Y00679D02*
X01393D01*
Y0067D02*
Y00679D01*
X01389Y00666D02*
X01393Y0067D01*
X0138Y00666D02*
X01389D01*
X01376Y0067D02*
X0138Y00666D01*
X01376Y0067D02*
Y00687D01*
X01336Y00701D02*
X01342Y00712D01*
X01341Y00718D02*
X01342Y00712D01*
X01337Y00721D02*
X01341Y00718D01*
X01331Y00719D02*
X01337Y00721D01*
X01313Y00715D02*
X01336Y00701D01*
X01324Y00708D02*
X01331Y00719D01*
X0133Y00725D02*
X01331Y00719D01*
X01326Y00727D02*
X0133Y00725D01*
X0132Y00726D02*
X01326Y00727D01*
X01313Y00715D02*
X0132Y00726D01*
X01305Y007D02*
X01311Y00702D01*
X013Y00693D02*
X01305Y007D01*
X013Y00693D02*
X01302Y00687D01*
X01306Y00685*
X01312Y00686*
X01316Y00694*
X01322Y00695*
X01326Y00693*
X01327Y00687*
X01323Y0068D02*
X01327Y00687D01*
X01317Y00678D02*
X01323Y0068D01*
X01305Y00651D02*
X01314Y00665D01*
X01283Y00664D02*
X01305Y00651D01*
M02*