%FSTAX23Y23*%
%MOIN*%
%SFA1B1*%

%IPPOS*%
%ADD9500C,0.007900*%
%ADD9501C,0.019700*%
%ADD9502C,0.050000*%
%ADD9503C,0.059000*%
%ADD9504C,0.089000*%
%LNaltium_eib_128_panel-1*%
%LPD*%
G54D9500*
X00852Y00887D03*
X00812Y00932D03*
X00772Y00987D03*
X00742Y01037D03*
X00712Y01092D03*
X00687Y01152D03*
X00672Y01212D03*
X00657Y01272D03*
X00897Y00842D03*
X00947Y00802D03*
X00992Y00767D03*
X01052Y00732D03*
X01107Y00707D03*
X01167Y00682D03*
X01222Y00667D03*
X01297Y00677D03*
X01322Y00707D03*
X01307Y00777D03*
X01297Y00832D03*
X01328Y00956D03*
X01308Y00981D03*
X01302Y01032D03*
X01327Y01077D03*
X01312Y01122D03*
X01322Y01162D03*
X01352Y01127D03*
X01351Y0095D03*
X01386Y00926D03*
X01415Y00911D03*
X01425Y00953D03*
X01394Y0097D03*
X01434Y00997D03*
X01464Y00979D03*
X01495Y00962D03*
X01503Y01006D03*
X01534Y00988D03*
X01543Y01032D03*
X01512Y01049D03*
X01551Y01076D03*
X01581Y0106D03*
X01611Y01043D03*
X01621Y01085D03*
X01652Y01068D03*
X0166Y01111D03*
X01629Y01129D03*
X01669Y01155D03*
X01699Y01138D03*
X01729Y01123D03*
X01738Y01164D03*
X01708Y01181D03*
X01772Y01217D03*
X01817Y01267D03*
X01867Y01277D03*
X01849Y01149D03*
X01829Y01135D03*
X01782Y01078D03*
X01764Y01058D03*
X01754Y01037D03*
X01743Y01015D03*
X01732Y00994D03*
X01722Y00972D03*
X01711Y00952D03*
X01665Y00963D03*
X01661Y00998D03*
X01622Y00971D03*
X01626Y00936D03*
X01631Y00902D03*
X01587Y0091D03*
X01591Y00875D03*
X01548Y00884D03*
X01543Y00919D03*
X01582Y00945D03*
X01573Y01015D03*
X0159Y01102D03*
X01691Y01094D03*
X0167Y00928D03*
X01552Y00849D03*
X01509Y00857D03*
X01504Y00892D03*
X01465Y00866D03*
X01469Y00831D03*
X01474Y00796D03*
X0143Y00804D03*
X01426Y00839D03*
X01403Y00826D03*
X01387Y00813D03*
X01391Y00778D03*
X01342Y00777D03*
X01332Y00747D03*
X01435Y00769D03*
X01513Y00822D03*
X01517Y00667D03*
X01602D03*
X01657Y00682D03*
X01717Y00707D03*
X01772Y00732D03*
X01832Y00767D03*
X01877Y00802D03*
X01927Y00842D03*
X01972Y00887D03*
X02012Y00932D03*
X02052Y00987D03*
X02082Y01037D03*
X02112Y01092D03*
X02137Y01152D03*
X02152Y01212D03*
X02167Y01272D03*
X01473Y01023D03*
X01456Y00936D03*
X01373Y00883D03*
X01407Y01282D03*
X01337Y01287D03*
X01357Y01337D03*
X01432D03*
X01467Y01487D03*
X01487Y01537D03*
X01417Y01542D03*
X01392Y01487D03*
X01502Y01662D03*
X01512Y01702D03*
X01472Y01697D03*
X01497Y01747D03*
X01522Y01792D03*
X01516Y01842D03*
X01496Y01868D03*
X01473Y01874D03*
X01438Y01898D03*
X01408Y01915D03*
X01399Y01871D03*
X0143Y01854D03*
X01391Y01828D03*
X0136Y01845D03*
X01351Y01801D03*
X01368Y01889D03*
X01359Y01958D03*
X01355Y01993D03*
X0135Y02028D03*
X01394Y0202D03*
X01398Y01985D03*
X01421Y01998D03*
X01438Y02011D03*
X01433Y02046D03*
X01482Y02047D03*
X01517D03*
X01492Y02077D03*
X01502Y02117D03*
X01517Y02157D03*
X01552D03*
X01627Y02147D03*
X01687Y02127D03*
X01747Y02102D03*
X01797Y02072D03*
X01852Y02042D03*
X01902Y02002D03*
X01947Y01962D03*
X01992Y01912D03*
X02032Y01862D03*
X02067Y01812D03*
X02097Y01757D03*
X02122Y01702D03*
X02142Y01642D03*
X02162Y01582D03*
X02172Y01527D03*
X02152Y01447D03*
X02157Y01377D03*
X02122Y01372D03*
X02082Y01367D03*
X02032Y01432D03*
X01997D03*
X01992Y01392D03*
X02062Y01472D03*
X01852Y01312D03*
X01527Y01992D03*
X0145Y0194D03*
X01389Y02055D03*
X01311Y02002D03*
X01315Y01968D03*
X0132Y01932D03*
X01276Y01941D03*
X01281Y01906D03*
X01237Y01914D03*
X01233Y01949D03*
X01272Y01975D03*
X01242Y01879D03*
X01198Y01888D03*
X01193Y01923D03*
X01154Y01896D03*
X01159Y01861D03*
X01163Y01826D03*
X01203Y01853D03*
X01212Y01783D03*
X01242Y01766D03*
X01273Y01748D03*
X01282Y01792D03*
X01312Y01775D03*
X01321Y01818D03*
X0129Y01836D03*
X01329Y01862D03*
X01251Y01809D03*
X01234Y01722D03*
X01203Y01739D03*
X01173Y01756D03*
X01164Y01713D03*
X01195Y01695D03*
X01156Y01669D03*
X01125Y01686D03*
X01094Y01704D03*
X01086Y0166D03*
X01116Y01643D03*
X01052Y01607D03*
X01007Y01557D03*
X00957Y01547D03*
X00972Y01512D03*
X00975Y01675D03*
X00995Y01694D03*
X01042Y01746D03*
X0106Y01766D03*
X01071Y01788D03*
X01081Y01809D03*
X01092Y01831D03*
X01102Y01852D03*
X01113Y01872D03*
X01133Y0173D03*
X01137Y02127D03*
X01197Y02147D03*
X01272Y02157D03*
X01307D03*
X01077Y02102D03*
X01027Y02072D03*
X00972Y02042D03*
X00922Y02002D03*
X00877Y01962D03*
X00832Y01912D03*
X00792Y01862D03*
X00757Y01812D03*
X00727Y01757D03*
X00702Y01702D03*
X00682Y01642D03*
X00662Y01582D03*
X00652Y01527D03*
X00667Y01447D03*
X00702Y01452D03*
X00742Y01457D03*
X00792Y01392D03*
X00832D03*
Y01432D03*
X00767Y01352D03*
X00672Y01377D03*
G54D9501*
X00889Y00878D03*
X00903Y00933D03*
X00846Y00923D03*
X00865Y00977D03*
X00809Y00969D03*
X00832Y01022D03*
X00774Y01022D03*
X00801Y01072D03*
X00745Y01073D03*
X00776Y01122D03*
X00719Y01131D03*
X00699Y01187D03*
X00754Y01176D03*
X00737Y01229D03*
X00683Y01247D03*
X00943Y00894D03*
X00933Y00838D03*
X00988Y00856D03*
X00983Y00799D03*
X01034Y00824D03*
X01033Y00767D03*
X01083Y00795D03*
X01088Y00738D03*
X01142Y00714D03*
X01134Y00771D03*
X01188Y0075D03*
X01242Y00734D03*
X0126Y0068D03*
X01202Y00694D03*
X01352Y00663D03*
X01409Y00657D03*
X01472Y00663D03*
X01564Y0068D03*
X01622Y00694D03*
X01636Y0075D03*
X01582Y00734D03*
X01682Y00714D03*
X01691Y00771D03*
X01741Y00795D03*
X01736Y00738D03*
X01791Y00767D03*
X01791Y00824D03*
X01841Y00799D03*
X01836Y00856D03*
X01891Y00838D03*
X01881Y00894D03*
X01935Y00878D03*
X01921Y00933D03*
X01978Y00923D03*
X01959Y00977D03*
X02015Y00969D03*
X01992Y01022D03*
X0205Y01022D03*
X02023Y01072D03*
X02079Y01073D03*
X02048Y01122D03*
X02105Y01131D03*
X02125Y01187D03*
X0207Y01176D03*
X02087Y01229D03*
X02141Y01247D03*
X01982Y01272D03*
X01932Y01232D03*
X01877Y01192D03*
X02032Y01322D03*
X02108Y01341D03*
X021Y01286D03*
X02152Y01305D03*
X02127Y01412D03*
X02156Y01489D03*
X02148Y01548D03*
X02094Y01568D03*
X02104Y01513D03*
X02134Y01609D03*
X02079Y01623D03*
X0206Y01676D03*
X02116Y01665D03*
X02092Y01724D03*
X02035Y01729D03*
X02008Y01778D03*
X02065Y01777D03*
X02033Y0183D03*
X01976Y01826D03*
X01998Y01878D03*
X01941Y01869D03*
X01956Y01925D03*
X01901Y01912D03*
X01914Y01967D03*
X01859Y0195D03*
X01865Y02007D03*
X01812Y01985D03*
X01816Y02041D03*
X01765Y02015D03*
X01763Y02073D03*
X01714Y02042D03*
X01709Y02098D03*
X01663Y02065D03*
X0165Y02121D03*
X01593Y02138D03*
X01607Y02083D03*
X01553Y02097D03*
X01472Y02161D03*
X01415Y02167D03*
X01353Y0216D03*
X01231Y02138D03*
X01217Y02083D03*
X01271Y02097D03*
X01174Y02121D03*
X01161Y02065D03*
X0111Y02042D03*
X01115Y02098D03*
X01061Y02073D03*
X01059Y02015D03*
X01008Y02041D03*
X01012Y01985D03*
X00959Y02007D03*
X00965Y0195D03*
X0091Y01967D03*
X00924Y01912D03*
X00868Y01925D03*
X00883Y01869D03*
X00827Y01878D03*
X00848Y01826D03*
X00792Y0183D03*
X00816Y01778D03*
X00759Y01777D03*
X00789Y01729D03*
X00732Y01724D03*
X00765Y01676D03*
X00708Y01665D03*
X0069Y01609D03*
X00746Y01623D03*
X0073Y01568D03*
X0072Y01513D03*
X00668Y01489D03*
X00677Y01548D03*
X00697Y01412D03*
X00717Y01341D03*
X00724Y01286D03*
X00672Y01305D03*
X00792Y01502D03*
X00842Y01552D03*
X00892Y01592D03*
X00947Y01632D03*
G54D9502*
X01331Y00906D03*
X01918Y01331D03*
X01493Y01918D03*
X00906Y01493D03*
G54D9503*
X01353Y01215D03*
X01471Y01609D03*
G54D9504*
X01412Y01412D03*
M02*